<svg width="20" height="6" viewBox="0 0 20 6" fill="none" xmlns="http://www.w3.org/2000/svg">
<path d="M-5.5 3.8002C-4.2 4.8002 -2.8 6.0002 0 6.0002C2.8 6.0002 4.2 4.8002 5.5 3.8002C6.6 2.8002 7.6 2.0002 9.7 2.0002C11.8 2.0002 12.7 2.8002 13.9 3.8002C15.2 4.8002 16.6 6.0002 19.4 6.0002C22.2 6.0002 23.6 4.8002 24.9 3.8002L23.5 2.9002C22.4 3.9002 21.4 4.7002 19.3 4.7002C17.2 4.7002 16.3 3.9002 15.1 2.9002C13.9 1.9002 12.4 0.700195 9.7 0.700195C6.9 0.700195 5.5 1.9002 4.2 2.9002C3 3.9002 2.1 4.7002 0 4.7002C-2.1 4.7002 -3 3.9002 -4.2 2.9002L-5.5 3.8002Z" fill="#0F06AF"/>
</svg>
