<?xml version="1.0" standalone="no"?>
<!DOCTYPE svg PUBLIC "-//W3C//DTD SVG 1.1//EN" "http://www.w3.org/Graphics/SVG/1.1/DTD/svg11.dtd" >
<svg xmlns="http://www.w3.org/2000/svg" xmlns:xlink="http://www.w3.org/1999/xlink" version="1.1">
<metadata>
Created by FontForge 20190801 at Thu Jul 26 01:15:09 2012
 By root
Copyright (c) 2005-2012 FONTRIX. All Rights Reserved.
</metadata>
<defs>
<font id="YouandiModernHR" horiz-adv-x="900" >
  <font-face 
    font-family="YouandiModern HeadRegular"
    font-weight="400"
    font-stretch="normal"
    units-per-em="1000"
    panose-1="2 2 6 3 2 1 1 2 1 1"
    ascent="800"
    descent="-200"
    x-height="521"
    cap-height="675"
    bbox="-73 -293 1021.44 817"
    underline-thickness="25"
    underline-position="-212"
    unicode-range="U+0020-FFE6"
  />
<missing-glyph horiz-adv-x="800" 
d="M700 -100v800h-600v-800h600zM150 650h500v-700h-500v700z" />
    <glyph glyph-name=".notdef" horiz-adv-x="800" 
d="M700 -100v800h-600v-800h600zM150 650h500v-700h-500v700z" />
    <glyph glyph-name="space" unicode=" " horiz-adv-x="320" 
 />
    <glyph glyph-name="exclam" unicode="!" horiz-adv-x="286" 
d="M190 674q0 17 -17 17h-51q-16 0 -16 -17l12 -487q0 -17 17 -17h25q17 0 17 17zM185 34q0 18 -17 18h-41q-16 0 -16 -18v-44q0 -17 16 -17h41q17 0 17 17v44z" />
    <glyph glyph-name="quotedbl" unicode="&#x22;" horiz-adv-x="412" 
d="M348 740q0 18 -19 18h-46q-17 0 -17 -18v-247q0 -18 17 -18h46q19 0 19 18v247zM151 740q0 18 -21 18h-43q-19 0 -19 -18v-247q0 -18 19 -18h43q21 0 21 18v247z" />
    <glyph glyph-name="numbersign" unicode="#" horiz-adv-x="816" 
d="M764 447q5 17 -14 17h-133q-18 0 -14 17l53 193q5 17 -14 17h-36q-16 0 -21 -17l-52 -193q-4 -17 -21 -17h-123q-17 0 -13 17l52 193q5 17 -15 17h-36q-15 0 -20 -17l-52 -193q-4 -17 -23 -17h-131q-15 0 -21 -17l-9 -26q-6 -17 14 -17h133q14 0 12 -17l-34 -125
q-6 -17 -21 -17h-132q-19 0 -24 -17l-8 -27q-4 -17 13 -17h132q20 0 15 -17l-50 -182q-6 -17 12 -17h35q17 0 23 17l51 182q5 17 22 17h121q19 0 14 -17l-50 -182q-4 -17 14 -17h36q17 0 21 17l49 182q4 17 23 17h132q15 0 21 17l9 27q4 17 -14 17h-132q-19 0 -13 17l34 125
q5 17 21 17h132q19 0 24 17zM475 261q-5 -17 -22 -17h-124q-20 0 -15 17l36 127q3 17 21 17h126q19 0 14 -17z" />
    <glyph glyph-name="dollar" unicode="$" horiz-adv-x="631" 
d="M168 367q-16 0 -16 16v227q0 16 16 16h100q18 0 18 -17v-223q0 -19 -18 -19h-100zM109 31q-16 0 -16 -17v-30q0 -17 16 -17h159q18 0 18 -17v-91q0 -17 18 -17h38q17 0 17 17v91q0 17 17 17h33q27 0 49 11l68 39q43 26 43 79v145q0 126 -124 126h-69q-17 0 -17 19v223
q0 17 17 17h148q16 0 16 17v30q0 17 -16 17h-148q-17 0 -17 19v90q0 18 -17 18h-38q-18 0 -18 -18v-90q0 -19 -18 -19h-33q-27 0 -49 -11l-68 -39q-43 -26 -43 -79v-132q0 -126 124 -126h69q18 0 18 -17v-236q0 -19 -18 -19h-159zM376 31q-17 0 -17 19v236q0 17 17 17h100
q16 0 16 -16v-240q0 -16 -16 -16h-100z" />
    <glyph glyph-name="percent" unicode="%" horiz-adv-x="971" 
d="M832 744q12 14 -7 14h-56q-18 0 -27 -14l-581 -828q-10 -14 6 -14h56q18 0 28 14zM109 391q49 -46 126 -46t126 46q53 49 53 134t-53 134q-49 46 -126 46t-126 -46q-53 -49 -53 -134t53 -134zM159 612q29 30 76 30t76 -30q31 -32 31 -87t-31 -87q-29 -30 -76 -30t-76 30
q-31 32 -31 87t31 87zM631 0q49 -46 126 -46t126 46q53 49 53 134t-53 134q-49 46 -126 46t-126 -46q-53 -49 -53 -134t53 -134zM681 221q29 30 76 30t76 -30q31 -32 31 -87t-31 -87q-29 -30 -76 -30t-76 30q-31 32 -31 87t31 87z" />
    <glyph glyph-name="ampersand" unicode="&#x26;" horiz-adv-x="635" 
d="M197 389q-19 0 -19 19v149q0 70 71 70h121q16 0 16 -16v-152q0 -70 -71 -70h-118zM350 337q-9 14 6 22l49 33q58 33 58 94v79q0 126 -124 126h-39q-27 0 -49 -11l-93 -55q-57 -32 -57 -94v-104q2 -63 31 -83q14 -10 14 -19q0 -7 -12 -17q-44 -35 -44 -99v-115
q0 -126 124 -126h164q23 0 38 17l63 72q8 9 15 0l64 -78q11 -11 28 -11h57q7 0 9 5q1 5 -5 10l-106 124q-7 10 0 20l91 101q13 15 -5 15h-56q-15 0 -24 -12l-49 -57q-7 -9 -15 0zM257 323q15 0 24 -9l155 -186q9 -12 0 -24l-57 -62q-10 -10 -25 -10h-171q-16 0 -16 16v207
q0 31 16 50q14 18 37 18h37z" />
    <glyph glyph-name="quotesingle" unicode="'" horiz-adv-x="216" 
d="M155 740q0 18 -21 18h-43q-19 0 -19 -18v-247q0 -18 19 -18h43q21 0 21 18v247z" />
    <glyph glyph-name="parenleft" unicode="(" horiz-adv-x="361" 
d="M198 324q0 248 151 457q9 12 -6 12h-23q-17 0 -27 -10q-186 -206 -186 -459q0 -256 186 -460q10 -10 27 -10h23q15 0 6 11q-151 209 -151 459z" />
    <glyph glyph-name="parenright" unicode=")" horiz-adv-x="361" 
d="M32 -147h23q17 0 27 10q186 204 186 460q0 253 -186 459q-10 10 -27 10h-23q-15 0 -6 -12q151 -209 151 -457q0 -250 -151 -459q-9 -11 6 -11z" />
    <glyph glyph-name="asterisk" unicode="*" horiz-adv-x="504" 
d="M324 541q-10 13 6 18l127 42q17 5 11 22l-11 33q-6 18 -22 12l-127 -44q-16 -6 -16 13l1 135q0 17 -19 17h-35q-18 0 -18 -17l1 -135q0 -19 -16 -13l-126 44q-16 6 -22 -13l-11 -33q-6 -16 11 -21l128 -43q17 -5 6 -19l-79 -105q-11 -14 5 -25l28 -20q15 -10 25 3l78 112
q10 15 19 0l78 -111q10 -13 26 -3l28 21q15 10 4 24z" />
    <glyph glyph-name="plus" unicode="+" horiz-adv-x="611" 
d="M574 352q0 17 -18 17h-190q-17 0 -17 19v199q0 18 -17 18h-41q-18 0 -18 -18v-199q0 -19 -18 -19h-190q-17 0 -17 -17v-32q0 -18 17 -18h190q18 0 18 -17v-205q0 -17 18 -17h41q17 0 17 17v205q0 17 17 17h190q18 0 18 18v32z" />
    <glyph glyph-name="comma" unicode="," horiz-adv-x="228" 
d="M156 49q0 17 -16 17h-42q-16 0 -16 -17v-239q0 -14 12 -14t18 12l35 59q9 17 9 42v140z" />
    <glyph glyph-name="hyphen" unicode="-" horiz-adv-x="391" 
d="M308 303q18 0 18 18v39q0 17 -18 17h-216q-17 0 -17 -17v-39q0 -18 17 -18h216z" />
    <glyph glyph-name="period" unicode="." horiz-adv-x="228" 
d="M138 -23q18 0 18 18v49q0 17 -18 17h-46q-17 0 -17 -17v-49q0 -18 17 -18h46z" />
    <glyph glyph-name="slash" unicode="/" horiz-adv-x="357" 
d="M355 744q5 15 -13 15h-33q-17 0 -22 -15l-276 -793q-5 -15 12 -15h31q19 0 24 15z" />
    <glyph glyph-name="zero" unicode="0" horiz-adv-x="607" 
d="M118 55q71 -97 192 -97t193 97q72 99 72 272t-72 272q-72 97 -193 97t-192 -97q-73 -99 -73 -272t73 -272zM173 554q51 80 136 80q86 0 137 -80q53 -83 53 -227t-53 -227q-51 -80 -137 -80q-85 0 -136 80q-52 83 -52 227t52 227z" />
    <glyph glyph-name="one" unicode="1" horiz-adv-x="607" 
d="M284 50q0 -19 -18 -19h-161q-17 0 -17 -17v-28q0 -18 17 -18h403q18 0 18 18v28q0 17 -18 17h-131q-17 0 -17 19v623q0 18 -17 18h-131q-25 0 -42 -9l-45 -25q-12 -6 -12 -18t14 -12h141q16 0 16 -16v-561z" />
    <glyph glyph-name="two" unicode="2" horiz-adv-x="607" 
d="M445 384q0 -16 -16 -16h-210q-124 0 -124 -126v-256q0 -18 17 -18h383q18 0 18 18v29q0 17 -18 17h-306q-17 0 -17 19v237q0 16 16 16h210q124 0 124 126v135q0 126 -124 126h-196q-25 0 -42 -9l-45 -25q-12 -6 -12 -18t14 -12h312q16 0 16 -16v-227z" />
    <glyph glyph-name="three" unicode="3" horiz-adv-x="607" 
d="M435 386q0 -16 -16 -16h-236q-17 0 -17 -17v-29q0 -18 17 -18h232q19 0 19 -19v-237q0 -16 -16 -16h-226q-25 0 -42 -9l-46 -27q-12 -6 -12 -18t14 -12h245q27 0 49 11l68 39q43 26 43 79v145q-2 56 -41 83q-14 10 -14 19q0 7 12 17q44 35 44 99v105q0 126 -124 126h-178
q-25 0 -42 -9l-45 -25q-12 -6 -12 -18t14 -12h294q16 0 16 -16v-225z" />
    <glyph glyph-name="four" unicode="4" horiz-adv-x="607" 
d="M351 144q18 0 18 -17v-142q0 -17 18 -17h42q17 0 17 17v142q0 17 17 17h89q18 0 18 18v29q0 17 -18 17h-89q-17 0 -17 19v446q0 18 -17 18h-42q-18 0 -18 -18v-446q0 -19 -18 -19h-168q-16 0 -16 16v427q0 14 -12 14t-18 -12l-38 -63q-9 -17 -9 -42v-280q0 -124 126 -124
h135z" />
    <glyph glyph-name="five" unicode="5" horiz-adv-x="607" 
d="M428 48q0 -16 -16 -16h-212q-25 0 -42 -9l-45 -25q-12 -6 -12 -18t14 -12h230q27 0 49 11l68 39q43 26 43 79v154q0 126 -124 126h-179q-16 0 -16 16v215q0 19 17 19h269q18 0 18 17v29q0 18 -18 18h-346q-17 0 -17 -18v-234q0 -126 124 -126h179q16 0 16 -16v-249z" />
    <glyph glyph-name="six" unicode="6" horiz-adv-x="607" 
d="M167 48q0 -16 16 -16h242q16 0 16 16v262q0 16 -16 16l-241 -2q-17 1 -17 -15v-261zM167 364q0 -15 16 -12l201 37q18 4 30 4q104 0 104 -104v-192q0 -53 -43 -79l-68 -39q-22 -11 -49 -11h-142q-126 0 -126 124v470q0 53 43 79l68 39q22 11 49 11h220q14 0 14 -12
t-12 -18l-45 -25q-17 -9 -42 -9h-202q-16 0 -16 -16v-247z" />
    <glyph glyph-name="seven" unicode="7" horiz-adv-x="607" 
d="M290 254q0 17 16 27l127 73q68 40 68 115v205q0 17 -19 17h-364q-16 0 -16 -17v-31q0 -16 16 -16h290q16 0 16 -18v-159q0 -20 -14 -28l-130 -74q-67 -40 -67 -114v-261q0 -14 12 -14t18 12l38 63q9 17 9 42v178z" />
    <glyph glyph-name="eight" unicode="8" horiz-adv-x="607" 
d="M195 370q-19 0 -19 19v222q0 16 16 16h233q16 0 16 -16v-225q0 -16 -16 -16h-230zM357 -32q27 0 49 11l68 39q43 26 43 79v146q-2 56 -41 83q-14 10 -14 19q0 7 12 17q44 35 44 99v104q0 126 -124 126h-135q-27 0 -49 -11l-68 -39q-43 -26 -43 -79v-133q2 -56 41 -83
q14 -10 14 -19q0 -7 -12 -17q-44 -35 -44 -99v-117q0 -126 124 -126h135zM191 32q-16 0 -16 16v242q0 16 16 16h230q19 0 19 -19v-239q0 -16 -16 -16h-233z" />
    <glyph glyph-name="nine" unicode="9" horiz-adv-x="607" 
d="M449 610q0 16 -16 16h-242q-16 0 -16 -16v-272q0 -16 16 -16l241 2q17 -1 17 15v271zM449 284q0 15 -16 12l-201 -37q-18 -4 -30 -4q-104 0 -104 104v202q0 53 43 79l68 39q22 11 49 11h142q126 0 126 -124v-470q0 -53 -43 -79l-68 -39q-22 -11 -49 -11h-220
q-14 0 -14 12t12 18l45 25q17 9 42 9h202q16 0 16 16v237z" />
    <glyph glyph-name="colon" unicode=":" horiz-adv-x="228" 
d="M138 73q18 0 18 18v49q0 17 -18 17h-46q-17 0 -17 -17v-49q0 -18 17 -18h46zM138 531q18 0 18 18v49q0 17 -18 17h-46q-17 0 -17 -17v-49q0 -18 17 -18h46z" />
    <glyph glyph-name="semicolon" unicode=";" horiz-adv-x="228" 
d="M138 531q18 0 18 18v49q0 17 -18 17h-46q-17 0 -17 -17v-49q0 -18 17 -18h46zM156 149q0 17 -16 17h-42q-16 0 -16 -17v-239q0 -14 12 -14t18 12l35 59q9 17 9 42v140z" />
    <glyph glyph-name="less" unicode="&#x3c;" horiz-adv-x="473" 
d="M157 331q-12 13 0 26l230 249q11 14 -6 14h-53q-21 0 -31 -13l-235 -250q-12 -13 0 -26l227 -250q10 -13 29 -13h63q16 0 6 13z" />
    <glyph glyph-name="equal" unicode="=" horiz-adv-x="629" 
d="M561 437q18 0 18 18v34q0 17 -18 17h-483q-17 0 -17 -17v-34q0 -18 17 -18h483zM561 186q18 0 18 18v34q0 17 -18 17h-483q-17 0 -17 -17v-34q0 -18 17 -18h483z" />
    <glyph glyph-name="greater" unicode="&#x3e;" horiz-adv-x="473" 
d="M97 81q-10 -13 6 -13h63q19 0 29 13l227 250q12 13 0 26l-235 250q-10 13 -31 13h-53q-17 0 -6 -14l230 -249q12 -13 0 -26z" />
    <glyph glyph-name="question" unicode="?" horiz-adv-x="458" 
d="M123 198q0 -18 17 -18h42q18 0 18 18v140q0 16 16 16h67q124 0 124 126v85q0 126 -124 126h-130q-25 0 -42 -9l-45 -25q-12 -6 -12 -18t14 -12h246q16 0 16 -16v-177q0 -16 -16 -16h-67q-124 0 -124 -126v-94zM186 -33q18 0 18 18v49q0 17 -18 17h-46q-17 0 -17 -17v-49
q0 -18 17 -18h46z" />
    <glyph glyph-name="at" unicode="@" horiz-adv-x="1035" 
d="M424 404q-16 0 -16 -16v-295q0 -17 19 -17h182q19 0 19 17v295q0 16 -16 16h-188zM204 22q0 -144 146 -144h391q14 0 14 -12t-12 -18l-45 -25q-17 -9 -42 -9h-316q-92 0 -151 52q-62 55 -62 147v357q-2 85 64 141l173 129q56 40 143 41h193q223 0 223 -209v-305
q0 -62 -57 -94l-93 -55q-22 -11 -49 -11h-81q-16 0 -16 17v2q0 17 -22 14l-139 -36q-18 -2 -30 -2q-104 0 -104 104v232q0 53 43 79l68 39q22 11 49 11h196q16 0 16 -16v-363q0 -17 19 -17h52q71 0 71 70v321q0 154 -156 154h-166q-78 0 -132 -39l-126 -92q-62 -54 -62 -131
v-332z" />
    <glyph glyph-name="A" unicode="A" horiz-adv-x="657" 
d="M475 170q18 0 24 -17l57 -167q7 -18 26 -18h46q19 0 13 18l-233 690q-6 17 -26 17h-100q-17 0 -23 -17l-233 -690q-6 -18 13 -18h46q19 0 26 18l57 167q6 17 24 17h283zM209 233q-18 0 -12 18l123 383q3 9 13 9t14 -9l123 -383q6 -18 -12 -18h-249z" />
    <glyph glyph-name="B" unicode="B" horiz-adv-x="709" 
d="M553 47q0 -16 -16 -16h-333q-16 0 -16 17v228q0 17 19 17h327q19 0 19 -19v-227zM553 372q0 -16 -16 -16h-333q-16 0 -16 17v227q0 17 19 17h327q19 0 19 -19v-226zM629 589q0 104 -104 104q-12 0 -30 -2l-283 -36q-22 -3 -22 14v7q0 17 -16 17h-45q-17 0 -17 -17v-691
q0 -17 16 -17h341q27 0 49 11l68 39q43 26 43 79v125q-2 56 -42 83q-14 10 -14 19q0 7 12 17q44 35 44 99v149z" />
    <glyph glyph-name="C" unicode="C" horiz-adv-x="643" 
d="M187 611q0 16 16 16h368q16 0 16 17v30q0 17 -16 17h-301q-27 0 -49 -11l-68 -39q-43 -26 -43 -79v-468q0 -126 124 -126h260q25 0 42 9l45 25q12 6 12 18t-14 12h-376q-16 0 -16 16v563z" />
    <glyph glyph-name="D" unicode="D" horiz-adv-x="742" 
d="M569 48q0 -16 -16 -16h-340q-16 0 -16 17v551q0 17 19 17h334q19 0 19 -19v-550zM120 -15q0 -17 16 -17h350q27 0 49 11l68 39q43 26 43 79v494q0 104 -104 104q-12 0 -30 -2l-292 -36q-22 -3 -22 14v5q0 17 -16 17h-45q-17 0 -17 -17v-691z" />
    <glyph glyph-name="E" unicode="E" horiz-adv-x="656" 
d="M119 94q0 -126 124 -126h248q25 0 42 9l45 25q12 6 12 18t-14 12h-365q-16 0 -16 16v243q0 17 19 17h331q16 0 16 17v29q0 17 -16 17h-331q-19 0 -19 17v223q0 16 16 16h357q16 0 16 17v30q0 17 -16 17h-289q-27 0 -49 -11l-68 -39q-43 -26 -43 -79v-468z" />
    <glyph glyph-name="F" unicode="F" horiz-adv-x="601" 
d="M113 -15q0 -17 16 -17h45q16 0 16 17v292q0 17 19 17h308q16 0 16 17v31q0 17 -16 17h-308q-19 0 -19 17v235q0 16 16 16h344q16 0 16 17v30q0 17 -16 17h-277q-27 0 -49 -11l-68 -39q-43 -26 -43 -79v-577z" />
    <glyph glyph-name="G" unicode="G" horiz-adv-x="715" 
d="M115 69q0 -104 104 -104q12 0 30 2l280 36q22 3 22 -14v-4q0 -17 16 -17h44q17 0 17 17v333q0 16 -16 16h-219q-16 0 -16 -17v-30q0 -17 16 -17h143q16 0 16 -16v-190q0 -17 -19 -17l-322 -4q-19 0 -19 17v551q0 16 16 16h396q16 0 16 17v30q0 17 -16 17h-329
q-27 0 -49 -11l-68 -39q-43 -26 -43 -79v-493z" />
    <glyph glyph-name="H" unicode="H" horiz-adv-x="731" 
d="M634 676q0 17 -17 17h-44q-16 0 -16 -17v-292q0 -17 -19 -17h-335q-19 0 -19 17v292q0 17 -16 17h-45q-16 0 -16 -17v-691q0 -17 16 -17h45q16 0 16 17v304q0 17 19 17h335q19 0 19 -17v-304q0 -17 16 -17h44q17 0 17 17v691z" />
    <glyph glyph-name="I" unicode="I" horiz-adv-x="282" 
d="M185 676q0 17 -16 17h-46q-16 0 -16 -17v-691q0 -17 16 -17h46q16 0 16 17v691z" />
    <glyph glyph-name="J" unicode="J" horiz-adv-x="492" 
d="M244 -32q27 0 51 12l40 24q52 31 52 92v580q0 17 -16 17h-46q-16 0 -16 -17v-627q0 -16 -16 -16h-262q-16 0 -16 -17v-31q0 -17 16 -17h213z" />
    <glyph glyph-name="K" unicode="K" horiz-adv-x="631" 
d="M180 674q0 17 -16 17h-45q-16 0 -16 -17v-689q0 -17 16 -17h45q16 0 16 17v317q0 18 20 18q5 0 12 -7l295 -331q11 -14 31 -14h65q20 0 7 14l-319 351q-13 13 1 29l342 317q14 14 -5 14h-65q-20 0 -32 -14l-319 -307q-7 -7 -13 -7q-20 0 -20 18v291z" />
    <glyph glyph-name="L" unicode="L" horiz-adv-x="553" 
d="M450 -32q25 0 42 9l45 26q12 6 12 18t-14 12h-342q-16 0 -16 16v625q0 17 -16 17h-46q-16 0 -16 -17v-580q0 -126 124 -126h227z" />
    <glyph glyph-name="M" unicode="M" horiz-adv-x="993" 
d="M547 -32q15 0 22 17l212 639q5 14 16 14q16 0 16 -17v-636q0 -17 16 -17h41q16 0 16 17v689q0 17 -16 17h-120q-14 0 -20 -16l-210 -610q-5 -14 -16 -14t-16 14l-210 610q-6 16 -20 16h-120q-16 0 -16 -17v-689q0 -17 16 -17h41q16 0 16 17v636q0 17 16 17q11 0 16 -14
l212 -639q7 -17 22 -17h86z" />
    <glyph glyph-name="N" unicode="N" horiz-adv-x="779" 
d="M524 -16q10 -16 25 -16h126q16 0 16 17v689q0 17 -16 17h-45q-16 0 -16 -17v-636q0 -17 -16 -17q-10 0 -17 14l-311 640q-8 16 -25 16h-126q-16 0 -16 -17v-689q0 -17 16 -17h45q16 0 16 17v636q0 17 16 17q10 0 17 -14z" />
    <glyph glyph-name="O" unicode="O" horiz-adv-x="737" 
d="M198 32q-16 0 -16 16v563q0 16 16 16h351q16 0 16 -16v-563q0 -16 -16 -16h-351zM482 -32q27 0 49 11l68 39q43 26 43 79v468q0 126 -124 126h-253q-27 0 -49 -11l-68 -39q-43 -26 -43 -79v-468q0 -126 124 -126h253z" />
    <glyph glyph-name="P" unicode="P" horiz-adv-x="674" 
d="M534 338q0 -16 -16 -16h-317q-16 0 -16 17v260q0 17 19 17l311 1q19 0 19 -19v-260zM185 243q0 17 19 17h247q27 0 49 11l67 39q43 26 43 79v204q0 104 -104 104q-12 0 -30 -2l-267 -36q-22 -3 -22 14v3q0 17 -16 17h-45q-17 0 -17 -17v-691q0 -17 16 -17h44q16 0 16 17
v258z" />
    <glyph glyph-name="Q" unicode="Q" horiz-adv-x="737" 
d="M198 32q-16 0 -16 16v563q0 16 16 16h351q16 0 16 -16v-563q0 -16 -16 -16h-351zM292 -32q16 0 16 -17v-102q0 -126 124 -126h149q25 0 42 9l45 25q12 6 12 18t-14 12h-264q-16 0 -16 16v148q0 17 16 17h80q27 0 49 11l68 39q43 26 43 79v468q0 126 -124 126h-253
q-27 0 -49 -11l-68 -39q-43 -26 -43 -79v-468q0 -126 124 -126h63z" />
    <glyph glyph-name="R" unicode="R" horiz-adv-x="702" 
d="M535 357q0 -16 -16 -16h-316q-16 0 -16 17v242q0 17 19 17h310q19 0 19 -19v-241zM568 330q43 26 43 79v180q0 104 -104 104q-12 0 -30 -2l-266 -36q-22 -3 -22 14v7q0 17 -16 17h-45q-17 0 -17 -17v-691q0 -17 16 -17h44q16 0 16 17v278q0 17 19 17h174q17 0 25 -15
l161 -282q7 -15 25 -15h54q16 0 8 15l-164 280q-10 14 5 24z" />
    <glyph glyph-name="S" unicode="S" horiz-adv-x="629" 
d="M185 368q-16 0 -16 16v226q0 16 16 16h356q16 0 16 17v31q0 17 -16 17h-289q-27 0 -49 -11l-68 -39q-43 -26 -43 -79v-132q0 -126 124 -126h277q16 0 16 -16v-239q0 -16 -16 -16h-367q-16 0 -16 -17v-31q0 -17 16 -17h300q27 0 49 11l68 39q43 26 43 79v145
q0 126 -124 126h-277z" />
    <glyph glyph-name="T" unicode="T" horiz-adv-x="570" 
d="M27 691q-17 0 -17 -17v-30q0 -17 17 -17h206q19 0 19 -17v-625q0 -17 16 -17h46q16 0 16 17v625q0 17 19 17h207q17 0 17 17v30q0 17 -17 17h-529z" />
    <glyph glyph-name="U" unicode="U" horiz-adv-x="745" 
d="M581 61q0 -17 -19 -17l-349 -1q-19 0 -19 17v616q0 17 -16 17h-45q-16 0 -16 -17v-607q0 -104 104 -104q12 0 30 2l302 36q22 3 22 -14v-4q0 -17 16 -17h50q17 0 17 17v691q0 17 -17 17h-44q-16 0 -16 -17v-615z" />
    <glyph glyph-name="V" unicode="V" horiz-adv-x="651" 
d="M119 675q-7 18 -26 18h-49q-19 0 -13 -18l225 -690q5 -17 23 -17h106q20 0 26 17l225 690q6 18 -13 18h-49q-19 0 -26 -18l-201 -648q-4 -9 -14 -9t-13 9z" />
    <glyph glyph-name="W" unicode="W" horiz-adv-x="1090" 
d="M512 632q3 9 13 9q11 0 14 -9l151 -647q5 -17 23 -17h106q20 0 26 17l175 690q6 18 -13 18h-49q-19 0 -26 -18l-151 -646q-3 -9 -14 -9q-10 0 -13 9l-151 645q-5 17 -26 17h-106q-18 0 -23 -17l-151 -645q-3 -9 -14 -9q-10 0 -13 9l-151 646q-4 18 -26 18h-49
q-17 0 -13 -18l175 -690q5 -17 23 -17h106q20 0 26 17z" />
    <glyph glyph-name="X" unicode="X" horiz-adv-x="635" 
d="M528 -16q9 -16 28 -16h61q17 0 6 15l-244 335q-9 14 0 30l242 330q10 15 -8 15h-60q-16 0 -27 -15l-194 -273q-10 -11 -18 0l-195 273q-10 15 -27 15h-60q-20 0 -8 -15l243 -330q9 -16 0 -30l-245 -335q-11 -15 6 -15h61q19 0 28 16l198 285q8 12 16 0z" />
    <glyph glyph-name="Y" unicode="Y" horiz-adv-x="610" 
d="M328 340q-6 -10 -15 -10q-11 0 -17 10l-195 338q-9 15 -26 15h-57q-17 0 -8 -15l254 -417q9 -18 9 -32v-244q0 -17 16 -17h46q16 0 16 17v244q0 14 9 32l254 417q9 15 -8 15h-57q-15 0 -26 -15z" />
    <glyph glyph-name="Z" unicode="Z" horiz-adv-x="630" 
d="M583 673q0 18 -18 18h-469q-19 0 -19 -18v-29q0 -17 19 -17h381q16 0 8 -15l-420 -570q-11 -14 -11 -33v-23q0 -18 17 -18h501q18 0 18 18v26q0 20 -18 20h-413q-15 0 -6 13l420 572q10 20 10 33v23z" />
    <glyph glyph-name="bracketleft" unicode="[" horiz-adv-x="353" 
d="M356 -118q0 13 -17 16l-131 18q-19 4 -19 17v778q0 15 19 18l131 18q17 3 17 16v16q0 13 -17 13h-211q-16 0 -16 -13v-912q0 -14 16 -14h211q17 0 17 14v15z" />
    <glyph glyph-name="backslash" unicode="\" horiz-adv-x="357" 
d="M97 717q-5 15 -21 15h-47q-17 0 -12 -15l272 -793q5 -15 21 -15h46q17 0 14 15z" />
    <glyph glyph-name="bracketright" unicode="]" horiz-adv-x="353" 
d="M8 -132q0 -14 17 -14h211q16 0 16 14v912q0 13 -16 13h-211q-17 0 -17 -13v-16q0 -13 17 -16l131 -18q19 -3 19 -18v-778q0 -13 -19 -17l-131 -18q-17 -3 -17 -16v-15z" />
    <glyph glyph-name="asciicircum" unicode="^" horiz-adv-x="526" 
d="M385 590q9 -10 26 -10h52q13 0 13 11q0 8 -6 14l-188 185q-13 12 -26 0l-188 -185q-6 -6 -6 -14q0 -11 13 -11h52q17 0 26 10l106 107q10 10 20 0z" />
    <glyph glyph-name="underscore" unicode="_" horiz-adv-x="427" 
d="M467 -100q0 16 -17 16h-462q-16 0 -16 -16v-27q0 -20 16 -20h462q17 0 17 20v27z" />
    <glyph glyph-name="grave" unicode="`" horiz-adv-x="387" 
d="M310 630l-176 174q-14 12 -26 0l-33 -32q-10 -12 0 -25l134 -134q12 -12 30 -12h60q16 0 16 16q0 8 -5 13z" />
    <glyph glyph-name="a" unicode="a" horiz-adv-x="600" 
d="M430 460q16 0 16 -16v-388q0 -17 -19 -17l-242 -2q-19 0 -19 17v390q0 16 16 16h248zM250 523q-27 0 -49 -11l-68 -39q-43 -26 -43 -79v-327q0 -104 104 -104q12 0 30 2l199 36q22 3 22 -14v-2q0 -17 16 -17h44q17 0 17 17v522q0 16 -16 16h-256z" />
    <glyph glyph-name="b" unicode="b" horiz-adv-x="600" 
d="M167 431q0 17 19 17l247 2q19 0 19 -17v-386q0 -16 -16 -16h-253q-16 0 -16 16v384zM168 742q0 17 -16 17h-45q-16 0 -16 -17v-648q0 -126 124 -126h153q27 0 49 11l68 39q43 26 43 79v325q0 104 -104 104q-12 0 -30 -2l-204 -36q-22 -3 -22 14v240z" />
    <glyph glyph-name="c" unicode="c" horiz-adv-x="517" 
d="M162 443q0 16 16 16h289q16 0 16 17v30q0 17 -16 17h-222q-27 0 -49 -11l-68 -39q-43 -26 -43 -79v-300q0 -126 124 -126h184q25 0 42 9l45 25q12 6 12 18t-14 12h-300q-16 0 -16 16v395z" />
    <glyph glyph-name="d" unicode="d" horiz-adv-x="600" 
d="M432 460q16 0 16 -16v-388q0 -17 -19 -17l-247 -2q-19 0 -19 17v390q0 16 16 16h253zM247 523q-27 0 -49 -11l-68 -39q-43 -26 -43 -79v-327q0 -104 104 -104q12 0 30 2l204 36q22 3 22 -14v-2q0 -17 16 -17h44q17 0 17 17v757q0 17 -16 17h-45q-16 0 -16 -17v-202
q0 -17 -19 -17h-181z" />
    <glyph glyph-name="e" unicode="e" horiz-adv-x="567" 
d="M440 297q0 -16 -16 -16h-253q-16 0 -16 16v147q0 16 16 16h253q16 0 16 -16v-147zM155 204q0 16 16 16h221q124 0 124 126v51q0 126 -124 126h-153q-27 0 -49 -11l-68 -39q-43 -26 -43 -79v-300q0 -126 124 -126h202q25 0 42 9l45 25q12 6 12 18t-14 12h-319
q-16 0 -16 16v156z" />
    <glyph glyph-name="f" unicode="f" horiz-adv-x="417" 
d="M89 -15q0 -17 16 -17h44q16 0 16 17v458q0 17 19 17h180q16 0 16 17v29q0 17 -16 17h-180q-19 0 -19 17v137q0 16 16 16h200q16 0 16 17v32q0 17 -16 17h-132q-27 0 -49 -11l-68 -39q-43 -26 -43 -79v-645z" />
    <glyph glyph-name="g" unicode="g" horiz-adv-x="600" 
d="M432 460q16 0 16 -16v-388q0 -17 -19 -17l-247 -2q-19 0 -19 17v390q0 16 16 16h253zM447 -191q0 -16 -16 -16h-305q-16 0 -16 -17v-31q0 -17 16 -17h255q27 0 51 12l40 24q52 31 52 92v651q0 16 -16 16h-261q-27 0 -49 -11l-68 -39q-43 -26 -43 -79v-327
q0 -104 104 -104q12 0 30 2l204 36q22 3 22 -14v-178z" />
    <glyph glyph-name="h" unicode="h" horiz-adv-x="609" 
d="M461 -15q0 -17 16 -17h44q16 0 16 17v437q0 104 -104 104q-12 0 -30 -2l-222 -36q-22 -3 -22 14v240q0 17 -16 17h-45q-16 0 -16 -17v-757q0 -17 16 -17h43q16 0 16 17v446q0 17 19 17l266 2q19 0 19 -17v-448z" />
    <glyph glyph-name="i" unicode="i" horiz-adv-x="254" 
d="M171 731q0 17 -16 17h-49q-16 0 -16 -17v-46q0 -17 16 -17h49q16 0 16 17v46zM168 506q0 17 -16 17h-44q-16 0 -16 -17v-521q0 -17 16 -17h44q16 0 16 17v521z" />
    <glyph glyph-name="j" unicode="j" horiz-adv-x="295" 
d="M62 -274q27 0 51 12l40 24q52 31 52 92v652q0 17 -16 17h-45q-16 0 -16 -17v-699q0 -16 -16 -16h-169q-16 0 -16 -17v-31q0 -17 16 -17h119zM207 738q0 17 -16 17h-49q-16 0 -16 -17v-46q0 -17 16 -17h49q16 0 16 17v46z" />
    <glyph glyph-name="k" unicode="k" horiz-adv-x="559" 
d="M159 742q0 17 -16 17h-45q-16 0 -16 -17v-757q0 -17 16 -17h45q16 0 16 17v232q0 18 20 18q5 0 12 -7l248 -246q11 -14 31 -14h65q20 0 7 14l-272 266q-13 13 1 29l267 235q14 14 -5 14h-65q-20 0 -32 -14l-244 -225q-7 -7 -13 -7q-20 0 -20 18v444z" />
    <glyph glyph-name="l" unicode="l" horiz-adv-x="254" 
d="M169 742q0 17 -16 17h-44q-16 0 -16 -17v-757q0 -17 16 -17h44q16 0 16 17v757z" />
    <glyph glyph-name="m" unicode="m" horiz-adv-x="917" 
d="M501 432q0 17 19 17l232 1q19 0 19 -17v-448q0 -17 16 -17h43q16 0 16 17v437q0 104 -104 104q-12 0 -30 -2l-208 -41q-16 -2 -29 14q-26 29 -78 29q-12 0 -30 -2l-188 -36q-22 -3 -22 14v8q0 17 -16 17h-44q-16 0 -16 -17v-525q0 -17 16 -17h42q16 0 16 17v447
q0 17 19 17l233 1q19 0 19 -17v-448q0 -17 16 -17h43q16 0 16 17v447z" />
    <glyph glyph-name="n" unicode="n" horiz-adv-x="609" 
d="M461 -15q0 -17 16 -17h44q16 0 16 17v437q0 104 -104 104q-12 0 -30 -2l-222 -36q-22 -3 -22 14v8q0 17 -16 17h-45q-16 0 -16 -17v-525q0 -17 16 -17h43q16 0 16 17v446q0 17 19 17l266 2q19 0 19 -17v-448z" />
    <glyph glyph-name="o" unicode="o" horiz-adv-x="592" 
d="M176 31q-16 0 -16 16v397q0 16 16 16h248q16 0 16 -16v-397q0 -16 -16 -16h-248zM356 -32q27 0 49 11l68 39q43 26 43 79v300q0 126 -124 126h-148q-27 0 -49 -11l-68 -39q-43 -26 -43 -79v-300q0 -126 124 -126h148z" />
    <glyph glyph-name="p" unicode="p" horiz-adv-x="600" 
d="M166 431q0 17 19 17l247 2q19 0 19 -17v-386q0 -16 -16 -16h-253q-16 0 -16 16v384zM90 -256q0 -17 16 -17h44q16 0 16 17v207q0 17 19 17h182q27 0 49 11l68 39q43 26 43 79v325q0 104 -104 104q-12 0 -30 -2l-204 -36q-22 -3 -22 14v9q0 17 -16 17h-45q-16 0 -16 -17
v-767z" />
    <glyph glyph-name="q" unicode="q" horiz-adv-x="600" 
d="M428 460q16 0 16 -16v-388q0 -17 -19 -17l-247 -2q-19 0 -19 17v390q0 16 16 16h253zM520 506q0 17 -16 17h-261q-27 0 -49 -11l-68 -39q-43 -26 -43 -79v-327q0 -104 104 -104q12 0 30 2l204 36q22 3 22 -14v-242q0 -17 16 -17h44q17 0 17 17v761z" />
    <glyph glyph-name="r" unicode="r" horiz-adv-x="414" 
d="M408 511q0 18 -17 18h-78q-38 0 -64 -15l-60 -31q-4 -2 -10 -2q-18 0 -18 16v14q0 18 -16 18h-41q-18 0 -18 -18v-526q0 -17 18 -17h41q16 0 16 17v449q0 17 18 17l212 1q17 0 17 18v41z" />
    <glyph glyph-name="s" unicode="s" horiz-adv-x="539" 
d="M402 220q16 0 16 -16v-157q0 -16 -16 -16h-298q-16 0 -16 -17v-29q0 -17 16 -17h230q27 0 49 11l68 39q43 26 43 79v61q0 126 -124 126h-216q-16 0 -16 16v144q0 16 16 16h298q16 0 16 17v29q0 17 -16 17h-230q-27 0 -49 -11l-68 -39q-43 -26 -43 -79v-48
q0 -126 124 -126h216z" />
    <glyph glyph-name="t" unicode="t" horiz-adv-x="433" 
d="M164 443q0 17 18 17h178q19 0 19 18v27q0 18 -19 18h-188q-8 1 -8 13v102q0 18 -16 13l-40 -22q-18 -11 -18 -22v-513q0 -126 124 -126h79q25 0 42 9l45 25q12 6 12 18t-14 12h-198q-16 0 -16 16v395z" />
    <glyph glyph-name="u" unicode="u" horiz-adv-x="609" 
d="M157 508q0 17 -16 17h-43q-16 0 -16 -17v-442q0 -104 104 -104q12 0 30 2l222 36q22 3 22 -14v-1q0 -17 16 -17h45q16 0 16 17v523q0 17 -16 17h-44q-16 0 -16 -17v-452q0 -17 -19 -17l-266 -2q-19 0 -19 17v454z" />
    <glyph glyph-name="v" unicode="v" horiz-adv-x="563" 
d="M121 503q-7 18 -26 18h-47q-19 0 -13 -18l173 -518q5 -17 23 -17h104q20 0 26 17l173 518q6 18 -13 18h-47q-19 0 -26 -18l-150 -478q-4 -9 -14 -9t-13 9z" />
    <glyph glyph-name="w" unicode="w" horiz-adv-x="951" 
d="M470 460q3 9 13 9t14 -9l128 -475q5 -17 23 -17h105q20 0 26 17l151 518q6 18 -13 18h-48q-19 0 -26 -18l-127 -476q-4 -9 -14 -9t-13 9l-128 475q-5 17 -26 17h-106q-18 0 -23 -17l-128 -475q-4 -9 -14 -9t-13 9l-127 476q-6 18 -26 18h-48q-19 0 -13 -18l151 -518
q5 -17 23 -17h105q20 0 26 17z" />
    <glyph glyph-name="x" unicode="x" horiz-adv-x="556" 
d="M435 -16q11 -16 28 -16h64q17 0 6 15l-194 243q-9 14 0 30l192 250q9 15 -8 15h-63q-16 0 -27 -15l-141 -197q-10 -11 -18 0l-141 197q-10 15 -27 15h-63q-17 0 -8 -15l192 -250q9 -16 0 -30l-194 -243q-11 -15 6 -15h64q18 0 28 16l144 197q8 12 16 0z" />
    <glyph glyph-name="y" unicode="y" horiz-adv-x="609" 
d="M460 -279q0 -14 12 -14t18 12l38 64q9 17 9 42v683q0 17 -16 17h-43q-16 0 -16 -17v-452q0 -17 -19 -17l-267 -2q-19 0 -19 17v454q0 17 -16 17h-44q-16 0 -16 -17v-441q0 -104 104 -104q12 0 30 2l223 36q22 3 22 -14v-266z" />
    <glyph glyph-name="z" unicode="z" horiz-adv-x="536" 
d="M492 505q0 18 -18 18h-379q-19 0 -19 -18v-28q0 -17 19 -17h289q19 0 8 -15l-330 -403q-11 -14 -11 -33v-23q0 -18 17 -18h411q18 0 18 18v25q0 20 -18 20h-321q-15 0 -6 13l330 405q10 13 10 33v23z" />
    <glyph glyph-name="braceleft" unicode="{" horiz-adv-x="447" 
d="M174 -47q0 -101 124 -101h43q31 0 49 7l45 20q12 5 12 15q0 9 -14 9h-166q-16 0 -16 13v340q0 44 -41 66q-14 8 -14 15q0 6 12 13q44 29 44 80v298q0 13 16 13h167q17 0 17 14v23q0 14 -17 14h-100q-28 0 -49 -9l-68 -31q-43 -20 -43 -63v-319q0 -12 -16 -12h-116
q-17 0 -17 -14v-22q0 -15 17 -15h112q19 0 19 -15v-339z" />
    <glyph glyph-name="bar" unicode="|" horiz-adv-x="263" 
d="M174 778q0 15 -16 15h-44q-16 0 -16 -15v-910q0 -14 16 -14h44q16 0 16 14v910z" />
    <glyph glyph-name="braceright" unicode="}" horiz-adv-x="447" 
d="M284 692q0 101 -124 101h-43q-31 0 -49 -7l-45 -20q-12 -4 -12 -15q0 -9 14 -9h166q16 0 16 -13v-319q0 -44 41 -67q14 -8 14 -15q0 -4 -12 -13q-44 -28 -44 -79v-319q0 -13 -16 -13h-167q-17 0 -17 -14v-23q0 -14 17 -14h100q28 0 49 9l68 31q43 20 43 63v339
q0 13 16 13h116q17 0 17 14v22q0 15 -17 15h-112q-19 0 -19 15v318z" />
    <glyph glyph-name="asciitilde" unicode="~" horiz-adv-x="598" 
d="M531 310q11 14 0 24l-24 21q-12 11 -26 0q-38 -32 -81 -32q-38 0 -91 29q-61 36 -109 36q-72 0 -131 -54q-10 -13 0 -24l24 -21q12 -11 26 0q38 32 81 32q36 0 91 -31q62 -34 109 -34q72 0 131 54z" />
    <glyph glyph-name="glyph96" horiz-adv-x="0" 
 />
    <glyph glyph-name="glyph97" horiz-adv-x="0" 
 />
    <glyph glyph-name="glyph98" horiz-adv-x="0" 
 />
    <glyph glyph-name="glyph99" horiz-adv-x="0" 
 />
    <glyph glyph-name="glyph100" horiz-adv-x="0" 
 />
    <glyph glyph-name="uni3000" unicode="&#x3000;" 
d="M469 277v33h-29v-33h29z" />
    <glyph glyph-name="uni3000" unicode="&#x3164;" 
d="M469 277v33h-29v-33h29z" />
    <glyph glyph-name="glyph102" horiz-adv-x="0" 
 />
    <glyph glyph-name="glyph103" horiz-adv-x="0" 
 />
    <glyph glyph-name="periodcentered" unicode="&#xb7;" horiz-adv-x="425" 
d="M235 257q18 0 18 18v49q0 17 -18 17h-46q-17 0 -17 -17v-49q0 -18 17 -18h46z" />
    <glyph glyph-name="twodotenleader" unicode="&#x2025;" 
d="M264 257q18 0 18 18v49q0 17 -18 17h-46q-17 0 -17 -17v-49q0 -18 17 -18h46zM688 257q18 0 18 18v49q0 17 -18 17h-46q-17 0 -17 -17v-49q0 -18 17 -18h46z" />
    <glyph glyph-name="ellipsis" unicode="&#x2026;" 
d="M471 257q18 0 18 18v49q0 17 -18 17h-46q-17 0 -17 -17v-49q0 -18 17 -18h46zM233 257q18 0 18 18v49q0 17 -18 17h-46q-17 0 -17 -17v-49q0 -18 17 -18h46zM709 257q18 0 18 18v49q0 17 -18 17h-46q-17 0 -17 -17v-49q0 -18 17 -18h46z" />
    <glyph glyph-name="dieresis" unicode="&#xa8;" 
d="M679 732q0 26 -16 44q-15 17 -40 17q-60 0 -60 -61q0 -28 16 -45q16 -18 41 -18q59 0 59 63zM336 732q0 26 -16 44q-15 17 -40 17q-59 0 -59 -61q0 -28 16 -45q15 -18 39 -18q60 0 60 63z" />
    <glyph glyph-name="uni3003" unicode="&#x3003;" 
d="M590 413q10 14 4 32q-7 20 -30 23q-39 4 -55 -35l-92 -225q-10 -22 0 -27q12 -4 27 16zM462 427q9 13 2 31q-7 20 -28 23q-43 4 -57 -35l-92 -224q-9 -24 1 -28q12 -5 26 16z" />
    <glyph glyph-name="uni00AD" unicode="&#xad;" 
d="M267 230v-48h366v48h-366z" />
    <glyph glyph-name="uni2015" unicode="&#x2015;" 
d="M1 286h900v53h-900v-53z" />
    <glyph glyph-name="uni2225" unicode="&#x2225;" 
d="M573 776h-41v-956h41v956zM366 776h-40v-956h40v956z" />
    <glyph glyph-name="uniFF3C" unicode="&#xff3c;" 
d="M901 -174l-874 977l-32 -33l873 -977z" />
    <glyph glyph-name="similar" unicode="&#x223c;" 
d="M448 274q69 -49 132 -51q60 -3 124 54q51 44 69 86q6 11 -1 16q-6 5 -11 -3q-64 -88 -185 -81q-39 4 -106 54q-77 54 -138 57t-129 -59q-53 -47 -76 -94q-7 -15 0 -19t18 8l45 41q76 62 168 43q22 -4 48 -21z" />
    <glyph glyph-name="quoteleft" unicode="&#x2018;" horiz-adv-x="250" 
d="M111 656q0 15 5 25l37 79q9 16 22 16q16 0 16 -16v-259q0 -18 -21 -18h-40q-19 0 -19 18v155z" />
    <glyph glyph-name="quoteright" unicode="&#x2019;" horiz-adv-x="250" 
d="M138 593q0 -15 -5 -25l-37 -79q-9 -16 -22 -16q-16 0 -16 16v259q0 18 21 18h40q19 0 19 -18v-155z" />
    <glyph glyph-name="quotedblleft" unicode="&#x201c;" horiz-adv-x="450" 
d="M147 656q0 15 5 25l37 79q9 16 22 16q16 0 16 -16v-259q0 -18 -21 -18h-40q-19 0 -19 18v155zM311 656q0 15 5 25l37 79q9 16 22 16q16 0 16 -16v-259q0 -18 -21 -18h-40q-19 0 -19 18v155z" />
    <glyph glyph-name="quotedblright" unicode="&#x201d;" horiz-adv-x="450" 
d="M291 593q0 -15 -5 -25l-37 -79q-9 -16 -22 -16q-16 0 -16 16v259q0 18 21 18h40q19 0 19 -18v-155zM127 593q0 -15 -5 -25l-37 -79q-9 -16 -22 -16q-16 0 -16 16v259q0 18 21 18h40q19 0 19 -18v-155z" />
    <glyph glyph-name="uni3014" unicode="&#x3014;" horiz-adv-x="425" 
d="M399 -166v74l-245 73v649l245 67v69l-314 -85v-752z" />
    <glyph glyph-name="uni3015" unicode="&#x3015;" horiz-adv-x="425" 
d="M342 -71v752l-315 85v-69l245 -67v-649l-245 -73v-74z" />
    <glyph glyph-name="uni3008" unicode="&#x3008;" horiz-adv-x="425" 
d="M95 300l252 -460l54 33l-236 427l236 428l-54 32z" />
    <glyph glyph-name="uni3009" unicode="&#x3009;" horiz-adv-x="425" 
d="M77 760l-53 -32l235 -428l-235 -427l53 -33l252 460z" />
    <glyph glyph-name="uni300A" unicode="&#x300a;" horiz-adv-x="425" 
d="M374 -165h46l-241 460l241 464h-46l-242 -464zM264 -165h46l-243 460l243 464h-46l-243 -464z" />
    <glyph glyph-name="uni300B" unicode="&#x300b;" horiz-adv-x="425" 
d="M171 -165l242 460l-242 464h-45l240 -464l-240 -460h45zM62 -165l243 460l-243 464h-45l241 -464l-241 -460h45z" />
    <glyph glyph-name="uni300C" unicode="&#x300c;" horiz-adv-x="425" 
d="M407 740v42h-299v-444h42v402h257z" />
    <glyph glyph-name="uni300D" unicode="&#x300d;" horiz-adv-x="425" 
d="M327 -182v444h-44v-402h-256l1 -42h299z" />
    <glyph glyph-name="uni300E" unicode="&#x300e;" horiz-adv-x="425" 
d="M399 684v92h-289v-432h93v340h196zM131 756h248v-52h-196v-340h-52v392z" />
    <glyph glyph-name="uni300F" unicode="&#x300f;" horiz-adv-x="425" 
d="M228 256v-340h-195v-92h288v432h-93zM249 236h51v-392h-246v52h195v340z" />
    <glyph glyph-name="uni3010" unicode="&#x3010;" horiz-adv-x="425" 
d="M424 -194q-123 80 -194 209q-73 132 -73 285q0 152 73 285q71 129 193 208h-319v-987h320z" />
    <glyph glyph-name="uni3011" unicode="&#x3011;" horiz-adv-x="425" 
d="M342 794h-320q123 -79 194 -208q74 -133 74 -285q0 -153 -74 -285q-71 -129 -195 -209h321v987z" />
    <glyph glyph-name="plusminus" unicode="&#xb1;" 
d="M730 359v54h-248v209h-63v-209h-248v-54h248v-205h63v205h248zM730 -15v51h-559v-51h559z" />
    <glyph glyph-name="multiply" unicode="&#xd7;" 
d="M680 30l41 45l-230 224l211 213l-40 39l-213 -212l-211 216l-44 -43l217 -215l-224 -218l45 -41l218 220z" />
    <glyph glyph-name="divide" unicode="&#xf7;" 
d="M113 275h679v52h-679v-52zM407 533q19 -18 44 -18q26 0 45 18t19 44t-19 46q-20 20 -45 20t-44 -20t-19 -46t19 -44zM409 -26q18 -17 44 -17q24 0 43 19q20 20 20 45t-20 45q-19 19 -43 19q-27 0 -45 -19q-19 -19 -19 -45q0 -29 20 -47z" />
    <glyph glyph-name="notequal" unicode="&#x2260;" 
d="M665 639l-138 -178h-411v-53h369l-143 -185h-226v-53h185l-131 -168l45 -36l159 204h407v53h-366l144 185h222v53h-181l109 141z" />
    <glyph glyph-name="lessequal" unicode="&#x2264;" 
d="M699 152l27 50l-427 228l410 223l-23 50l-525 -274zM760 -7v54h-615v-54h615z" />
    <glyph glyph-name="greaterequal" unicode="&#x2265;" 
d="M219 703l-25 -50l411 -223l-428 -228l27 -50l539 277zM760 47h-615v-54h615v54z" />
    <glyph glyph-name="infinity" unicode="&#x221e;" 
d="M127 432q-55 -55 -55 -132t55 -132q55 -54 132 -54q121 0 191 141q14 -36 47 -73q61 -68 143 -68q77 0 132 54q55 55 55 132t-55 132q-55 54 -132 54q-82 0 -143 -67q-33 -38 -47 -74q-70 141 -191 141q-77 0 -132 -54zM379 373q28 -38 38 -73q-10 -35 -38 -73
q-51 -68 -120 -68q-58 0 -99 41q-41 42 -41 100t41 100q41 41 99 41q69 0 120 -68zM521 227q-29 38 -39 73q10 35 39 73q50 68 119 68q58 0 99 -41q42 -42 42 -100t-42 -100q-41 -41 -99 -41q-69 0 -119 68z" />
    <glyph glyph-name="therefore" unicode="&#x2234;" 
d="M493 576q-20 19 -46 19q-24 0 -44 -19t-20 -44q0 -26 18 -46q19 -21 45 -21t46 20q20 19 20 45t-19 46zM772 121q-20 19 -46 19q-24 0 -44 -19t-20 -44q0 -26 18 -46q19 -20 45 -20t46 19q20 20 20 45q0 26 -19 46zM219 121q-20 19 -46 19q-25 0 -45 -19t-20 -44
q0 -26 19 -46t45 -20q25 0 45 19q21 20 21 45q0 26 -19 46z" />
    <glyph glyph-name="degree" unicode="&#xb0;" horiz-adv-x="425" 
d="M288 580q33 33 33 80t-33 80t-80 33t-81 -33q-33 -33 -33 -80t33 -80q34 -33 81 -33t80 33zM267 722q25 -27 25 -62t-25 -62q-25 -26 -59 -26t-60 26q-25 27 -25 62t25 62q26 26 60 26t59 -26z" />
    <glyph glyph-name="minute" unicode="&#x2032;" horiz-adv-x="425" 
d="M267 705q11 16 9 35t-18 28q-15 9 -34 1q-18 -8 -25 -26l-68 -170q-5 -14 5 -19t20 6z" />
    <glyph glyph-name="second" unicode="&#x2033;" horiz-adv-x="425" 
d="M338 686q12 14 9 33q-3 20 -20 30q-14 8 -32 0q-17 -8 -24 -25l-70 -170q-5 -14 5 -19q10 -6 20 6zM199 706q12 15 10 34t-19 28q-14 9 -32 1t-25 -25l-69 -170q-6 -14 5 -20q10 -5 20 6z" />
    <glyph glyph-name="uni2103" unicode="&#x2103;" 
d="M204 573q-18 -19 -46 -19t-46 19q-19 18 -19 46t19 46q18 19 46 19t46 -19q19 -18 19 -46t-19 -46zM357 539q0 16 16 16h368q16 0 16 17v30q0 17 -16 17h-301q-27 0 -49 -11l-68 -39q-43 -26 -43 -79v-433q0 -126 124 -126h260q25 0 42 9l45 25q12 6 12 18t-14 12h-376
q-16 0 -16 16v528zM242 703q-34 34 -85 34q-50 0 -84 -34q-33 -34 -33 -85q0 -50 33 -84q34 -33 84 -33q51 0 85 33q34 34 34 84q0 51 -34 85z" />
    <glyph glyph-name="uni212B" unicode="&#x212b;" 
d="M563 19q18 0 24 -17l49 -169q7 -18 26 -18h46q19 0 13 18l-196 648q-6 17 -26 17h-100q-17 0 -23 -17l-195 -648q-6 -18 13 -18h46q19 0 26 18l49 169q6 17 24 17h224zM356 82q-18 0 -12 18l93 339q3 9 13 9t14 -9l94 -339q6 -18 -12 -18h-190zM496 605q-18 -19 -46 -19
t-46 19q-19 18 -19 46t19 46q18 19 46 19t46 -19q19 -18 19 -46t-19 -46zM534 735q-34 34 -85 34q-50 0 -84 -34q-33 -34 -33 -85q0 -50 33 -84q34 -33 84 -33q51 0 85 33q34 34 34 84q0 51 -34 85z" />
    <glyph glyph-name="uniFFE0" unicode="&#xffe0;" 
d="M345 78q-16 0 -16 16v395q0 16 16 16h84q19 0 19 -18v-391q0 -18 -19 -18h-84zM429 14q19 0 19 -18v-90q0 -14 16 -14h42q16 0 16 14v90q0 18 19 18h19q25 0 42 9l45 25q12 6 12 18t-14 12h-104q-19 0 -19 18v391q0 18 19 18h93q16 0 16 17v30q0 17 -16 17h-93
q-19 0 -19 18v89q0 15 -16 15h-42q-16 0 -16 -15v-89q0 -18 -19 -18h-17q-27 0 -49 -11l-68 -39q-43 -26 -43 -79v-300q0 -126 124 -126h53z" />
    <glyph glyph-name="uniFFE1" unicode="&#xffe1;" 
d="M365 28q17 43 17 103v134q0 17 19 17h163q16 0 16 17v31q0 17 -16 17h-164q-19 0 -19 17v210q0 16 16 16h275q16 0 16 17v30q0 17 -16 17h-208q-27 0 -49 -11l-68 -39q-43 -26 -43 -79v-161q0 -17 -19 -17h-106q-16 0 -16 -17v-31q0 -17 16 -17h105q19 0 19 -17v-253
q0 -17 -19 -17h-91q-16 0 -16 -17v-31q0 -17 16 -17h442q25 0 42 9l45 26q12 6 12 18t-14 12h-345q-14 0 -14 16q0 6 4 17z" />
    <glyph glyph-name="uniFFE5" unicode="&#xffe5;" 
d="M320 358q9 -18 9 -24q0 -10 -12 -10h-107q-19 0 -19 -19v-33q0 -17 19 -17h155q19 0 29 -18l8 -13q8 -16 8 -24q0 -10 -13 -10h-187q-19 0 -19 -19v-33q0 -18 19 -18h182q19 0 19 -18v-154q0 -17 19 -17h42q17 0 17 17v154q0 18 19 18h182q19 0 19 18v33q0 19 -19 19
h-186q-13 0 -13 10q0 11 8 24l8 13q11 18 29 18h154q19 0 19 17v33q0 19 -19 19h-107q-12 0 -12 10t9 24l172 282q9 15 -8 15h-57q-15 0 -26 -15l-195 -338q-6 -10 -15 -10q-11 0 -17 10l-195 338q-9 15 -26 15h-57q-17 0 -8 -15z" />
    <glyph glyph-name="male" unicode="&#x2642;" 
d="M762 482l-315 263l-309 -286l36 -36l245 234l1 -353q-89 -13 -146 -73q-57 -59 -57 -137q0 -88 68 -150q67 -63 163 -63t164 63q68 62 68 150q0 80 -58 139t-149 71v358l255 -221zM575 -24q-53 -48 -127 -48q-73 0 -126 48q-53 49 -53 118t53 117t126 48q74 0 127 -48
t53 -117t-53 -118z" />
    <glyph glyph-name="female" unicode="&#x2640;" 
d="M770 158v47h-294v105q90 13 148 72q57 59 57 138q0 87 -68 150q-68 62 -165 62q-96 0 -163 -62q-67 -63 -67 -150q0 -80 57 -139q58 -60 150 -71v-105h-295v-47h295v-266h51v266h294zM576 402q-53 -48 -128 -48q-73 0 -126 48q-53 49 -53 118t53 118q53 48 126 48
q75 0 128 -48q53 -49 53 -118t-53 -118z" />
    <glyph glyph-name="angle" unicode="&#x2220;" 
d="M808 22h-626l567 571l-34 33l-600 -605q-21 -24 -19 -30q3 -13 22 -13h690v44z" />
    <glyph glyph-name="perpendicular" unicode="&#x22a5;" 
d="M115 30v-43h670v43h-305v566h-60v-566h-305z" />
    <glyph glyph-name="uni2312" unicode="&#x2312;" 
d="M147 563q19 83 103 136q83 51 193 51q109 0 193 -52q85 -53 103 -135h51q-19 95 -116 158q-98 64 -231 64t-231 -64q-97 -63 -116 -158h51z" />
    <glyph glyph-name="partialdiff" unicode="&#x2202;" horiz-adv-x="425" 
d="M140 565q46 107 113 107q49 0 78 -42q26 -39 26 -97q0 -57 -31 -202q-36 107 -125 102q-75 -4 -131 -83q-60 -84 -60 -202q0 -59 23 -95q42 -59 118 -59q93 0 150 119q106 207 106 409q0 94 -44 152q-44 56 -111 56q-64 0 -117 -58q-26 -26 -48 -77zM263 344
q21 -34 21 -81q0 -72 -39 -141q-41 -74 -97 -74q-43 0 -68 34q-23 31 -23 79q0 87 51 160q46 62 91 62q39 0 64 -39z" />
    <glyph glyph-name="gradient" unicode="&#x2207;" 
d="M898 686h-896l448 -778zM824 645l-374 -650l-375 650h749z" />
    <glyph glyph-name="equivalence" unicode="&#x2261;" 
d="M784 444v46h-668v-46h668zM784 277v46h-669v-46h669zM784 110v46h-669v-46h669z" />
    <glyph glyph-name="uni2252" unicode="&#x2252;" 
d="M112 359h676v50h-676v-50zM112 191h676v50h-676v-50zM203 518q18 -19 45 -19q28 0 47 19q19 18 19 46q0 29 -19 47q-18 19 -47 19q-27 0 -45 -19q-19 -19 -19 -47t19 -46zM606 -10q18 -19 46 -19q27 0 46 19t19 47q0 27 -19 46t-46 19q-28 0 -46 -19q-19 -19 -19 -46
q0 -28 19 -47z" />
    <glyph glyph-name="section" unicode="&#xa7;" horiz-adv-x="425" 
d="M352 74q-32 34 -109 89q18 -2 33 -2q44 0 73 32q30 32 30 78q0 70 -136 177q-138 111 -138 171q0 39 27 62q26 23 71 23q35 0 62 -19q28 -19 28 -44q0 -11 -5 -22q-5 -14 -5 -20q0 -48 42 -48q40 0 40 48q0 54 -47 93t-113 39q-61 0 -106 -39q-44 -39 -44 -93
q0 -80 136 -185q-44 11 -50 11q-39 0 -68 -32q-30 -33 -30 -77q0 -42 30 -80q39 -48 146 -128q86 -63 103 -90q12 -18 12 -41q0 -31 -31 -54t-73 -23q-36 0 -64 18q-28 19 -28 45q0 -8 8 32q1 3 1 11q0 19 -12 31q-11 13 -28 13q-43 0 -43 -47q0 -50 53 -88q53 -37 125 -37
q63 0 106 32q42 33 42 80q0 44 -38 84zM259 178q-36 0 -91 41q-74 60 -74 112q0 31 24 51q23 21 58 21h10q6 0 10 -3q5 -2 18 -13l37 -27q24 -21 35 -34q35 -39 35 -81q0 -67 -62 -67z" />
    <glyph glyph-name="uni203B" unicode="&#x203b;" 
d="M730 281q16 -16 39 -16t39 16t16 39t-17 39q-16 16 -38 16q-23 0 -39 -17q-15 -17 -15 -39q0 -23 15 -38zM92 281q16 -16 39 -16t39 16q15 16 15 39t-16 39q-15 16 -38 16t-40 -17q-16 -17 -16 -39t17 -38zM411 601q16 -16 39 -16q24 0 40 16q15 16 15 39q0 22 -17 38
q-16 17 -38 17q-24 0 -40 -17q-16 -16 -16 -38q0 -23 17 -39zM411 -39q16 -16 39 -16q24 0 40 16q15 16 15 40q0 22 -17 38q-16 15 -38 15q-24 0 -40 -16q-16 -15 -16 -38q0 -22 17 -39zM779 679l-329 -328l-330 328l-30 -29l329 -330l-329 -330l30 -29l330 328l329 -328
l30 29l-328 330l328 330z" />
    <glyph glyph-name="uni2606" unicode="&#x2606;" 
d="M913 431h-359l-100 308l-109 -309h-356l284 -204l-117 -333l292 209l283 -207l-108 329zM776 386l-209 -142l72 -226l-193 140l-198 -140l81 227l-200 141h250l75 209l64 -209h258z" />
    <glyph glyph-name="uni2605" unicode="&#x2605;" 
d="M551 433l-98 303l-107 -303h-350l279 -201l-114 -326l286 204l278 -203l-107 324l286 202h-353z" />
    <glyph glyph-name="circle" unicode="&#x25cb;" 
d="M741 593q-120 120 -291 120t-291 -120q-120 -121 -120 -292t120 -291q120 -121 291 -121q170 0 291 121q120 120 120 291q0 172 -120 292zM712 39q-109 -109 -262 -109q-154 0 -262 109q-109 108 -109 262t109 262q108 109 262 109q153 0 262 -109q108 -108 108 -262
t-108 -262z" />
    <glyph glyph-name="H18533" unicode="&#x25cf;" 
d="M160 591q-119 -120 -119 -290t119 -290q120 -120 290 -120t289 120q120 120 120 290t-120 290q-119 120 -289 120t-290 -120z" />
    <glyph glyph-name="uni25CE" unicode="&#x25ce;" 
d="M621 472q-70 71 -171 71t-172 -71t-71 -172t71 -172t172 -71t171 71q71 71 71 172t-71 172zM593 157q-60 -59 -143 -59q-84 0 -143 59q-59 60 -59 143t59 143q59 59 143 59q83 0 143 -59q59 -60 59 -143t-59 -143zM741 593q-120 120 -291 120t-291 -120
q-120 -121 -120 -292t120 -291q120 -121 291 -121q170 0 291 121q120 120 120 291q0 172 -120 292zM712 39q-109 -109 -262 -109q-154 0 -262 109q-109 108 -109 262t109 262q108 109 262 109q153 0 262 -109q108 -108 108 -262t-108 -262z" />
    <glyph glyph-name="uni25C7" unicode="&#x25c7;" 
d="M894 300l-444 445l-445 -445l445 -445zM834 300l-384 -385l-385 385l385 385z" />
    <glyph glyph-name="uni25C6" unicode="&#x25c6;" 
d="M450 741l-441 -441l441 -441l440 441z" />
    <glyph glyph-name="H22073" unicode="&#x25a1;" 
d="M839 -89v778h-779v-778h779zM797 -47h-694v694h694v-694z" />
    <glyph glyph-name="filledbox" unicode="&#x25a0;" 
d="M837 687h-775v-774h775v774z" />
    <glyph glyph-name="uni25B3" unicode="&#x25b3;" 
d="M898 -85l-448 778l-448 -778h896zM824 -44h-749l375 650z" />
    <glyph glyph-name="triagup" unicode="&#x25b2;" 
d="M450 688l-445 -771h889z" />
    <glyph glyph-name="uni25BD" unicode="&#x25bd;" 
d="M898 686h-896l448 -778zM824 645l-374 -650l-375 650h749z" />
    <glyph glyph-name="triagdn" unicode="&#x25bc;" 
d="M5 684l445 -771l444 771h-889z" />
    <glyph glyph-name="arrowright" unicode="&#x2192;" 
d="M901 303l-331 124l30 -95h-580v-65h580l-30 -93z" />
    <glyph glyph-name="arrowleft" unicode="&#x2190;" 
d="M883 268v65h-579l30 94l-332 -124l332 -129l-30 94h579z" />
    <glyph glyph-name="arrowup" unicode="&#x2191;" 
d="M576 448l-126 332l-127 -332l95 30v-631h64v631z" />
    <glyph glyph-name="arrowdown" unicode="&#x2193;" 
d="M576 154l-94 -30v631h-65v-632l-94 30l127 -332z" />
    <glyph glyph-name="arrowboth" unicode="&#x2194;" 
d="M908 300l-289 164l30 -131h-400l30 131l-288 -164l288 -165l-30 132h400l-30 -132z" />
    <glyph glyph-name="uni3013" unicode="&#x3013;" 
d="M779 444h-659v-50h659v50zM779 206h-659v-51h659v51z" />
    <glyph glyph-name="uni226A" unicode="&#x226a;" 
d="M368 300l474 328l-27 38l-491 -344q-20 -14 -20 -22q0 -7 15 -19l496 -347l29 35zM129 300l474 328l-27 38l-492 -344q-20 -14 -20 -22q0 -7 15 -19l497 -347l29 35z" />
    <glyph glyph-name="uni226B" unicode="&#x226b;" 
d="M812 322l-491 344l-27 -38l474 -328l-476 -331l29 -35l503 352q9 7 9 14q0 9 -21 22zM572 322l-491 344l-27 -38l473 -328l-475 -331l29 -35l490 343q10 7 11 9q12 8 12 14q0 7 -22 22z" />
    <glyph glyph-name="radical" unicode="&#x221a;" 
d="M509 782l-228 -734l-135 345l-106 -112l12 -21l57 60l160 -411l268 839h306v34h-334z" />
    <glyph glyph-name="uni223D" unicode="&#x223d;" 
d="M786 431q-52 48 -127 50q-120 4 -204 -134q-63 -106 -77 -122q-56 -68 -124 -65q-65 4 -102 47q-33 39 -32 94q0 55 33 92q37 42 97 42q72 0 99 -27l22 39q-54 36 -117 36q-80 0 -134 -55q-50 -51 -52 -121q-2 -86 56 -140q51 -48 126 -53q139 -8 227 167q36 72 66 104
q49 50 114 47q61 -3 99 -45q36 -42 35 -105q-1 -47 -38 -83q-39 -37 -92 -37q-69 0 -99 30l-23 -44q54 -36 117 -36q83 0 134 52q49 48 52 124q2 89 -56 143z" />
    <glyph glyph-name="proportional" unicode="&#x221d;" 
d="M190 404q44 43 107 43q72 0 127 -67q30 -37 46 -80q-16 -43 -46 -79q-55 -68 -127 -68q-63 0 -107 43t-44 104t44 104zM810 460q-51 36 -114 36q-126 0 -201 -138q-20 45 -60 81q-60 57 -138 57q-83 0 -142 -57q-58 -58 -58 -139t58 -138q59 -58 142 -58q78 0 138 56
q40 37 60 82q69 -138 201 -138q58 0 115 36l-28 38q-37 -25 -87 -25q-121 0 -174 147q53 147 174 147q52 0 88 -25z" />
    <glyph glyph-name="uni2235" unicode="&#x2235;" 
d="M771 578q-20 20 -46 20t-45 -21q-18 -20 -18 -46q0 -25 20 -44t44 -19q26 0 46 19q19 20 19 46t-20 45zM217 578q-20 20 -45 20q-26 0 -45 -21q-19 -20 -19 -46q0 -25 20 -44t45 -19q26 0 46 19q19 20 19 46q0 25 -21 45zM492 123q-20 20 -46 20t-45 -21q-18 -20 -18 -46
q0 -25 20 -44q19 -18 44 -18q26 0 46 19q19 19 19 45t-20 45z" />
    <glyph glyph-name="integral" unicode="&#x222b;" 
d="M582 674q0 -45 44 -45q23 0 38 15q14 14 14 35q0 28 -25 46q-27 19 -73 19q-78 0 -121 -65q-46 -65 -46 -224q0 -66 9 -194l5 -36l3 -99q0 -76 -31 -138q-33 -66 -77 -66q-23 0 -25 30q-2 54 -48 54q-21 0 -35 -13t-14 -31q0 -66 84 -66q65 0 116 37q51 38 72 102
q20 63 20 193q0 91 -6 168q-7 100 -7 151q0 76 23 125q26 51 56 51q24 0 24 -27v-22z" />
    <glyph glyph-name="uni222C" unicode="&#x222c;" 
d="M602 553q0 34 9 77q3 13 5 17l18 40q11 24 19 24q12 0 22 -27q14 -35 46 -35q45 0 45 41q0 21 -17 37q-17 15 -43 15q-63 0 -112 -69q-50 -69 -49 -162q0 -38 2 -116l6 -229q0 -16 -3 -36l-5 -52q-16 -76 -32 -116q-17 -38 -40 -41q-14 0 -22 27q-12 30 -37 30
q-38 0 -38 -38q0 -47 57 -47q36 0 73 26q37 27 57 67q45 92 45 243zM388 258l-7 296q-1 48 18 101q20 56 35 56q10 0 20 -27q13 -35 46 -35q41 0 41 41q0 21 -16 37q-17 15 -41 15q-78 0 -128 -96q-33 -66 -31 -194l6 -259q3 -129 -38 -232q-20 -41 -41 -41q-14 0 -23 29
q-11 32 -37 32q-15 0 -26 -12t-11 -29q0 -19 14 -32q15 -14 38 -14q35 0 75 27q39 27 59 66q46 89 46 242z" />
    <glyph glyph-name="element" unicode="&#x2208;" 
d="M794 324h-660q5 76 62 137q66 71 170 71h429v46h-410q-139 0 -221 -79q-80 -77 -80 -199q0 -123 80 -199q82 -79 221 -79h410v46h-429q-104 0 -170 71q-57 60 -62 137h660v48z" />
    <glyph glyph-name="suchthat" unicode="&#x220b;" 
d="M765 276q-5 -77 -61 -137q-66 -71 -172 -71h-428v-46h410q139 0 221 79q80 76 80 199q0 122 -80 199q-82 79 -221 79h-410v-46h428q105 0 172 -72q56 -60 61 -136h-660v-48h660z" />
    <glyph glyph-name="reflexsubset" unicode="&#x2286;" 
d="M803 135v54h-441q-113 0 -176 61q-54 52 -54 129q0 76 54 129q63 62 176 62h441v55h-419q-151 0 -232 -70q-76 -66 -76 -176q0 -109 74 -175q80 -70 225 -70v1h428zM823 -25v56h-747v-56h747z" />
    <glyph glyph-name="reflexsuperset" unicode="&#x2287;" 
d="M515 135q152 0 233 70q75 64 75 174t-76 176q-81 70 -232 70h-419v-56h441q113 0 176 -61q55 -53 55 -129q0 -78 -55 -130q-63 -61 -176 -61h-441v-54zM823 -25v56h-747v-56h747z" />
    <glyph glyph-name="propersubset" unicode="&#x2282;" 
d="M803 16v54h-441q-109 0 -174 77q-55 65 -55 148v10q0 83 56 149q65 77 173 77h441v54h-419q-141 0 -226 -81q-82 -79 -82 -204t81 -204q83 -81 218 -81v1h428z" />
    <glyph glyph-name="propersuperset" unicode="&#x2283;" 
d="M515 16q142 0 226 81q82 78 82 203t-82 204q-85 81 -226 81h-419v-55h441q109 0 174 -77q56 -65 56 -148v-10q0 -83 -56 -149q-65 -77 -174 -77h-441v-54z" />
    <glyph glyph-name="union" unicode="&#x222a;" 
d="M726 661h-56v-443q0 -117 -77 -185q-66 -57 -152 -57h-11q-87 0 -152 57q-78 68 -78 185v443h-54v-428q0 -142 83 -229q81 -85 207 -85q125 0 206 85q84 88 84 229v428z" />
    <glyph glyph-name="intersection" unicode="&#x2229;" 
d="M739 -61v428q0 142 -83 229q-81 85 -206 85q-126 0 -207 -85q-83 -87 -83 -229v-428h55v443q0 117 77 185q66 57 153 57h10q87 0 153 -57q78 -68 78 -185v-443h53z" />
    <glyph glyph-name="logicaland" unicode="&#x2227;" 
d="M795 -26l-318 654q-15 25 -27 25q-14 0 -27 -25l-318 -654l46 -26l299 612l298 -612z" />
    <glyph glyph-name="logicalor" unicode="&#x2228;" 
d="M748 654l-298 -612l-299 612l-46 -26l318 -654q13 -25 27 -25q12 0 27 25l318 654z" />
    <glyph glyph-name="uniFFE2" unicode="&#xffe2;" 
d="M64 633h720v-284h54v333h-774v-49z" />
    <glyph glyph-name="arrowdblright" unicode="&#x21d2;" 
d="M566 67l45 -42l276 274l-276 274l-45 -42l113 -110h-630v-58h688l66 -64l-66 -64h-688v-58h630z" />
    <glyph glyph-name="arrowdblboth" unicode="&#x21d4;" 
d="M565 67l43 -42l278 274l-278 274l-43 -42l113 -110h-456l113 110l-44 42l-278 -274l278 -274l44 42l-113 110h456zM165 363h570l66 -64l-66 -64h-570l-67 64z" />
    <glyph glyph-name="universal" unicode="&#x2200;" 
d="M721 673l-78 -202h-360l-79 204h-57l280 -742h71l278 740h-55zM462 -8l-160 426h322z" />
    <glyph glyph-name="existential" unicode="&#x2203;" 
d="M239 621h419v-306h-393v-50h393v-279h-406v-51h462v739h-475v-53z" />
    <glyph glyph-name="acute" unicode="&#xb4;" 
d="M556 788q-18 27 -55 -1q-22 -15 -158 -151q3 -4 99 42q99 48 113 67q20 23 1 43z" />
    <glyph glyph-name="uniFF5E" unicode="&#xff5e;" 
d="M658 781q-6 6 -12 -2q-50 -74 -116 -67q-28 2 -76 38q-54 37 -90 39q-40 2 -85 -38q-36 -33 -49 -64q-6 -10 3 -15q7 -4 14 1q66 81 136 66q20 -4 64 -39q50 -33 87 -35q37 -1 79 38q33 31 47 60q5 11 -2 18z" />
    <glyph glyph-name="caron" unicode="&#x2c7;" 
d="M655 778q18 15 9 20q-9 4 -30 -7l-186 -95l-185 94q-21 11 -30 7q-9 -5 8 -20l197 -156q12 -9 21 0z" />
    <glyph glyph-name="breve" unicode="&#x2d8;" 
d="M622 797q-65 -91 -166 -94q-114 -3 -181 97l-37 -23q83 -126 223 -119q129 6 202 124z" />
    <glyph glyph-name="hungarumlaut" unicode="&#x2dd;" 
d="M460 799q-19 -2 -27 -10q-36 -32 -139 -137q-8 -8 0 -7q15 2 86 36q79 39 106 63q19 16 1 47q-7 10 -27 8zM628 799q-19 -2 -27 -10q-36 -32 -139 -137q-8 -8 0 -7q15 2 86 36q79 39 106 63q19 16 1 47q-7 10 -27 8z" />
    <glyph glyph-name="ring" unicode="&#x2da;" 
d="M523 770q-29 28 -72 28q-42 0 -71 -28t-29 -69t29 -69t71 -28q43 0 72 28q30 28 30 69t-30 69zM498 657q-20 -19 -47 -19q-26 0 -46 19q-19 19 -19 44t19 44q20 19 46 19q27 0 47 -19q19 -18 19 -44t-19 -44z" />
    <glyph glyph-name="dotaccent" unicode="&#x2d9;" 
d="M495 781q-19 19 -45 19q-25 0 -45 -19t-20 -44q0 -26 19 -46q19 -21 45 -21q25 0 45 19q21 20 21 46t-20 46z" />
    <glyph glyph-name="cedilla" unicode="&#xb8;" horiz-adv-x="425" 
d="M258 -25l38 80h-88l-56 -119q68 -2 68 -52q0 -20 -16 -34q-17 -15 -40 -15q-22 0 -47 5l-7 -22q44 -17 68 -17q49 0 86 31q38 31 38 72q0 43 -44 71z" />
    <glyph glyph-name="ogonek" unicode="&#x2db;" horiz-adv-x="425" 
d="M308 -101q-3 0 -23 -19q-20 -20 -37 -20q-41 0 -41 47q0 33 26 77q5 13 5 15q0 7 -7 7q-4 0 -16 -9q-57 -49 -57 -108q0 -37 24 -64q24 -26 57 -26q31 0 54 27q24 27 24 61q0 12 -9 12z" />
    <glyph glyph-name="exclamdown" unicode="&#xa1;" 
d="M415 -24q-2 -49 -9 -102h94q-6 43 -8 102l-16 493h-45zM412 614q16 -16 38 -16t39 16t17 40q0 25 -16 41q-15 16 -39 16q-23 0 -39 -16q-17 -17 -17 -41t17 -40z" />
    <glyph glyph-name="questiondown" unicode="&#xbf;" 
d="M323 -75q55 -50 126 -50q50 0 107 20q51 18 85 47l-26 42q-27 -22 -58 -35q-43 -18 -85 -18q-60 0 -97 35q-34 36 -34 94q0 47 27 90q22 35 68 74q38 31 61 75q26 46 26 83l-1 94h-61v-69q0 -52 -19 -89q-20 -41 -68 -79q-44 -34 -76 -90q-29 -53 -29 -94q0 -78 54 -130z
M447 622q16 -16 38 -16t39 16t17 40q0 25 -16 41q-15 16 -39 16q-23 0 -39 -16q-17 -17 -17 -41t17 -40z" />
    <glyph glyph-name="uni02D0" unicode="&#x2d0;" horiz-adv-x="425" 
d="M301 584h-188l96 -165zM301 112l-92 165l-96 -165h188z" />
    <glyph glyph-name="uni222E" unicode="&#x222e;" 
d="M613 718q-112 0 -156 -147q-10 -34 -22 -135q-131 -38 -131 -145q0 -105 115 -138l-3 -80q-6 -61 -15 -85q-22 -82 -68 -82q-22 0 -22 39q-10 39 -50 39q-45 0 -45 -47q0 -57 81 -57q107 0 147 102q21 54 29 167q134 26 134 143q0 106 -116 141q5 31 9 92q10 74 33 126
q16 35 39 36q18 3 24 -17l5 -27q5 -28 38 -28q44 0 44 43q0 60 -70 60zM476 170v34q0 16 5 68l5 87q-2 -2 5 53q56 -30 75 -55q17 -24 17 -63q0 -91 -107 -124zM420 177q-91 43 -91 115q0 79 104 122q-9 -116 -13 -237z" />
    <glyph glyph-name="summation" unicode="&#x2211;" 
d="M258 60l308 295l-196 264h409l9 70h-468l-20 -69l187 -255l-309 -309l-14 -65h518l16 69h-440z" />
    <glyph glyph-name="product" unicode="&#x220f;" 
d="M782 643h-646v-64h146v-619h56v619h239v-619h57v619h148v64z" />
    <glyph glyph-name="currency" unicode="&#xa4;" 
d="M660 90q-88 -87 -210 -87q-123 0 -210 87t-87 210t88 210q87 87 210 87q122 0 209 -87t87 -210t-87 -210zM223 47q100 -87 228 -87q129 0 225 86l123 -123l29 29l-124 123q86 94 86 225q0 128 -87 226l125 125l-30 29l-126 -125q-95 85 -222 85q-130 0 -224 -86l-126 126
l-29 -29l125 -125q-86 -97 -86 -226q0 -127 85 -225l-124 -123l30 -29z" />
    <glyph glyph-name="uni2109" unicode="&#x2109;" 
d="M338 -52q0 -17 16 -17h45q16 0 16 17v282q0 17 19 17h298q16 0 16 17v31q0 17 -16 17h-298q-19 0 -19 17v215q0 16 16 16h334q16 0 16 17v30q0 17 -16 17h-267q-27 0 -49 -11l-68 -39q-43 -26 -43 -79v-547zM246 573q-18 -19 -46 -19t-46 19q-19 18 -19 46t19 46
q18 19 46 19t46 -19q19 -18 19 -46t-19 -46zM284 703q-34 34 -85 34q-50 0 -84 -34q-33 -34 -33 -85q0 -50 33 -84q34 -33 84 -33q51 0 85 33q34 34 34 84q0 51 -34 85z" />
    <glyph glyph-name="perthousand" unicode="&#x2030;" 
d="M31 -78h46l572 764h-47zM285 42q-1 -67 42 -97q42 -31 105 -8q64 24 107 87q44 62 45 129q0 66 -43 96q-43 31 -105 8t-106 -86q-45 -63 -45 -129zM422 -22q-44 -22 -72 -3q-29 20 -23 70q5 49 41 99q35 51 79 72q43 22 71 3q29 -21 23 -69q-5 -48 -40 -98
q-35 -52 -79 -74zM587 41q-1 -66 42 -96q44 -31 106 -8q62 22 107 86q44 63 45 130q0 66 -43 96q-44 31 -106 7q-62 -23 -106 -86q-45 -63 -45 -129zM724 -23q-44 -22 -72 -3q-28 20 -23 70q6 49 42 99q35 50 78 72t71 2q30 -19 24 -68q-5 -48 -40 -98q-37 -52 -80 -74z
M56 435q0 -66 43 -96t105 -7q63 22 107 85q44 64 45 130q0 67 -43 97t-105 7t-107 -86q-44 -64 -45 -130zM193 372q-43 -22 -71 -2q-29 20 -23 69q5 49 40 99q36 51 79 72q43 22 71 2q29 -20 24 -68q-5 -47 -39 -98q-38 -53 -81 -74z" />
    <glyph glyph-name="uni25C1" unicode="&#x25c1;" 
d="M814 753l-779 -450l779 -449v899zM122 303l650 376v-750z" />
    <glyph glyph-name="uni25C0" unicode="&#x25c0;" 
d="M814 753l-779 -450l779 -449v899z" />
    <glyph glyph-name="uni25B7" unicode="&#x25b7;" 
d="M76 753v-899l778 449zM117 -71v750l650 -376z" />
    <glyph glyph-name="uni25B6" unicode="&#x25b6;" 
d="M86 753v-899l778 449z" />
    <glyph glyph-name="uni2664" unicode="&#x2664;" 
d="M450 776q-43 -199 -219 -340q-136 -111 -136 -224q0 -69 42 -114q42 -46 108 -46q79 0 135 40q-1 -133 -45 -176q-36 -37 -153 -48l-6 -15h548l-7 15q-117 11 -153 48q-44 43 -45 176q56 -40 135 -40q66 0 108 46q42 45 42 114q0 113 -136 224q-175 140 -218 340z
M473 188q1 -243 59 -297h-164q59 56 59 297q-47 -83 -141 -91q-63 -6 -100 22q-38 28 -40 82q-4 72 39 131q18 22 90 82q128 104 175 233q52 -132 175 -234l46 -38q85 -75 82 -174q-1 -53 -38 -82q-38 -28 -101 -22q-94 8 -141 91z" />
    <glyph glyph-name="spade" unicode="&#x2660;" 
d="M450 776q-42 -196 -219 -339q-136 -111 -136 -225q0 -69 42 -114q42 -46 108 -46q104 0 159 38q-2 -128 -57 -174q-43 -36 -165 -48l-6 -15h548l-7 15q-122 12 -164 48q-55 46 -57 174q53 -38 158 -38q66 0 108 46q42 45 42 114q0 114 -136 225q-175 142 -218 339z" />
    <glyph glyph-name="uni2661" unicode="&#x2661;" 
d="M450 567q-53 128 -193 128q-77 0 -129 -50q-51 -50 -53 -126q-3 -125 146 -302l72 -82q42 -48 66 -80q64 -84 91 -172q27 90 90 172q24 32 66 80l72 82q149 177 146 302q-1 76 -53 126q-51 50 -128 50q-132 0 -193 -128zM532 116q-54 -66 -82 -122q-27 58 -81 122
l-112 129q-132 154 -132 258q0 69 37 110q39 44 109 40q62 -3 113 -66q44 -54 66 -131q21 76 65 130q51 62 113 66q72 4 111 -40q36 -40 36 -109q0 -102 -132 -258z" />
    <glyph glyph-name="heart" unicode="&#x2665;" 
d="M523 647q-50 -46 -73 -122q-24 75 -74 121q-53 48 -119 48q-78 0 -130 -50t-52 -126q0 -110 102 -249q31 -39 94 -111q63 -71 88 -104q63 -82 91 -171q27 90 90 172q24 32 66 80l72 82q146 173 146 302q0 76 -52 126t-129 50q-67 0 -120 -48z" />
    <glyph glyph-name="uni2667" unicode="&#x2667;" 
d="M610 436q28 45 28 100q0 78 -57 132q-56 52 -130 52q-76 0 -133 -53q-58 -55 -58 -132q0 -52 27 -98q-34 12 -66 8q-76 -8 -125 -65q-47 -54 -47 -125q0 -78 56 -132q55 -54 136 -54t142 69q-1 -151 -46 -206q-41 -50 -156 -61l-5 -16h547l-6 16q-114 11 -155 61
q-46 55 -48 205q65 -69 146 -69t136 56q55 55 55 131t-55 132q-51 51 -118 57q-38 2 -68 -8zM537 189h-64q0 -235 66 -296h-180q68 54 68 296h-66q-37 -72 -133 -72q-57 0 -93 41q-36 40 -36 98t36 102t87 45q56 2 82 -17l46 46q-42 38 -42 118q0 52 41 91q42 39 99 39
q59 0 101 -39q41 -39 41 -91q0 -81 -45 -122l47 -45q32 23 85 21q49 -1 86 -46t37 -103t-36 -98q-36 -41 -93 -41q-98 0 -134 73z" />
    <glyph glyph-name="club" unicode="&#x2663;" 
d="M610 436q28 45 28 100q0 77 -59 132q-56 52 -128 52q-74 0 -131 -53q-60 -55 -60 -132q0 -52 27 -98q-34 12 -66 8q-76 -8 -125 -65q-47 -54 -47 -125q0 -78 56 -132q55 -54 136 -54q111 0 165 68q-4 -148 -59 -206q-47 -49 -166 -60l-5 -16h547l-6 16q-118 11 -165 61
q-56 57 -60 204q54 -68 168 -68q81 0 136 56q55 55 55 131t-55 132q-51 51 -118 57q-38 2 -68 -8z" />
    <glyph glyph-name="uni2299" unicode="&#x2299;" 
d="M745 5q116 117 116 294q0 175 -116 291q-116 117 -290 117q-178 0 -298 -117t-120 -291q0 -176 119 -293q119 -118 298 -118q175 0 291 117zM709 562q111 -111 111 -266q0 -153 -108 -263q-109 -110 -260 -110q-152 0 -262 110q-109 110 -109 263t108 265
q108 111 256 111q154 0 264 -110zM590 163q54 53 54 137q0 83 -53 135q-53 51 -140 51q-86 0 -139 -51q-54 -52 -54 -136t54 -136q54 -53 139 -53t139 53z" />
    <glyph glyph-name="uni25C8" unicode="&#x25c8;" 
d="M452 784l-465 -489l460 -486l466 490zM448 -131l-404 427l407 427l404 -425zM453 572l-262 -278l256 -271l262 276z" />
    <glyph glyph-name="uni25A3" unicode="&#x25a3;" 
d="M850 720h-799v-834h799v834zM97 -75v758h711v-758h-711zM661 521h-417v-436h417v436z" />
    <glyph glyph-name="uni25D0" unicode="&#x25d0;" 
d="M140 609q-125 -125 -125 -308q0 -184 126 -310t310 -126q185 0 309 125q123 125 123 311q0 184 -123 308q-125 125 -310 125q-184 0 -310 -125zM446 696q169 -2 285 -123q110 -116 110 -273q0 -159 -110 -275q-114 -121 -285 -122v793z" />
    <glyph glyph-name="uni25D1" unicode="&#x25d1;" 
d="M131 601q-116 -123 -116 -301q0 -185 126 -311q125 -125 311 -125q184 0 307 125q124 124 124 311q0 181 -124 307t-302 126q-202 0 -326 -132zM455 -96q-169 1 -284 123q-111 115 -111 268q0 159 109 275q114 123 286 125v-791z" />
    <glyph glyph-name="shade" unicode="&#x2592;" 
d="M851 702h-802v-804h802v804zM79 -71v742h741v-742h-741zM676 609q0 -21 20 -21q21 0 21 21t-21 21q-20 0 -20 -21zM511 609q0 -21 20 -21q22 0 22 21t-22 21q-20 0 -20 -21zM718 403q0 -21 20 -21q21 0 21 21q0 20 -22 20q-19 0 -19 -20zM574 403q0 -21 20 -21
q21 0 21 21t-21 21q-20 0 -20 -21zM347 608q0 -20 20 -20t20 20q0 21 -21 21q-19 0 -19 -21zM656 197q0 -21 19 -21q22 0 22 21t-22 21q-19 0 -19 -21zM428 403q0 -21 20 -21q23 0 23 21t-23 21q-20 0 -20 -21zM182 609q0 -21 20 -21q21 0 21 21t-21 21q-20 0 -20 -21z
M718 -9q0 -21 19 -21q23 0 23 21t-23 21q-19 0 -19 -21zM501 197q0 -21 19 -21q22 0 22 21t-22 21q-19 0 -19 -21zM285 402q0 -20 20 -20t20 20q0 21 -21 21q-19 0 -19 -21zM574 -9q0 -21 20 -21q21 0 21 21t-21 21q-20 0 -20 -21zM142 403q0 -21 20 -21q21 0 21 21t-21 21
q-20 0 -20 -21zM338 196q0 -20 20 -20t20 20q0 21 -21 21q-19 0 -19 -21zM428 -9q0 -21 20 -21q22 0 22 21t-22 21q-20 0 -20 -21zM194 197q0 -21 19 -21q23 0 23 21t-23 21q-19 0 -19 -21zM284 -9q0 -21 20 -21q21 0 21 21t-21 21q-20 0 -20 -21zM141 -9q0 -21 21 -21
q20 0 20 21t-20 21q-21 0 -21 -21z" />
    <glyph glyph-name="uni25A4" unicode="&#x25a4;" 
d="M851 702h-802v-804h802v804zM79 516v155h741v-155h-741zM79 315v170h741v-170h-741zM79 115v170h741v-170h-741zM79 -71v155h741v-155h-741z" />
    <glyph glyph-name="uni25A5" unicode="&#x25a5;" 
d="M851 702h-802v-804h802v804zM666 -71v742h154v-742h-154zM465 -71v742h170v-742h-170zM265 -71v742h170v-742h-170zM79 -71v742h154v-742h-154z" />
    <glyph glyph-name="uni25A8" unicode="&#x25a8;" 
d="M851 702h-802v-804h802v804zM79 -42v240l472 473h240zM79 504v167h167zM79 242v219l210 210h219zM819 -71h-179l179 179v-179zM334 -71h-241l726 726v-241zM596 -71h-218l441 439v-215z" />
    <glyph glyph-name="uni25A7" unicode="&#x25a7;" 
d="M851 702h-802v-804h802v804zM653 671h167v-167zM392 671h218l210 -210v-219zM108 671h240l472 -473v-240zM565 -71l-485 485v241l726 -726h-241zM303 -71l-223 224v215l441 -439h-218zM80 -71v179l179 -179h-179z" />
    <glyph glyph-name="uni25A6" unicode="&#x25a6;" 
d="M851 702h-804v-805h804v805zM653 504v164h167v-164h-167zM460 504v164h166v-164h-166zM653 313v163h167v-163h-167zM266 504v164h168v-164h-168zM460 313v163h166v-163h-166zM653 122v164h167v-164h-167zM78 504v164h161v-164h-161zM266 313v163h168v-163h-168zM460 122
v164h166v-164h-166zM653 -69v163h167v-163h-167zM78 313v163h161v-163h-161zM266 122v164h168v-164h-168zM460 -69v163h166v-163h-166zM78 122v164h161v-164h-161zM266 -69v163h168v-163h-168zM78 -69v163h161v-163h-161z" />
    <glyph glyph-name="uni25A9" unicode="&#x25a9;" 
d="M851 700h-802v-804h802v804zM695 558l-112 111h223zM708 543l112 111v-222zM572 435l-108 108l108 108l108 -108zM695 312l-109 109l109 108l107 -108zM450 558l-112 111h223zM708 298l112 111v-222zM327 435l-107 108l107 108l109 -108zM450 312l-108 109l108 108
l108 -108zM572 190l-108 108l108 108l108 -108zM695 67l-109 108l109 109l107 -109zM204 558l-111 111h223zM708 53l112 111v-222zM79 432v222l112 -111zM583 -73l112 111l111 -111h-223zM204 312l-107 109l107 108l109 -108zM327 190l-107 108l107 108l109 -108zM450 67
l-108 108l108 109l108 -109zM572 -55l-108 108l108 108l108 -108zM338 -73l112 111l111 -111h-223zM79 187v222l112 -111zM327 -55l-107 108l107 108l109 -108zM204 67l-107 108l107 109l109 -109zM79 -58v222l112 -111zM93 -73l111 111l112 -111h-223z" />
    <glyph glyph-name="uni2668" unicode="&#x2668;" 
d="M620 685q-8 44 -17 43q-2 0 -3 -33q-2 -39 -10 -61q-51 -142 0 -267q34 -82 -28 -252q-12 -32 -12 -79q1 -45 11 -43q6 2 12 29q8 38 20 63q5 12 23 40q20 31 29 49q34 66 27 137q-4 49 -34 124q-25 60 -17 117q9 78 -1 133zM489 724q-8 64 -24 63q1 0 -2 -37
q-4 -47 -20 -86q-43 -100 -46 -112q-18 -78 22 -167q54 -114 3 -248q-20 -53 -19 -105q2 -45 14 -46q-12 1 37 95q80 160 69 215q-1 7 -45 148q-23 74 -2 142q22 67 13 138zM334 684q-1 45 -13 47q-2 0 -9 -28q-8 -35 -17 -52q-72 -147 -22 -287q34 -98 -8 -245
q-15 -42 -9 -85q5 -36 13 -36q7 0 11 18q7 33 21 63q65 141 61 189q-4 49 -34 159q-23 85 -14 122q21 80 20 135zM694 241q-3 -6 10 -10q37 -10 81 -45q56 -43 55 -85q-1 -68 -128 -119q-117 -48 -256 -50q-156 -2 -267 37q-118 41 -118 108q0 95 162 162q16 5 14 13
q-3 8 -16 4q-237 -68 -237 -202q0 -95 156 -154q150 -56 350 -44q156 10 274 67q137 66 131 162q-6 66 -92 118q-66 40 -106 43q-11 1 -13 -5z" />
    <glyph glyph-name="uni260F" unicode="&#x260f;" 
d="M451 596q-165 0 -314 -42q-57 -16 -82 -51q-23 -32 -32 -102q-5 -39 13 -52q12 -9 45 -8l83 4q31 1 44 12q16 14 22 55q10 53 73 68v-52q0 -37 -32 -63q-44 -36 -52 -62l-79 -227q0 -65 11 -82q0 -3 17 -3h565q18 0 18 3q10 30 10 82l-78 227q-9 25 -53 62q-32 26 -32 63
v52q63 -15 73 -68q6 -41 22 -55q13 -11 44 -12l83 -4q33 -1 45 8q18 13 13 52q-9 70 -32 102q-25 35 -82 51q-149 42 -313 42zM516 444q-30 4 -66 4q-37 0 -67 -4l-9 51q36 4 76 4q39 0 75 -4zM747 369q-22 1 -32 12q-10 13 -17 50q-11 65 -125 83q-123 22 -244 0
q-115 -18 -126 -83q-7 -37 -17 -50q-10 -11 -32 -12l-66 -2q-25 -1 -31 10q-6 10 -1 45q9 50 39 75q26 22 88 39q117 31 268 31q150 0 267 -31q62 -17 89 -39q29 -25 38 -75q5 -35 -1 -45q-6 -11 -31 -10zM725 22h-549l-6 46l71 212q14 40 62 74q31 21 31 78v57l14 2l11 -74
l31 3q35 2 60 2t59 -2l31 -2l14 72l13 -1v-57q0 -57 31 -78q48 -34 62 -74l72 -212zM359 335q-39 -37 -39 -91q0 -55 36 -95q37 -41 91 -41q56 0 94 39q39 38 39 95q0 53 -38 91q-38 39 -91 39q-54 0 -92 -37zM376 169q-29 32 -29 75q0 42 31 71q31 28 73 28t71 -30t29 -71
q0 -45 -29 -75q-30 -31 -75 -31q-42 0 -71 33z" />
    <glyph glyph-name="uni260E" unicode="&#x260e;" 
d="M675 392q6 -45 62 -47l83 -4q62 -2 62 40q-31 -9 -94 -7q-66 3 -113 18zM451 596q-166 0 -314 -40q-66 -19 -89 -53q-18 -28 -25 -102q31 -8 95 -6q59 2 112 18q1 23 24 43q22 19 49 24v-52q0 -30 -32 -63q-50 -54 -53 -62l-78 -227q0 -67 11 -84q0 -3 17 -3h565
q18 0 18 3q10 30 10 84l-78 227q-4 11 -53 62q-32 33 -32 63v52q27 -5 49 -24q23 -20 24 -43q55 -16 112 -18q64 -2 95 6q-7 74 -25 102q-23 34 -89 53q-148 40 -313 40zM20 381q0 -42 61 -40l83 4q55 2 63 47q-47 -15 -114 -18q-62 -2 -93 7zM450 417l-91 -6l-13 77l104 8
q10 0 104 -7l-14 -76zM356 149q-36 40 -36 95q0 54 39 91q38 37 92 37q53 0 91 -39q38 -38 38 -91q0 -57 -39 -95q-38 -39 -94 -39q-54 0 -91 41z" />
    <glyph glyph-name="uni261C" unicode="&#x261c;" 
d="M840 467h-133v-45q-18 0 -35 8q-147 75 -198 75q-28 0 -50 -17l-91 2l-165 -5q-119 -3 -119 -51q0 -40 48 -55q19 -6 71 -9l108 -6q-16 -18 -16 -35q0 -14 9 -23q-32 -13 -32 -46q0 -21 11 -31q-26 -14 -26 -40q0 -36 47 -59q39 -19 79 -19q47 0 62 26q145 -4 215 29
q27 12 82 12v-47h133v336zM734 159v280h41v-280h-41zM707 204q-59 0 -87 -14q-77 -39 -203 -31v15q33 5 33 50q39 7 53 54h88q36 4 71 22v6l-8 8l-6 -2q-36 -11 -60 -13q-26 -2 -59 1q-37 4 -29 4q-14 21 -38 38l42 48l-11 14l-46 -38q-34 -32 -65 -32q-40 0 -40 27
q0 11 27 38l49 50q27 30 63 30q4 0 190 -79q7 -3 36 -3v-193zM345 281q-55 24 -55 50q0 14 15 22q31 -40 75 -40q16 0 34 7q18 6 20 6q13 0 28 -15q14 -15 14 -29q0 -32 -35 -32q-30 0 -96 31zM329 388h-59l-136 5q-59 6 -59 39q0 31 96 31l231 2zM302 216q-37 17 -37 44
q0 23 22 23q8 0 24 -8q44 -28 93 -40q18 -7 18 -12q3 -28 -26 -28q-39 0 -94 21zM291 145q-38 17 -41 40q-2 12 4 21q5 9 12 5q39 -28 110 -38q16 -2 16 -15q0 -27 -44 -27q-25 0 -57 14z" />
    <glyph glyph-name="uni261E" unicode="&#x261e;" 
d="M565 510l-91 -2q-22 17 -50 17q-50 0 -198 -75q-16 -8 -34 -8v45h-133v-336h133v47q54 0 81 -12q70 -33 215 -29q16 -26 61 -26q41 0 80 19q47 23 47 59q0 25 -25 40q10 9 10 31q0 33 -32 46q9 7 9 23q0 17 -16 35l107 6q53 3 73 9q48 15 48 55q0 48 -121 51zM628 408
h-58l-75 77l232 -2q96 0 96 -31q0 -33 -59 -39zM457 270q-37 0 -37 32q0 14 15 29q16 15 29 15q2 0 20 -6q18 -7 34 -7q43 0 76 40q14 -9 14 -22q0 -25 -54 -50q-71 -31 -97 -31zM502 215q-29 0 -27 28q0 3 19 12q50 13 93 40q19 8 24 8q22 0 22 -23q0 -27 -37 -44
q-55 -21 -94 -21zM505 178q0 13 16 15q71 10 112 38q6 4 11 -5t4 -21q-3 -23 -41 -40q-32 -14 -57 -14q-45 0 -45 27zM451 386l-46 38l-11 -14l43 -48q-20 -14 -38 -38q8 0 -30 -4q-34 -3 -59 -1q-24 2 -60 13l-6 2l-7 -8v-6q35 -18 70 -22h88q14 -48 53 -54q0 -45 34 -50
v-15q-127 -8 -204 31q-27 14 -86 14v193q27 0 35 3q186 79 191 79q34 0 63 -30l48 -50q27 -27 27 -38q0 -27 -39 -27q-34 0 -66 32zM123 179v280h41v-280h-41z" />
    <glyph glyph-name="paragraph" unicode="&#xb6;" 
d="M743 743h-62v-905h62v905zM547 742l-59 1q-33 0 -99 -5q-228 -15 -228 -207q0 -98 67 -154q67 -57 179 -56l78 1l1 -484h61v904zM419 381q-85 -3 -138 39q-55 42 -55 113q0 73 56 114q55 41 153 41h50v-305z" />
    <glyph glyph-name="dagger" unicode="&#x2020;" 
d="M718 492h-229v253h-63v-253h-232v-57h232v-590h63v590h229v57z" />
    <glyph glyph-name="daggerdbl" unicode="&#x2021;" 
d="M725 610h-236v136h-63v-136h-233v-56h234v-116h-215v-57h215v-535h63v535h215v57h-216v116h236v56z" />
    <glyph glyph-name="arrowupdn" unicode="&#x2195;" 
d="M614 99l-132 -30v461l132 -30l-166 288l-163 -288l132 30v-461l-132 30l163 -288z" />
    <glyph glyph-name="uni2197" unicode="&#x2197;" 
d="M890 740l-317 -153l90 -29l-639 -640l46 -46l639 640l29 -90z" />
    <glyph glyph-name="uni2199" unicode="&#x2199;" 
d="M883 686l-46 46l-639 -639l-29 89l-152 -317l317 153l-90 29z" />
    <glyph glyph-name="uni2196" unicode="&#x2196;" 
d="M878 -82l-639 640l90 29l-317 153l152 -318l29 90l640 -640z" />
    <glyph glyph-name="uni2198" unicode="&#x2198;" 
d="M885 -135l-151 317l-31 -89l-638 639l-46 -46l638 -639l-88 -29z" />
    <glyph glyph-name="uni266D" unicode="&#x266d;" 
d="M377 684h-55v-748q79 2 156 39q132 64 181 209q24 73 9 134q-16 68 -75 88q-129 43 -216 -119v397zM378 244q0 28 43 76q57 64 133 39q62 -19 56 -126q-6 -101 -62 -168q-46 -54 -106 -77q-15 -7 -39 -12q-5 -1 -12 -1q-13 0 -13 8v261z" />
    <glyph glyph-name="uni2669" unicode="&#x2669;" 
d="M493 713l-1 -619h-16q-83 0 -141 -40q-57 -39 -57 -95q0 -62 76 -62q80 0 131 50t51 129v637h-43z" />
    <glyph glyph-name="musicalnote" unicode="&#x266a;" 
d="M627 131q53 47 80 94q27 43 27 106q0 56 -36 112q-21 32 -89 99l-74 68q-33 30 -66 70q-36 38 -52 41l-9 -1v-630q-12 2 -19 2q-84 0 -141 -40q-56 -40 -56 -97q0 -60 74 -60q81 0 133 52q51 51 51 132l1 468q72 -39 134 -93q86 -79 86 -158q0 -97 -103 -192
q-17 -16 -20 -23q28 5 79 50z" />
    <glyph glyph-name="uni266C" unicode="&#x266c;" 
d="M304 628v-545h-26q-76 0 -135 -41q-58 -42 -58 -93q0 -62 78 -62q58 0 112 37q73 51 73 157v315l368 87v-306q-80 0 -125 -20q-37 -17 -64 -53q-26 -36 -26 -68q0 -56 78 -56q64 0 119 43q62 48 62 142v564zM348 474v87l368 85v-89z" />
    <glyph glyph-name="uni327F" unicode="&#x327f;" 
d="M857 331q-19 159 -131 267q-116 111 -275 111q-170 0 -290 -127q-123 -130 -119 -318h184v41h-142q10 158 118 262q106 101 249 101q142 0 245 -98q100 -95 122 -239h39zM687 32l-246 307q107 102 196 215h-56q-82 -104 -267 -275v275h-48v-522h48v150q1 1 1 5l3 29l2 8
l89 82l223 -274h55zM673 303v-41h144q-13 -159 -120 -262q-105 -101 -249 -101q-140 0 -244 100q-100 95 -122 236h-41q22 -158 135 -265q116 -112 272 -112q170 0 292 129q123 131 118 316h-185z" />
    <glyph glyph-name="uni321C" unicode="&#x321c;" 
d="M222 547h204v-18q0 -63 -101 -128q-58 -38 -152 -55l31 -37q79 14 145 55q55 35 101 102q41 -64 100 -102q65 -40 145 -55l31 37q-95 18 -152 55q-101 65 -101 128v18h203v42h-454v-42zM744 203v42h-591v-42h273v-260h47v260h271zM743 705h-31q113 -167 113 -405
q0 -234 -113 -405h31q130 176 130 405q0 230 -130 405zM188 -105q-113 171 -113 405q0 238 113 405h-30q-131 -173 -131 -405q0 -231 131 -405h30z" />
    <glyph glyph-name="uni2116" unicode="&#x2116;" 
d="M811 26q-14 -16 -14 -36t15 -35q14 -14 32 -14q19 0 34 14q15 15 15 35t-15 36t-34 16t-33 -16zM77 560l279 -610h50v701h-44v-607l-278 607h-52v-701h45v610zM756 358q-48 72 -131 72q-84 0 -132 -72q-45 -68 -45 -172q0 -105 45 -172q48 -72 132 -72q83 0 131 72
q44 67 44 172q0 104 -44 172zM529 325q36 56 96 56q59 0 94 -56q34 -54 34 -139q0 -86 -34 -140q-35 -57 -94 -57q-60 0 -96 57q-35 54 -35 140q0 85 35 139z" />
    <glyph glyph-name="uni33C7" unicode="&#x33c7;" 
d="M813 26q-14 -16 -14 -36t15 -35q13 -15 29 -15q18 0 32 15q13 15 13 35t-13 36q-14 15 -32 15q-16 0 -30 -15zM763 357q-45 73 -122 73q-78 0 -124 -73q-42 -67 -42 -171q0 -105 42 -172q45 -73 124 -73q77 0 122 73q41 67 41 172q0 104 -41 171zM551 325q33 56 90 56
q55 0 88 -56q32 -54 32 -139q0 -87 -32 -141q-33 -56 -88 -56q-57 0 -90 56q-32 54 -32 141q0 86 32 139zM416 161q-25 -171 -154 -171q-80 0 -132 87q-53 88 -53 226q0 137 52 225q52 86 130 86q126 0 160 -169h39q-3 80 -45 142q-54 81 -151 81q-100 0 -164 -103
q-63 -103 -63 -262q0 -162 60 -262q62 -103 167 -103q93 0 145 79q38 56 50 144h-41z" />
    <glyph glyph-name="trademark" unicode="&#x2122;" 
d="M593 280h39l106 308v-308h46v364h-75l-98 -288l-111 288h-65v-364h44v300zM214 280h50v319h128v45h-306v-45h128v-319z" />
    <glyph glyph-name="uni33C2" unicode="&#x33c2;" 
d="M293 -10q0 -3 -4 26q-4 28 -4 50v243q0 76 -33 117q-33 42 -92 42q-61 0 -95 -45q-34 -44 -32 -116h44q-2 115 83 115q39 0 61 -29q20 -26 20 -65q0 -51 -43 -62q-7 -3 -51 -12q-37 -8 -61 -22q-75 -40 -71 -141q6 -105 94 -117q84 -12 134 61q6 -37 10 -45h40zM251 125
q0 -34 -33 -68q-33 -33 -70 -38q-34 -4 -56 17q-21 22 -23 62q-2 67 56 97q15 8 46 14l50 11q15 5 30 16v-111zM807 59q-13 -14 -13 -33q0 -18 13 -31q12 -13 28 -13t28 13q13 13 13 31q0 19 -13 33q-12 14 -28 14t-28 -14zM324 59q-12 -14 -12 -33t12 -31q12 -13 29 -13
q16 0 28 13t12 31q0 19 -12 33t-28 14q-18 0 -29 -14zM733 -12h40v317q0 158 -87 162q-63 1 -87 -69q-19 69 -72 69q-43 0 -68 -45v30h-40v-464h39v296q0 58 18 96q19 40 50 39q51 0 51 -125v-305h43v305q0 126 66 125q47 0 47 -125v-306z" />
    <glyph glyph-name="uni33D8" unicode="&#x33d8;" 
d="M857 57q-12 14 -30 14q-16 0 -27 -14q-12 -13 -12 -32q0 -17 12 -30q11 -12 27 -12q17 0 29 12q12 13 12 30q0 19 -11 32zM768 -12v303q0 151 -88 155q-61 1 -82 -64q-21 64 -71 64q-44 0 -66 -42v27h-43v-443l42 1v282q0 54 18 91t46 36q51 -1 51 -118v-291h43v291
q0 119 62 118q47 -1 47 -118v-291zM383 57q-12 14 -27 14q-18 0 -29 -14q-12 -13 -12 -32q0 -17 12 -30q12 -12 29 -12q14 0 26 12q13 13 13 30q0 19 -12 32zM281 383q-39 69 -101 69t-100 -53v37h-42v-588h42v189q37 -52 100 -52q62 0 101 69q38 66 38 164t-38 165zM248 86
q-28 -53 -70 -53q-96 0 -96 185q0 184 96 184q42 0 70 -52q27 -52 27 -132q0 -79 -27 -132z" />
    <glyph glyph-name="uni2121" unicode="&#x2121;" 
d="M212 548v-598h54v598h187v46h-430v-46h189zM803 595v-644h52v644h-52zM661 75q-28 -87 -126 -87q-52 0 -94 44q-46 48 -49 121h342q2 105 -58 170q-56 61 -141 61q-89 0 -145 -66q-54 -64 -54 -157q0 -94 54 -157q56 -65 145 -66q137 0 187 137h-61zM396 199q8 64 49 102
q38 35 90 35t91 -36q41 -38 48 -101h-278z" />
    <glyph glyph-name="uniFF01" unicode="&#xff01;" 
d="M492 642q0 17 -17 17h-51q-16 0 -16 -17l12 -487q0 -17 17 -17h25q17 0 17 17zM487 2q0 18 -17 18h-41q-16 0 -16 -18v-44q0 -17 16 -17h41q17 0 17 17v44z" />
    <glyph glyph-name="uniFF02" unicode="&#xff02;" 
d="M590 748q0 18 -19 18h-46q-17 0 -17 -18v-247q0 -18 17 -18h46q19 0 19 18v247zM393 748q0 18 -21 18h-43q-19 0 -19 -18v-247q0 -18 19 -18h43q21 0 21 18v247z" />
    <glyph glyph-name="uniFF03" unicode="&#xff03;" 
d="M801 418q5 17 -14 17h-133q-18 0 -14 17l53 193q5 17 -14 17h-36q-16 0 -21 -17l-52 -193q-4 -17 -21 -17h-123q-17 0 -13 17l52 193q5 17 -15 17h-36q-15 0 -20 -17l-52 -193q-4 -17 -23 -17h-131q-15 0 -21 -17l-9 -26q-6 -17 14 -17h133q14 0 12 -17l-34 -125
q-6 -17 -21 -17h-132q-19 0 -24 -17l-8 -27q-4 -17 13 -17h132q20 0 15 -17l-50 -182q-6 -17 12 -17h35q17 0 23 17l51 182q5 17 22 17h121q19 0 14 -17l-50 -182q-4 -17 14 -17h36q17 0 21 17l49 182q4 17 23 17h132q15 0 21 17l9 27q4 17 -14 17h-132q-19 0 -13 17l34 125
q5 17 21 17h132q19 0 24 17zM512 232q-5 -17 -22 -17h-124q-20 0 -15 17l36 127q3 17 21 17h126q19 0 14 -17z" />
    <glyph glyph-name="uniFF04" unicode="&#xff04;" 
d="M296 338q-16 0 -16 16v227q0 16 16 16h100q18 0 18 -17v-223q0 -19 -18 -19h-100zM237 2q-16 0 -16 -17v-30q0 -17 16 -17h159q18 0 18 -17v-91q0 -17 18 -17h38q17 0 17 17v91q0 17 17 17h33q27 0 49 11l68 39q43 26 43 79v145q0 126 -124 126h-69q-17 0 -17 19v223
q0 17 17 17h148q16 0 16 17v30q0 17 -16 17h-148q-17 0 -17 19v90q0 18 -17 18h-38q-18 0 -18 -18v-90q0 -19 -18 -19h-33q-27 0 -49 -11l-68 -39q-43 -26 -43 -79v-132q0 -126 124 -126h69q18 0 18 -17v-236q0 -19 -18 -19h-159zM504 2q-17 0 -17 19v236q0 17 17 17h100
q16 0 16 -16v-240q0 -16 -16 -16h-100z" />
    <glyph glyph-name="uniFF05" unicode="&#xff05;" 
d="M786 714q12 14 -7 14h-56q-18 0 -27 -14l-581 -828q-10 -14 6 -14h56q18 0 28 14zM63 361q49 -46 126 -46t126 46q53 49 53 134t-53 134q-49 46 -126 46t-126 -46q-53 -49 -53 -134t53 -134zM113 582q29 30 76 30t76 -30q31 -32 31 -87t-31 -87q-29 -30 -76 -30t-76 30
q-31 32 -31 87t31 87zM585 -30q49 -46 126 -46t126 46q53 49 53 134t-53 134q-49 46 -126 46t-126 -46q-53 -49 -53 -134t53 -134zM635 191q29 30 76 30t76 -30q31 -32 31 -87t-31 -87q-29 -30 -76 -30t-76 30q-31 32 -31 87t31 87z" />
    <glyph glyph-name="uniFF06" unicode="&#xff06;" 
d="M319 367q-19 0 -19 19v149q0 70 71 70h121q16 0 16 -16v-152q0 -70 -71 -70h-118zM472 315q-9 14 6 22l49 33q58 33 58 94v79q0 126 -124 126h-39q-27 0 -49 -11l-93 -55q-57 -32 -57 -94v-104q2 -63 31 -83q14 -10 14 -19q0 -7 -12 -17q-44 -35 -44 -99v-115
q0 -126 124 -126h164q23 0 38 17l63 72q8 9 15 0l64 -78q11 -11 28 -11h57q7 0 9 5q1 5 -5 10l-106 124q-7 10 0 20l91 101q13 15 -5 15h-56q-15 0 -24 -12l-49 -57q-7 -9 -15 0zM379 301q15 0 24 -9l155 -186q9 -12 0 -24l-57 -62q-10 -10 -25 -10h-171q-16 0 -16 16v207
q0 31 16 50q14 18 37 18h37z" />
    <glyph glyph-name="uniFF07" unicode="&#xff07;" 
d="M491 748q0 18 -21 18h-43q-19 0 -19 -18v-247q0 -18 19 -18h43q21 0 21 18v247z" />
    <glyph glyph-name="uniFF08" unicode="&#xff08;" 
d="M697 301q0 248 151 457q9 12 -6 12h-23q-17 0 -27 -10q-186 -206 -186 -459q0 -256 186 -460q10 -10 27 -10h23q15 0 6 11q-151 209 -151 459z" />
    <glyph glyph-name="uniFF09" unicode="&#xff09;" 
d="M57 -169h23q17 0 27 10q186 204 186 460q0 253 -186 459q-10 10 -27 10h-23q-15 0 -6 -12q151 -209 151 -457q0 -250 -151 -459q-9 -11 6 -11z" />
    <glyph glyph-name="uniFF0A" unicode="&#xff0a;" 
d="M516 256q-10 13 6 18l127 42q17 5 11 22l-11 33q-6 18 -22 12l-127 -44q-16 -6 -16 13l1 135q0 17 -19 17h-35q-18 0 -18 -17l1 -135q0 -19 -16 -13l-126 44q-16 6 -22 -13l-11 -33q-6 -16 11 -21l128 -43q17 -5 6 -19l-79 -105q-11 -14 5 -25l28 -20q15 -10 25 3l78 112
q10 15 19 0l78 -111q10 -13 26 -3l28 21q15 10 4 24z" />
    <glyph glyph-name="uniFF0B" unicode="&#xff0b;" 
d="M713 318q0 17 -18 17h-190q-17 0 -17 19v199q0 18 -17 18h-41q-18 0 -18 -18v-199q0 -19 -18 -19h-190q-17 0 -17 -17v-32q0 -18 17 -18h190q18 0 18 -17v-205q0 -17 18 -17h41q17 0 17 17v205q0 17 17 17h190q18 0 18 18v32z" />
    <glyph glyph-name="uniFF0C" unicode="&#xff0c;" 
d="M487 57q0 17 -16 17h-42q-16 0 -16 -17v-239q0 -14 12 -14t18 12l35 59q9 17 9 42v140z" />
    <glyph glyph-name="uniFF0D" unicode="&#xff0d;" 
d="M665 263q18 0 18 18v39q0 17 -18 17h-430q-17 0 -17 -17v-39q0 -18 17 -18h430z" />
    <glyph glyph-name="uniFF0E" unicode="&#xff0e;" 
d="M472 -15q18 0 18 18v49q0 17 -18 17h-46q-17 0 -17 -17v-49q0 -18 17 -18h46z" />
    <glyph glyph-name="uniFF0F" unicode="&#xff0f;" 
d="M632 744q5 15 -13 15h-33q-17 0 -22 -15l-296 -873q-5 -15 12 -15h31q19 0 24 15z" />
    <glyph glyph-name="uniFF10" unicode="&#xff10;" 
d="M258 28q71 -97 192 -97t193 97q72 99 72 272t-72 272q-72 97 -193 97t-192 -97q-73 -99 -73 -272t73 -272zM313 527q51 80 136 80q86 0 137 -80q53 -83 53 -227t-53 -227q-51 -80 -137 -80q-85 0 -136 80q-52 83 -52 227t52 227z" />
    <glyph glyph-name="uniFF11" unicode="&#xff11;" 
d="M427 21q0 -19 -18 -19h-161q-17 0 -17 -17v-28q0 -18 17 -18h403q18 0 18 18v28q0 17 -18 17h-131q-17 0 -17 19v623q0 18 -17 18h-131q-25 0 -42 -9l-45 -25q-12 -6 -12 -18t14 -12h141q16 0 16 -16v-561z" />
    <glyph glyph-name="uniFF12" unicode="&#xff12;" 
d="M586 355q0 -16 -16 -16h-210q-124 0 -124 -126v-256q0 -18 17 -18h383q18 0 18 18v29q0 17 -18 17h-306q-17 0 -17 19v237q0 16 16 16h210q124 0 124 126v135q0 126 -124 126h-196q-25 0 -42 -9l-45 -25q-12 -6 -12 -18t14 -12h312q16 0 16 -16v-227z" />
    <glyph glyph-name="uniFF13" unicode="&#xff13;" 
d="M583 357q0 -16 -16 -16h-236q-17 0 -17 -17v-29q0 -18 17 -18h232q19 0 19 -19v-237q0 -16 -16 -16h-226q-25 0 -42 -9l-46 -27q-12 -6 -12 -18t14 -12h245q27 0 49 11l68 39q43 26 43 79v145q-2 56 -41 83q-14 10 -14 19q0 7 12 17q44 35 44 99v105q0 126 -124 126h-178
q-25 0 -42 -9l-45 -25q-12 -6 -12 -18t14 -12h294q16 0 16 -16v-225z" />
    <glyph glyph-name="uniFF14" unicode="&#xff14;" 
d="M491 115q18 0 18 -17v-142q0 -17 18 -17h42q17 0 17 17v142q0 17 17 17h89q18 0 18 18v29q0 17 -18 17h-89q-17 0 -17 19v446q0 18 -17 18h-42q-18 0 -18 -18v-446q0 -19 -18 -19h-168q-16 0 -16 16v427q0 14 -12 14t-18 -12l-38 -63q-9 -17 -9 -42v-280q0 -124 126 -124
h135z" />
    <glyph glyph-name="uniFF15" unicode="&#xff15;" 
d="M575 19q0 -16 -16 -16h-212q-25 0 -42 -9l-45 -25q-12 -6 -12 -18t14 -12h230q27 0 49 11l68 39q43 26 43 79v154q0 126 -124 126h-179q-16 0 -16 16v215q0 19 17 19h269q18 0 18 17v29q0 18 -18 18h-346q-17 0 -17 -18v-234q0 -126 124 -126h179q16 0 16 -16v-249z" />
    <glyph glyph-name="uniFF16" unicode="&#xff16;" 
d="M323 19q0 -16 16 -16h242q16 0 16 16v262q0 16 -16 16l-241 -2q-17 1 -17 -15v-261zM323 335q0 -15 16 -12l201 37q18 4 30 4q104 0 104 -104v-192q0 -53 -43 -79l-68 -39q-22 -11 -49 -11h-142q-126 0 -126 124v470q0 53 43 79l68 39q22 11 49 11h220q14 0 14 -12
t-12 -18l-45 -25q-17 -9 -42 -9h-202q-16 0 -16 -16v-247z" />
    <glyph glyph-name="uniFF17" unicode="&#xff17;" 
d="M438 229q0 17 16 27l127 73q68 40 68 115v205q0 17 -19 17h-364q-16 0 -16 -17v-31q0 -16 16 -16h290q16 0 16 -18v-159q0 -20 -14 -28l-130 -74q-67 -40 -67 -114v-261q0 -14 12 -14t18 12l38 63q9 17 9 42v178z" />
    <glyph glyph-name="uniFF18" unicode="&#xff18;" 
d="M337 341q-19 0 -19 19v222q0 16 16 16h233q16 0 16 -16v-225q0 -16 -16 -16h-230zM499 -61q27 0 49 11l68 39q43 26 43 79v146q-2 56 -41 83q-14 10 -14 19q0 7 12 17q44 35 44 99v104q0 126 -124 126h-135q-27 0 -49 -11l-68 -39q-43 -26 -43 -79v-133q2 -56 41 -83
q14 -10 14 -19q0 -7 -12 -17q-44 -35 -44 -99v-117q0 -126 124 -126h135zM333 3q-16 0 -16 16v242q0 16 16 16h230q19 0 19 -19v-239q0 -16 -16 -16h-233z" />
    <glyph glyph-name="uniFF19" unicode="&#xff19;" 
d="M577 582q0 16 -16 16h-242q-16 0 -16 -16v-272q0 -16 16 -16l241 2q17 -1 17 15v271zM577 256q0 15 -16 12l-201 -37q-18 -4 -30 -4q-104 0 -104 104v202q0 53 43 79l68 39q22 11 49 11h142q126 0 126 -124v-470q0 -53 -43 -79l-68 -39q-22 -11 -49 -11h-220
q-14 0 -14 12t12 18l45 25q17 9 42 9h202q16 0 16 16v237z" />
    <glyph glyph-name="uniFF1A" unicode="&#xff1a;" 
d="M473 29q18 0 18 18v49q0 17 -18 17h-46q-17 0 -17 -17v-49q0 -18 17 -18h46zM473 487q18 0 18 18v49q0 17 -18 17h-46q-17 0 -17 -17v-49q0 -18 17 -18h46z" />
    <glyph glyph-name="uniFF1B" unicode="&#xff1b;" 
d="M472 486q18 0 18 18v49q0 17 -18 17h-46q-17 0 -17 -17v-49q0 -18 17 -18h46zM490 104q0 17 -16 17h-42q-16 0 -16 -17v-239q0 -14 12 -14t18 12l35 59q9 17 9 42v140z" />
    <glyph glyph-name="uniFF1C" unicode="&#xff1c;" 
d="M383 287q-12 13 0 26l230 249q11 14 -6 14h-53q-21 0 -31 -13l-235 -250q-12 -13 0 -26l227 -250q10 -13 29 -13h63q16 0 6 13z" />
    <glyph glyph-name="uniFF1D" unicode="&#xff1d;" 
d="M691 391q18 0 18 18v34q0 17 -18 17h-483q-17 0 -17 -17v-34q0 -18 17 -18h483zM691 140q18 0 18 18v34q0 17 -18 17h-483q-17 0 -17 -17v-34q0 -18 17 -18h483z" />
    <glyph glyph-name="uniFF1E" unicode="&#xff1e;" 
d="M287 37q-10 -13 6 -13h63q19 0 29 13l227 250q12 13 0 26l-235 250q-10 13 -31 13h-53q-17 0 -6 -14l230 -249q12 -13 0 -26z" />
    <glyph glyph-name="uniFF1F" unicode="&#xff1f;" 
d="M372 169q0 -18 17 -18h42q18 0 18 18v140q0 16 16 16h67q124 0 124 126v85q0 126 -124 126h-130q-25 0 -42 -9l-45 -25q-12 -6 -12 -18t14 -12h246q16 0 16 -16v-177q0 -16 -16 -16h-67q-124 0 -124 -126v-94zM435 -62q18 0 18 18v49q0 17 -18 17h-46q-17 0 -17 -17v-49
q0 -18 17 -18h46z" />
    <glyph glyph-name="uniFF20" unicode="&#xff20;" 
d="M355 446q-16 0 -16 -16v-295q0 -17 19 -17h182q19 0 19 17v295q0 16 -16 16h-188zM135 64q0 -144 146 -144h391q14 0 14 -12t-12 -18l-45 -25q-17 -9 -42 -9h-316q-92 0 -151 52q-62 55 -62 147v357q-2 85 64 141l173 129q56 40 143 41h193q223 0 223 -209v-305
q0 -62 -57 -94l-93 -55q-22 -11 -49 -11h-81q-16 0 -16 17v2q0 17 -22 14l-139 -36q-18 -2 -30 -2q-104 0 -104 104v232q0 53 43 79l68 39q22 11 49 11h196q16 0 16 -16v-363q0 -17 19 -17h52q71 0 71 70v321q0 154 -156 154h-166q-78 0 -132 -39l-126 -92q-62 -54 -62 -131
v-332z" />
    <glyph glyph-name="uniFF21" unicode="&#xff21;" 
d="M591 150q18 0 24 -17l57 -167q7 -18 26 -18h46q19 0 13 18l-233 690q-6 17 -26 17h-100q-17 0 -23 -17l-233 -690q-6 -18 13 -18h46q19 0 26 18l57 167q6 17 24 17h283zM325 213q-18 0 -12 18l123 383q3 9 13 9t14 -9l123 -383q6 -18 -12 -18h-249z" />
    <glyph glyph-name="uniFF22" unicode="&#xff22;" 
d="M632 17q0 -16 -16 -16h-333q-16 0 -16 17v228q0 17 19 17h327q19 0 19 -19v-227zM632 342q0 -16 -16 -16h-333q-16 0 -16 17v227q0 17 19 17h327q19 0 19 -19v-226zM708 559q0 104 -104 104q-12 0 -30 -2l-283 -36q-22 -3 -22 14v7q0 17 -16 17h-45q-17 0 -17 -17v-691
q0 -17 16 -17h341q27 0 49 11l68 39q43 26 43 79v125q-2 56 -42 83q-14 10 -14 19q0 7 12 17q44 35 44 99v149z" />
    <glyph glyph-name="uniFF23" unicode="&#xff23;" 
d="M315 582q0 16 16 16h368q16 0 16 17v30q0 17 -16 17h-301q-27 0 -49 -11l-68 -39q-43 -26 -43 -79v-468q0 -126 124 -126h260q25 0 42 9l45 25q12 6 12 18t-14 12h-376q-16 0 -16 16v563z" />
    <glyph glyph-name="uniFF24" unicode="&#xff24;" 
d="M646 17q0 -16 -16 -16h-340q-16 0 -16 17v551q0 17 19 17h334q19 0 19 -19v-550zM197 -46q0 -17 16 -17h350q27 0 49 11l68 39q43 26 43 79v494q0 104 -104 104q-12 0 -30 -2l-292 -36q-22 -3 -22 14v5q0 17 -16 17h-45q-17 0 -17 -17v-691z" />
    <glyph glyph-name="uniFF25" unicode="&#xff25;" 
d="M234 65q0 -126 124 -126h248q25 0 42 9l45 25q12 6 12 18t-14 12h-365q-16 0 -16 16v243q0 17 19 17h331q16 0 16 17v29q0 17 -16 17h-331q-19 0 -19 17v223q0 16 16 16h357q16 0 16 17v30q0 17 -16 17h-289q-27 0 -49 -11l-68 -39q-43 -26 -43 -79v-468z" />
    <glyph glyph-name="uniFF26" unicode="&#xff26;" 
d="M263 -54q0 -17 16 -17h45q16 0 16 17v292q0 17 19 17h308q16 0 16 17v31q0 17 -16 17h-308q-19 0 -19 17v235q0 16 16 16h344q16 0 16 17v30q0 17 -16 17h-277q-27 0 -49 -11l-68 -39q-43 -26 -43 -79v-577z" />
    <glyph glyph-name="uniFF27" unicode="&#xff27;" 
d="M213 41q0 -104 104 -104q12 0 30 2l280 36q22 3 22 -14v-4q0 -17 16 -17h44q17 0 17 17v333q0 16 -16 16h-219q-16 0 -16 -17v-30q0 -17 16 -17h143q16 0 16 -16v-190q0 -17 -19 -17l-322 -4q-19 0 -19 17v551q0 16 16 16h396q16 0 16 17v30q0 17 -16 17h-329
q-27 0 -49 -11l-68 -39q-43 -26 -43 -79v-493z" />
    <glyph glyph-name="uniFF28" unicode="&#xff28;" 
d="M713 646q0 17 -17 17h-44q-16 0 -16 -17v-292q0 -17 -19 -17h-335q-19 0 -19 17v292q0 17 -16 17h-45q-16 0 -16 -17v-691q0 -17 16 -17h45q16 0 16 17v304q0 17 19 17h335q19 0 19 -17v-304q0 -17 16 -17h44q17 0 17 17v691z" />
    <glyph glyph-name="uniFF29" unicode="&#xff29;" 
d="M489 646q0 17 -16 17h-46q-16 0 -16 -17v-691q0 -17 16 -17h46q16 0 16 17v691z" />
    <glyph glyph-name="uniFF2A" unicode="&#xff2a;" 
d="M463 -42q27 0 51 12l40 24q52 31 52 92v580q0 17 -16 17h-46q-16 0 -16 -17v-627q0 -16 -16 -16h-262q-16 0 -16 -17v-31q0 -17 16 -17h213z" />
    <glyph glyph-name="uniFF2B" unicode="&#xff2b;" 
d="M297 644q0 17 -16 17h-45q-16 0 -16 -17v-689q0 -17 16 -17h45q16 0 16 17v317q0 18 20 18q5 0 12 -7l295 -331q11 -14 31 -14h65q20 0 7 14l-319 351q-13 13 1 29l342 317q14 14 -5 14h-65q-20 0 -32 -14l-319 -307q-7 -7 -13 -7q-20 0 -20 18v291z" />
    <glyph glyph-name="uniFF2C" unicode="&#xff2c;" 
d="M626 -51q25 0 42 9l45 26q12 6 12 18t-14 12h-342q-16 0 -16 16v625q0 17 -16 17h-46q-16 0 -16 -17v-580q0 -126 124 -126h227z" />
    <glyph glyph-name="uniFF2D" unicode="&#xff2d;" 
d="M493 -61q15 0 22 17l212 639q5 14 16 14q16 0 16 -17v-636q0 -17 16 -17h41q16 0 16 17v689q0 17 -16 17h-120q-14 0 -20 -16l-210 -610q-5 -14 -16 -14t-16 14l-210 610q-6 16 -20 16h-120q-16 0 -16 -17v-689q0 -17 16 -17h41q16 0 16 17v636q0 17 16 17q11 0 16 -14
l212 -639q7 -17 22 -17h86z" />
    <glyph glyph-name="uniFF2E" unicode="&#xff2e;" 
d="M577 -45q10 -16 25 -16h126q16 0 16 17v689q0 17 -16 17h-45q-16 0 -16 -17v-636q0 -17 -16 -17q-10 0 -17 14l-311 640q-8 16 -25 16h-126q-16 0 -16 -17v-689q0 -17 16 -17h45q16 0 16 17v636q0 17 16 17q10 0 17 -14z" />
    <glyph glyph-name="uniFF2F" unicode="&#xff2f;" 
d="M274 3q-16 0 -16 16v563q0 16 16 16h351q16 0 16 -16v-563q0 -16 -16 -16h-351zM558 -61q27 0 49 11l68 39q43 26 43 79v468q0 126 -124 126h-253q-27 0 -49 -11l-68 -39q-43 -26 -43 -79v-468q0 -126 124 -126h253z" />
    <glyph glyph-name="uniFF30" unicode="&#xff30;" 
d="M664 286q0 -16 -16 -16h-317q-16 0 -16 17v260q0 17 19 17l311 1q19 0 19 -19v-260zM315 191q0 17 19 17h247q27 0 49 11l67 39q43 26 43 79v204q0 104 -104 104q-12 0 -30 -2l-267 -36q-22 -3 -22 14v3q0 17 -16 17h-45q-17 0 -17 -17v-691q0 -17 16 -17h44q16 0 16 17
v258z" />
    <glyph glyph-name="uniFF31" unicode="&#xff31;" 
d="M275 85q-16 0 -16 16v563q0 16 16 16h351q16 0 16 -16v-563q0 -16 -16 -16h-351zM369 21q16 0 16 -17v-102q0 -126 124 -126h149q25 0 42 9l45 25q12 6 12 18t-14 12h-264q-16 0 -16 16v148q0 17 16 17h80q27 0 49 11l68 39q43 26 43 79v468q0 126 -124 126h-253
q-27 0 -49 -11l-68 -39q-43 -26 -43 -79v-468q0 -126 124 -126h63z" />
    <glyph glyph-name="uniFF32" unicode="&#xff32;" 
d="M610 327q0 -16 -16 -16h-316q-16 0 -16 17v242q0 17 19 17h310q19 0 19 -19v-241zM643 300q43 26 43 79v180q0 104 -104 104q-12 0 -30 -2l-266 -36q-22 -3 -22 14v7q0 17 -16 17h-45q-17 0 -17 -17v-691q0 -17 16 -17h44q16 0 16 17v278q0 17 19 17h174q17 0 25 -15
l161 -282q7 -15 25 -15h54q16 0 8 15l-164 280q-10 14 5 24z" />
    <glyph glyph-name="uniFF33" unicode="&#xff33;" 
d="M296 339q-16 0 -16 16v226q0 16 16 16h356q16 0 16 17v31q0 17 -16 17h-289q-27 0 -49 -11l-68 -39q-43 -26 -43 -79v-132q0 -126 124 -126h277q16 0 16 -16v-239q0 -16 -16 -16h-367q-16 0 -16 -17v-31q0 -17 16 -17h300q27 0 49 11l68 39q43 26 43 79v145
q0 126 -124 126h-277z" />
    <glyph glyph-name="uniFF34" unicode="&#xff34;" 
d="M185 642q-17 0 -17 -17v-30q0 -17 17 -17h206q19 0 19 -17v-625q0 -17 16 -17h46q16 0 16 17v625q0 17 19 17h207q17 0 17 17v30q0 17 -17 17h-529z" />
    <glyph glyph-name="uniFF35" unicode="&#xff35;" 
d="M643 32q0 -17 -19 -17l-349 -1q-19 0 -19 17v616q0 17 -16 17h-45q-16 0 -16 -17v-607q0 -104 104 -104q12 0 30 2l302 36q22 3 22 -14v-4q0 -17 16 -17h50q17 0 17 17v691q0 17 -17 17h-44q-16 0 -16 -17v-615z" />
    <glyph glyph-name="uniFF36" unicode="&#xff36;" 
d="M235 645q-7 18 -26 18h-49q-19 0 -13 -18l225 -690q5 -17 23 -17h106q20 0 26 17l225 690q6 18 -13 18h-49q-19 0 -26 -18l-201 -648q-4 -9 -14 -9t-13 9z" />
    <glyph glyph-name="uniFF37" unicode="&#xff37;" 
d="M436 602q3 9 13 9q11 0 14 -9l151 -647q5 -17 23 -17h106q20 0 26 17l175 690q6 18 -13 18h-49q-19 0 -26 -18l-151 -646q-3 -9 -14 -9q-10 0 -13 9l-151 645q-5 17 -26 17h-106q-18 0 -23 -17l-151 -645q-3 -9 -14 -9q-10 0 -13 9l-151 646q-4 18 -26 18h-49
q-17 0 -13 -18l175 -690q5 -17 23 -17h106q20 0 26 17z" />
    <glyph glyph-name="uniFF38" unicode="&#xff38;" 
d="M655 -46q9 -16 28 -16h61q17 0 6 15l-244 335q-9 14 0 30l242 330q10 15 -8 15h-60q-16 0 -27 -15l-194 -273q-10 -11 -18 0l-195 273q-10 15 -27 15h-60q-20 0 -8 -15l243 -330q9 -16 0 -30l-245 -335q-11 -15 6 -15h61q19 0 28 16l198 285q8 12 16 0z" />
    <glyph glyph-name="uniFF39" unicode="&#xff39;" 
d="M466 290q-6 -10 -15 -10q-11 0 -17 10l-195 338q-9 15 -26 15h-57q-17 0 -8 -15l254 -417q9 -18 9 -32v-244q0 -17 16 -17h46q16 0 16 17v244q0 14 9 32l254 417q9 15 -8 15h-57q-15 0 -26 -15z" />
    <glyph glyph-name="uniFF3A" unicode="&#xff3a;" 
d="M711 644q0 18 -18 18h-469q-19 0 -19 -18v-29q0 -17 19 -17h381q16 0 8 -15l-420 -570q-11 -14 -11 -33v-23q0 -18 17 -18h501q18 0 18 18v26q0 20 -18 20h-413q-15 0 -6 13l420 572q10 20 10 33v23z" />
    <glyph glyph-name="uniFF3B" unicode="&#xff3b;" 
d="M848 -140q0 13 -17 16l-131 18q-19 4 -19 17v778q0 15 19 18l131 18q17 3 17 16v16q0 13 -17 13h-211q-16 0 -16 -13v-912q0 -14 16 -14h211q17 0 17 14v15z" />
    <glyph glyph-name="uniFFE6" unicode="&#xffe6;" 
d="M282 29q-3 -9 -14 -9q-10 0 -13 9l-37 250q-3 18 16 18h66q18 0 17 -17zM498 381q2 -18 -18 -18h-61q-19 0 -18 18l35 251q3 9 13 9q11 0 14 -9zM645 29q-3 -9 -14 -9q-10 0 -13 9l-36 251q-1 17 17 17h67q19 0 16 -18zM760 279q3 18 20 18h115q19 0 19 17v30
q0 19 -19 19h-101q-20 0 -16 18l51 294q6 18 -13 18h-49q-19 0 -26 -18l-44 -294q-1 -18 -19 -18h-91q-16 0 -19 18l-41 293q-5 17 -26 17h-106q-17 0 -22 -17l-41 -293q-3 -18 -19 -18h-91q-17 0 -19 18l-44 294q-4 18 -26 18h-49q-17 0 -13 -18l51 -294q5 -18 -16 -18
h-101q-19 0 -19 -19v-30q0 -17 19 -17h115q17 0 20 -18l51 -294q5 -17 23 -17h106q20 0 26 17l41 294q2 18 19 18h88q18 0 19 -18l41 -294q5 -17 23 -17h106q20 0 26 17z" />
    <glyph glyph-name="uniFF3D" unicode="&#xff3d;" 
d="M54 -155q0 -14 17 -14h211q16 0 16 14v912q0 13 -16 13h-211q-17 0 -17 -13v-16q0 -13 17 -16l131 -18q19 -3 19 -18v-778q0 -13 -19 -17l-131 -18q-17 -3 -17 -16v-15z" />
    <glyph glyph-name="uniFF3E" unicode="&#xff3e;" 
d="M566 558q9 -10 26 -10h52q13 0 13 11q0 8 -6 14l-188 185q-13 12 -26 0l-188 -185q-6 -6 -6 -14q0 -11 13 -11h52q17 0 26 10l106 107q10 10 20 0z" />
    <glyph glyph-name="uniFF3F" unicode="&#xff3f;" 
d="M903 -146q0 16 -17 16h-872q-16 0 -16 -16v-27q0 -20 16 -20h872q17 0 17 20v27z" />
    <glyph glyph-name="uniFF40" unicode="&#xff40;" 
d="M568 598l-176 174q-14 12 -26 0l-33 -32q-10 -12 0 -25l134 -134q12 -12 30 -12h60q16 0 16 16q0 8 -5 13z" />
    <glyph glyph-name="uniFF41" unicode="&#xff41;" 
d="M554 517q16 0 16 -16v-388q0 -17 -19 -17l-242 -2q-19 0 -19 17v390q0 16 16 16h248zM374 580q-27 0 -49 -11l-68 -39q-43 -26 -43 -79v-327q0 -104 104 -104q12 0 30 2l199 36q22 3 22 -14v-2q0 -17 16 -17h44q17 0 17 17v522q0 16 -16 16h-256z" />
    <glyph glyph-name="uniFF42" unicode="&#xff42;" 
d="M337 388q0 17 19 17l247 2q19 0 19 -17v-386q0 -16 -16 -16h-253q-16 0 -16 16v384zM338 699q0 17 -16 17h-45q-16 0 -16 -17v-648q0 -126 124 -126h153q27 0 49 11l68 39q43 26 43 79v325q0 104 -104 104q-12 0 -30 -2l-204 -36q-22 -3 -22 14v240z" />
    <glyph glyph-name="uniFF43" unicode="&#xff43;" 
d="M353 497q0 16 16 16h289q16 0 16 17v30q0 17 -16 17h-222q-27 0 -49 -11l-68 -39q-43 -26 -43 -79v-300q0 -126 124 -126h184q25 0 42 9l45 25q12 6 12 18t-14 12h-300q-16 0 -16 16v395z" />
    <glyph glyph-name="uniFF44" unicode="&#xff44;" 
d="M536 424q16 0 16 -16v-388q0 -17 -19 -17l-247 -2q-19 0 -19 17v390q0 16 16 16h253zM351 487q-27 0 -49 -11l-68 -39q-43 -26 -43 -79v-327q0 -104 104 -104q12 0 30 2l204 36q22 3 22 -14v-2q0 -17 16 -17h44q17 0 17 17v757q0 17 -16 17h-45q-16 0 -16 -17v-202
q0 -17 -19 -17h-181z" />
    <glyph glyph-name="uniFF45" unicode="&#xff45;" 
d="M612 351q0 -16 -16 -16h-253q-16 0 -16 16v147q0 16 16 16h253q16 0 16 -16v-147zM327 258q0 16 16 16h221q124 0 124 126v51q0 126 -124 126h-153q-27 0 -49 -11l-68 -39q-43 -26 -43 -79v-300q0 -126 124 -126h202q25 0 42 9l45 25q12 6 12 18t-14 12h-319
q-16 0 -16 16v156z" />
    <glyph glyph-name="uniFF46" unicode="&#xff46;" 
d="M356 -78q0 -17 16 -17h44q16 0 16 17v458q0 17 19 17h180q16 0 16 17v29q0 17 -16 17h-180q-19 0 -19 17v137q0 16 16 16h200q16 0 16 17v32q0 17 -16 17h-132q-27 0 -49 -11l-68 -39q-43 -26 -43 -79v-645z" />
    <glyph glyph-name="uniFF47" unicode="&#xff47;" 
d="M576 584q16 0 16 -16v-388q0 -17 -19 -17l-247 -2q-19 0 -19 17v390q0 16 16 16h253zM591 -67q0 -16 -16 -16h-305q-16 0 -16 -17v-31q0 -17 16 -17h255q27 0 51 12l40 24q52 31 52 92v651q0 16 -16 16h-261q-27 0 -49 -11l-68 -39q-43 -26 -43 -79v-327q0 -104 104 -104
q12 0 30 2l204 36q22 3 22 -14v-178z" />
    <glyph glyph-name="uniFF48" unicode="&#xff48;" 
d="M631 -58q0 -17 16 -17h44q16 0 16 17v437q0 104 -104 104q-12 0 -30 -2l-222 -36q-22 -3 -22 14v240q0 17 -16 17h-45q-16 0 -16 -17v-757q0 -17 16 -17h43q16 0 16 17v446q0 17 19 17l266 2q19 0 19 -17v-448z" />
    <glyph glyph-name="uniFF49" unicode="&#xff49;" 
d="M490 673q0 17 -16 17h-49q-16 0 -16 -17v-46q0 -17 16 -17h49q16 0 16 17v46zM487 448q0 17 -16 17h-44q-16 0 -16 -17v-521q0 -17 16 -17h44q16 0 16 17v521z" />
    <glyph glyph-name="uniFF4A" unicode="&#xff4a;" 
d="M405 -235q27 0 51 12l40 24q52 31 52 92v652q0 17 -16 17h-45q-16 0 -16 -17v-699q0 -16 -16 -16h-169q-16 0 -16 -17v-31q0 -17 16 -17h119zM550 777q0 17 -16 17h-49q-16 0 -16 -17v-46q0 -17 16 -17h49q16 0 16 17v46z" />
    <glyph glyph-name="uniFF4B" unicode="&#xff4b;" 
d="M352 679q0 17 -16 17h-45q-16 0 -16 -17v-757q0 -17 16 -17h45q16 0 16 17v232q0 18 20 18q5 0 12 -7l248 -246q11 -14 31 -14h65q20 0 7 14l-272 266q-13 13 1 29l267 235q14 14 -5 14h-65q-20 0 -32 -14l-244 -225q-7 -7 -13 -7q-20 0 -20 18v444z" />
    <glyph glyph-name="uniFF4C" unicode="&#xff4c;" 
d="M488 679q0 17 -16 17h-44q-16 0 -16 -17v-757q0 -17 16 -17h44q16 0 16 17v757z" />
    <glyph glyph-name="uniFF4D" unicode="&#xff4d;" 
d="M488 484q0 17 19 17l232 1q19 0 19 -17v-448q0 -17 16 -17h43q16 0 16 17v437q0 104 -104 104q-12 0 -30 -2l-208 -41q-16 -2 -29 14q-26 29 -78 29q-12 0 -30 -2l-188 -36q-22 -3 -22 14v8q0 17 -16 17h-44q-16 0 -16 -17v-525q0 -17 16 -17h42q16 0 16 17v447
q0 17 19 17l233 1q19 0 19 -17v-448q0 -17 16 -17h43q16 0 16 17v447z" />
    <glyph glyph-name="uniFF4E" unicode="&#xff4e;" 
d="M601 37q0 -17 16 -17h44q16 0 16 17v437q0 104 -104 104q-12 0 -30 -2l-222 -36q-22 -3 -22 14v8q0 17 -16 17h-45q-16 0 -16 -17v-525q0 -17 16 -17h43q16 0 16 17v446q0 17 19 17l266 2q19 0 19 -17v-448z" />
    <glyph glyph-name="uniFF4F" unicode="&#xff4f;" 
d="M326 85q-16 0 -16 16v397q0 16 16 16h248q16 0 16 -16v-397q0 -16 -16 -16h-248zM506 22q27 0 49 11l68 39q43 26 43 79v300q0 126 -124 126h-148q-27 0 -49 -11l-68 -39q-43 -26 -43 -79v-300q0 -126 124 -126h148z" />
    <glyph glyph-name="uniFF50" unicode="&#xff50;" 
d="M347 543q0 17 19 17l247 2q19 0 19 -17v-386q0 -16 -16 -16h-253q-16 0 -16 16v384zM271 -144q0 -17 16 -17h44q16 0 16 17v207q0 17 19 17h182q27 0 49 11l68 39q43 26 43 79v325q0 104 -104 104q-12 0 -30 -2l-204 -36q-22 -3 -22 14v9q0 17 -16 17h-45q-16 0 -16 -17
v-767z" />
    <glyph glyph-name="uniFF51" unicode="&#xff51;" 
d="M536 584q16 0 16 -16v-388q0 -17 -19 -17l-247 -2q-19 0 -19 17v390q0 16 16 16h253zM628 630q0 17 -16 17h-261q-27 0 -49 -11l-68 -39q-43 -26 -43 -79v-327q0 -104 104 -104q12 0 30 2l204 36q22 3 22 -14v-242q0 -17 16 -17h44q17 0 17 17v761z" />
    <glyph glyph-name="uniFF52" unicode="&#xff52;" 
d="M666 551q0 18 -17 18h-78q-38 0 -64 -15l-60 -31q-4 -2 -10 -2q-18 0 -18 16v14q0 18 -16 18h-41q-18 0 -18 -18v-526q0 -17 18 -17h41q16 0 16 17v449q0 17 18 17l212 1q17 0 17 18v41z" />
    <glyph glyph-name="uniFF53" unicode="&#xff53;" 
d="M574 274q16 0 16 -16v-157q0 -16 -16 -16h-298q-16 0 -16 -17v-29q0 -17 16 -17h230q27 0 49 11l68 39q43 26 43 79v61q0 126 -124 126h-216q-16 0 -16 16v144q0 16 16 16h298q16 0 16 17v29q0 17 -16 17h-230q-27 0 -49 -11l-68 -39q-43 -26 -43 -79v-48
q0 -126 124 -126h216z" />
    <glyph glyph-name="uniFF54" unicode="&#xff54;" 
d="M436 441q0 17 18 17h178q19 0 19 18v27q0 18 -19 18h-188q-8 1 -8 13v102q0 18 -16 13l-40 -22q-18 -11 -18 -22v-513q0 -126 124 -126h79q25 0 42 9l45 25q12 6 12 18t-14 12h-198q-16 0 -16 16v395z" />
    <glyph glyph-name="uniFF55" unicode="&#xff55;" 
d="M297 564q0 17 -16 17h-43q-16 0 -16 -17v-442q0 -104 104 -104q12 0 30 2l222 36q22 3 22 -14v-1q0 -17 16 -17h45q16 0 16 17v523q0 17 -16 17h-44q-16 0 -16 -17v-452q0 -17 -19 -17l-266 -2q-19 0 -19 17v454z" />
    <glyph glyph-name="uniFF56" unicode="&#xff56;" 
d="M286 558q-7 18 -26 18h-47q-19 0 -13 -18l173 -518q5 -17 23 -17h104q20 0 26 17l173 518q6 18 -13 18h-47q-19 0 -26 -18l-150 -478q-4 -9 -14 -9t-13 9z" />
    <glyph glyph-name="uniFF57" unicode="&#xff57;" 
d="M437 515q3 9 13 9t14 -9l128 -475q5 -17 23 -17h105q20 0 26 17l151 518q6 18 -13 18h-48q-19 0 -26 -18l-127 -476q-4 -9 -14 -9t-13 9l-128 475q-5 17 -26 17h-106q-18 0 -23 -17l-128 -475q-4 -9 -14 -9t-13 9l-127 476q-6 18 -26 18h-48q-19 0 -13 -18l151 -518
q5 -17 23 -17h105q20 0 26 17z" />
    <glyph glyph-name="uniFF58" unicode="&#xff58;" 
d="M602 39q11 -16 28 -16h64q17 0 6 15l-194 243q-9 14 0 30l192 250q9 15 -8 15h-63q-16 0 -27 -15l-141 -197q-10 -11 -18 0l-141 197q-10 15 -27 15h-63q-17 0 -8 -15l192 -250q9 -16 0 -30l-194 -243q-11 -15 6 -15h64q18 0 28 16l144 197q8 12 16 0z" />
    <glyph glyph-name="uniFF59" unicode="&#xff59;" 
d="M564 -125q0 -14 12 -14t18 12l38 64q9 17 9 42v683q0 17 -16 17h-43q-16 0 -16 -17v-452q0 -17 -19 -17l-267 -2q-19 0 -19 17v454q0 17 -16 17h-44q-16 0 -16 -17v-441q0 -104 104 -104q12 0 30 2l223 36q22 3 22 -14v-266z" />
    <glyph glyph-name="uniFF5A" unicode="&#xff5a;" 
d="M668 559q0 18 -18 18h-379q-19 0 -19 -18v-28q0 -17 19 -17h289q19 0 8 -15l-330 -403q-11 -14 -11 -33v-23q0 -18 17 -18h411q18 0 18 18v25q0 20 -18 20h-321q-15 0 -6 13l330 405q10 13 10 33v23z" />
    <glyph glyph-name="uniFF5B" unicode="&#xff5b;" 
d="M578 -69q0 -101 124 -101h43q31 0 49 7l45 20q12 5 12 15q0 9 -14 9h-166q-16 0 -16 13v340q0 44 -41 66q-14 8 -14 15q0 6 12 13q44 29 44 80v298q0 13 16 13h167q17 0 17 14v23q0 14 -17 14h-100q-28 0 -49 -9l-68 -31q-43 -20 -43 -63v-319q0 -12 -16 -12h-116
q-17 0 -17 -14v-22q0 -15 17 -15h112q19 0 19 -15v-339z" />
    <glyph glyph-name="uniFF5C" unicode="&#xff5c;" 
d="M488 755q0 15 -16 15h-44q-16 0 -16 -15v-910q0 -14 16 -14h44q16 0 16 14v910z" />
    <glyph glyph-name="uniFF5D" unicode="&#xff5d;" 
d="M319 669q0 101 -124 101h-43q-31 0 -49 -7l-45 -20q-12 -4 -12 -15q0 -9 14 -9h166q16 0 16 -13v-319q0 -44 41 -67q14 -8 14 -15q0 -4 -12 -13q-44 -28 -44 -79v-319q0 -13 -16 -13h-167q-17 0 -17 -14v-23q0 -14 17 -14h100q28 0 49 9l68 31q43 20 43 63v339
q0 13 16 13h116q17 0 17 14v22q0 15 -17 15h-112q-19 0 -19 15v318z" />
    <glyph glyph-name="glyph357" horiz-adv-x="0" 
 />
    <glyph glyph-name="uni3131" unicode="&#x3131;" 
d="M176 530q-16 0 -16 -16v-31q0 -16 16 -16h455q15 0 15 -15v-395q0 -17 17 -17q15 0 21 15l32 73q5 12 5 35v275q0 28 -18 43l-45 34q-20 15 -49 15h-433z" />
    <glyph glyph-name="uni3132" unicode="&#x3132;" 
d="M161 530q-16 0 -16 -16v-30q0 -16 16 -16h204q15 0 15 -15v-396q0 -17 17 -17q15 0 21 15l31 69q5 12 5 35v281q0 11 -3 21q-3 7 4 7h201q15 0 15 -15v-396q0 -17 17 -17q15 0 21 15l31 69q5 12 5 35v281q0 28 -18 43l-42 32q-20 15 -49 15h-187q-16 0 -16 -16v-20
q0 -8 -7 -3l-32 24q-20 15 -49 15h-184z" />
    <glyph glyph-name="uni3133" unicode="&#x3133;" 
d="M444 74q7 -7 17 -1q114 81 147 166q3 11 8 0q41 -96 158 -167q10 -6 17 1l29 31q11 13 -1 20q-171 91 -171 248v152q0 16 -16 16h-43q-16 0 -16 -16v-151q0 -141 -142 -234q-11 -7 -11 6v369q0 16 -16 16h-268q-16 0 -16 -17v-28q0 -16 16 -16h194q15 0 15 -15v-368
q0 -16 16 -16h43q16 0 16 14q0 10 8 4z" />
    <glyph glyph-name="uni3134" unicode="&#x3134;" 
d="M165 175q0 -35 21 -52l41 -32q22 -16 48 -16h449q16 0 16 16v29q0 16 -15 16h-467q-16 0 -16 15v368q0 16 -16 16h-45q-16 0 -16 -16v-344z" />
    <glyph glyph-name="uni3135" unicode="&#x3135;" 
d="M462 72q7 -7 19 -3q105 63 137 184q3 9 6 0q36 -125 145 -185q11 -4 18 3l31 27q6 5 5 13q-1 7 -7 9q-72 36 -116 109t-44 160v60q0 16 15 16h107q16 0 16 16v25q0 17 -16 17h-311q-16 0 -16 -17v-25q0 -16 16 -16h102q15 0 15 -16v-60q0 -176 -137 -263q-12 -9 -12 4
q0 8 -12 8h-200q-15 0 -15 15v354q0 21 -16 21h-45q-16 0 -16 -16v-336q0 -35 21 -52l41 -32q22 -16 48 -16h180q16 0 16 18z" />
    <glyph glyph-name="uni3136" unicode="&#x3136;" 
d="M128 180q0 -35 21 -52l41 -32q22 -16 48 -16h184q16 0 16 16v30q0 16 -16 16h-202q-15 0 -15 15v349q0 16 -16 16h-45q-16 0 -16 -16v-326zM529 152q-34 33 -34 91q0 60 32 94q31 32 81 32t81 -32q32 -34 32 -94q0 -58 -34 -91q-31 -31 -79 -31t-79 31zM831 408
q0 18 -16 18h-157q-15 0 -15 15v84q0 16 -16 16h-44q-16 0 -16 -16v-84q0 -15 -15 -15h-151q-16 0 -16 -18v-27q0 -16 16 -16l71 1q16 0 3 -13q-49 -46 -49 -119q0 -80 52 -128q50 -45 130 -45t130 45q52 48 52 128q0 73 -49 119q-13 13 3 13l71 -1q16 0 16 16v27z" />
    <glyph glyph-name="uni3137" unicode="&#x3137;" 
d="M170 170q0 -35 21 -52l41 -32q22 -16 48 -16h454q16 0 16 16v31q0 16 -16 16h-472q-15 0 -15 15v306q0 15 15 15h468q16 0 16 16v29q0 16 -16 16h-544q-16 0 -16 -16v-344z" />
    <glyph glyph-name="uni3138" unicode="&#x3138;" 
d="M135 170q0 -35 21 -52l41 -32q22 -16 48 -16h197q16 0 16 16v20q0 8 7 3l32 -24q20 -15 49 -15h203q16 0 16 16v29q0 16 -16 16h-213q-15 0 -15 15v308q0 15 15 15h208q16 0 16 16v29q0 16 -16 16h-281q-16 0 -16 -16v-368q0 -15 -15 -15h-208q-15 0 -15 15v308
q0 15 15 15h165q16 0 16 16v29q0 16 -16 16h-238q-16 0 -16 -16v-344z" />
    <glyph glyph-name="uni3139" unicode="&#x3139;" 
d="M165 165q0 -35 21 -52l41 -32q22 -16 48 -16h459q16 0 16 16v29q0 16 -16 16h-478q-15 0 -15 15v118q0 17 15 17h463q16 0 16 16v229q0 16 -16 16h-538q-16 0 -16 -16v-29q0 -16 16 -16h463q15 0 15 -15v-111q0 -15 -15 -15h-463q-16 0 -16 -16v-154z" />
    <glyph glyph-name="uni313A" unicode="&#x313a;" 
d="M498 535q-16 0 -16 -17v-27q0 -16 16 -16h186q15 0 15 -15v-384q0 -16 16 -16h44q16 0 16 16v443q0 16 -16 16h-261zM459 65q16 0 16 16v30q0 16 -16 16h-244q-15 0 -15 15v124q0 15 15 15h201q16 0 16 16v222q0 16 -16 16h-277q-16 0 -16 -16v-28q0 -16 16 -16h205
q15 0 15 -15v-107q0 -15 -15 -15h-205q-16 0 -16 -16v-157q0 -35 21 -52l41 -32q22 -16 48 -16h226z" />
    <glyph glyph-name="uni313B" unicode="&#x313b;" 
d="M556 126q-15 0 -15 15v322q0 15 15 15h135q15 0 15 -15v-322q0 -15 -15 -15h-135zM435 65q16 0 16 16v30q0 16 -16 16h-224q-15 0 -15 15v124q0 15 15 15h182q16 0 16 16v222q0 16 -16 16h-259q-16 0 -16 -16v-29q0 -16 16 -16h191q15 0 15 -15v-106q0 -15 -15 -15h-191
q-16 0 -16 -16v-157q0 -35 21 -52l41 -32q22 -16 48 -16h207zM472 164q0 -35 21 -52l38 -31q22 -16 48 -16h182q16 0 16 16v438q0 16 -16 16h-273q-16 0 -16 -16v-355z" />
    <glyph glyph-name="uni313C" unicode="&#x313c;" 
d="M708 141q0 -15 -15 -15h-143q-15 0 -15 15v167q0 15 15 15h143q15 0 15 -15v-167zM118 165q0 -35 21 -52l41 -32q22 -16 48 -16h199q16 0 16 16v30q0 16 -16 16h-216q-15 0 -15 15v124q0 15 15 15h178q16 0 16 16v222q0 16 -16 16h-255q-16 0 -16 -16v-29q0 -16 16 -16
h187q15 0 15 -15v-106q0 -15 -15 -15h-187q-16 0 -16 -16v-157zM761 65q16 0 16 16v443q0 16 -16 16h-39q-16 0 -16 -16v-128q0 -15 -15 -15h-140q-15 0 -15 15v128q0 16 -15 16h-38q-16 0 -16 -16v-359q0 -35 21 -52l41 -32q22 -16 48 -16h184z" />
    <glyph glyph-name="uni313D" unicode="&#x313d;" 
d="M123 165q0 -35 21 -52l41 -32q22 -16 48 -16h209q14 0 16 14l18 -20q7 -7 17 -1q103 60 146 173q3 11 8 0q45 -107 156 -174q10 -6 17 1l29 31q11 13 -2 21q-169 90 -169 255v159q0 16 -16 16h-44q-16 0 -16 -16v-159q0 -161 -144 -249q-3 11 -16 11h-226q-15 0 -15 15
v124q0 15 15 15h211q16 0 16 16v222q0 16 -16 16h-288q-16 0 -16 -16v-30q0 -16 16 -16h214q15 0 15 -15v-104q0 -15 -15 -15h-214q-16 0 -16 -16v-158z" />
    <glyph glyph-name="uni313E" unicode="&#x313e;" 
d="M546 459q0 15 15 15h193q16 0 16 16v29q0 16 -16 16h-260q-16 0 -16 -16v-354q0 -35 21 -52l41 -32q22 -16 48 -16h177q16 0 16 16v30q0 16 -16 16h-204q-15 0 -15 15v124q0 15 15 15h190q16 0 16 16v22q0 16 -16 16h-190q-15 0 -15 15v109zM128 165q0 -35 21 -52l41 -32
q22 -16 48 -16h199q16 0 16 16v30q0 16 -16 16h-216q-15 0 -15 15v124q0 15 15 15h176q16 0 16 16v222q0 16 -16 16h-253q-16 0 -16 -16v-29q0 -16 16 -16h185q15 0 15 -15v-106q0 -15 -15 -15h-185q-16 0 -16 -16v-157z" />
    <glyph glyph-name="uni313F" unicode="&#x313f;" 
d="M774 65q16 0 16 16v29q0 16 -16 16h-41q-15 0 -15 15v318q0 15 15 15h30q16 0 16 16v29q0 16 -16 16h-290q-16 0 -16 -16v-29q0 -16 16 -16h30q15 0 15 -15v-318q0 -15 -15 -15h-29q-16 0 -16 -16v-29q0 -16 16 -16h300zM597 121q-15 0 -15 15v327q0 15 15 15h41
q15 0 15 -15v-327q0 -15 -15 -15h-41zM123 165q0 -35 21 -52l41 -32q22 -16 48 -16h189q16 0 16 16v30q0 16 -16 16h-206q-15 0 -15 15v124q0 15 15 15h181q16 0 16 16v222q0 16 -16 16h-258q-16 0 -16 -16v-29q0 -16 16 -16h190q15 0 15 -15v-106q0 -15 -15 -15h-190
q-16 0 -16 -16v-157z" />
    <glyph glyph-name="uni3140" unicode="&#x3140;" 
d="M540 152q-30 33 -30 91q0 126 106 126t106 -126q0 -58 -30 -91q-29 -31 -76 -31t-76 31zM408 519q0 16 -16 16h-253q-16 0 -16 -16v-29q0 -16 16 -16h185q15 0 15 -15v-106q0 -15 -15 -15h-185q-16 0 -16 -16v-157q0 -35 21 -52l41 -32q22 -16 48 -16h199q16 0 16 16v30
q0 16 -16 16h-216q-15 0 -15 15v124q0 15 15 15h176q16 0 16 16v54q0 15 15 15h60q16 0 3 -13q-45 -42 -45 -119q0 -81 49 -128q47 -45 126 -45t126 45q49 47 49 128q0 78 -44 119q-13 13 3 13l63 -1q16 0 16 16v27q0 18 -16 18h-147q-15 0 -15 15v85q0 16 -16 16h-44
q-16 0 -16 -16v-85q0 -15 -15 -15h-137q-15 0 -15 15v78z" />
    <glyph glyph-name="uni3141" unicode="&#x3141;" 
d="M649 474q15 0 15 -15v-318q0 -15 -15 -15h-398q-15 0 -15 15v318q0 15 15 15h398zM160 165q0 -35 21 -52l41 -32q22 -16 48 -16h454q16 0 16 16v438q0 16 -16 16h-548q-16 0 -16 -16v-354z" />
    <glyph glyph-name="uni3142" unicode="&#x3142;" 
d="M252 127q-15 0 -15 15v182q0 15 15 15h396q15 0 15 -15v-182q0 -15 -15 -15h-396zM160 165q0 -35 21 -52l41 -32q22 -16 48 -16h454q16 0 16 16v448q0 16 -16 16h-45q-16 0 -16 -16v-114q0 -15 -15 -15h-396q-15 0 -15 15v109q0 16 -16 16h-45q-16 0 -16 -16v-359z" />
    <glyph glyph-name="uni3143" unicode="&#x3143;" 
d="M656 331q15 0 15 -15v-175q0 -15 -15 -15h-150q-15 0 -15 15v175q0 15 15 15h150zM245 126q-15 0 -15 15v175q0 15 15 15h159q15 0 15 -15v-175q0 -15 -15 -15h-159zM155 164q0 -35 21 -52l39 -31q22 -16 48 -16h467q16 0 16 16v443q0 16 -16 16h-43q-16 0 -16 -16v-117
q0 -15 -15 -15h-149q-15 0 -15 15v117q0 16 -16 16h-42q-16 0 -16 -16v-117q0 -15 -15 -15h-158q-15 0 -15 15v117q0 16 -16 16h-43q-16 0 -16 -16v-360z" />
    <glyph glyph-name="uni3144" unicode="&#x3144;" 
d="M219 125q-15 0 -15 15v171q0 15 15 15h157q15 0 15 -15v-171q0 -15 -15 -15h-157zM460 137v382q0 16 -16 16h-38q-16 0 -16 -16v-123q0 -15 -15 -15h-156q-15 0 -15 15v118q0 16 -16 16h-42q-16 0 -16 -16v-349q0 -35 21 -52l41 -32q22 -16 48 -16h204q16 0 16 16l26 -21
q7 -7 17 -1q91 64 133 174q3 11 8 0q46 -107 157 -175q10 -6 17 1l29 31q11 13 -2 21q-170 91 -170 256v157q0 16 -16 16h-42q-16 0 -16 -16v-157q0 -154 -124 -239q-17 -12 -17 9z" />
    <glyph glyph-name="uni3145" unicode="&#x3145;" 
d="M480 524q0 16 -16 16h-47q-16 0 -16 -16v-73q0 -103 -84 -195q-85 -92 -225 -139q-21 -7 -6 -24l30 -31q10 -11 28 -4q208 76 290 249q7 13 13 0q82 -172 293 -249q16 -7 26 4l27 30q16 17 -4 24q-140 47 -225 140q-84 92 -84 195v73z" />
    <glyph glyph-name="uni3146" unicode="&#x3146;" 
d="M465 69q83 64 129 181q4 10 8 0q44 -126 169 -196q12 -6 22 1l33 33q14 12 -1 20q-84 38 -137 118q-53 79 -53 164v134q0 16 -16 16h-42q-16 0 -16 -16v-127q0 -154 -107 -246q-4 -3 -9 0q-107 92 -107 246v127q0 16 -16 16h-42q-16 0 -16 -16v-134q0 -85 -53 -164
q-53 -80 -137 -118q-15 -8 -1 -20l33 -33q10 -7 22 -1q125 70 169 196q4 10 8 0q46 -117 129 -181q16 -11 31 0z" />
    <glyph glyph-name="uni3147" unicode="&#x3147;" 
d="M630 173q-65 -52 -178 -52t-177 52q-61 49 -61 127t61 127q64 52 177 52t178 -52q60 -49 60 -127t-60 -127zM217 129q86 -69 235 -69t235 69q81 65 81 171t-81 171q-86 69 -235 69t-235 -69q-81 -65 -81 -171t81 -171z" />
    <glyph glyph-name="uni3148" unicode="&#x3148;" 
d="M445 288q7 15 13 0q86 -169 286 -236q14 -4 23 6l26 33q11 15 -6 20q-138 44 -218 130q-78 83 -78 179v39q0 15 15 15h226q16 0 16 16v29q0 16 -16 16h-561q-16 0 -16 -16v-29q0 -16 16 -16h226q15 0 15 -15v-39q0 -96 -78 -179q-80 -86 -218 -130q-17 -5 -6 -20l26 -33
q9 -10 23 -6q200 67 286 236z" />
    <glyph glyph-name="uni3149" unicode="&#x3149;" 
d="M625 459q0 15 15 15h105q16 0 16 16v29q0 16 -16 16h-588q-16 0 -16 -16v-29q0 -16 16 -16h96q15 0 15 -15v-87q0 -84 -48 -160q-49 -78 -129 -116q-13 -8 -1 -20l31 -31q9 -7 21 -1q102 55 158 195q4 12 8 0q46 -116 124 -180q16 -11 30 -1q75 57 125 180q4 11 7 0
q61 -137 158 -191q13 -6 21 1l30 31q14 12 -1 20q-77 38 -127 116q-50 77 -50 157v87zM554 379q0 -157 -103 -241q-3 -3 -8 0q-104 86 -104 241v81q0 15 15 15h185q15 0 15 -15v-81z" />
    <glyph glyph-name="uni314A" unicode="&#x314a;" 
d="M428 564q-16 0 -16 -16v-95q0 -16 -16 -16h-231q-16 0 -16 -16v-29q0 -16 16 -16h232q14 0 14 -14v-24q0 -64 -84 -132q-90 -72 -216 -93q-18 -4 -6 -20l25 -33q9 -11 23 -8q87 18 171 75q86 58 123 125q5 6 9 0q36 -66 122 -124q85 -58 171 -76q14 -3 23 8l26 33
q11 15 -6 20q-126 21 -216 93q-84 68 -84 132v24q0 14 14 14h231q16 0 16 16v29q0 16 -16 16h-230q-16 0 -16 16v95q0 16 -16 16h-47z" />
    <glyph glyph-name="uni314B" unicode="&#x314b;" 
d="M178 530q-16 0 -16 -16v-30q0 -16 16 -16h460q15 0 15 -15v-126q0 -15 -15 -15h-452q-16 0 -16 -16v-30q0 -16 16 -16h452q15 0 15 -15v-178q0 -17 17 -17q15 0 21 15l32 73q5 12 5 35v275q0 28 -18 43l-45 34q-20 15 -49 15h-438z" />
    <glyph glyph-name="uni314C" unicode="&#x314c;" 
d="M241 459q0 15 15 15h463q16 0 16 16v29q0 16 -16 16h-538q-16 0 -16 -16v-354q0 -35 21 -52l41 -32q22 -16 48 -16h454q16 0 16 16v29q0 16 -16 16h-473q-15 0 -15 15v124q0 15 15 15h459q16 0 16 16v27q0 16 -16 16h-459q-15 0 -15 15v105z" />
    <glyph glyph-name="uni314D" unicode="&#x314d;" 
d="M744 65q16 0 16 16v29q0 16 -16 16h-94q-15 0 -15 15v318q0 15 15 15h84q16 0 16 16v29q0 16 -16 16h-568q-16 0 -16 -16v-29q0 -16 16 -16h84q15 0 15 -15v-318q0 -15 -15 -15h-94q-16 0 -16 -16v-29q0 -16 16 -16h588zM355 125q-15 0 -15 15v319q0 15 15 15h190
q15 0 15 -15v-319q0 -15 -15 -15h-190z" />
    <glyph glyph-name="uni314E" unicode="&#x314e;" 
d="M597 136q-52 -28 -147 -28q-96 0 -148 28q-49 25 -49 66q0 40 49 65q53 27 148 27t147 -27q48 -25 48 -65q0 -41 -48 -66zM244 93q74 -44 206 -44t205 44q69 42 69 109t-69 107q-73 44 -205 44t-206 -44q-69 -40 -69 -107t69 -109zM504 456q-15 0 -15 15v86q0 16 -16 16
h-43q-16 0 -16 -16v-86q0 -15 -15 -15h-262q-16 0 -16 -16v-29q0 -16 16 -16h627q16 0 16 16v29q0 16 -16 16h-260z" />
    <glyph glyph-name="uni314F" unicode="&#x314f;" 
d="M363 736q-16 0 -16 -16v-844q0 -16 16 -16h44q16 0 16 16v403q0 15 15 15h210q16 0 16 16v29q0 17 -16 17h-210q-15 0 -15 15v349q0 16 -16 16h-44z" />
    <glyph glyph-name="uni3150" unicode="&#x3150;" 
d="M294 726q-16 0 -16 -16v-821q0 -16 16 -16h41q16 0 16 16v389q0 15 15 15h172q15 0 15 -15v-402q0 -16 16 -16h42q16 0 16 16v844q0 16 -16 16h-42q-16 0 -16 -16v-350q0 -15 -15 -15h-172q-15 0 -15 15v340q0 16 -16 16h-41z" />
    <glyph glyph-name="uni3151" unicode="&#x3151;" 
d="M363 736q-16 0 -16 -16v-844q0 -16 16 -16h42q16 0 16 16v276q0 15 15 15h202q16 0 16 16v27q0 17 -16 17h-202q-15 0 -15 15v170q0 15 15 15h202q16 0 16 16v27q0 17 -16 17h-202q-15 0 -15 15v218q0 16 -16 16h-42z" />
    <glyph glyph-name="uni3152" unicode="&#x3152;" 
d="M344 421q0 15 15 15h186q15 0 15 -15v-170q0 -15 -15 -15h-186q-15 0 -15 15v170zM345 160q0 15 15 15h184q15 0 15 -15v-284q0 -16 16 -16h41q16 0 16 16v844q0 16 -16 16h-41q-16 0 -16 -16v-208q0 -15 -15 -15h-184q-15 0 -15 15v198q0 16 -16 16h-40q-16 0 -16 -16
v-821q0 -16 16 -16h40q16 0 16 16v271z" />
    <glyph glyph-name="uni3153" unicode="&#x3153;" 
d="M605 736q-16 0 -16 -16v-349q0 -15 -15 -15h-210q-16 0 -16 -17v-29q0 -16 16 -16h210q15 0 15 -15v-403q0 -16 16 -16h44q16 0 16 16v844q0 16 -16 16h-44z" />
    <glyph glyph-name="uni3154" unicode="&#x3154;" 
d="M584 -124q0 -16 16 -16h42q16 0 16 16v844q0 16 -16 16h-42q-16 0 -16 -16v-844zM375 292q15 0 15 -15v-389q0 -16 16 -16h40q16 0 16 16v822q0 16 -16 16h-40q-16 0 -16 -16v-340q0 -15 -15 -15h-186q-16 0 -16 -17v-30q0 -16 16 -16h186z" />
    <glyph glyph-name="uni3155" unicode="&#x3155;" 
d="M597 736q-16 0 -16 -16v-218q0 -15 -15 -15h-202q-16 0 -16 -17v-27q0 -16 16 -16h202q15 0 15 -15v-170q0 -15 -15 -15h-202q-16 0 -16 -17v-27q0 -16 16 -16h202q15 0 15 -15v-276q0 -16 16 -16h42q16 0 16 16v844q0 16 -16 16h-42z" />
    <glyph glyph-name="uni3156" unicode="&#x3156;" 
d="M588 -124q0 -16 16 -16h42q16 0 16 16v844q0 16 -16 16h-42q-16 0 -16 -16v-844zM394 -111q0 -16 16 -16h40q16 0 16 16v821q0 16 -16 16h-40q-16 0 -16 -16v-199q0 -15 -15 -15h-161q-16 0 -16 -17v-28q0 -16 16 -16h161q15 0 15 -15v-169q0 -15 -15 -15h-161
q-16 0 -16 -17v-28q0 -16 16 -16h161q15 0 15 -15v-271z" />
    <glyph glyph-name="uni3157" unicode="&#x3157;" 
d="M415 137q0 -15 -15 -15h-356q-16 0 -16 -17v-29q0 -16 16 -16h812q16 0 16 16v29q0 17 -16 17h-349q-15 0 -15 15v388q0 16 -16 16h-45q-16 0 -16 -16v-388z" />
    <glyph glyph-name="uni3158" unicode="&#x3158;" 
d="M703 736q-16 0 -16 -16v-577q0 -20 -20 -23q-82 -12 -287 -16q-11 0 -11 14v260q0 16 -16 16h-44q-16 0 -16 -16v-260q0 -15 -15 -15h-242q-16 0 -16 -17v-30q0 -16 16 -16h231q208 0 394 24q24 4 26 -22v-166q0 -16 16 -16h44q16 0 16 16v428q0 15 15 15h110q16 0 16 16
v29q0 17 -16 17h-110q-15 0 -15 15v324q0 16 -16 16h-44z" />
    <glyph glyph-name="uni3159" unicode="&#x3159;" 
d="M753 323q15 0 15 -15v-432q0 -16 16 -16h42q16 0 16 16v844q0 16 -16 16h-42q-16 0 -16 -16v-320q0 -15 -15 -15h-104q-15 0 -15 15v310q0 16 -16 16h-40q-16 0 -16 -16v-557q0 -20 -20 -23q-58 -9 -198 -14q-14 -1 -14 15v244q0 16 -16 16h-44q-16 0 -16 -16v-247
q0 -14 -15 -14q-25 -1 -74 -1h-100q-16 0 -16 -17v-30q0 -16 16 -16h77q208 0 394 24q24 4 26 -22v-163q0 -16 16 -16h40q16 0 16 16v419q0 15 15 15h104z" />
    <glyph glyph-name="uni315A" unicode="&#x315a;" 
d="M753 736q-16 0 -16 -16v-574q0 -20 -20 -23q-80 -12 -283 -16q-15 0 -15 14v257q0 16 -16 16h-44q-16 0 -16 -16v-257q0 -15 -15 -15h-243q-16 0 -16 -17v-31q0 -16 16 -16h232q208 0 394 24q26 4 26 -22v-168q0 -16 16 -16h44q16 0 16 16v844q0 16 -16 16h-44z" />
    <glyph glyph-name="uni315B" unicode="&#x315b;" 
d="M358 122q-15 0 -15 15v387q0 16 -16 16h-44q-16 0 -16 -16v-387q0 -15 -15 -15h-208q-16 0 -16 -17v-29q0 -16 16 -16h812q16 0 16 16v29q0 17 -16 17h-206q-15 0 -15 15v387q0 16 -16 16h-44q-16 0 -16 -16v-387q0 -15 -15 -15h-186z" />
    <glyph glyph-name="uni315C" unicode="&#x315c;" 
d="M415 76q0 -16 16 -16h45q16 0 16 16v388q0 15 15 15h349q16 0 16 17v29q0 16 -16 16h-812q-16 0 -16 -16v-29q0 -17 16 -17h356q15 0 15 -15v-388z" />
    <glyph glyph-name="uni315D" unicode="&#x315d;" 
d="M753 736q-16 0 -16 -16v-579q0 -15 -15 -15h-190q-16 0 -16 -17v-28q0 -16 16 -16h190q15 0 15 -15v-174q0 -16 16 -16h44q16 0 16 16v844q0 16 -16 16h-44zM319 -114q0 -16 16 -16h44q16 0 16 16v365q0 14 15 14q159 7 270 21q16 0 16 16v31q0 15 -14 14
q-154 -22 -379 -22h-215q-16 0 -16 -17v-30q0 -16 16 -16h216q15 0 15 -15v-361z" />
    <glyph glyph-name="uni315E" unicode="&#x315e;" 
d="M598 726q-16 0 -16 -16v-573q0 -15 -15 -15h-127q-16 0 -16 -17v-28q0 -16 16 -16h127q15 0 15 -15v-157q0 -16 16 -16h43q16 0 16 16v821q0 16 -16 16h-43zM255 -114q0 -16 16 -16h43q16 0 16 16v357q0 14 13 15q114 5 190 17q16 2 16 16v31q0 15 -14 14
q-102 -17 -286 -17h-162q-16 0 -16 -17v-30q0 -16 16 -16h153q15 0 15 -15v-355zM769 -124q0 -16 16 -16h42q16 0 16 16v844q0 16 -16 16h-42q-16 0 -16 -16v-844z" />
    <glyph glyph-name="uni315F" unicode="&#x315f;" 
d="M319 -114q0 -16 16 -16h44q16 0 16 16v335q0 13 15 14q159 7 270 21q16 0 16 16v31q0 15 -14 14q-154 -22 -379 -22h-215q-16 0 -16 -17v-30q0 -16 16 -16h216q15 0 15 -15v-331zM737 -124q0 -16 16 -16h44q16 0 16 16v844q0 16 -16 16h-44q-16 0 -16 -16v-844z" />
    <glyph glyph-name="uni3160" unicode="&#x3160;" 
d="M544 478q15 0 15 -15v-387q0 -16 16 -16h44q16 0 16 16v387q0 15 15 15h206q16 0 16 17v29q0 16 -16 16h-812q-16 0 -16 -16v-29q0 -17 16 -17h208q15 0 15 -15v-387q0 -16 16 -16h44q16 0 16 16v387q0 15 15 15h186z" />
    <glyph glyph-name="uni3161" unicode="&#x3161;" 
d="M44 330q-16 0 -16 -17v-29q0 -16 16 -16h812q16 0 16 16v29q0 17 -16 17h-812z" />
    <glyph glyph-name="uni3162" unicode="&#x3162;" 
d="M723 736q-16 0 -16 -16v-574q0 -20 -20 -23q-114 -17 -377 -17h-255q-16 0 -16 -17v-31q0 -16 16 -16h232q208 0 394 24q26 4 26 -22v-168q0 -16 16 -16h44q16 0 16 16v844q0 16 -16 16h-44z" />
    <glyph glyph-name="uni3163" unicode="&#x3163;" 
d="M488 720q0 16 -16 16h-44q-16 0 -16 -16v-844q0 -16 16 -16h44q16 0 16 16v844z" />
    <glyph glyph-name="uni3165" unicode="&#x3165;" 
d="M761 109h-232v431h-56v-480h288v49zM446 109h-232v431h-56v-480h288v49z" />
    <glyph glyph-name="uni3166" unicode="&#x3166;" 
d="M761 109h-232v382h232v49h-288v-480h288v49zM446 109h-232v431h-56v-480h288v49z" />
    <glyph glyph-name="uni3167" unicode="&#x3167;" 
d="M471 39q50 20 96 79q44 59 62 109q20 -63 60 -109q58 -66 96 -79l45 35q-88 40 -137 149q-36 85 -36 203v113h-57v-113q0 -124 -37 -204q-50 -115 -135 -146v33h-230v430h-57v-480h287v14z" />
    <glyph glyph-name="uni3168" unicode="&#x3168;" 
d="M618 581l-172 -521h345zM438 110h-221v430h-57v-480h278v50zM517 110l101 305l101 -305h-202z" />
    <glyph glyph-name="uni3169" unicode="&#x3169;" 
d="M877 84q-79 37 -123 128q-29 64 -29 222v106h-46v-106q0 -152 -30 -222q-39 -86 -110 -121v449h-232v-49h185v-431h47v9l21 -21q44 18 86 68q37 46 54 93q27 -62 58 -93q43 -50 83 -67zM289 110h-176v165h176v265h-224v-49h167v-166h-167v-265h224v50z" />
    <glyph glyph-name="uni316A" unicode="&#x316a;" 
d="M761 109h-232v382h232v49h-288v-480h288v49zM446 109h-233v166h233v265h-289v-49h233v-166h-233v-265h289v49z" />
    <glyph glyph-name="uni316B" unicode="&#x316b;" 
d="M887 84q-79 38 -122 128q-31 62 -31 222v106h-45v-106q0 -156 -30 -222q-33 -72 -91 -111v439h-48v-186h-137v186h-48v-480h225q2 -1 3 -3q3 -3 7 -9q45 18 85 68q36 42 56 93q21 -53 57 -93q45 -50 84 -67zM309 110h-176v165h176v265h-223v-49h175v-166h-175v-265h223
v50zM383 110v194h137v-194h-137z" />
    <glyph glyph-name="uni316C" unicode="&#x316c;" 
d="M628 581l-173 -521h346zM447 110h-232v166h232v264h-289v-49h233v-166h-233v-265h289v50zM527 110l101 305l100 -305h-201z" />
    <glyph glyph-name="uni316D" unicode="&#x316d;" 
d="M784 539h-320v-49h320v49zM516 308q-45 -46 -45 -111t45 -110q46 -46 110 -46q65 0 110 46q46 46 46 110q0 65 -46 111t-110 46t-110 -46zM446 110h-232v166h232v263h-288v-49h232v-166h-232v-264h288v50zM552 122q-31 31 -31 75t31 75q31 32 74 32q44 0 75 -32
q30 -31 30 -75t-30 -75q-31 -32 -75 -32q-43 0 -74 32z" />
    <glyph glyph-name="uni316E" unicode="&#x316e;" 
d="M761 540h-56v-186h-176v186h-56v-480h288v480zM446 540h-288v-480h288v480zM529 109v196h176v-196h-176zM214 109v382h176v-382h-176z" />
    <glyph glyph-name="uni316F" unicode="&#x316f;" 
d="M851 74q-91 40 -138 149q-36 85 -36 203v113h-57v-113q0 -124 -37 -204q-53 -117 -137 -147l45 -36q49 21 96 79q44 59 62 109q20 -63 60 -109q58 -66 97 -79zM437 539h-288v-480h288v480zM205 109v381h175v-381h-175z" />
    <glyph glyph-name="uni3170" unicode="&#x3170;" 
d="M628 581l-173 -521h347zM437 540h-288v-480h288v480zM527 111l101 309l103 -309h-204zM206 110v381h175l-1 -381h-174z" />
    <glyph glyph-name="uni3171" unicode="&#x3171;" 
d="M687 677h-455v-358h455v358zM293 243q-67 -55 -67 -139t67 -138q66 -55 167 -55q100 0 167 55q67 54 67 138t-67 139q-66 54 -167 54t-167 -54zM288 368v260h343v-260h-343zM328 4q-53 40 -53 100q0 61 52 101t133 40q80 0 132 -40t52 -101t-52 -101t-132 -40
q-79 0 -132 41z" />
    <glyph glyph-name="uni3172" unicode="&#x3172;" 
d="M780 540h-307v-49h251v-431h56v480zM446 540h-56v-186h-174v186h-58v-480h288v480zM216 109v196h174v-196h-174z" />
    <glyph glyph-name="uni3173" unicode="&#x3173;" 
d="M761 109h-232v382h232v49h-288v-480h288v49zM446 540h-56v-186h-176v186h-56v-480h288v480zM214 109v196h176v-196h-176z" />
    <glyph glyph-name="uni3174" unicode="&#x3174;" 
d="M816 540h-233v-49h186v-431h47v480zM662 84q-79 38 -122 128q-30 63 -30 222v106h-47v-106q0 -159 -30 -222q-39 -87 -108 -121v449h-48v-186h-137v186h-48v-480h233v9l19 -21q45 18 87 68q34 40 55 93q20 -55 56 -93q47 -51 84 -67zM140 110v194h137v-194h-137z" />
    <glyph glyph-name="uni3175" unicode="&#x3175;" 
d="M821 110h-149v381h149v49h-205v-439q-58 42 -90 111q-31 62 -31 222v106h-47v-106q0 -154 -29 -222q-33 -72 -90 -111v439h-47v-186h-138v186h-48v-480h225l9 -12q45 18 87 68q34 40 55 93q17 -51 55 -93q27 -28 45 -41q12 -12 26 -19l14 -7l10 11h199v50zM144 110v194
h138v-194h-138z" />
    <glyph glyph-name="uni3176" unicode="&#x3176;" 
d="M801 84q-95 50 -133 147q-30 79 -30 205v55h124v49h-296v-49h115v-55q0 -129 -29 -205q-24 -56 -106 -122v431h-56v-186h-175v186h-57v-480h278l2 -3l11 -8q60 20 105 79q41 59 55 102q18 -50 53 -100q52 -66 98 -81zM215 110v194h175v-194h-175z" />
    <glyph glyph-name="uni3177" unicode="&#x3177;" 
d="M761 109h-232v166h227v50h-227v166h232v49h-288v-480h288v49zM446 540h-56v-186h-176v186h-56v-480h288v480zM214 109v196h176v-196h-176z" />
    <glyph glyph-name="uni3178" unicode="&#x3178;" 
d="M687 677h-56v-128h-343v128h-56v-358h455v358zM293 243q-67 -55 -67 -139t67 -138q66 -55 167 -55q100 0 167 55q67 54 67 138t-67 139q-66 54 -167 54t-167 -54zM288 368v132h343v-132h-343zM328 4q-53 40 -53 100q0 61 52 101t133 40q80 0 132 -40t52 -101t-52 -101
t-132 -40q-79 0 -132 41z" />
    <glyph glyph-name="uni3179" unicode="&#x3179;" 
d="M706 677h-50v-128h-137v128h-46v-358h233v358zM446 677h-49v-128h-137v128h-47v-358h233v358zM293 243q-67 -55 -67 -139t67 -138q66 -55 167 -55q100 0 167 55q67 54 67 138t-67 139q-66 54 -167 54t-167 -54zM520 368v132h138v-132h-138zM261 368v132h138v-132h-138z
M328 4q-53 40 -53 100t52 101q53 40 133 40q81 0 133 -40q51 -40 51 -101q0 -62 -51 -101q-52 -40 -133 -40q-79 0 -132 41z" />
    <glyph glyph-name="uni317A" unicode="&#x317a;" 
d="M760 540h-307v-49h251v-431h56v480zM522 84q-91 42 -139 148q-35 88 -35 204v104h-56v-104q0 -129 -37 -205q-55 -116 -137 -147l44 -35q49 19 96 79q44 56 62 108q23 -65 60 -108q58 -66 96 -79z" />
    <glyph glyph-name="uni317B" unicode="&#x317b;" 
d="M770 110h-233v430h-55v-445q-78 46 -117 137q-36 85 -36 204v104h-57v-104q0 -125 -35 -205q-58 -117 -139 -147l46 -35q50 20 96 79q43 59 62 108q18 -59 60 -108q58 -66 96 -79l24 17v-6h288v50z" />
    <glyph glyph-name="uni317C" unicode="&#x317c;" 
d="M770 110h-233v381h233v49h-288v-445q-78 46 -117 137q-36 85 -36 204v104h-57v-104q0 -125 -35 -205q-58 -117 -139 -147l46 -35q50 20 96 79q43 59 62 108q18 -59 60 -108q58 -66 96 -79l24 17v-6h288v50z" />
    <glyph glyph-name="uni317D" unicode="&#x317d;" 
d="M770 540h-57v-176h-176v176h-55v-445q-78 46 -117 137q-36 85 -36 204v104h-57v-104q0 -125 -35 -205q-58 -117 -139 -147l46 -35q50 20 96 79q43 59 62 108q18 -59 60 -108q58 -66 96 -79l24 17v-6h288v480zM537 110v205h176v-205h-176z" />
    <glyph glyph-name="uni317E" unicode="&#x317e;" 
d="M820 84q-91 42 -139 148q-35 82 -35 204v55h133v49h-324v-49h134v-55q0 -127 -36 -205q-37 -76 -91 -120q-60 45 -93 121q-37 82 -37 204v104h-57v-104q0 -127 -36 -205q-51 -115 -137 -147l45 -35q50 20 97 79q47 63 60 108q20 -60 61 -108q58 -66 96 -79q48 18 95 79
q44 57 61 108q22 -64 61 -108q58 -66 96 -79z" />
    <glyph glyph-name="uni317F" unicode="&#x317f;" 
d="M460 619l-230 -551h459zM304 117l156 377l152 -377h-308z" />
    <glyph glyph-name="uni3180" unicode="&#x3180;" 
d="M521 109q46 -67 120 -67q76 0 122 67q46 70 46 190q0 121 -46 191q-46 67 -122 67q-75 0 -120 -67q-48 -71 -48 -191t48 -190zM157 109q46 -67 121 -67q76 0 121 67q47 70 47 190q0 121 -47 191q-45 67 -121 67q-75 0 -121 -67q-47 -70 -47 -191q0 -120 47 -190zM553 145
q-32 56 -32 155q0 97 32 153q32 57 88 57q54 0 86 -57q32 -56 32 -153q0 -98 -32 -155t-86 -57q-56 0 -88 57zM190 145q-32 57 -32 155q0 97 32 153q33 57 89 57q53 0 85 -57t32 -153q0 -98 -32 -155t-85 -57q-56 0 -89 57z" />
    <glyph glyph-name="uni3181" unicode="&#x3181;" 
d="M488 677h-56v-174q-106 -11 -173 -89q-68 -79 -68 -194q0 -122 76 -202t193 -80q116 0 192 80t76 202q0 116 -66 194q-67 79 -174 89v174zM307 59q-62 64 -62 161t61 162q62 66 154 66q93 0 154 -65t61 -163q0 -97 -61 -162q-62 -64 -154 -64t-153 65z" />
    <glyph glyph-name="uni3182" unicode="&#x3182;" 
d="M829 85q-89 40 -136 149q-37 82 -37 203v103h-57v-103q0 -122 -36 -204q-57 -118 -138 -147l46 -36q54 23 96 78q44 61 61 110q19 -61 61 -109q60 -67 96 -79zM328 559h-58v-110q-65 -8 -104 -60q-40 -54 -40 -141q0 -93 48 -146q46 -51 121 -51q76 0 123 51
q48 52 48 146q0 86 -38 139q-37 51 -100 61v111zM215 136q-32 39 -32 112q0 74 32 116q30 40 80 40q51 0 82 -40q32 -42 32 -116q0 -73 -32 -112q-31 -37 -82 -37t-80 37z" />
    <glyph glyph-name="uni3183" unicode="&#x3183;" 
d="M617 581l-171 -520h345zM326 559h-57v-110q-66 -8 -104 -60q-41 -54 -41 -141q0 -94 48 -147q46 -51 123 -51q75 0 121 51q48 53 48 147q0 85 -38 138q-37 51 -100 62v111zM514 109l103 310l101 -310h-204zM214 136q-32 40 -32 112q0 74 32 116q31 40 81 40t80 -40
q32 -42 32 -116q0 -73 -32 -112q-29 -37 -80 -37t-81 37z" />
    <glyph glyph-name="uni3184" unicode="&#x3184;" 
d="M697 364h-93v264h93v49h-475v-49h93v-264h-93v-49h475v49zM291 244q-68 -55 -68 -139q0 -85 68 -141q68 -55 169 -55t168 55q68 56 68 141q0 84 -67 139t-169 55q-101 0 -169 -55zM372 364v264h175v-264h-175zM326 1q-53 42 -53 104q0 61 52 102q54 42 135 42t134 -42
q53 -41 53 -102q0 -64 -52 -105q-53 -41 -135 -41q-80 0 -134 42z" />
    <glyph glyph-name="uni3185" unicode="&#x3185;" 
d="M761 433h-114v76q0 46 2 62h-61q2 -24 2 -62v-76h-117v-49h288v49zM517 288q-40 -47 -40 -113t40 -113q41 -48 100 -48t100 48q40 46 40 113t-40 113q-41 47 -100 47t-100 -47zM441 433h-104v76q0 46 2 62h-61q2 -24 2 -62v-76h-122v-49h283v49zM202 288
q-40 -46 -40 -113t40 -113q41 -48 100 -48t100 48q40 47 40 113t-40 113q-41 47 -100 47t-100 -47zM554 96q-27 33 -27 80t27 80q26 31 63 31t63 -31q27 -33 27 -80t-27 -80q-26 -32 -63 -32t-63 32zM239 96q-27 33 -27 80t27 80q26 31 63 31t63 -31q27 -33 27 -80t-27 -80
q-26 -32 -63 -32t-63 32z" />
    <glyph glyph-name="uni3186" unicode="&#x3186;" 
d="M706 638h-493v-49h493v49zM291 399q-68 -67 -68 -168q0 -100 68 -167q68 -66 169 -66t169 66q67 67 67 167q0 101 -67 168t-169 67q-101 0 -169 -67zM329 100q-54 53 -54 131q0 80 53 132q53 53 132 53t131 -52q53 -53 53 -133t-52 -132q-52 -51 -132 -51q-78 0 -131 52z
" />
    <glyph glyph-name="uni3187" unicode="&#x3187;" 
d="M863 245h-150v177h150v56h-150v272h-60v-916h60v354h150v57zM631 175q-67 -12 -153 -19v305h-56v-308l-147 -4v312h-57v-312q-79 -1 -151 0v-53q216 -1 330 4q129 7 234 21v54z" />
    <glyph glyph-name="uni3188" unicode="&#x3188;" 
d="M789 751h-55v-272h-115v262h-54v-888h54v336h115v-355h55v917zM541 196q-58 -14 -137 -19v294h-57v-301q-13 0 -54 -3q-36 -2 -60 -2v306h-57v-307l-114 1v-56q137 1 231 1q116 1 248 26v60zM619 248v173h115v-173h-115z" />
    <glyph glyph-name="uni3189" unicode="&#x3189;" 
d="M762 751h-60v-917h60v917zM679 176q-92 -13 -166 -19v305h-57v-308q-50 -3 -154 -5v313h-56v-313q-75 -1 -146 0v-56q226 -1 339 4q76 3 240 23v56z" />
    <glyph glyph-name="uni318A" unicode="&#x318a;" 
d="M809 751h-59v-538h-229v-55h229v-82h-229v-55h229v-187h59v917zM696 375q-56 -13 -222 -20q-95 -4 -391 -3v-57h125v-391h59v391h133v-391h58v392q19 0 23 2q2 1 14 1q135 5 201 19v57z" />
    <glyph glyph-name="uni318B" unicode="&#x318b;" 
d="M819 751h-60v-917h60v917zM671 741h-61v-489h-175v-55h175v-103h-175v-54h175v-187h61v888zM556 429q-60 -11 -167 -18q-76 -4 -315 -3v-54h115v-450h59v450q61 0 90 1v-451h58v452l24 1q63 3 136 17v55z" />
    <glyph glyph-name="uni318C" unicode="&#x318c;" 
d="M810 751h-59v-917h59v917zM723 381q-106 -26 -326 -28q-146 -1 -305 0v-58h176v-391h59v391q59 0 149 2v-393h60v395q96 8 187 22v60z" />
    <glyph glyph-name="uni318D" unicode="&#x318d;" 
d="M421 341q-16 -17 -16 -41t16 -40q15 -17 39 -17q23 0 39 17q15 16 15 40t-15 41q-16 16 -39 16q-24 0 -39 -16z" />
    <glyph glyph-name="uni318E" unicode="&#x318e;" 
d="M298 341q-15 -17 -15 -41t15 -40q16 -16 39 -16t39 16q15 16 15 40t-15 41q-16 16 -39 16t-39 -16zM603 751h-64v-917h64v917z" />
    <glyph glyph-name="uni2170" unicode="&#x2170;" 
d="M489 -68v558h-61v-558h61zM491 622v69h-68v-69h68z" />
    <glyph glyph-name="uni2171" unicode="&#x2171;" 
d="M362 -68v558h-59v-558h59zM366 623v67h-67v-67h67zM617 -68v558h-59v-558h59zM621 623v67h-67v-67h67z" />
    <glyph glyph-name="uni2172" unicode="&#x2172;" 
d="M313 -68v558h-59v-558h59zM317 623v67h-68v-67h68zM667 -68v558h-60v-558h60zM671 623v67h-68v-67h68zM491 -68v558h-60v-558h60zM494 623v67h-67v-67h67z" />
    <glyph glyph-name="uni2173" unicode="&#x2173;" 
d="M226 -68v558h-59v-558h59zM230 622v69h-69v-69h69zM574 -68l244 558h-65l-207 -474l-207 474h-64l243 -558h56z" />
    <glyph glyph-name="uni2174" unicode="&#x2174;" 
d="M488 -70l244 558h-65l-207 -474l-208 474h-64l244 -558h56z" />
    <glyph glyph-name="uni2175" unicode="&#x2175;" 
d="M402 -68l245 558h-65l-208 -474l-207 474h-64l244 -558h55zM765 -68v558h-59v-558h59zM770 622v69h-70v-69h70z" />
    <glyph glyph-name="uni2176" unicode="&#x2176;" 
d="M335 -68l214 558h-65l-177 -472l-178 472h-65l214 -558h57zM657 -68v558h-60v-558h60zM661 623v67h-67v-67h67zM803 -68v558h-60v-558h60zM806 623v67h-67v-67h67z" />
    <glyph glyph-name="uni2177" unicode="&#x2177;" 
d="M276 -68l204 558h-65l-167 -470l-168 470h-65l206 -558h55zM582 -68v558h-60v-558h60zM586 623v67h-67v-67h67zM718 -68v558h-59v-558h59zM723 623v67h-67v-67h67zM857 -68v558h-60v-558h60zM860 623v67h-66v-67h66z" />
    <glyph glyph-name="uni2178" unicode="&#x2178;" 
d="M245 -68v558h-60v-558h60zM248 622v69h-68v-69h68zM537 172l188 -240h72l-224 285l215 273h-72l-179 -227l-178 227h-73l215 -273l-224 -285h73z" />
    <glyph glyph-name="uni2179" unicode="&#x2179;" 
d="M460 170l188 -240h71l-224 285l214 273h-71l-178 -227l-178 227h-72l214 -273l-224 -285h71z" />
    <glyph glyph-name="uni2160" unicode="&#x2160;" 
d="M420 686v-754h61v754h-61z" />
    <glyph glyph-name="uni2161" unicode="&#x2161;" 
d="M293 686v-754h58v754h-58zM546 686v-754h59v754h-59z" />
    <glyph glyph-name="uni2162" unicode="&#x2162;" 
d="M245 686v-754h59v754h-59zM597 686v-754h60v754h-60zM422 686v-754h60v754h-60z" />
    <glyph glyph-name="uni2163" unicode="&#x2163;" 
d="M157 686v-754h59v754h-59zM563 -68l240 754h-61l-210 -677l-209 677h-62l242 -754h60z" />
    <glyph glyph-name="uni2164" unicode="&#x2164;" 
d="M480 -68l301 754h-61l-269 -680l-269 680h-61l301 -754h58z" />
    <glyph glyph-name="uni2165" unicode="&#x2165;" 
d="M753 686h-58v-754h58v754zM348 -68h59l242 754h-62l-209 -677l-210 677h-61z" />
    <glyph glyph-name="uni2166" unicode="&#x2166;" 
d="M656 686h-60v-754h60v754zM275 -68h59l212 754h-62l-179 -674l-180 674h-62zM802 686h-59v-754h59v754z" />
    <glyph glyph-name="uni2167" unicode="&#x2167;" 
d="M857 686h-60v-754h60v754zM582 686h-59v-754h59v754zM224 -68h60l202 754h-61l-170 -673l-172 673h-60zM719 686h-59v-754h59v754z" />
    <glyph glyph-name="uni2168" unicode="&#x2168;" 
d="M743 686l-216 -317q-22 31 -118 172l-98 145h-65l248 -366l-265 -388h65l233 340l234 -340h65l-137 200l-126 187l247 367h-67zM128 686v-754h58v754h-58z" />
    <glyph glyph-name="uni2169" unicode="&#x2169;" 
d="M671 686l-217 -317l-216 317h-67l249 -366l-266 -388h68l232 340l233 -340h67l-265 387l248 367h-66z" />
    <glyph glyph-name="Alpha" unicode="&#x391;" 
d="M566 674l-488 -738h64l135 202h377l23 -202h62l-80 738h-93zM602 638l47 -444h-338z" />
    <glyph glyph-name="Beta" unicode="&#x392;" 
d="M130 -65h362q101 0 159 50q63 54 63 149q0 133 -141 184q166 67 166 189q0 66 -41 112q-45 53 -147 54l-209 1zM392 618h154q57 0 93 -33t36 -86q0 -60 -52 -103q-52 -42 -125 -42h-185zM302 299h196q66 0 111 -47q44 -48 44 -117q0 -66 -43 -105q-44 -39 -118 -39h-280z
" />
    <glyph glyph-name="Gamma" unicode="&#x393;" 
d="M713 673h-389l-186 -737h64l169 668h299l28 -84l56 21z" />
    <glyph glyph-name="uni0394" unicode="&#x394;" 
d="M694 606l1 -616h-529zM761 -64v737h-69l-633 -737h702z" />
    <glyph glyph-name="Epsilon" unicode="&#x395;" 
d="M563 -62l15 52h-382l96 302h342l17 51h-346l84 278h358l15 52h-419l-218 -735h438z" />
    <glyph glyph-name="Zeta" unicode="&#x396;" 
d="M633 -63l13 57h-425l525 622l13 55h-466l-18 -57h392l-521 -623l-11 -54h498z" />
    <glyph glyph-name="Eta" unicode="&#x397;" 
d="M92 -61h60l89 349h424l-90 -349h58l187 735h-58l-85 -334h-420l84 334h-60z" />
    <glyph glyph-name="Theta" unicode="&#x398;" 
d="M249 545q-106 -161 -106 -345q0 -266 267 -266q122 0 212 75q66 63 109 174q43 112 43 225q0 122 -58 184q-74 81 -216 81q-166 0 -251 -128zM624 593q91 -48 91 -178q0 -220 -113 -341q-71 -86 -192 -86q-80 0 -133 31q-74 47 -74 180q0 186 106 326q69 96 192 96
q70 0 123 -28zM337 382l-37 -157h24l13 56h214l-12 -56h24l36 157h-23l-13 -56h-218l14 56h-22z" />
    <glyph glyph-name="Iota" unicode="&#x399;" 
d="M384 -65l197 739h-58l-199 -739h60z" />
    <glyph glyph-name="Kappa" unicode="&#x39a;" 
d="M665 -63l-309 363l414 372h-72l-373 -336l88 336h-59l-189 -735h60l90 337l281 -337h69z" />
    <glyph glyph-name="Lambda" unicode="&#x39b;" 
d="M662 -63l1 735h-86l-466 -735h59l432 669l-1 -669h61z" />
    <glyph glyph-name="Mu" unicode="&#x39c;" 
d="M77 -64h62l166 680l40 -680h70l331 685l-162 -685h64l176 736h-126l-301 -650l-32 650h-110z" />
    <glyph glyph-name="Nu" unicode="&#x39d;" 
d="M799 672h-59l-181 -690l-169 690h-93l-189 -735h59l175 680l170 -680h93z" />
    <glyph glyph-name="Xi" unicode="&#x39e;" 
d="M744 674h-403l-29 -118h45l17 57h313l-12 -57h41zM646 341h-356l-16 -61h356zM594 -4h-372l14 57h-43l-29 -118h458l30 118h-42z" />
    <glyph glyph-name="Omicron" unicode="&#x39f;" 
d="M352 633q-58 -38 -108 -128q-91 -174 -91 -339q0 -107 70 -169q70 -61 194 -61q131 0 198 99q130 171 130 392q0 136 -84 196q-70 48 -169 48q-84 0 -140 -38zM591 597q99 -44 99 -159q0 -141 -70 -281q-43 -90 -91 -126q-47 -36 -122 -36q-98 0 -154 59q-42 43 -42 118
q0 158 108 342q65 102 173 102q48 0 99 -19z" />
    <glyph glyph-name="Pi" unicode="&#x3a0;" 
d="M778 675h-556l-11 -51h82l-157 -690h59l157 690h297l-154 -690h61l152 690h56z" />
    <glyph glyph-name="Rho" unicode="&#x3a1;" 
d="M231 -67l64 317l207 3q92 0 144 39q79 58 79 180q0 97 -51 150t-143 53h-210l-150 -742h60zM369 622h140q153 0 153 -144q0 -101 -64 -147q-36 -27 -111 -27h-181z" />
    <glyph glyph-name="Sigma" unicode="&#x3a3;" 
d="M147 -64h479l15 54h-424l316 338l-186 291h388l13 54h-434l-21 -64l174 -279l-303 -331z" />
    <glyph glyph-name="Tau" unicode="&#x3a4;" 
d="M718 673h-491l-15 -54h231l-140 -683h64l139 683h198z" />
    <glyph glyph-name="Upsilon" unicode="&#x3a5;" 
d="M385 -64l57 339q17 130 74 211q74 103 209 119l16 68q-96 -7 -156 -42q-96 -53 -140 -177q-6 80 -33 122q-42 67 -128 100l-21 -57q133 -60 133 -218q0 -29 -9 -94l-60 -371h58z" />
    <glyph glyph-name="Phi" unicode="&#x3a6;" 
d="M512 674l-19 -63q-133 -4 -214 -55q-161 -100 -161 -314q0 -219 217 -249l-15 -57h56l16 57q169 -1 270 86q122 114 122 297q0 135 -98 195q-46 28 -136 37l17 66h-55zM347 49q-172 18 -172 193q0 80 38 157q39 77 98 114q62 38 170 40zM538 551q187 -13 187 -186
q0 -87 -43 -165t-113 -119q-61 -32 -164 -35z" />
    <glyph glyph-name="Chi" unicode="&#x3a7;" 
d="M660 -65l-170 373l280 365h-66l-238 -310l-140 310h-60l162 -361l-312 -377h66l268 328l149 -328h61z" />
    <glyph glyph-name="Psi" unicode="&#x3a8;" 
d="M157 666q18 -14 18 -50q0 -14 -19 -99q-34 -131 -34 -188q0 -103 72 -143q46 -25 156 -29l-46 -224h62l45 224h22q127 0 176 32q49 28 78 82q28 55 60 181q26 112 35 137q0 2 10 28q13 30 28 40q11 14 11 17q0 1 -30 1q-58 0 -69 -30q0 -5 -3 -5l-34 -149
q-43 -189 -85 -233q-44 -46 -191 -46l94 463h-59l-94 -464q-111 2 -147 27q-37 24 -37 94q0 35 9 71q19 99 30 136q23 74 23 108q0 18 -9 23q-8 5 -40 5l-36 -3q-6 0 -7 -1q2 0 11 -5z" />
    <glyph glyph-name="uni03A9" unicode="&#x3a9;" 
d="M662 -65l12 50h-214q130 57 199 130q113 124 113 295q0 122 -73 196t-194 74q-139 0 -223 -100q-84 -101 -84 -268q0 -176 125 -327h-188l-14 -50h224l22 85q-46 46 -58 68q-56 86 -56 213q0 143 70 237q67 81 176 81q99 0 158 -55q58 -56 58 -152q0 -152 -105 -270
q-62 -69 -182 -120l-22 -87h256z" />
    <glyph glyph-name="alpha" unicode="&#x3b1;" horiz-adv-x="600" 
d="M486 29q-26 -9 -40 -9q-22 0 -29 20q-6 18 -6 73q96 142 151 316l-57 30q-31 -132 -93 -262l3 123q0 165 -131 165q-83 0 -151 -73q-104 -117 -104 -287q0 -82 39 -133q38 -51 101 -51q57 0 112 39q34 28 80 81q3 -69 16 -91q12 -22 47 -22q18 0 43 8zM359 139
q-5 -12 -14 -22q-24 -33 -51 -60q-55 -55 -112 -55q-42 0 -69 30q-34 47 -34 104q0 85 52 171q64 104 146 104q90 0 90 -137q0 -76 -4 -133q-4 -3 -4 -2z" />
    <glyph glyph-name="beta" unicode="&#x3b2;" horiz-adv-x="600" 
d="M57 -176l56 210q67 -97 153 -97q92 0 156 72q65 71 65 174q0 84 -45 129q-17 13 -70 37q86 27 124 68q36 41 36 108q0 69 -42 109t-113 40q-149 0 -204 -203l-178 -647h62zM264 328h41q55 0 88 -39q34 -40 34 -104q0 -85 -47 -142q-48 -57 -120 -57q-84 0 -135 93
l105 378q47 161 146 161q42 0 71 -26q29 -27 29 -68q0 -57 -51 -105q-42 -41 -115 -41h-36z" />
    <glyph glyph-name="gamma" unicode="&#x3b3;" horiz-adv-x="600" 
d="M245 -61l42 253q19 106 38 141q31 60 112 60q44 0 84 -22l27 70q-39 23 -102 23q-98 0 -161 -111q-21 75 -53 103q-31 27 -92 27q-51 0 -80 -25l15 -64q32 21 71 21q100 0 100 -96q0 -46 -17 -136l-46 -244h62z" />
    <glyph glyph-name="delta" unicode="&#x3b4;" horiz-adv-x="600" 
d="M572 655q-61 17 -121 17q-96 0 -160 -20q-61 -20 -61 -48q0 -12 19 -38q36 -52 118 -147q-16 1 -38 4l-21 3q-94 0 -158 -66q-101 -98 -101 -257q0 -79 44 -123q43 -44 120 -44q135 0 214 117q59 89 59 195q0 87 -64 174q-62 79 -83 102q-39 39 -39 55q0 17 14 23
q32 19 143 19q67 0 106 -12zM398 349q32 -31 32 -87q0 -65 -34 -133q-34 -70 -85 -107q-44 -34 -98 -34q-48 0 -78 31q-30 30 -30 81q0 104 77 214q53 66 130 66q55 0 86 -31z" />
    <glyph glyph-name="epsilon" unicode="&#x3b5;" horiz-adv-x="600" 
d="M546 453q-109 38 -184 38q-83 0 -143 -41q-59 -42 -59 -100q0 -56 78 -98q-180 -46 -180 -171q0 -71 57 -111q50 -33 139 -33q90 0 171 31l18 60q-107 -40 -178 -40q-135 0 -135 98q0 62 60 99t156 37h85l18 49h-120q-44 0 -72 21t-28 55q0 40 35 66q34 26 87 26
q61 0 171 -34z" />
    <glyph glyph-name="zeta" unicode="&#x3b6;" horiz-adv-x="600" 
d="M183 -28q-4 1 26 -3l67 -8q44 -2 71 -22q26 -19 26 -49q0 -59 -79 -59q-24 0 -50 3l-15 -57q35 -5 65 -5q68 0 106 34t38 96q0 99 -120 117q-45 9 -101 12q-53 4 -74 16q-22 13 -22 42q0 30 33 76q39 59 49 70l261 341l25 3q41 5 41 25q0 2 -6 20l-34 52q-26 -32 -81 -32
h-232l-20 -52h263l-266 -348q-82 -107 -82 -164q0 -88 99 -107z" />
    <glyph glyph-name="eta" unicode="&#x3b7;" horiz-adv-x="600" 
d="M444 -117l79 437q2 8 2 33q0 61 -39 95q-40 34 -111 34q-104 0 -178 -97l13 85h-60l-82 -472h61l50 284q11 60 63 101q51 40 118 40q102 0 102 -81q0 -23 -4 -34l-75 -425h61z" />
    <glyph glyph-name="theta" unicode="&#x3b8;" horiz-adv-x="600" 
d="M193 559q-122 -187 -122 -434q0 -190 160 -190q104 0 177 114q133 207 133 436q0 188 -162 188q-118 0 -186 -114zM154 317q9 51 20 74q24 90 77 158q56 70 128 70q108 0 108 -132q0 -69 -28 -170h-305zM447 271q-5 -13 -9 -28l-6 -18q-36 -104 -74 -158
q-58 -78 -125 -78q-105 0 -105 127q0 77 18 155h301z" />
    <glyph glyph-name="iota" unicode="&#x3b9;" horiz-adv-x="370" 
d="M215 469l-131 -450q-22 -79 55 -79h103l10 47q-8 -2 -27 -2q-57 0 -66 19q-9 16 8 78l103 387h-55z" />
    <glyph glyph-name="kappa" unicode="&#x3ba;" horiz-adv-x="600" 
d="M458 -59l-226 296l332 248l-74 1l-313 -231l57 231h-62l-129 -545h64l65 290l220 -290h66z" />
    <glyph glyph-name="lambda" unicode="&#x3bb;" horiz-adv-x="600" 
d="M198 631q58 -29 87 -66q30 -38 60 -124q-83 -55 -130 -154q-112 -235 -214 -302l49 -50q70 53 152 216q14 14 45 94q52 106 118 138q4 -25 9 -39l10 -60l23 -104q35 -140 52 -176q18 -35 47 -69l55 34q-51 59 -84 182q-2 0 -4 5l-16 78l-23 98q-34 178 -102 256
q-34 52 -106 84z" />
    <glyph glyph-name="uni03BC" unicode="&#x3bc;" horiz-adv-x="600" 
d="M489 471l-51 -306q-13 -73 -58 -118q-45 -44 -106 -44q-113 0 -113 119q0 28 6 56l59 293h-60l-122 -599h61l35 166q17 -98 130 -98q110 0 153 85q8 -72 95 -72h11l9 50q-33 3 -46 14q-13 12 -13 40q-2 -9 13 82l57 332h-60z" />
    <glyph glyph-name="nu" unicode="&#x3bd;" horiz-adv-x="600" 
d="M585 474q-105 -1 -148 -116q-12 -32 -47 -113l-22 -60q-34 -102 -67 -143q-21 -35 -38 -35q-18 0 -21 41l-4 100q-8 185 -38 254q-29 68 -99 68q-47 0 -84 -42l30 -52q14 30 45 30q42 0 58 -51q12 -40 30 -203l4 -27l9 -103q4 -83 58 -83q72 0 157 207q12 28 11 22
l49 139q32 70 45 86q14 17 39 17l23 -1z" />
    <glyph glyph-name="xi" unicode="&#x3be;" horiz-adv-x="600" 
d="M455 355h-62q-59 0 -92 25q-35 26 -35 73q0 49 44 82q43 32 146 62q53 16 90 16q7 0 8 1q0 9 -11 24l-27 39q-25 -35 -69 -35h-214l-11 -47h144q-153 -65 -153 -153q0 -52 90 -102q-84 -22 -131 -65q-91 -69 -91 -168q0 -73 51 -106q29 -20 94 -36l48 -6q85 -18 85 -70
q0 -60 -83 -60q-26 0 -47 6l-14 -54q31 -8 63 -8q68 0 106 34t38 94q0 62 -55 89q-32 21 -124 35q-56 9 -79 29q-23 21 -23 62q0 76 68 133q68 56 160 56h71z" />
    <glyph glyph-name="omicron" unicode="&#x3bf;" horiz-adv-x="600" 
d="M209 439q-59 -45 -101 -136q-41 -91 -41 -176q0 -87 49 -138q47 -50 127 -50q106 0 172 71q111 124 111 294q0 181 -181 181q-77 0 -136 -46zM472 311q0 -94 -52 -193q-64 -123 -167 -123q-59 0 -92 32q-34 32 -34 89q0 93 47 189q62 129 172 129q126 0 126 -123z" />
    <glyph glyph-name="pi" unicode="&#x3c0;" horiz-adv-x="600" 
d="M75 -49q48 77 82 181q21 72 27 98q10 54 24 173l2 22h222q-43 -242 -43 -334q0 -109 56 -153l55 14q-60 71 -60 163q0 54 17 161q12 68 33 149h80l11 52h-501l-11 -52h87q-15 -147 -35 -221q-29 -123 -94 -215z" />
    <glyph glyph-name="rho" unicode="&#x3c1;" horiz-adv-x="600" 
d="M85 -120l55 212q36 -64 66 -88q30 -22 77 -22q98 0 171 96t73 229q0 183 -170 183q-79 0 -137 -46q-59 -47 -79 -126l-117 -438h61zM196 308q30 123 155 123q115 0 115 -120q0 -108 -58 -189q-56 -82 -134 -82q-52 0 -83 34q-30 33 -31 92z" />
    <glyph glyph-name="sigma" unicode="&#x3c3;" horiz-adv-x="600" 
d="M415 276q0 -107 -58 -191q-59 -86 -134 -86q-102 0 -102 130q0 144 96 245q40 40 95 40q103 0 103 -138zM456 554q-67 -23 -152 -59q-91 -43 -136 -86q-103 -105 -103 -270q0 -94 43 -146q42 -52 116 -52q98 0 173 104q75 105 75 246q0 66 -23 103t-81 66q50 25 126 48
l-24 51z" />
    <glyph glyph-name="tau" unicode="&#x3c4;" horiz-adv-x="600" 
d="M522 465q-40 -11 -89 -11q-17 0 -29 1q-11 0 -73 6l-27 7q-45 4 -98 4q-64 0 -113 -16l-7 -48q51 12 103 12q18 0 77 -5l-66 -385q-5 -25 -5 -41q0 -20 19 -35q19 -14 48 -15q46 0 106 10l10 43l-25 -1q-72 -2 -85 2q-18 7 -10 44l66 375q76 -8 115 -8q36 0 73 8z" />
    <glyph glyph-name="upsilon" unicode="&#x3c5;" horiz-adv-x="600" 
d="M69 86q-10 -36 -10 -58q0 -89 158 -89q107 0 159 45t97 179q54 158 54 230q0 49 -28 86l-54 -22q22 -25 22 -65q0 -39 -42 -195q-35 -107 -67 -149q-35 -55 -144 -55q-89 0 -89 45q0 17 5 46q-1 -1 4 13q1 1 2 8q1 10 26 89l12 41q33 94 33 150q0 51 -43 82l-47 -38
q30 -15 30 -58q0 -26 -21 -106z" />
    <glyph glyph-name="phi" unicode="&#x3c6;" horiz-adv-x="600" 
d="M211 -143l44 142h28q151 0 236 81q85 80 85 222q0 85 -40 135q-39 50 -107 50q-52 0 -95 -35t-61 -92l-94 -314q-84 11 -118 45q-35 33 -35 102q0 97 59 162q44 47 136 80l-7 54q-119 -32 -185 -111t-66 -192q0 -168 203 -187l-43 -142h60zM354 326q11 35 32 63
q32 42 73 42q85 0 85 -120q0 -135 -82 -210q-63 -53 -195 -56z" />
    <glyph glyph-name="chi" unicode="&#x3c7;" horiz-adv-x="600" 
d="M531 467h-68l-150 -194l-69 147q-23 47 -78 47h-77l6 -36h3q74 0 97 -53l73 -159l-233 -277l73 -1l177 232l79 -174q16 -33 34 -44q23 -15 72 -14l34 1l6 26q-67 0 -94 63l-82 192z" />
    <glyph glyph-name="psi" unicode="&#x3c8;" horiz-adv-x="600" 
d="M104 466q-31 -32 -50 -68q-67 -127 -67 -296q0 -103 67 -139q44 -22 158 -23l-18 -79h59l18 79q95 8 132 18q114 32 158 125q50 109 50 255q0 76 -12 108l-53 -12q7 -24 7 -65q0 -238 -88 -316q-57 -45 -184 -53l111 544h-58l-110 -544h-37q-78 0 -110 21q-35 20 -35 85
q0 113 48 236q22 57 56 84z" />
    <glyph glyph-name="omega" unicode="&#x3c9;" horiz-adv-x="600" 
d="M508 481q43 -111 43 -214q0 -116 -48 -196q-48 -81 -121 -81q-81 0 -76 126l75 255h-59l-81 -259q-37 -115 -103 -115q-88 0 -88 124q0 106 91 243q27 40 96 117h-72q-63 -72 -97 -125q-73 -118 -73 -229q0 -82 37 -134q36 -52 95 -52q39 0 78 35t54 83q11 -59 48 -93
q35 -31 82 -31q91 0 155 99q65 100 65 243q0 92 -37 204h-64z" />
    <glyph glyph-name="SF100000" unicode="&#x2500;" 
d="M0 281h900v38h-900v-38z" />
    <glyph glyph-name="SF110000" unicode="&#x2502;" 
d="M433 -200h34v1000h-34v-1000z" />
    <glyph glyph-name="SF010000" unicode="&#x250c;" 
d="M433 -200h34v481h433v38h-467v-519z" />
    <glyph glyph-name="SF030000" unicode="&#x2510;" 
d="M433 281v-481h34v519h-467v-38h433z" />
    <glyph glyph-name="SF040000" unicode="&#x2518;" 
d="M433 319h-433v-38h467v519h-34v-481z" />
    <glyph glyph-name="SF020000" unicode="&#x2514;" 
d="M433 281h467v38h-433v481h-34v-519z" />
    <glyph glyph-name="SF080000" unicode="&#x251c;" 
d="M433 -200h34v481h433v38h-433v481h-34v-1000z" />
    <glyph glyph-name="SF060000" unicode="&#x252c;" 
d="M0 281h433v-481h34v481h433v38h-900v-38z" />
    <glyph glyph-name="SF090000" unicode="&#x2524;" 
d="M433 800v-481h-433v-38h433v-481h34v1000h-34z" />
    <glyph glyph-name="SF070000" unicode="&#x2534;" 
d="M433 319h-433v-38h900v38h-433v481h-34v-481z" />
    <glyph glyph-name="SF050000" unicode="&#x253c;" 
d="M433 319h-433v-38h433v-481h34v481h433v38h-433v481h-34v-481z" />
    <glyph glyph-name="uni2501" unicode="&#x2501;" 
d="M0 263h900v75h-900v-75z" />
    <glyph glyph-name="uni2503" unicode="&#x2503;" 
d="M417 -200h67v1000h-67v-1000z" />
    <glyph glyph-name="uni250F" unicode="&#x250f;" 
d="M417 -200h67v463h416v75h-483v-538z" />
    <glyph glyph-name="uni2513" unicode="&#x2513;" 
d="M0 263h417v-463h67v538h-484v-75z" />
    <glyph glyph-name="uni251B" unicode="&#x251b;" 
d="M417 338h-417v-75h484v537h-67v-462z" />
    <glyph glyph-name="uni2517" unicode="&#x2517;" 
d="M417 263h483v75h-416v462h-67v-537z" />
    <glyph glyph-name="uni2523" unicode="&#x2523;" 
d="M417 -200h67v463h416v75h-416v462h-67v-1000z" />
    <glyph glyph-name="uni2533" unicode="&#x2533;" 
d="M417 263v-463h67v463h416v75h-900v-75h417z" />
    <glyph glyph-name="uni252B" unicode="&#x252b;" 
d="M417 263v-463h67v1000h-67v-462h-417v-75h417z" />
    <glyph glyph-name="uni253B" unicode="&#x253b;" 
d="M0 338v-75h900v75h-416v462h-67v-462h-417z" />
    <glyph glyph-name="uni254B" unicode="&#x254b;" 
d="M0 338v-75h417v-463h67v463h416v75h-416v462h-67v-462h-417z" />
    <glyph glyph-name="uni2520" unicode="&#x2520;" 
d="M484 319v481h-67v-1000h67v481h416v38h-416z" />
    <glyph glyph-name="uni252F" unicode="&#x252f;" 
d="M0 338v-75h433v-463h34v463h433v75h-900z" />
    <glyph glyph-name="uni2528" unicode="&#x2528;" 
d="M484 800h-67v-481h-417v-38h417v-481h67v1000z" />
    <glyph glyph-name="uni2537" unicode="&#x2537;" 
d="M0 338v-75h900v75h-433v462h-34v-462h-433z" />
    <glyph glyph-name="uni253F" unicode="&#x253f;" 
d="M0 338v-75h433v-463h34v463h433v75h-433v462h-34v-462h-433z" />
    <glyph glyph-name="uni251D" unicode="&#x251d;" 
d="M467 338v462h-34v-1000h34v463h433v75h-433z" />
    <glyph glyph-name="uni2530" unicode="&#x2530;" 
d="M0 319v-38h417v-481h67v481h416v38h-900z" />
    <glyph glyph-name="uni2525" unicode="&#x2525;" 
d="M0 338v-75h433v-463h34v1000h-34v-462h-433z" />
    <glyph glyph-name="uni2538" unicode="&#x2538;" 
d="M0 319v-38h900v38h-416v481h-67v-481h-417z" />
    <glyph glyph-name="uni2542" unicode="&#x2542;" 
d="M0 319v-38h417v-481h67v481h416v38h-416v481h-67v-481h-417z" />
    <glyph glyph-name="uni2512" unicode="&#x2512;" 
d="M417 -200h67v519h-484v-38h417v-481z" />
    <glyph glyph-name="uni2511" unicode="&#x2511;" 
d="M433 -200h34v538h-467v-75h433v-463z" />
    <glyph glyph-name="uni251A" unicode="&#x251a;" 
d="M0 319v-38h484v519h-67v-481h-417z" />
    <glyph glyph-name="uni2519" unicode="&#x2519;" 
d="M0 338v-75h467v537h-34v-462h-433z" />
    <glyph glyph-name="uni2516" unicode="&#x2516;" 
d="M484 800h-67v-519h483v38h-416v481z" />
    <glyph glyph-name="uni2515" unicode="&#x2515;" 
d="M467 800h-34v-537h467v75h-433v462z" />
    <glyph glyph-name="uni250E" unicode="&#x250e;" 
d="M900 281v38h-483v-519h67v481h416z" />
    <glyph glyph-name="uni250D" unicode="&#x250d;" 
d="M433 -200h34v463h433v75h-467v-538z" />
    <glyph glyph-name="uni251E" unicode="&#x251e;" 
d="M417 281h16v-481h34v481h433v38h-416v481h-67v-519z" />
    <glyph glyph-name="uni251F" unicode="&#x251f;" 
d="M433 319h-16v-519h67v481h416v38h-433v481h-34v-481z" />
    <glyph glyph-name="uni2521" unicode="&#x2521;" 
d="M467 -200v463h433v75h-416v462h-67v-537h16v-463h34z" />
    <glyph glyph-name="uni2522" unicode="&#x2522;" 
d="M484 -200v463h416v75h-433v462h-34v-462h-16v-538h67z" />
    <glyph glyph-name="uni2526" unicode="&#x2526;" 
d="M417 319h-417v-38h433v-481h34v481h17v519h-67v-481z" />
    <glyph glyph-name="uni2527" unicode="&#x2527;" 
d="M0 281h417v-481h67v519h-17v481h-34v-481h-433v-38z" />
    <glyph glyph-name="uni2529" unicode="&#x2529;" 
d="M433 263v-463h34v463h17v537h-67v-462h-417v-75h433z" />
    <glyph glyph-name="uni252A" unicode="&#x252a;" 
d="M417 263v-463h67v538h-17v462h-34v-462h-433v-75h417z" />
    <glyph glyph-name="uni252D" unicode="&#x252d;" 
d="M433 263v-463h34v481h433v38h-433v19h-467v-75h433z" />
    <glyph glyph-name="uni252E" unicode="&#x252e;" 
d="M433 281v-481h34v463h433v75h-467v-19h-433v-38h433z" />
    <glyph glyph-name="uni2531" unicode="&#x2531;" 
d="M417 263v-463h67v481h416v38h-416v19h-484v-75h417z" />
    <glyph glyph-name="uni2532" unicode="&#x2532;" 
d="M417 281v-481h67v463h416v75h-483v-19h-417v-38h417z" />
    <glyph glyph-name="uni2535" unicode="&#x2535;" 
d="M467 263v18h433v38h-433v481h-34v-462h-433v-75h467z" />
    <glyph glyph-name="uni2536" unicode="&#x2536;" 
d="M433 281v-18h467v75h-433v462h-34v-481h-433v-38h433z" />
    <glyph glyph-name="uni2539" unicode="&#x2539;" 
d="M484 263v18h416v38h-416v481h-67v-462h-417v-75h484z" />
    <glyph glyph-name="uni253A" unicode="&#x253a;" 
d="M417 281v-18h483v75h-416v462h-67v-481h-417v-38h417z" />
    <glyph glyph-name="uni253D" unicode="&#x253d;" 
d="M433 263v-463h34v481h433v38h-433v481h-34v-462h-433v-75h433z" />
    <glyph glyph-name="uni253E" unicode="&#x253e;" 
d="M433 800v-481h-433v-38h433v-481h34v463h433v75h-433v462h-34z" />
    <glyph glyph-name="uni2540" unicode="&#x2540;" 
d="M417 800v-481h-417v-38h433v-481h34v481h433v38h-416v481h-67z" />
    <glyph glyph-name="uni2541" unicode="&#x2541;" 
d="M433 800v-481h-433v-38h417v-481h67v481h416v38h-433v481h-34z" />
    <glyph glyph-name="uni2543" unicode="&#x2543;" 
d="M417 800v-462h-417v-75h433v-463h34v463h17v18h416v38h-416v481h-67z" />
    <glyph glyph-name="uni2544" unicode="&#x2544;" 
d="M467 263h433v75h-416v462h-67v-481h-417v-38h417v-18h16v-463h34v463z" />
    <glyph glyph-name="uni2545" unicode="&#x2545;" 
d="M433 800v-462h-433v-75h417v-463h67v481h416v38h-416v19h-17v462h-34z" />
    <glyph glyph-name="uni2546" unicode="&#x2546;" 
d="M433 800v-462h-16v-19h-417v-38h417v-481h67v463h416v75h-433v462h-34z" />
    <glyph glyph-name="uni2547" unicode="&#x2547;" 
d="M417 800v-462h-417v-75h433v-463h34v463h433v75h-416v462h-67z" />
    <glyph glyph-name="uni2548" unicode="&#x2548;" 
d="M433 800v-462h-433v-75h417v-463h67v463h416v75h-433v462h-34z" />
    <glyph glyph-name="uni2549" unicode="&#x2549;" 
d="M417 800v-462h-417v-75h417v-463h67v481h416v38h-416v481h-67z" />
    <glyph glyph-name="uni254A" unicode="&#x254a;" 
d="M417 800v-481h-417v-38h417v-481h67v463h416v75h-416v462h-67z" />
    <glyph glyph-name="uni3395" unicode="&#x3395;" 
d="M395 470l-47 -291q-9 -66 -37 -111q-36 -59 -91 -59q-80 0 -62 127l49 334h-59l-99 -630h57l29 145q28 -53 68 -53q81 0 124 78q0 -45 25 -66q11 -12 80 -12l14 53q-27 -1 -39 3q-26 10 -20 52l70 430h-62zM809 31q-20 -53 -58 -72q-46 -23 -90 42q119 119 147 349
q20 163 -10 265q-31 105 -103 101q-70 -5 -120 -106q-50 -102 -54 -251q-5 -203 49 -329q-45 -25 -91 -29l22 -59q49 7 100 33q31 -51 75 -74q39 -21 71 -10q68 19 104 98zM748 552q9 -79 -3 -197q-16 -189 -116 -296q-52 100 -43 299q3 110 32 197q32 95 75 97
q44 2 55 -100z" />
    <glyph glyph-name="uni3396" unicode="&#x3396;" 
d="M463 308q0 173 -101 173q-54 0 -96 -68q-17 67 -78 67q-47 0 -77 -46v37h-49v-536h56v368q0 110 58 112q56 2 56 -112v-368h60v366q0 115 58 115q54 0 54 -115v-366h59v373zM828 36q-20 -50 -58 -69q-46 -25 -90 42q119 119 147 346q20 165 -10 267q-31 106 -103 102
q-70 -5 -120 -107q-50 -103 -54 -250q-7 -202 49 -332q-48 -22 -91 -26l22 -62q40 4 100 36q31 -51 75 -74q39 -21 71 -10q70 19 104 98zM767 558q9 -78 -3 -198q-17 -191 -116 -293q-54 106 -42 299q2 109 31 195q31 94 75 96t55 -99z" />
    <glyph glyph-name="uni3397" unicode="&#x3397;" 
d="M406 675h-59v-281q-44 70 -109 71q-81 1 -128 -75q-47 -75 -47 -201t42 -200q42 -76 119 -75q41 0 77 27q33 25 46 62v-81h59v753zM338 189q0 -92 -28 -152q-30 -65 -80 -65q-54 0 -82 64q-26 57 -26 153q0 97 29 155q31 61 88 61q99 0 99 -216zM791 23q-21 -49 -58 -69
q-47 -27 -92 47q115 96 149 341q20 165 -10 267q-32 106 -105 102q-70 -4 -119 -107q-48 -102 -53 -250q-7 -204 50 -333q-39 -21 -92 -27l20 -63q47 4 100 38q32 -48 77 -70q40 -19 73 -11q68 15 102 96zM730 545q9 -78 -3 -198q-17 -194 -115 -292q-51 91 -46 298
q3 108 33 195q31 94 73 96q46 2 58 -99z" />
    <glyph glyph-name="uni2113" unicode="&#x2113;" 
d="M586 23q-25 -51 -59 -69q-47 -27 -90 42q116 114 148 346q20 164 -11 267q-33 106 -105 102q-70 -4 -120 -107q-49 -102 -54 -250q-5 -205 52 -332q-48 -22 -91 -26l19 -62q46 5 100 36q34 -52 76 -74q40 -21 73 -10q70 19 104 98zM525 545q9 -78 -3 -198
q-16 -185 -116 -293q-52 92 -45 299q3 108 33 195q31 94 73 96q46 2 58 -99z" />
    <glyph glyph-name="uni3398" unicode="&#x3398;" 
d="M223 198l145 -263h83l-176 311l173 225h-78l-199 -242v444h-67v-738h67v197zM801 36q-25 -51 -58 -69q-49 -27 -90 42q115 115 147 346q20 164 -11 267q-33 106 -105 102q-70 -4 -119 -107q-50 -102 -55 -250q-5 -207 53 -333q-39 -21 -92 -27l20 -63q48 5 100 38
q68 -101 150 -81q68 16 102 96zM740 558q9 -78 -3 -198q-16 -185 -116 -293q-52 92 -45 299q3 108 33 195q31 94 73 96q46 2 58 -99z" />
    <glyph glyph-name="uni33C4" unicode="&#x33c4;" 
d="M370 80q-4 -43 -35 -74q-34 -33 -85 -33q-139 0 -139 228q0 101 38 158q38 56 108 56q61 0 91 -50q19 -32 21 -67h63q0 68 -42 122q-49 63 -130 63q-101 0 -158 -78q-56 -77 -56 -207q0 -133 48 -207q52 -81 152 -81q82 0 132 51q44 44 56 119h-64zM792 80
q-3 -43 -36 -74q-35 -33 -86 -33q-137 0 -137 228q0 214 145 214q61 0 92 -50q19 -32 21 -67h60q0 68 -41 122q-48 63 -128 63q-101 0 -159 -78q-57 -77 -57 -207q0 -131 51 -207q53 -80 152 -80q158 0 184 169h-61z" />
    <glyph glyph-name="uni33A3" unicode="&#x33a3;" 
d="M78 473h-48v-537h53v374q0 110 39 112q44 2 44 -112v-374h51v372q0 114 42 114q39 0 39 -114v-372h52v379q0 164 -81 164q-44 0 -72 -44q-18 43 -66 43q-33 0 -53 -29v24zM433 473h-49v-537h53v374q0 110 40 112q43 2 43 -112v-374h52v372q0 114 42 114q39 0 39 -114
v-372h52v374q0 169 -81 169q-44 0 -72 -44q-19 43 -66 43q-34 0 -53 -29v24zM879 623q0 33 -26 60q-26 26 -59 26q-39 0 -63 -25q-26 -26 -25 -70h37q0 53 49 53q19 0 32 -14q12 -13 12 -30q0 -30 -26 -46q-10 -6 -40 -6v-39q26 0 39 -4q33 -6 33 -44q0 -56 -48 -56
q-56 0 -56 63h-39q0 -46 26 -74t69 -28q42 0 68 26t26 68q0 54 -46 73q37 19 37 67z" />
    <glyph glyph-name="uni33A4" unicode="&#x33a4;" 
d="M426 471h-48v-536h52v377q0 106 42 108q45 2 45 -108v-377h50v375q0 110 44 110q41 0 41 -110v-375h51v373q0 170 -84 170q-48 0 -68 -41q-23 41 -67 41q-36 0 -58 -43v36zM879 623q0 33 -26 60q-26 26 -59 26q-39 0 -63 -25q-26 -26 -25 -70h37q0 53 49 53q19 0 32 -14
q12 -13 12 -30q0 -30 -26 -46q-10 -6 -40 -6v-39q26 0 39 -4q33 -6 33 -44q0 -56 -48 -56q-56 0 -56 63h-39q0 -46 26 -74t69 -28q42 0 68 26t26 68q0 54 -46 73q37 19 37 67zM60 402q-42 -73 -42 -202q0 -283 174 -283q71 0 112 56q33 47 36 118h-57q1 -43 -20 -75
q-24 -38 -71 -38q-113 0 -115 222q0 224 116 223q48 -1 74 -54q17 -38 16 -72h55q0 66 -31 118q-40 66 -113 66q-89 0 -134 -79z" />
    <glyph glyph-name="uni33A5" unicode="&#x33a5;" 
d="M609 307q0 175 -120 175q-78 0 -114 -69q-23 67 -96 67q-55 0 -93 -54v44h-56v-535h65v369q0 113 71 115q72 2 72 -115v-369h64v367q0 56 21 88q20 30 51 30q70 0 70 -118v-367h65v372zM806 623q0 33 -26 60q-26 26 -59 26q-39 0 -63 -25q-26 -26 -25 -70h38q0 53 48 53
q19 0 32 -14q12 -13 12 -30q0 -30 -26 -46q-10 -6 -39 -6v-39q25 0 38 -4q34 -6 34 -44q0 -56 -49 -56q-56 0 -56 63h-39q0 -46 26 -74t69 -28q42 0 68 26t26 68q0 55 -45 73q36 18 36 67z" />
    <glyph glyph-name="uni33A6" unicode="&#x33a6;" 
d="M434 471h-51v-536h55v379q0 102 38 104q42 2 42 -104v-379h54v377q0 106 41 106q39 0 39 -106v-377h53v373q0 172 -84 172q-45 0 -68 -43q-20 42 -66 42q-33 0 -53 -32v24zM888 623q0 33 -26 60q-26 26 -59 26q-39 0 -63 -25q-26 -26 -25 -70h37q0 53 49 53q19 0 32 -14
q12 -13 12 -30q0 -30 -26 -46q-10 -6 -40 -6v-39q26 0 39 -4q33 -6 33 -44q0 -56 -48 -56q-56 0 -56 63h-39q0 -46 26 -74t69 -28q42 0 68 26t26 68q0 54 -46 73q37 19 37 67zM153 191l121 -256h72l-152 308l148 228h-64l-174 -255v457h-58v-738h58v193z" />
    <glyph glyph-name="uni3399" unicode="&#x3399;" 
d="M431 471h-55v-536h62v369q0 110 57 112q54 2 54 -112v-369h63v367q0 113 54 113q55 0 55 -113v-367h62v374q0 175 -103 175q-61 0 -93 -55q-20 55 -79 55q-50 0 -77 -43v30zM184 -65h67v469h75v67h-75v66q0 58 20 77q19 20 55 11v63h-44q-48 0 -75 -46q-23 -38 -23 -111
v-60h-66v-67h66v-469z" />
    <glyph glyph-name="uni339A" unicode="&#x339a;" 
d="M150 471h-62v-536h62v326q0 74 25 114q22 35 58 35q64 0 64 -144v-331h62v366q0 161 -92 178q-78 14 -117 -49v41zM474 471h-52v-536h60v368q0 110 55 112q56 2 56 -112v-368h62v366q0 115 57 115q52 0 52 -115v-366h62v373q0 175 -102 175q-60 0 -96 -57q-29 55 -78 55
q-44 0 -76 -41v31z" />
    <glyph glyph-name="uni339B" unicode="&#x339b;" 
d="M361 471l-46 -296q-28 -172 -121 -172q-78 0 -60 129l49 339h-59l-100 -630h57l25 143q30 -51 72 -51q77 0 109 61q5 -32 31 -49q13 -12 79 -12l15 53q-27 -1 -41 4q-24 11 -17 51l69 430h-62zM518 471h-55v-536h62v367q0 111 53 113q57 2 57 -113v-367h63v365
q0 56 16 87q15 29 38 29q55 0 55 -116v-365h62v372q0 175 -107 175q-60 0 -89 -54q-26 53 -83 53q-39 0 -72 -41v31z" />
    <glyph glyph-name="uni339C" unicode="&#x339c;" 
d="M529 471h-54v-536h61v368q0 110 49 112q47 2 47 -112v-368h65v366q0 115 48 115q46 0 46 -115v-366h63v373q0 171 -97 171q-45 0 -85 -51q-24 51 -76 51q-37 0 -67 -39v31zM104 471h-54v-536h60v368q0 110 49 112q47 2 47 -112v-368h65v366q0 115 49 115q45 0 45 -115
v-366h63v373q0 171 -97 171q-46 0 -84 -51q-25 51 -77 51q-38 0 -66 -39v31z" />
    <glyph glyph-name="uni339D" unicode="&#x339d;" 
d="M518 471h-54v-536h61v368q0 110 49 112q47 2 47 -112v-368h65v366q0 115 48 115q46 0 46 -115v-366h63v373q0 171 -97 171q-46 0 -84 -51q-25 51 -77 51q-37 0 -67 -39v31zM351 90q-4 -47 -30 -77q-29 -32 -76 -32q-136 0 -136 222q0 101 36 158q35 57 101 57
q56 0 84 -49q20 -35 19 -73h65q0 70 -39 125q-47 64 -127 64q-99 0 -153 -78q-52 -75 -52 -207q0 -133 50 -208q51 -77 146 -77q156 0 177 175h-65z" />
    <glyph glyph-name="uni339E" unicode="&#x339e;" 
d="M503 471h-54v-536h60v368q0 110 50 112q47 2 47 -112v-368h61v366q0 115 49 115q45 0 45 -115v-366h62v373q0 171 -96 171q-41 0 -81 -51q-24 51 -76 51q-37 0 -67 -39v31zM199 193l143 -257h77l-171 306l171 228h-75l-196 -249v452h-57v-737h57v191z" />
    <glyph glyph-name="uni339F" unicode="&#x339f;" 
d="M79 473h-50v-537h55v374q0 110 38 112q43 2 43 -112v-374h53v372q0 114 41 114q38 0 38 -114v-372h54v379q0 164 -82 164q-45 0 -72 -43q-17 42 -66 42q-34 0 -52 -27v22zM434 473h-51v-537h55v374q0 110 39 112q42 2 42 -112v-374h53v372q0 114 42 114q38 0 38 -114
v-372h54v374q0 169 -82 169q-45 0 -72 -43q-18 42 -66 42q-34 0 -52 -27v22zM892 443h-120q4 17 34 53l43 43q35 35 36 69q2 35 -19 62q-23 31 -63 31q-42 0 -66 -35q-20 -30 -17 -68h40q3 62 43 62q43 0 40 -44q-1 -18 -37 -61l-45 -45q-40 -50 -38 -106h169v39z" />
    <glyph glyph-name="uni33A0" unicode="&#x33a0;" 
d="M427 471h-50v-536h54v377q0 106 41 108q44 2 44 -108v-377h52v375q0 110 43 110q40 0 40 -110v-375h53v373q0 170 -85 170q-49 0 -68 -39q-22 39 -67 39q-35 0 -57 -40v33zM60 406q-42 -73 -42 -202q0 -283 174 -283q71 0 112 56q33 47 36 118h-57q1 -43 -20 -75
q-24 -38 -71 -38q-113 0 -115 222q0 224 116 223q48 -1 74 -54q17 -38 16 -72h55q0 66 -31 118q-40 66 -113 66q-89 0 -134 -79zM892 443h-120q4 17 34 53l43 43q35 35 36 69q2 35 -19 62q-23 31 -63 31q-42 0 -66 -35q-20 -30 -17 -68h40q3 62 43 62q43 0 40 -44
q-1 -18 -37 -61l-45 -45q-40 -50 -38 -106h169v39z" />
    <glyph glyph-name="uni33A1" unicode="&#x33a1;" 
d="M620 307q0 175 -120 175q-78 0 -114 -69q-23 67 -96 67q-55 0 -93 -54v44h-57v-535h66v369q0 113 70 115q73 2 73 -115v-369h64v367q0 56 21 88q20 30 51 30q69 0 69 -118v-367h66v372zM822 443h-120q3 16 33 53l44 43q35 35 36 69q1 35 -19 62q-23 31 -63 31
q-43 0 -66 -35q-20 -30 -17 -68h39q3 62 44 62q43 0 40 -44q-1 -19 -37 -61l-45 -45q-40 -50 -38 -106h169v39z" />
    <glyph glyph-name="uni33A2" unicode="&#x33a2;" 
d="M434 471h-51v-536h55v379q0 102 38 104q42 2 42 -104v-379h54v377q0 106 41 106q39 0 39 -106v-377h53v373q0 172 -84 172q-45 0 -68 -43q-20 42 -66 42q-33 0 -53 -32v24zM892 443h-120q4 17 34 53l43 43q35 35 36 69q2 35 -19 62q-23 31 -63 31q-42 0 -66 -35
q-20 -30 -17 -68h40q3 62 43 62q43 0 40 -44q-1 -18 -37 -61l-45 -45q-40 -50 -38 -106h169v39zM153 191l121 -256h72l-152 308l148 228h-64l-174 -255v457h-58v-738h58v193z" />
    <glyph glyph-name="uni33CA" unicode="&#x33ca;" 
d="M168 673h-64v-738h64v303q0 70 30 120t71 50q81 0 81 -149v-324h61v356q0 66 -23 117q-29 62 -81 71q-92 17 -139 -78v272zM820 -65q-35 62 -35 130v206q0 132 11 201l-55 2q-7 -43 -8 -73q-26 76 -101 76q-76 0 -121 -74q-45 -76 -45 -207q0 -287 151 -287q81 0 117 90
q2 -41 21 -88zM623 -29q-91 0 -91 225q0 218 98 218q92 0 92 -213q0 -230 -99 -230z" />
    <glyph glyph-name="uni338D" unicode="&#x338d;" 
d="M755 -11q0 -166 -103 -166q-44 0 -73 35q-26 31 -29 70h-57q5 -67 44 -114q44 -54 114 -54q67 0 108 51q49 61 49 180v479h-53v-55q-34 75 -115 75q-71 0 -116 -73q-44 -74 -44 -190q0 -115 45 -189q45 -73 113 -73q86 0 117 79v-55zM724 373q31 -52 31 -143t-31 -145
q-30 -53 -79 -53q-47 0 -77 51q-31 53 -31 144t31 145q30 51 77 51q49 0 79 -50zM388 470l-49 -286q-28 -176 -114 -176q-84 0 -67 120l51 342h-60l-99 -628h58l25 149q28 -57 74 -57q74 0 114 66q2 -33 26 -54q10 -12 76 -12l14 58q-27 -1 -39 3q-27 11 -20 52l69 423h-59z
" />
    <glyph glyph-name="uni338E" unicode="&#x338e;" 
d="M763 -11q0 -166 -103 -166q-44 0 -73 35q-26 31 -29 70h-57q5 -67 44 -114q44 -54 114 -54q67 0 108 51q49 61 49 180v479h-53v-55q-34 75 -115 75q-71 0 -116 -73q-44 -74 -44 -190q0 -115 45 -189q45 -73 113 -73q86 0 117 79v-55zM732 373q31 -52 31 -143t-31 -145
q-30 -53 -79 -53q-47 0 -77 51q-31 53 -31 144t31 145q30 51 77 51q49 0 79 -50zM116 471h-54v-536h60v368q0 110 50 112q47 2 47 -112v-368h65v366q0 115 48 115q46 0 46 -115v-366h63v373q0 171 -97 171q-45 0 -85 -51q-24 51 -76 51q-37 0 -67 -39v31z" />
    <glyph glyph-name="uni338F" unicode="&#x338f;" 
d="M752 -11q0 -166 -104 -166q-44 0 -73 35q-26 31 -29 70h-56q4 -67 43 -114q44 -54 114 -54q67 0 109 51q49 61 49 180v480h-53v-56q-36 75 -116 75q-71 0 -116 -73q-44 -74 -44 -190q0 -115 46 -189q45 -73 113 -73q85 0 117 79v-55zM721 373q31 -52 31 -143t-31 -145
q-30 -53 -79 -53q-47 0 -77 51q-31 53 -31 144t31 145q30 51 77 51q49 0 79 -50zM237 193l143 -258h76l-171 307l171 229h-74l-197 -250v452h-60v-738h60v192z" />
    <glyph glyph-name="uni33CF" unicode="&#x33cf;" 
d="M266 193l143 -258h76l-171 307l171 229h-75l-196 -250v452h-60v-738h60v192zM729 404v67h-68v161h-62v-161h-60v-67h60v-325q0 -64 21 -102q24 -43 67 -43h42v69q-44 0 -55 13q-13 15 -13 70v318h68z" />
    <glyph glyph-name="uni3388" unicode="&#x3388;" 
d="M550 -83l52 35q-29 66 -29 124v203q0 111 11 193h-52q-4 -32 -3 -51q-24 60 -82 60q-63 0 -99 -71q-37 -73 -37 -203q0 -287 126 -287q56 0 85 70q7 -30 28 -73zM442 -18q-65 0 -65 225q0 214 69 214t69 -209q0 -230 -73 -230zM849 31q-12 -51 -36 -68q-29 -16 -61 45
q91 111 117 341q16 166 -9 268q-25 104 -84 100q-58 -4 -98 -106q-40 -101 -43 -249q-5 -200 39 -332q-34 -23 -62 -27l14 -64q41 14 78 41q49 -98 103 -78q61 19 84 106zM815 554q7 -82 -3 -199q-13 -186 -86 -287q-39 95 -32 293q2 108 25 197q24 94 55 96q33 2 41 -100z
M242 84q-5 -42 -25 -74q-22 -34 -49 -34q-85 0 -85 232q0 215 89 215q34 0 54 -48q13 -34 14 -70h57q0 67 -30 120q-35 63 -93 63q-72 0 -112 -77q-40 -75 -40 -206q0 -133 35 -208q37 -81 109 -81q111 0 132 168h-56z" />
    <glyph glyph-name="uni3389" unicode="&#x3389;" 
d="M65 674h-51v-739h50v193l33 65l86 -258h58l-110 314l114 222h-60l-120 -227v430zM556 480q-102 0 -102 -273q0 -285 94 -285q46 0 66 58q5 -25 17 -58l48 28q-22 81 -22 126v203q0 63 16 193h-51q0 -7 -3 -19q-2 -11 -2 -20q-9 47 -61 47zM551 -16q-42 0 -42 223
q0 213 47 213q46 0 46 -208q0 -228 -51 -228zM857 41q-11 -53 -13 -59q-5 -14 -17 -15q-15 -4 -33 42q68 120 87 340q26 360 -74 351q-46 -4 -76 -98q-29 -92 -32 -240q-2 -200 30 -329q-27 -26 -45 -30l15 -66q24 6 51 35q45 -84 85 -67q43 16 63 104zM829 355
q-9 -195 -58 -273q-26 85 -20 276q2 99 19 189q17 92 36 93q38 3 23 -285zM382 90q-6 -103 -43 -103q-55 0 -55 220q0 205 58 205q36 0 40 -115h55q0 69 -22 122q-26 63 -71 63q-57 0 -87 -76q-30 -73 -30 -202q0 -282 111 -282q82 0 99 168h-55z" />
    <glyph glyph-name="uni33C8" unicode="&#x33c8;" 
d="M413 674h-59v-271q-35 66 -103 67q-80 1 -127 -74t-47 -198q0 -121 44 -196q45 -75 119 -75q73 0 114 77v-69h59v739zM353 198q0 -91 -27 -151q-30 -64 -82 -64q-106 0 -106 215q0 96 29 152q30 60 86 60q100 0 100 -212zM804 507q0 63 -38 113q-40 53 -98 53h-186v-738
h183q65 0 111 57t47 144q1 124 -93 194q74 60 74 177zM539 355v264h118q38 0 63 -35t25 -91q0 -57 -26 -97q-26 -41 -63 -41h-117zM539 -6v298h123q37 0 67 -44q31 -44 31 -101q0 -68 -28 -111q-27 -42 -70 -42h-123z" />
    <glyph glyph-name="uni33A7" unicode="&#x33a7;" 
d="M121 676h-47v-386h47v230q0 112 52 114q27 1 37 -24q9 -22 9 -76v-244h50v230q0 111 52 113q26 1 36 -24q8 -21 8 -75v-244h52v264q0 123 -68 134q-61 11 -94 -45q-17 41 -53 45q-50 6 -81 -43v31zM842 651l-27 28l-706 -762l23 -31zM691 132q-48 13 -57 17
q-51 20 -51 58q0 29 22 50q23 22 63 22q90 0 90 -86h57q0 46 -32 85q-41 49 -113 49q-65 0 -105 -39q-35 -34 -36 -81q-1 -72 79 -103q18 -7 59 -17t59 -18q41 -22 40 -64q-2 -69 -95 -69q-42 0 -69 26q-30 28 -31 76h-56q2 -60 41 -102q43 -49 114 -49q68 0 109 32
q37 29 43 77q9 82 -64 112q-24 13 -67 24z" />
    <glyph glyph-name="uni33A8" unicode="&#x33a8;" 
d="M110 689h-45v-369h45v234q0 94 49 96q25 1 34 -23q8 -21 8 -71v-236h50v232q0 93 49 95q25 1 35 -23q7 -19 7 -68v-236h47v254q0 113 -60 125q-62 15 -93 -46q-11 43 -52 48q-43 6 -74 -38v26zM802 652l-32 28l-703 -762l23 -31zM557 125q-45 17 -45 58q0 25 19 43
q21 20 58 20q85 0 85 -79h53q0 43 -28 80q-38 48 -109 48q-62 0 -97 -36q-30 -31 -30 -75q0 -73 73 -101l108 -37q40 -14 38 -60q-2 -63 -90 -63q-41 0 -68 25q-29 26 -30 71h-50q2 -57 37 -97q40 -46 110 -46q129 0 141 108q9 74 -60 102zM866 274h-82q0 7 22 26q2 3 33 32
q23 21 23 50q0 57 -59 57q-30 0 -47 -25q-14 -21 -14 -47h34q-2 39 28 39q26 0 24 -24q-1 -18 -25 -38q-11 -9 -32 -30q-32 -33 -30 -73h125v33z" />
    <glyph glyph-name="uni33B0" unicode="&#x33b0;" 
d="M160 470h-53v-735h53v242q48 -63 115 -63q75 0 120 75q45 77 45 210t-45 209q-45 75 -119 75q-64 0 -116 -72v59zM350 359q30 -58 30 -160t-30 -160t-83 -58t-83 58t-30 160t30 160t83 58t83 -58zM471 92q2 -61 43 -113q54 -69 150 -69q73 0 121 44q49 45 51 116
q3 76 -70 125q-16 11 -140 52q-69 23 -68 87q1 35 23 58q25 27 74 27q56 0 85 -38q20 -27 18 -56h70q3 55 -40 104q-50 56 -129 56q-75 0 -123 -49q-45 -45 -45 -105q0 -97 89 -135q10 -4 65 -21q48 -14 77 -30q54 -31 48 -81q-8 -82 -108 -82q-54 0 -86 32q-30 29 -34 78
h-71z" />
    <glyph glyph-name="uni33B1" unicode="&#x33b1;" 
d="M455 92q1 -60 41 -111q52 -66 148 -66q73 0 122 40q51 42 52 111q1 81 -73 128q-22 14 -138 54q-70 23 -69 86q1 35 23 58q25 27 74 27q56 0 85 -38q20 -27 18 -56h70q3 55 -40 102q-50 55 -129 55q-74 0 -122 -48q-45 -44 -45 -103q0 -95 88 -133q9 -4 65 -21
q49 -15 77 -31q57 -32 52 -81q-8 -85 -112 -85q-53 0 -86 33q-30 30 -34 79h-67zM167 472h-63v-537h63v319q0 74 29 117q27 40 70 40q40 0 63 -36q26 -40 26 -115v-325h59v367q0 59 -27 109q-32 57 -85 67q-81 16 -135 -61v55z" />
    <glyph glyph-name="uni33B2" unicode="&#x33b2;" 
d="M464 92q1 -60 41 -111q52 -66 148 -66q73 0 122 40q51 42 52 111q1 81 -73 128q-22 14 -138 54q-70 23 -69 86q1 35 23 58q25 27 74 27q56 0 85 -38q20 -27 18 -56h70q3 55 -40 102q-50 55 -129 55q-74 0 -122 -48q-45 -44 -45 -103q0 -95 88 -133q9 -4 65 -21
q49 -15 77 -31q57 -32 52 -81q-8 -85 -112 -85q-53 0 -86 33q-30 30 -34 79h-67zM389 471l-48 -304q-25 -164 -111 -170q-89 -6 -72 112l54 362h-60l-99 -633h60l21 145q25 -53 76 -53q69 0 112 65q2 -31 25 -53q11 -12 80 -12l13 56q-29 -2 -39 2q-28 11 -21 50l70 433h-61
z" />
    <glyph glyph-name="uni33B3" unicode="&#x33b3;" 
d="M483 92q2 -61 41 -111q52 -66 148 -66q74 0 123 40q51 42 52 111q1 81 -73 128q-24 16 -139 54q-69 23 -68 86q1 35 23 58q25 27 74 27q56 0 85 -38q20 -27 18 -56h70q3 55 -40 102q-50 55 -129 55q-75 0 -123 -48q-45 -44 -45 -103q0 -95 89 -133q10 -4 65 -21
q48 -15 77 -31q57 -32 52 -81q-8 -85 -112 -85q-53 0 -86 33q-30 30 -34 79h-68zM121 471h-50v-536h56v368q0 110 51 112q48 2 48 -112v-368h61v366q0 115 50 115q47 0 47 -115v-366h59v373q0 172 -95 172q-57 0 -86 -62q-14 62 -77 62q-39 0 -64 -44v35z" />
    <glyph glyph-name="uni33B4" unicode="&#x33b4;" 
d="M151 -37q43 -55 98 -55q68 0 109 76q43 78 43 212q0 135 -40 211q-40 75 -109 75q-57 0 -101 -62v50h-56v-741h56v234zM314 356q25 -60 25 -160t-25 -158q-26 -57 -68 -57q-45 0 -70 57t-25 158t25 160t70 59q42 0 68 -59zM420 674h-64l211 -739h71l212 741h-67
l-179 -649z" />
    <glyph glyph-name="uni33B5" unicode="&#x33b5;" 
d="M153 471h-62v-538h62v339q0 72 26 110q23 33 60 33q69 0 69 -146v-336h62v368q0 63 -22 111q-26 57 -74 67q-72 16 -121 -53v45zM404 674h-65l212 -739h71l211 741h-66l-179 -649z" />
    <glyph glyph-name="uni33B6" unicode="&#x33b6;" 
d="M120 -24q22 -43 61 -43q64 0 97 57q2 -21 23 -47q9 -11 68 -11l14 56q-25 -5 -37 7q-16 16 -10 49l59 427h-61l-42 -303q-22 -167 -94 -167q-69 0 -54 124l42 346h-60l-84 -631h57zM436 674h-65l211 -739h71l212 741h-67l-179 -649z" />
    <glyph glyph-name="uni33B7" unicode="&#x33b7;" 
d="M104 471h-52v-536h57v368q0 110 46 112q45 2 45 -112v-368h61v366q0 114 44 114q46 0 46 -114v-366h55v373q0 171 -91 171q-48 0 -77 -52q-22 52 -72 52q-35 0 -62 -41v33zM432 674h-65l212 -739h71l211 741h-66l-179 -649z" />
    <glyph glyph-name="uni33B8" unicode="&#x33b8;" 
d="M196 191l124 -258h70l-151 317l147 222h-69l-168 -242v445h-58v-742h58v192zM429 674h-64l211 -739h71l212 741h-67l-179 -649z" />
    <glyph glyph-name="uni33B9" unicode="&#x33b9;" 
d="M575 675h-65l146 -742h72l147 742h-64l-117 -613zM425 -67h56v742h-80l-135 -639l-138 639h-78v-742h56v572l121 -572h75l123 573v-573z" />
    <glyph glyph-name="uni3380" unicode="&#x3380;" 
d="M811 -65h58l-219 739h-73l-221 -739h60l60 202h276zM495 202l119 400l118 -400h-237zM126 -21q34 -59 88 -59q67 0 108 74q43 78 43 211t-40 206q-38 70 -103 70q-57 0 -96 -57v46h-55v-731h55v240zM305 205q0 -215 -91 -215q-42 0 -66 58q-25 58 -25 158q0 99 25 156
q24 56 66 56q91 0 91 -213z" />
    <glyph glyph-name="uni3381" unicode="&#x3381;" 
d="M819 -65h58l-219 739h-73l-220 -739h59l60 202h276zM503 202l119 400l118 -400h-237zM114 471h-59v-538h59v334q0 73 26 113q22 35 57 35q67 0 67 -146v-336h60v368q0 156 -91 176q-74 17 -119 -51v45z" />
    <glyph glyph-name="uni3382" unicode="&#x3382;" 
d="M415 -65l60 202h276l59 -202h58l-219 739h-73l-205 -687q-16 0 -24 2q-20 12 -15 54l69 428h-59l-51 -310q-28 -167 -99 -167q-75 0 -59 124l50 353h-57l-95 -638h57l23 142q26 -45 62 -45q70 0 102 61q1 -32 23 -48q10 -8 67 -8h50zM494 202l119 400l118 -400h-237z" />
    <glyph glyph-name="uni3383" unicode="&#x3383;" 
d="M797 -65h57l-197 739h-71l-199 -739h59l54 202h243zM725 202h-207l104 390zM97 471h-51v-538h56v377q0 103 43 105q42 2 42 -105v-377h56v375q0 107 41 107q42 0 42 -107v-375h53v382q0 168 -84 168q-42 0 -74 -50q-18 48 -63 48q-34 0 -61 -40v30z" />
    <glyph glyph-name="uni3384" unicode="&#x3384;" 
d="M463 137h275l59 -202h58l-219 739h-73l-209 -704l-131 282l148 220h-66l-172 -250v452h-56v-741h56v194l51 71l122 -265l96 2zM482 202l118 400l118 -400h-236z" />
    <glyph glyph-name="uni33BA" unicode="&#x33ba;" 
d="M370 673h-60l120 -738h64l93 610l89 -610h68l117 738h-56l-91 -604l-88 604h-73l-92 -605zM113 -30q34 -53 81 -53q62 0 99 73q38 75 38 209t-35 206q-34 71 -94 71q-58 0 -90 -56l1 50h-56v-738h56v238zM251 358q21 -59 21 -159t-21 -159q-22 -58 -58 -58q-37 0 -58 58
q-22 59 -22 159t22 159q21 59 58 59q36 0 58 -59z" />
    <glyph glyph-name="uni33BB" unicode="&#x33bb;" 
d="M370 673h-60l120 -738h64l93 610l89 -610h68l117 738h-56l-91 -604l-88 604h-73l-92 -605zM114 471h-57v-538h57v339q0 143 80 143q63 0 63 -146v-336h58v368q0 62 -21 111q-25 57 -68 67q-67 16 -112 -53v45z" />
    <glyph glyph-name="uni33BC" unicode="&#x33bc;" 
d="M659 673h-71l-86 -599l-84 599h-59l114 -738h62l86 604l83 -604h66l110 738h-55l-84 -598zM266 -57q9 -11 70 -11l13 57q-24 -6 -36 6q-14 14 -9 49l56 427h-61l-40 -305q-22 -167 -92 -167q-55 0 -43 115l40 357h-60l-79 -631h57l18 128q19 -35 56 -35q58 0 90 50
q2 -11 20 -40z" />
    <glyph glyph-name="uni33BD" unicode="&#x33bd;" 
d="M91 471h-51v-536h56v368q0 110 41 112t41 -112v-368h61v366q0 114 40 114q41 0 41 -114v-366h55v373q0 171 -87 171q-48 0 -72 -48q-20 48 -68 48q-34 0 -57 -36v28zM659 673h-71l-86 -599l-84 599h-59l114 -738h62l86 604l83 -604h66l110 738h-55l-84 -598z" />
    <glyph glyph-name="uni33BE" unicode="&#x33be;" 
d="M654 673h-71l-85 -599l-85 599h-58l113 -738h62l87 604l82 -604h67l110 738h-55l-85 -598zM170 191l123 -258h71l-152 317l148 222h-69l-168 -242v445h-58v-742h58v192z" />
    <glyph glyph-name="uni33BF" unicode="&#x33bf;" 
d="M182 -67h67l89 534v-534h54v742h-72l-103 -612l-107 612h-71v-742h54v532zM696 673h-71l-67 -570l-67 570h-63l96 -738h66l69 570l65 -570h69l94 738h-61l-66 -573z" />
    <glyph glyph-name="uni3390" unicode="&#x3390;" 
d="M449 674h-60v-312h-240v312h-61v-740h61v359h240v-359h60v740zM823 472h-294v-64h230l-250 -401v-73h327v63h-264l251 402v73z" />
    <glyph glyph-name="uni3391" unicode="&#x3391;" 
d="M624 674h-58v-323h-139v323h-59v-741h59v348h139v-348h58v741zM860 -3h-142l136 411v63h-187v-64h132l-135 -408v-66h196v64zM159 193l125 -258h67l-150 307l150 229h-65l-174 -260l1 462h-60v-738h60v192z" />
    <glyph glyph-name="uni3392" unicode="&#x3392;" 
d="M181 -67h52l96 587v-587h47v742h-73l-95 -602l-96 602h-74v-742h47v586zM656 674h-54v-322h-128v322h-55v-741h55v351h128v-351h54v741zM875 -5h-133l122 414v62h-169v-64h115l-119 -407v-67h184v62z" />
    <glyph glyph-name="uni3393" unicode="&#x3393;" 
d="M284 -66h54v376h-136v-57h82v-49q0 -86 -20 -144q-24 -72 -73 -72q-108 0 -106 320q2 314 111 314q88 0 88 -152h54q1 81 -24 136q-36 78 -117 78q-87 0 -132 -104q-42 -98 -42 -272q0 -384 166 -384q63 0 95 66v-56zM651 674h-55v-321h-147v321h-60v-740h60v353h147
v-353h55v740zM876 -5h-133l122 414v62h-169v-64h115l-119 -407v-67h184v62z" />
    <glyph glyph-name="uni3394" unicode="&#x3394;" 
d="M333 673h-311v-64h130v-676h59v676h122v64zM624 673h-58v-319h-139v319h-59v-740h59v351h139v-351h58v740zM860 -3h-142l136 411v63h-187v-64h132l-135 -408v-66h196v64z" />
    <glyph glyph-name="Omega" unicode="&#x2126;" 
d="M640 598q-78 91 -198 91q-118 0 -197 -95q-78 -93 -78 -226q0 -115 51 -196q48 -76 130 -106v-72h-129v-61h162q17 0 22 20q4 5 4 92q0 79 -41 82q-131 60 -131 243q0 114 58 185q57 71 149 71q95 0 152 -69t57 -184q0 -215 -150 -250q-19 -19 -19 -52v-90q0 -48 29 -48
h167v61h-140v75q76 30 125 109q53 85 53 194q0 136 -76 226z" />
    <glyph glyph-name="uni33C0" unicode="&#x33c0;" 
d="M774 600q-54 87 -143 87q-87 0 -142 -90t-55 -226q0 -235 124 -302v-71h-84v-63h115q17 0 21 27q3 4 3 86q0 78 -32 81q-88 60 -88 244q0 113 40 182q38 66 98 66q62 0 98 -64q38 -66 38 -181q0 -216 -101 -251q-13 -6 -13 -54v-88q0 -48 24 -48h119v63h-91v73
q52 32 86 110q37 85 37 194q0 139 -54 225zM219 198l122 -265h69l-149 319l144 220h-67l-167 -246v449h-58v-742h58v194z" />
    <glyph glyph-name="uni33C1" unicode="&#x33c1;" 
d="M217 -67h66l109 574v-574h52v742h-70l-123 -632l-126 632h-68v-742h49v575zM827 600q-54 87 -145 87q-87 0 -142 -90t-55 -226q0 -233 127 -302v-71h-84v-63h115q14 0 19 27q2 3 2 86q0 78 -29 81q-88 58 -88 244q0 113 39 182q38 66 96 66q62 0 100 -64q39 -67 39 -181
q0 -215 -101 -251q-13 -6 -13 -54v-88q0 -48 24 -48h116v63h-91v73q54 31 88 110q36 84 36 194q0 139 -53 225z" />
    <glyph glyph-name="uni338A" unicode="&#x338a;" 
d="M155 470h-59v-738h59v256q46 -75 115 -75q77 0 123 75q48 77 48 211t-46 211q-45 76 -121 76q-68 0 -119 -64v48zM346 358q29 -57 29 -158t-29 -158q-29 -58 -80 -58q-52 0 -82 58q-29 57 -29 158t29 158q30 57 82 57q51 0 80 -57zM840 673h-339v-738h63v349h234v66h-234
v257h276v66z" />
    <glyph glyph-name="uni338B" unicode="&#x338b;" 
d="M189 471h-62v-538h62v339q0 72 26 110q23 33 60 33q69 0 69 -146v-336h62v368q0 63 -22 111q-26 57 -74 67q-72 16 -121 -53v45zM810 673h-338v-738h63v349h234v66h-234v257h275v66z" />
    <glyph glyph-name="uni338C" unicode="&#x338c;" 
d="M839 673h-339v-738h63v349h234v66h-234v257h276v66zM380 471l-48 -299q-27 -164 -111 -170q-88 -6 -70 122l52 347h-63l-99 -633h63l21 145q25 -53 76 -53q69 0 112 65q2 -31 25 -53q11 -12 80 -12l13 56q-29 -2 -39 2q-26 10 -19 50l70 433h-63z" />
    <glyph glyph-name="uni33D6" unicode="&#x33d6;" 
d="M136 474h-52v-541h56v376q0 106 32 108q36 2 36 -108v-376h53v371q0 113 35 113q32 0 32 -113v-371h52v378q0 170 -77 170q-37 0 -63 -49q-18 50 -57 50q-26 0 -47 -35v27zM462 0q37 -80 104 -80q66 0 103 80q37 77 37 205t-37 205q-37 79 -103 79q-67 0 -104 -79
q-35 -76 -35 -205t35 -205zM629 362q22 -60 22 -157t-22 -157q-23 -62 -62 -62q-38 0 -61 62q-23 61 -23 157t23 157t61 61q39 0 62 -61zM758 673v-738h60v738h-60z" />
    <glyph glyph-name="uni33C5" unicode="&#x33c5;" 
d="M730 -67h59v742h-59v-257q-34 57 -103 58q-81 1 -129 -75q-47 -75 -47 -201q0 -128 42 -199q43 -76 126 -76q72 0 111 71v-63zM732 200q0 -91 -30 -152q-31 -65 -83 -65q-104 0 -104 217q0 97 28 155q30 61 85 61q104 0 104 -216zM353 87q-3 -44 -32 -74q-32 -33 -81 -33
q-62 0 -95 62q-33 59 -33 164q0 209 136 209q57 0 85 -50q19 -33 20 -69h62q0 69 -41 122q-47 62 -124 62q-96 0 -150 -74q-55 -74 -55 -203t52 -209q53 -81 140 -81q78 0 126 52q43 46 54 122h-64z" />
    <glyph glyph-name="uni33AD" unicode="&#x33ad;" 
d="M383 -18q-70 0 -70 225q0 98 20 157q20 60 57 60q73 0 73 -212q0 -230 -80 -230zM495 -79l50 31q-31 71 -31 124v203q0 81 14 201h-48q-8 -40 -8 -49q-30 54 -81 54q-63 0 -98 -73q-36 -74 -36 -205q0 -287 124 -287q58 0 90 64q14 -48 24 -63zM50 -67h61v256
q0 140 81 198q26 18 66 18v78q-29 0 -54 -13q-55 -31 -93 -95v96h-61v-538zM788 200q0 -91 -24 -152q-25 -65 -66 -65q-45 0 -69 64q-21 57 -21 153q0 97 25 153q26 60 73 60q82 0 82 -213zM797 -67h50v742h-50v-259q-28 55 -92 57q-72 1 -113 -73q-40 -73 -40 -200
q0 -276 138 -275q33 0 64 22t42 52z" />
    <glyph glyph-name="uni33AE" unicode="&#x33ae;" 
d="M272 653q-45 0 -71 -41q-25 -39 -25 -107q0 -147 90 -147q40 0 63 37q0 -2 13 -37l39 14q-16 32 -16 65v109q0 34 6 106h-37q-4 -13 -5 -31q-21 32 -57 32zM269 399q-47 0 -47 108q0 47 15 76q14 28 36 28q46 0 46 -102q0 -110 -50 -110zM85 643h-52v-278h52v130
q0 69 50 99q19 9 49 9v49q-26 1 -43 -7q-37 -18 -56 -48v46zM549 365h41v390h-41v-139q-25 29 -60 29q-50 0 -79 -39q-28 -38 -28 -104q0 -64 29 -104q28 -38 70 -38q41 0 68 37v-32zM544 503q0 -104 -56 -104q-26 0 -41 31q-15 28 -15 73q0 46 16 74q16 29 43 29
q53 0 53 -103zM896 588l-32 28l-703 -759l24 -36zM729 89l-36 11q-28 10 -28 34q0 41 51 41q54 0 54 -61h46q0 40 -21 69q-26 37 -78 37q-48 0 -76 -28q-24 -24 -25 -58q0 -48 60 -75q10 -5 40 -12q25 -6 36 -13q26 -18 24 -38q-2 -40 -58 -40q-62 0 -65 66h-45
q4 -111 108 -111q95 0 104 80q7 57 -44 81q-18 8 -47 17z" />
    <glyph glyph-name="uni33AF" unicode="&#x33af;" 
d="M263 653q-45 0 -71 -41q-25 -39 -25 -107q0 -147 90 -147q40 0 63 37q0 -2 13 -37l42 15q-19 36 -19 64v109q0 34 6 106h-37q-4 -13 -5 -31q-21 32 -57 32zM260 399q-47 0 -47 108q0 47 15 76q14 29 36 29q46 0 46 -103q0 -110 -50 -110zM76 643h-52v-278h52v130
q0 69 50 99q19 9 49 9v49q-26 1 -43 -7q-37 -18 -56 -48v46zM657 89l-36 11q-28 10 -28 34q0 41 51 41q54 0 54 -61h46q0 40 -21 69q-26 37 -78 37q-48 0 -76 -28q-24 -24 -25 -58q0 -48 60 -75q10 -5 40 -12q25 -6 36 -13q26 -18 24 -38q-2 -40 -58 -40q-62 0 -65 66h-45
q4 -111 108 -111q95 0 104 80q7 57 -44 81q-18 8 -47 17zM887 588l-32 28l-703 -759l24 -36zM869 205h-80q10 20 21 30q3 5 33 30q23 23 23 48q0 60 -60 60q-30 0 -47 -27q-14 -21 -14 -46h34q-3 15 4 27q8 15 24 15q26 0 26 -28q-1 -15 -27 -37q-4 -4 -14 -12l-19 -15
q-30 -39 -28 -76h124v31zM540 365h41v390h-41v-141q-24 31 -60 31q-50 1 -79 -38q-28 -39 -28 -105q0 -64 29 -104q28 -38 70 -38q41 0 68 37v-32zM535 503q0 -104 -56 -104q-26 0 -41 31q-15 28 -15 73q0 46 16 74q17 28 44 28q52 0 52 -102z" />
    <glyph glyph-name="uni33DB" unicode="&#x33db;" 
d="M102 98q2 -61 42 -112q53 -67 149 -67q72 0 120 42q48 43 51 113q4 81 -72 129q10 -7 -137 51q-35 14 -47 25q-21 20 -20 58q1 36 22 59q26 29 74 29q56 0 84 -37q20 -27 18 -56h70q3 55 -40 103q-49 55 -129 55q-74 0 -123 -48q-45 -45 -45 -104q0 -98 85 -132
q30 -12 81 -25q41 -11 62 -23q58 -32 51 -88q-11 -85 -108 -85q-54 0 -87 33q-31 30 -36 80h-65zM548 -66h64v256q0 145 97 202q33 17 89 17v77q-46 3 -85 -18q-61 -32 -101 -95v99h-64v-538z" />
    <glyph glyph-name="uni33A9" unicode="&#x33a9;" 
d="M97 675v-753h61v304h131q73 0 123 63q52 65 52 164t-51 162q-49 60 -123 60h-193zM158 290v324h133q43 0 74 -40q34 -46 34 -121t-35 -121q-31 -42 -73 -42h-133zM815 -68q-30 56 -30 133v206q0 114 13 201h-58l-7 -56q-36 61 -96 61q-76 0 -121 -74q-45 -76 -45 -207
q0 -129 36 -205q40 -82 116 -82q74 0 111 78q8 -42 22 -77zM627 -29q-92 0 -92 225q0 218 100 218q92 0 92 -213q0 -230 -100 -230z" />
    <glyph glyph-name="uni33AA" unicode="&#x33aa;" 
d="M81 675h-52v-742h52v193l42 71l115 -264h59l-134 321l130 218h-61l-151 -247v450zM817 -83l52 18q-23 61 -23 140v206q0 108 14 201h-49l-6 -37q-26 42 -66 42q-58 0 -90 -74q-33 -75 -33 -207q0 -287 113 -287q48 0 72 57q6 -30 16 -59zM734 -19q-62 0 -62 225
q0 221 65 221q60 0 60 -216q0 -230 -63 -230zM338 675v-742h55v303h89q55 0 91 63q36 64 36 164q0 99 -36 157q-35 55 -91 55h-144zM393 300v314h89q27 0 47 -36q23 -42 23 -115t-24 -121q-21 -42 -46 -42h-89z" />
    <glyph glyph-name="uni33AB" unicode="&#x33ab;" 
d="M833 -43q5 -24 9 -38l48 20q-21 53 -21 140v202q0 26 14 194h-50q-2 -33 -5 -46q-24 51 -66 51q-51 0 -80 -71q-30 -73 -30 -203q0 -283 102 -283q45 0 72 66zM759 -20q-53 0 -53 226q0 215 55 215q53 0 53 -210q0 -231 -55 -231zM401 674v-741h52v293h80q52 0 87 63
q35 65 35 164t-35 161q-35 60 -87 60h-132zM453 290v323h80q22 0 43 -40q25 -48 25 -120q0 -71 -25 -121q-22 -42 -43 -42h-80zM165 -67h48l92 576v-576h47v741h-70l-92 -591l-93 591h-71v-741h46v570z" />
    <glyph glyph-name="uni33AC" unicode="&#x33ac;" 
d="M818 -45l8 -38l49 32q-22 59 -22 128v206q0 31 16 191h-49q-5 -38 -7 -46q-24 51 -66 51q-52 0 -82 -69q-30 -72 -30 -202q0 -287 104 -287q45 0 72 66q2 -7 7 -32zM741 -17q-52 0 -52 225q0 208 56 208q53 0 53 -203q0 -230 -57 -230zM381 675v-741h52v304h79
q52 0 87 57q37 61 37 158q0 98 -37 162q-36 60 -87 60h-131zM433 302v312h79q22 0 44 -41q25 -48 25 -120q0 -71 -25 -115q-21 -36 -44 -36h-79zM285 204q0 -87 -20 -144q-25 -72 -74 -72q-109 0 -107 320q2 307 112 307q88 0 88 -157h53q1 84 -23 141q-35 83 -116 83
q-87 0 -132 -103q-42 -97 -42 -271q0 -384 165 -384q62 0 96 72v-62h53v381h-135v-53h82v-58z" />
    <glyph glyph-name="uni33DD" unicode="&#x33dd;" 
d="M585 -66v70q39 -78 113 -77t120 76t46 198q0 127 -43 201q-45 75 -125 74q-68 -1 -111 -75v273h-55v-740h55zM780 357q28 -58 28 -155q0 -93 -30 -153q-32 -64 -86 -64q-46 0 -73 65q-26 60 -26 152q0 96 24 153q26 63 77 63q55 0 86 -61zM306 673h-67l-65 -570l-63 570
h-59l91 -738h61l67 580l63 -580h64l84 738h-54l-60 -573z" />
    <glyph glyph-name="uni33D0" unicode="&#x33d0;" 
d="M419 472h-54v-539h62v375q0 110 53 112q57 2 57 -112v-375h63v373q0 56 17 87q15 29 38 29q54 0 54 -116v-373h60v376q0 175 -103 175q-61 0 -95 -67q-14 36 -26 48q-18 17 -52 16q-46 -2 -74 -51v42zM192 673v-738h70v738h-70z" />
    <glyph glyph-name="uni33D3" unicode="&#x33d3;" 
d="M764 472h-69l-124 -202l-124 202h-70l160 -262l-168 -277h69l133 217l134 -217h68l-168 277zM221 673v-738h70v738h-70z" />
    <glyph glyph-name="uni33C3" unicode="&#x33c3;" 
d="M748 -271h56v737h-56v-53q-34 73 -107 73t-118 -77q-46 -79 -46 -213t45 -213q45 -77 117 -77q68 0 110 74zM566 31q-27 59 -27 165t27 165q28 59 78 59q49 0 77 -59q27 -60 27 -165q0 -106 -27 -165q-28 -60 -77 -60q-50 0 -78 60zM429 520q-6 64 -40 107q-38 46 -96 46
h-185v-738h183q65 0 110 53q46 54 47 140q1 128 -92 203q84 71 73 189zM165 355v264h118q38 0 60 -35q22 -34 22 -91q0 -58 -23 -97q-24 -41 -60 -41h-117zM165 -4v298h123q37 0 65 -42q29 -43 29 -100q0 -69 -26 -112q-26 -44 -69 -44h-122z" />
    <glyph glyph-name="uni33C9" unicode="&#x33c9;" 
d="M414 -66h59v376h-206v-72h144q-1 -101 -41 -175q-43 -79 -107 -79q-73 0 -116 92q-41 89 -41 235q0 143 42 227q43 86 117 86q62 0 97 -48q31 -42 37 -110h70q-8 96 -58 158q-55 67 -144 67q-104 0 -165 -101q-60 -102 -60 -279q0 -182 57 -288q59 -108 164 -108
q48 0 89 33q42 33 62 87v-101zM565 471h-66l154 -546l-18 -74q-13 -45 -49 -45h-32v-70h20q48 0 67 15q30 27 48 77l179 643h-65l-114 -440z" />
    <glyph glyph-name="uni33DC" unicode="&#x33dc;" 
d="M565 471h-66l157 -542h66l146 542h-65l-114 -440zM387 303q-28 20 -90 37q-72 19 -88 27q-71 42 -71 124q0 55 31 95q35 45 94 45q64 0 100 -49q32 -44 32 -109h69q0 73 -42 138q-56 86 -159 86q-93 0 -148 -67q-48 -59 -49 -139q-1 -133 112 -189q23 -12 83 -27
q55 -14 85 -34q75 -50 64 -128q-24 -139 -143 -139q-65 0 -107 50q-44 52 -47 141h-68q3 -101 56 -174q62 -85 165 -85q95 0 152 61q51 55 62 145q9 117 -93 191z" />
    <glyph glyph-name="uni33C6" unicode="&#x33c6;" 
d="M745 766l-720 -804l28 -33l720 806zM799 151q-27 30 -67 30q-47 0 -78 -37q-31 -38 -31 -95q0 -58 32 -96q30 -38 76 -38q44 0 68 35v-42q0 -72 -59 -72q-56 0 -60 49h-48q2 -37 30 -63q30 -29 78 -29q44 0 71 27q31 30 31 89v263h-43v-21zM781 116q18 -24 18 -65
q0 -91 -64 -91q-61 0 -61 89q0 41 17 67q17 24 44 24q29 0 46 -24zM485 26l77 -126h60l-104 161l103 111h-60l-105 -110v214h-46v-376h46v97zM310 450q-15 -74 -79 -74q-41 0 -66 39q-24 38 -24 102t24 104q25 41 66 41q64 0 79 -75h54q-7 51 -41 86q-37 41 -92 41
q-66 0 -105 -56q-39 -54 -39 -141t39 -141q39 -55 105 -55q107 0 133 129h-54z" />
    <glyph glyph-name="AE" unicode="&#xc6;" 
d="M781 -63v58h-278v299h249v60h-249v258h277v59h-354l-337 -734h49l120 253h195v-253h328zM453 251h-170l170 370v-370z" />
    <glyph glyph-name="Eth" unicode="&#xd0;" 
d="M533 244h-242v376h149q119 0 187 -89q65 -86 65 -227q0 -134 -65 -222q-70 -94 -187 -94h-149v205h242v51zM100 193h138v-256h210q135 0 219 105q82 102 82 262t-82 262q-84 105 -219 105h-210v-427h-138v-51z" />
    <glyph glyph-name="ordfeminine" unicode="&#xaa;" 
d="M196 -64h504v52h-504v-52zM637 119q-12 60 -12 86v274q0 82 -53 133q-51 48 -129 48q-80 0 -134 -51q-55 -53 -53 -133h52q-1 62 38 96q36 32 97 32q62 0 97 -36q31 -32 31 -82q0 -46 -68 -61l-83 -14q-51 -8 -82 -18q-65 -22 -92 -84q-26 -58 -5 -117q38 -101 162 -92
q88 5 169 88q3 -54 13 -69h52zM571 396v-100q0 -47 -57 -92q-52 -42 -105 -48q-57 -6 -89 17q-32 22 -33 69q-2 83 87 106q13 3 73 13q61 9 80 14q24 9 44 21z" />
    <glyph glyph-name="Hbar" unicode="&#x126;" 
d="M205 673v-123h-93v-53h93v-560h56v361h380v-361h56v560h91v53h-91v123h-56v-123h-380v123h-56zM261 350v147h380v-147h-380z" />
    <glyph glyph-name="IJ" unicode="&#x132;" 
d="M257 672h-55v-735h55v735zM403 179h-55v-63q0 -99 54 -151q47 -47 124 -47q75 0 123 47q53 52 53 151v556h-56v-562q0 -70 -43 -106q-32 -27 -77 -27q-46 0 -79 27q-44 36 -44 106v69z" />
    <glyph glyph-name="Ldot" unicode="&#x13f;" 
d="M536 299q-16 15 -34 15t-33 -15q-16 -16 -16 -34t16 -32q15 -15 33 -15t34 15q15 14 15 32q0 19 -15 34zM294 -10v683h-55v-736h435v53h-380z" />
    <glyph glyph-name="Lslash" unicode="&#x141;" 
d="M292 675v-336l-109 -107l30 -39l79 78v-338h433v52h-380v340l137 136l-28 39l-109 -107v282h-53z" />
    <glyph glyph-name="Oslash" unicode="&#xd8;" 
d="M265 113q-46 77 -46 188q0 144 64 230q64 87 174 87q90 0 159 -79zM640 496q40 -71 40 -191q0 -140 -63 -227q-64 -88 -168 -88q-90 0 -160 82zM649 581q-83 91 -194 91q-126 0 -206 -101q-81 -102 -81 -263q0 -134 61 -239l-92 -112l31 -30l87 106q91 -96 202 -96
q123 0 200 104t77 277q0 130 -57 224l100 121l-34 30z" />
    <glyph glyph-name="OE" unicode="&#x152;" 
d="M820 -47v57h-311v281h272v56h-272v243h311v58h-365v-22q-55 45 -119 45q-107 0 -180 -104q-73 -105 -73 -259q0 -162 71 -268q71 -105 177 -105q73 0 124 50v-32h365zM455 51q-45 -60 -122 -60q-70 0 -124 62q-73 84 -73 257q0 134 49 218q57 87 148 87q69 0 122 -52
v-512z" />
    <glyph glyph-name="ordmasculine" unicode="&#xba;" 
d="M595 188q53 78 53 198q0 121 -52 198q-55 82 -150 82q-96 0 -153 -84q-54 -78 -54 -198t53 -198q56 -83 151 -83t152 85zM200 -64h506v54h-506v-54zM555 545q41 -63 41 -161q0 -97 -42 -160q-42 -64 -108 -64q-67 0 -109 64q-42 63 -42 160t43 161q42 65 108 65
q67 0 109 -65z" />
    <glyph glyph-name="Thorn" unicode="&#xde;" 
d="M317 -67v134h157q94 0 151 54q63 61 63 179t-65 180q-57 54 -149 54h-157v145h-58v-746h58zM317 478h154q155 0 155 -178q0 -174 -155 -174h-154v352z" />
    <glyph glyph-name="Tbar" unicode="&#x166;" 
d="M233 319h189v-385h57v385h185v54h-185v246h220v55h-496v-55h219v-246h-189v-54z" />
    <glyph glyph-name="Eng" unicode="&#x14a;" 
d="M488 -62q89 2 145 67q59 68 59 185v333q0 80 -60 119q-57 38 -139 21q-158 -31 -227 -153v162h-57v-675h57v414q0 56 79 126q84 75 169 81q125 8 125 -154v-286q0 -83 -45 -132q-41 -45 -106 -49v-59z" />
    <glyph glyph-name="uni3260" unicode="&#x3260;" 
d="M748 611q-124 129 -298 129t-297 -129q-124 -129 -124 -311t124 -311q123 -129 297 -129t298 129q123 129 123 311t-123 311zM722 13q-112 -120 -272 -120t-272 120q-113 119 -113 287t113 288q112 119 272 119t272 -119q113 -120 113 -288t-113 -287zM650 500h-409v-53
h350v-346h59v399z" />
    <glyph glyph-name="uni3261" unicode="&#x3261;" 
d="M748 611q-124 129 -298 129t-297 -129q-124 -129 -124 -311t124 -311q123 -129 297 -129t298 129q123 129 123 311t-123 311zM722 13q-112 -120 -272 -120t-272 120q-113 119 -113 287t113 288q112 119 272 119t272 -119q113 -120 113 -288t-113 -287zM659 153h-350v346
h-59v-399h409v53z" />
    <glyph glyph-name="uni3262" unicode="&#x3262;" 
d="M748 611q-124 129 -298 129t-297 -129q-124 -129 -124 -311t124 -311q123 -129 297 -129t298 129q123 129 123 311t-123 311zM722 13q-112 -120 -272 -120t-272 120q-113 119 -113 287t113 288q112 119 272 119t272 -119q113 -120 113 -288t-113 -287zM656 153h-347v294
h341v53h-400v-400h406v53z" />
    <glyph glyph-name="uni3263" unicode="&#x3263;" 
d="M748 611q-124 129 -298 129t-297 -129q-124 -129 -124 -311t124 -311q123 -129 297 -129t298 129q123 129 123 311t-123 311zM722 13q-112 -120 -272 -120t-272 120q-113 119 -113 287t113 288q112 119 272 119t272 -119q113 -120 113 -288t-113 -287zM659 153h-350v121
h341v226h-400v-53h341v-121h-341v-226h409v53z" />
    <glyph glyph-name="uni3264" unicode="&#x3264;" 
d="M748 611q-124 129 -298 129t-297 -129q-124 -129 -124 -311t124 -311q123 -129 297 -129t298 129q123 129 123 311t-123 311zM722 13q-112 -120 -272 -120t-272 120q-113 119 -113 287t113 288q112 119 272 119t272 -119q113 -120 113 -288t-113 -287zM650 500h-400v-400
h400v400zM309 153v294h282v-294h-282z" />
    <glyph glyph-name="uni3265" unicode="&#x3265;" 
d="M748 611q-124 129 -298 129t-297 -129q-124 -129 -124 -311t124 -311q123 -129 297 -129t298 129q123 129 123 311t-123 311zM722 13q-112 -120 -272 -120t-272 120q-113 119 -113 287t113 288q112 119 272 119t272 -119q113 -120 113 -288t-113 -287zM650 500h-59v-134
h-282v134h-59v-400h400v400zM309 153v161h282v-161h-282z" />
    <glyph glyph-name="uni3266" unicode="&#x3266;" 
d="M748 611q-124 129 -298 129t-297 -129q-124 -129 -124 -311t124 -311q123 -129 297 -129t298 129q123 129 123 311t-123 311zM722 13q-112 -120 -272 -120t-272 120q-113 119 -113 287t113 288q112 119 272 119t272 -119q113 -120 113 -288t-113 -287zM696 151
q-73 10 -139 75q-77 74 -77 192v120h-60v-120q0 -117 -77 -192q-63 -63 -139 -75l50 -38q64 13 111 56q63 53 85 113q21 -58 85 -113q54 -47 112 -56z" />
    <glyph glyph-name="uni3267" unicode="&#x3267;" 
d="M748 611q-124 129 -298 129t-297 -129q-124 -129 -124 -311t124 -311q123 -129 297 -129t298 129q123 129 123 311t-123 311zM722 13q-112 -120 -272 -120t-272 120q-113 119 -113 287t113 288q112 119 272 119t272 -119q113 -120 113 -288t-113 -287zM607 466
q-63 69 -157 69t-157 -69q-62 -69 -62 -166t62 -165q63 -70 157 -70t157 70q62 68 62 165t-62 166zM570 171q-44 -53 -120 -53q-75 0 -119 53q-41 50 -41 129t41 129q44 53 119 53q76 0 120 -53q41 -50 41 -129t-41 -129z" />
    <glyph glyph-name="uni3268" unicode="&#x3268;" 
d="M748 611q-124 129 -298 129t-297 -129q-124 -129 -124 -311t124 -311q123 -129 297 -129t298 129q123 129 123 311t-123 311zM722 13q-112 -120 -272 -120t-272 120q-113 119 -113 287t113 288q112 119 272 119t272 -119q113 -120 113 -288t-113 -287zM696 160
q-75 12 -139 74q-72 69 -75 177q-1 4 -1 27h179v53h-420v-53h179v-29q-5 -107 -76 -175q-61 -60 -139 -74l50 -37q59 12 110 57q65 57 86 113q21 -58 86 -113q55 -48 111 -57z" />
    <glyph glyph-name="uni3269" unicode="&#x3269;" 
d="M748 611q-124 129 -298 129t-297 -129q-124 -129 -124 -311t124 -311q123 -129 297 -129t298 129q123 129 123 311t-123 311zM722 13q-112 -120 -272 -120t-272 120q-113 119 -113 287t113 288q112 119 272 119t272 -119q113 -120 113 -288t-113 -287zM583 529h-265v-53
h265v53zM696 122q-75 12 -139 74q-67 62 -75 166h175v52h-413v-52h175q-10 -103 -76 -166q-61 -60 -139 -74l50 -38q57 12 110 57q65 58 86 113q21 -57 86 -113q57 -48 111 -57z" />
    <glyph glyph-name="uni326A" unicode="&#x326a;" 
d="M748 611q-124 129 -298 129t-297 -129q-124 -129 -124 -311t124 -311q123 -129 297 -129t298 129q123 129 123 311t-123 311zM722 13q-112 -120 -272 -120t-272 120q-113 119 -113 287t113 288q112 119 272 119t272 -119q113 -120 113 -288t-113 -287zM650 505h-400v-53
h341v-124h-341v-52h341v-181h59v410z" />
    <glyph glyph-name="uni326B" unicode="&#x326b;" 
d="M748 611q-124 129 -298 129t-297 -129q-124 -129 -124 -311t124 -311q123 -129 297 -129t298 129q123 129 123 311t-123 311zM722 13q-112 -120 -272 -120t-272 120q-113 119 -113 287t113 288q112 119 272 119t272 -119q113 -120 113 -288t-113 -287zM659 148h-350v126
h341v52h-341v126h347v53h-406v-410h409v53z" />
    <glyph glyph-name="uni326C" unicode="&#x326c;" 
d="M748 611q-124 129 -298 129t-297 -129q-124 -129 -124 -311t124 -311q123 -129 297 -129t298 129q123 129 123 311t-123 311zM722 13q-112 -120 -272 -120t-272 120q-113 119 -113 287t113 288q112 119 272 119t272 -119q113 -120 113 -288t-113 -287zM650 153h-85v294
h76v53h-382v-53h77v-294h-86v-53h400v53zM395 153v294h110v-294h-110z" />
    <glyph glyph-name="uni326D" unicode="&#x326d;" 
d="M748 611q-124 129 -298 129t-297 -129q-124 -129 -124 -311t124 -311q123 -129 297 -129t298 129q123 129 123 311t-123 311zM722 13q-112 -120 -272 -120t-272 120q-113 119 -113 287t113 288q112 119 272 119t272 -119q113 -120 113 -288t-113 -287zM585 529h-270v-53
h270v53zM669 433h-438v-53h438v53zM331 299q-49 -44 -49 -108q0 -65 49 -109q48 -44 119 -44t120 44q48 44 48 109q0 64 -48 108q-49 44 -120 44t-119 -44zM529 119q-32 -32 -79 -32q-48 0 -80 31q-31 30 -31 72q0 43 33 73q33 31 78 31q49 0 80 -31q29 -29 29 -73
q0 -41 -30 -71z" />
    <glyph glyph-name="uni326E" unicode="&#x326e;" 
d="M748 611q-124 129 -298 129t-297 -129q-124 -129 -124 -311t124 -311q123 -129 297 -129t298 129q123 129 123 311t-123 311zM722 13q-112 -120 -272 -120t-272 120q-113 119 -113 287t113 288q112 119 272 119t272 -119q113 -120 113 -288t-113 -287zM204 530v-47h225
q-10 -107 -87 -198q-76 -93 -191 -135l35 -37q120 42 212 160q80 102 91 257h-285zM582 593v-584h54v291h85v48h-85v245h-54z" />
    <glyph glyph-name="uni326F" unicode="&#x326f;" 
d="M748 611q-124 129 -298 129t-297 -129q-124 -129 -124 -311t124 -311q123 -129 297 -129t298 129q123 129 123 311t-123 311zM722 13q-112 -120 -272 -120t-272 120q-113 119 -113 287t113 288q112 119 272 119t272 -119q113 -120 113 -288t-113 -287zM555 224
q-73 -21 -179 -25l-116 -2v331h-54v-379l181 3q76 3 168 26v46zM582 7h55v298h85v46h-85v239h-55v-583z" />
    <glyph glyph-name="uni3270" unicode="&#x3270;" 
d="M748 611q-124 129 -298 129t-297 -129q-124 -129 -124 -311t124 -311q123 -129 297 -129t298 129q123 129 123 311t-123 311zM722 13q-112 -120 -272 -120t-272 120q-113 119 -113 287t113 288q112 119 272 119t272 -119q113 -120 113 -288t-113 -287zM554 224
q-69 -18 -163 -22l-133 -2v277h240v46h-294v-370q148 0 190 3q96 6 160 22v46zM581 10h54v291h86v47h-86v245h-54v-583z" />
    <glyph glyph-name="uni3271" unicode="&#x3271;" 
d="M748 611q-124 129 -298 129t-297 -129q-124 -129 -124 -311t124 -311q123 -129 297 -129t298 129q123 129 123 311t-123 311zM722 13q-112 -120 -272 -120t-272 120q-113 119 -113 287t113 288q112 119 272 119t272 -119q113 -120 113 -288t-113 -287zM554 201
q-73 -19 -166 -21l-136 -2v132h237v225h-291v-47h237v-130h-237v-228l162 2q112 0 194 24v45zM581 7h54v293h86v46h-86v244h-54v-583z" />
    <glyph glyph-name="uni3272" unicode="&#x3272;" 
d="M748 611q-124 129 -298 129t-297 -129q-124 -129 -124 -311t124 -311q123 -129 297 -129t298 129q123 129 123 311t-123 311zM722 13q-112 -120 -272 -120t-272 120q-113 119 -113 287t113 288q112 119 272 119t272 -119q113 -120 113 -288t-113 -287zM488 527h-285v-383
h285v383zM585 591v-582h55v291h86v46h-86v245h-55zM257 192v289h177v-289h-177z" />
    <glyph glyph-name="uni3273" unicode="&#x3273;" 
d="M748 611q-124 129 -298 129t-297 -129q-124 -129 -124 -311t124 -311q123 -129 297 -129t298 129q123 129 123 311t-123 311zM722 13q-112 -120 -272 -120t-272 120q-113 119 -113 287t113 288q112 119 272 119t272 -119q113 -120 113 -288t-113 -287zM487 540h-54v-135
h-177v135h-54v-396h285v396zM585 592v-584h54v292h86v47h-86v245h-54zM256 191v167h177v-167h-177z" />
    <glyph glyph-name="uni3274" unicode="&#x3274;" 
d="M748 611q-124 129 -298 129t-297 -129q-124 -129 -124 -311t124 -311q123 -129 297 -129t298 129q123 129 123 311t-123 311zM722 13q-112 -120 -272 -120t-272 120q-113 119 -113 287t113 288q112 119 272 119t272 -119q113 -120 113 -288t-113 -287zM546 157
q-57 23 -112 88q-62 74 -62 161v139h-56v-139q0 -87 -62 -161q-59 -67 -114 -88l35 -37q49 21 105 78q50 50 63 99q15 -48 65 -99q59 -60 103 -78zM580 591v-583h54v292h86v46h-86v245h-54z" />
    <glyph glyph-name="uni3275" unicode="&#x3275;" 
d="M748 611q-124 129 -298 129t-297 -129q-124 -129 -124 -311t124 -311q123 -129 297 -129t298 129q123 129 123 311t-123 311zM722 13q-112 -120 -272 -120t-272 120q-113 119 -113 287t113 288q112 119 272 119t272 -119q113 -120 113 -288t-113 -287zM223 492
q-44 -59 -44 -162q0 -101 44 -160q42 -56 113 -56q70 0 113 56q43 58 43 160q0 104 -43 162q-42 56 -113 56t-113 -56zM581 591v-583h55v292h85v46h-85v245h-55zM411 209q-27 -47 -75 -47t-76 47q-28 46 -28 122t28 122t76 46t75 -47q27 -45 27 -121t-27 -122z" />
    <glyph glyph-name="uni3276" unicode="&#x3276;" 
d="M748 611q-124 129 -298 129t-297 -129q-124 -129 -124 -311t124 -311q123 -129 297 -129t298 129q123 129 123 311t-123 311zM722 13q-112 -120 -272 -120t-272 120q-113 119 -113 287t113 288q112 119 272 119t272 -119q113 -120 113 -288t-113 -287zM557 157
q-62 22 -111 81q-64 76 -64 161v83h135v47h-327v-47h137v-83q0 -85 -66 -161q-51 -59 -110 -81l34 -37q42 16 103 73q49 46 67 98q13 -48 64 -98q57 -55 102 -73zM590 591v-583h55v292h85v47h-85v244h-55z" />
    <glyph glyph-name="uni3277" unicode="&#x3277;" 
d="M748 611q-124 129 -298 129t-297 -129q-124 -129 -124 -311t124 -311q123 -129 297 -129t298 129q123 129 123 311t-123 311zM722 13q-112 -120 -272 -120t-272 120q-113 119 -113 287t113 288q112 119 272 119t272 -119q113 -120 113 -288t-113 -287zM432 568h-175v-47
h175v47zM580 591v-583h54v292h86v47h-86v244h-54zM546 151q-56 15 -112 76q-62 60 -62 143v51h136v47h-328v-47h137v-51q0 -82 -63 -143q-58 -62 -114 -76l36 -38q49 20 103 67q51 44 65 88q14 -43 66 -88q48 -44 101 -67z" />
    <glyph glyph-name="uni3278" unicode="&#x3278;" 
d="M748 611q-124 129 -298 129t-297 -129q-124 -129 -124 -311t124 -311q123 -129 297 -129t298 129q123 129 123 311t-123 311zM722 13q-112 -120 -272 -120t-272 120q-113 119 -113 287t113 288q112 119 272 119t272 -119q113 -120 113 -288t-113 -287zM206 529v-48h225
q-5 -41 -26 -93q-24 -4 -67 -7l-149 -2v-47l148 2q13 2 44 4q-22 -36 -39 -54q-85 -98 -194 -135l35 -37q126 46 213 159q83 105 94 258h-284zM579 591v-583h55v292h87v47h-87v244h-55z" />
    <glyph glyph-name="uni3279" unicode="&#x3279;" 
d="M748 611q-124 129 -298 129t-297 -129q-124 -129 -124 -311t124 -311q123 -129 297 -129t298 129q123 129 123 311t-123 311zM722 13q-112 -120 -272 -120t-272 120q-113 119 -113 287t113 288q112 119 272 119t272 -119q113 -120 113 -288t-113 -287zM558 205
q-70 -16 -181 -23l-114 -1v132h226v47h-226v121h232v47h-286v-395q115 0 173 4q63 3 176 22v46zM585 8h55v292h86v46h-86v245h-55v-583z" />
    <glyph glyph-name="uni327A" unicode="&#x327a;" 
d="M748 611q-124 129 -298 129t-297 -129q-124 -129 -124 -311t124 -311q123 -129 297 -129t298 129q123 129 123 311t-123 311zM722 13q-112 -120 -272 -120t-272 120q-113 119 -113 287t113 288q112 119 272 119t272 -119q113 -120 113 -288t-113 -287zM523 481v47h-334
v-47h334zM571 198q-51 -10 -112 -13l18 272h-54l-18 -274q-30 -1 -96 -1l-19 275h-54l19 -275h-81v-48l217 1q96 2 180 18v45zM589 7h55v293h86v46h-86v245h-55v-584z" />
    <glyph glyph-name="uni327B" unicode="&#x327b;" 
d="M748 611q-124 129 -298 129t-297 -129q-124 -129 -124 -311t124 -311q123 -129 297 -129t298 129q123 129 123 311t-123 311zM722 13q-112 -120 -272 -120t-272 120q-113 119 -113 287t113 288q112 119 272 119t272 -119q113 -120 113 -288t-113 -287zM432 570h-172v-47
h172v47zM527 470h-362v-47h362v47zM579 593v-583h55v291h86v47h-86v245h-55zM456 346q-44 41 -111 41q-65 0 -109 -41q-43 -41 -43 -100t43 -100q44 -42 109 -42q67 0 111 42q42 40 42 100t-42 100zM418 179q-27 -27 -73 -27q-44 0 -70 27q-25 26 -25 67t25 66q26 27 70 27
q46 0 73 -27q25 -25 25 -66t-25 -67z" />
    </font>
</defs>
</svg>
