<?xml version="1.0" standalone="no"?>
<!DOCTYPE svg PUBLIC "-//W3C//DTD SVG 1.1//EN" "http://www.w3.org/Graphics/SVG/1.1/DTD/svg11.dtd" >
<svg xmlns="http://www.w3.org/2000/svg" xmlns:xlink="http://www.w3.org/1999/xlink" version="1.1">
<metadata>
Created by FontForge 20201107 at Tue Dec 22 11:41:36 2015
 By Jimmy Wärting
Copyright (c) 2005-2013 FONTRIX. All Rights Reserved.
</metadata>
<defs>
<font id="YouandiModernHEB" horiz-adv-x="900" >
  <font-face 
    font-family="YouandiModern HeadExtraBold"
    font-weight="400"
    font-stretch="normal"
    units-per-em="1000"
    panose-1="2 11 6 0 0 1 1 1 1 1"
    ascent="800"
    descent="-200"
    x-height="519"
    cap-height="688"
    bbox="-115 -315 1348 1006"
    underline-thickness="50"
    underline-position="-150"
    unicode-range="U+0020-FFE6"
  />
<missing-glyph horiz-adv-x="800" 
d="M100 -100v800h600v-800h-600zM150 -50h500v700h-500v-700z" />
    <glyph glyph-name=".notdef" horiz-adv-x="800" 
d="M100 -100v800h600v-800h-600zM150 -50h500v700h-500v-700z" />
    <glyph glyph-name="glyph1" horiz-adv-x="0" 
 />
    <glyph glyph-name="glyph2" horiz-adv-x="1000" 
 />
    <glyph glyph-name="space" unicode=" " horiz-adv-x="320" 
 />
    <glyph glyph-name="exclam" unicode="!" horiz-adv-x="286" 
d="M221 677l-13 -490q-2 -10 -7 -14t-14 -4h-77q-10 0 -14 4t-4 14l-13 490q0 7 3.5 11.5t10.5 4.5h111q8 0 12.5 -4.5t4.5 -11.5zM217 -27q0 -9 -5 -12t-14 -3h-101q-7 0 -10.5 3t-3.5 12v83q0 8 3.5 12t10.5 4h101q9 0 14 -4t5 -12v-83z" />
    <glyph glyph-name="quotedbl" unicode="&#x22;" horiz-adv-x="412" 
d="M384 471q0 -9 -5.5 -12.5t-14.5 -3.5h-89q-9 0 -13 4t-4 13v271q0 8 4 13.5t13 5.5h89q9 0 14.5 -5.5t5.5 -13.5v-272zM166 471q0 -9 -5.5 -12.5t-14.5 -3.5h-90q-9 0 -13 4t-4 13v271q0 8 4 13.5t13 5.5h90q9 0 14.5 -5.5t5.5 -13.5v-272z" />
    <glyph glyph-name="numbersign" unicode="#" horiz-adv-x="816" 
d="M788 470l-17 -61q-3 -11 -9 -14t-14 -3h-138q-9 0 -15.5 -5.5t-7.5 -12.5l-26 -97q-3 -9 1 -13.5t13 -4.5h137q9 0 12 -4t2 -13l-17 -61q-2 -10 -7.5 -13t-14.5 -3h-137q-10 0 -16 -5t-8 -14l-46 -172q-2 -9 -7.5 -12.5t-14.5 -3.5h-63q-8 0 -10.5 3t-0.5 12l46 172
q2 9 -2 14.5t-13 5.5h-95q-10 0 -16 -5t-6 -14l-47 -172q-3 -9 -8.5 -12.5t-14.5 -3.5h-62q-9 0 -12 3t-1 12l47 172q2 9 -1.5 14.5t-11.5 5.5h-140q-9 0 -12 3t-1 12l17 61q2 9 8 13.5t15 4.5h138q8 0 14 4t9 13l26 97q2 8 -2 13.5t-12 5.5h-137q-11 0 -14 3t0 13l17 61
q2 9 7 13t15 4h138q8 0 14 4t9 13l46 173q1 8 6.5 12.5t14.5 4.5h64q6 0 9 -4.5t2 -11.5l-46 -173q-3 -10 0.5 -14t13.5 -4h94q10 0 16 4t9 13l47 173q0 8 5.5 12.5t14.5 4.5h63q9 0 11.5 -4.5t2.5 -11.5l-47 -173q-3 -10 0.5 -14t12.5 -4h139q9 0 11.5 -4t2.5 -12zM490 373
q2 8 -2 13.5t-11 5.5h-95q-10 0 -17 -5.5t-8 -12.5l-24 -97q-4 -9 -0.5 -13.5t11.5 -4.5h95q10 0 16.5 4t9.5 13z" />
    <glyph glyph-name="dollar" unicode="$" horiz-adv-x="631" 
d="M267 408v160q0 9 -5.5 14.5t-14.5 5.5h-64q-9 0 -14 -6t-5 -15v-159q0 -11 5 -15t14 -4h64q9 0 14.5 4t5.5 15zM477 82v171q0 9 -6.5 15t-15.5 6h-63q-10 0 -15 -5t-5 -14v-173q0 -9 5 -13.5t15 -4.5h63q9 0 15.5 4.5t6.5 13.5zM105 613l103 52q7 4 13 7t11 5t9.5 4
t8.5 4q6 1 10.5 5t4.5 12v100q0 10 3.5 15t12.5 5h74q8 0 13 -5t5 -15v-91q0 -9 5 -13.5t15 -4.5h162q9 0 14.5 -4.5t5.5 -12.5v-71q0 -9 -5.5 -13t-14.5 -4h-163q-10 0 -15 -5.5t-5 -14.5v-159q0 -11 5 -15t15 -4h66q23 0 49 -9.5t48 -28.5t36.5 -47t14.5 -65v-76
q0 -42 -18 -74t-54 -52l-104 -57l-25 -10t-17 -6q-8 -2 -11.5 -6.5t-3.5 -10.5v-101q0 -11 -5 -14.5t-13 -3.5h-74q-9 0 -12.5 3.5t-3.5 14.5v90q0 9 -5 15t-13 6h-164q-10 0 -14.5 3.5t-4.5 12.5v71q0 9 4.5 14.5t14.5 5.5h165q9 0 14 4t5 13v172q0 9 -5 14.5t-14 5.5h-68
q-36 0 -63.5 12.5t-45.5 33.5q-19 21 -28 47t-9 53v66q0 43 17 74.5t54 52.5z" />
    <glyph glyph-name="percent" unicode="%" horiz-adv-x="971" 
d="M859 748l-591 -844q-6 -9 -13 -11.5t-15 -2.5h-108q-9 0 -10.5 2t3.5 11l592 844q5 6 11 10.5t15 4.5h110q7 0 8.5 -4t-2.5 -10zM677 135q0 -14 3 -30.5t12 -31.5q8 -15 23.5 -24.5t40.5 -9.5q27 0 53.5 21.5t26.5 74.5q0 54 -25 76.5t-55 22.5q-11 0 -24.5 -3.5
t-25.5 -14.5q-12 -10 -20.5 -29.5t-8.5 -51.5zM568 135q0 85 50.5 140t137.5 55q28 0 61 -9t62 -32q28 -22 47.5 -59.5t19.5 -94.5q0 -56 -19 -93t-48 -59q-28 -22 -61.5 -30.5t-61.5 -8.5q-57 0 -93.5 20t-57.5 49t-29 62t-8 60zM149 513q0 -14 3 -31t12 -31
q9 -15 24.5 -24.5t39.5 -9.5q31 0 57 21t26 75q0 53 -26.5 76t-56.5 23q-10 0 -23.5 -4t-26.5 -14q-12 -11 -20.5 -30.5t-8.5 -50.5zM40 513q0 85 50 139.5t137 54.5q30 0 64 -9.5t62 -31.5t46.5 -59.5t18.5 -93.5t-18.5 -93t-46.5 -59t-62 -30.5t-64 -8.5q-56 0 -92 19.5
t-57 48.5q-22 29 -30 62t-8 61z" />
    <glyph glyph-name="ampersand" unicode="&#x26;" horiz-adv-x="635" 
d="M367 461v110q0 9 -4.5 14t-13.5 5h-114q-17 0 -24.5 -10t-7.5 -27v-133q0 -9 4.5 -14t15.5 -5h85q30 0 44.5 15.5t14.5 44.5zM659 223l-94 -107q-4 -6 -4 -11t4 -11l100 -121q4 -6 3 -10.5t-9 -4.5h-119q-9 0 -15.5 2.5t-11.5 9.5l-28 40q-5 6 -8 6t-8 -6l-24 -30
q-13 -16 -26 -19t-39 -3h-171q-31 0 -56.5 11.5t-43.5 30.5q-19 20 -29 45t-10 53v93q0 32 13 60t40 51q3 2 5.5 5t2.5 9q0 4 -2.5 7.5t-5.5 6.5q-27 21 -40 49t-13 61v53q0 40 16.5 71.5t52.5 53.5l99 57q15 9 33 13.5t37 4.5h57q25 0 49.5 -10t43.5 -28t31 -44t12 -58v-38
q0 -33 -13 -60.5t-39 -47.5l-71 -44q-9 -6 -10.5 -12.5t4.5 -14.5l106 -132q4 -6 7 -6t8 6l18 22q4 6 11 9.5t16 3.5h115q8 0 9 -5.5t-3 -10.5zM223 302q-11 0 -15 -6t-4 -15v-205q0 -9 4 -13t15 -4h124q12 0 18 2t13 11l23 26q5 5 5 10t-5 11l-127 166q-7 8 -16 12.5
t-18 4.5h-17z" />
    <glyph glyph-name="quotesingle" unicode="'" horiz-adv-x="216" 
d="M177 471q0 -9 -5.5 -12.5t-14.5 -3.5h-88q-10 0 -14 4t-4 13v271q0 8 4 13.5t14 5.5h88q9 0 14.5 -5.5t5.5 -13.5v-272z" />
    <glyph glyph-name="parenleft" unicode="(" horiz-adv-x="361" 
d="M372 -147q4 -6 2.5 -8t-10.5 -2h-70q-9 0 -16 2.5t-10 7.5q-94 102 -141 219t-47 249q0 129 47 246t141 222q3 4 10 7t16 3h70q9 0 10.5 -2.5t-2.5 -8.5q-78 -108 -115 -224.5t-37 -242.5q0 -127 37 -244t115 -224z" />
    <glyph glyph-name="parenright" unicode=")" horiz-adv-x="361" 
d="M299 320q0 -132 -48 -249t-141 -219q-6 -5 -13 -7.5t-14 -2.5h-72q-8 0 -9 2t3 8q76 106 114.5 223.5t38.5 244.5q0 126 -38.5 242.5t-114.5 224.5q-4 6 -3 8.5t9 2.5h72q7 0 14 -3t13 -7q93 -105 141 -222t48 -246z" />
    <glyph glyph-name="asterisk" unicode="*" horiz-adv-x="504" 
d="M483 615q2 -8 -0.5 -13t-11.5 -7l-116 -39q-10 -3 -12 -8.5t5 -13.5l72 -98q3 -9 2.5 -14.5t-7.5 -10.5l-49 -37q-8 -4 -14 -3.5t-11 7.5l-71 102q-3 2 -5.5 4t-6.5 2q-3 0 -6 -2t-4 -4l-72 -102q-5 -7 -11 -7.5t-15 3.5l-50 37q-6 5 -7 10.5t3 14.5l75 98q5 8 2.5 13.5
t-10.5 8.5l-116 39q-9 2 -12 7t0 13l18 60q2 9 8 11t15 0l115 -36q9 -5 15 -1.5t6 12.5v123q0 9 3.5 13.5t12.5 4.5h60q9 0 13.5 -4.5t4.5 -13.5v-123q0 -9 4.5 -12.5t13.5 1.5l118 36q7 2 12 0t9 -11z" />
    <glyph glyph-name="plus" unicode="+" horiz-adv-x="611" 
d="M582 303q0 -10 -5 -14t-14 -4h-179q-9 0 -13 -5t-4 -14v-190q0 -9 -4.5 -12.5t-13.5 -3.5h-78q-9 0 -12.5 3.5t-3.5 12.5v190q0 9 -5.5 14t-14.5 5h-179q-9 0 -12.5 4t-3.5 14v75q0 8 3.5 13t12.5 5h179q9 0 14.5 4t5.5 15v187q0 9 3.5 14t12.5 5h78q9 0 13.5 -5t4.5 -14
v-187q0 -11 4 -15t13 -4h179q9 0 14 -5t5 -13v-75z" />
    <glyph glyph-name="comma" unicode="," horiz-adv-x="228" 
d="M185 -63q0 -12 -3 -23t-8 -23l-67 -112q-5 -6 -11.5 -10.5t-14.5 -4.5h-12q-10 0 -14 5t-4 11v285q0 9 4 13.5t14 4.5h99q8 0 12.5 -4.5t4.5 -13.5v-128z" />
    <glyph glyph-name="hyphen" unicode="-" horiz-adv-x="391" 
d="M347 300q0 -8 -5.5 -11.5t-14.5 -3.5h-260q-9 0 -13 3.5t-4 11.5v88q0 9 4 14t13 5h260q9 0 14.5 -5t5.5 -14v-88z" />
    <glyph glyph-name="period" unicode="." horiz-adv-x="228" 
d="M185 -27q0 -9 -4.5 -12t-11.5 -3h-100q-10 0 -14 3t-4 12v92q0 9 4 13.5t14 4.5h100q7 0 11.5 -4.5t4.5 -13.5v-92z" />
    <glyph glyph-name="slash" unicode="/" horiz-adv-x="357" 
d="M376 748l-275 -809q-3 -7 -8.5 -10.5t-13.5 -3.5h-91q-8 0 -10.5 3.5t-2.5 9.5l275 809q2 6 7.5 11t13.5 5h93q9 0 12 -4.5t0 -10.5z" />
    <glyph glyph-name="zero" unicode="0" horiz-adv-x="607" 
d="M308 703q92 0 147.5 -43.5t84.5 -103.5q30 -61 39.5 -125t9.5 -106q0 -99 -23 -170.5t-62 -117.5t-90 -68t-106 -22q-93 0 -148 43t-85 103q-29 60 -38 124.5t-9 107.5q0 38 8 101.5t37 125.5q29 61 84.5 106t150.5 45zM157 325q0 -83 14 -136t37 -83q22 -31 48.5 -42
t51.5 -11q29 0 56 15t48 47q21 33 34 84.5t13 125.5q0 121 -40 196.5t-111 75.5q-51 0 -81 -32t-46 -76q-16 -43 -20 -89.5t-4 -74.5z" />
    <glyph glyph-name="one" unicode="1" horiz-adv-x="607" 
d="M557 -27q0 -9 -5 -12t-11 -3h-463q-9 0 -13.5 3t-4.5 12v67q0 9 4.5 14.5t14.5 5.5h160q7 0 12 4t5 13v494q0 9 -5 15t-12 6h-151q-10 0 -14.5 2.5t-4.5 10.5q0 7 4 13t13 11l79 46q15 9 32.5 13.5t36.5 4.5h140q7 0 11.5 -4.5t4.5 -12.5v-599q0 -9 5 -13t15 -4h131
q6 0 11 -5.5t5 -14.5v-67z" />
    <glyph glyph-name="two" unicode="2" horiz-adv-x="607" 
d="M206 384h194q9 0 14.5 5t5.5 15v167q0 9 -5.5 15t-14.5 6h-312q-9 0 -13 2.5t-4 10.5q0 7 3.5 13t11.5 11l80 46q15 9 32.5 13.5t35.5 4.5h175q24 0 49 -9.5t45 -27.5t33 -44.5t13 -59.5v-132q0 -28 -10.5 -53t-29.5 -44q-18 -19 -43.5 -30t-55.5 -11h-197
q-10 0 -14.5 -6t-4.5 -15v-184q0 -9 4.5 -13t14.5 -4h306q9 0 13.5 -5.5t4.5 -14.5v-67q0 -9 -4.5 -12t-13.5 -3h-437q-9 0 -12.5 3t-3.5 12v269q0 20 7 44.5t24 46.5q16 21 43 36t66 15z" />
    <glyph glyph-name="three" unicode="3" horiz-adv-x="607" 
d="M544 552v-58q0 -35 -13.5 -61.5t-40.5 -47.5q-3 -3 -4.5 -6.5t-1.5 -8.5t1.5 -8t5.5 -5q27 -22 40.5 -50.5t13.5 -62.5v-83q0 -40 -18 -70.5t-53 -51.5l-111 -64q-17 -10 -37.5 -13.5t-44.5 -3.5h-194q-9 0 -13 2.5t-4 10.5t3.5 13t12.5 10l80 46q15 10 32.5 15.5
t36.5 5.5h153q8 0 13.5 4t5.5 13v183q0 9 -5.5 14.5t-13.5 5.5h-210q-10 0 -14 3.5t-4 12.5v72q0 8 4 13t14 5h209q9 0 14.5 4t5.5 15v165q0 9 -5.5 15t-14.5 6h-283q-9 0 -12.5 2.5t-3.5 10.5q0 7 3 13t10 11l81 46q15 9 32.5 13.5t35.5 4.5h153q24 0 49 -9.5t45 -27.5
q21 -18 34 -44.5t13 -59.5z" />
    <glyph glyph-name="four" unicode="4" horiz-adv-x="607" 
d="M71 255v243q0 21 3.5 39.5t15.5 38.5l53 89q4 6 9.5 11t12.5 5h12q9 0 13.5 -5t4.5 -13v-422q0 -10 4 -14t13 -4h117q8 0 13 4t5 14v435q0 8 4 12.5t13 4.5h93q9 0 13.5 -4.5t4.5 -12.5v-435q0 -10 3.5 -14t13.5 -4h82q9 0 14.5 -4.5t5.5 -12.5v-68q0 -9 -5.5 -13
t-14.5 -4h-82q-10 0 -13.5 -4.5t-3.5 -13.5v-129q0 -9 -4.5 -12.5t-13.5 -3.5h-93q-9 0 -13 3.5t-4 12.5v129q0 9 -5 13.5t-12 4.5h-124q-24 0 -48 7.5t-44 23.5q-19 16 -31 41.5t-12 61.5z" />
    <glyph glyph-name="five" unicode="5" horiz-adv-x="607" 
d="M225 282q-43 0 -69.5 14t-40.5 35q-15 20 -20 43t-5 41v261q0 8 4 12.5t13 4.5h389q6 0 11.5 -4.5t5.5 -12.5v-68q0 -9 -5.5 -12.5t-11.5 -3.5h-261q-9 0 -13 -6t-4 -15v-163q0 -11 4 -14.5t13 -3.5h158q33 0 59 -12.5t45 -33.5q18 -20 28 -45.5t10 -50.5v-87
q0 -40 -17.5 -70.5t-52.5 -51.5l-113 -64q-16 -10 -33 -13.5t-36 -3.5h-186q-8 0 -11 2.5t-3 10.5t2.5 13t10.5 10l81 46q15 10 32.5 15.5t35.5 5.5h135q9 0 14 4t5 13v183q0 9 -5 15t-14 6h-155z" />
    <glyph glyph-name="six" unicode="6" horiz-adv-x="607" 
d="M200 287v-209q0 -9 5 -13t14 -4h175q9 0 15 4t6 13v212q0 9 -6 14.5t-15 5.5l-177 -2q-8 0 -12.5 -5.5t-4.5 -15.5zM200 388q0 -10 7.5 -15t17.5 -2l153 40q16 5 30 7.5t25 2.5q13 0 33 -5.5t38 -18.5q19 -14 32 -36t13 -56v-144q0 -40 -17 -70.5t-51 -51.5l-112 -64
q-18 -10 -35 -13.5t-35 -3.5h-92q-32 0 -58 11.5t-44 30.5q-18 20 -28 45t-10 53v392q0 39 16 69t52 52l111 64q17 9 34 13.5t36 4.5h179q8 0 13 -4t5 -11q0 -8 -4.5 -13.5t-11.5 -9.5l-79 -45q-16 -11 -33.5 -14.5t-35.5 -3.5h-130q-9 0 -14 -6t-5 -15v-183z" />
    <glyph glyph-name="seven" unicode="7" horiz-adv-x="607" 
d="M537 471q0 -42 -17.5 -72t-52.5 -51l-142 -80q-6 -5 -9 -10t-3 -14v-144q0 -14 -3 -24t-9 -18l-65 -95q-4 -6 -10 -9t-15 -3h-11q-9 0 -12.5 3t-3.5 10v268q0 39 17 70t53 52l136 78q6 3 10.5 9.5t4.5 16.5v113q0 9 -6 15t-15 6h-289q-9 0 -12 3.5t-3 12.5v68q0 8 3 12.5
t11 4.5h425q9 0 13.5 -4.5t4.5 -12.5v-205z" />
    <glyph glyph-name="eight" unicode="8" horiz-adv-x="607" 
d="M415 400v171q0 9 -5 14t-14 5h-177q-11 0 -15.5 -5t-4.5 -14v-171q0 -9 4.5 -13.5t15.5 -4.5h177q9 0 14 4.5t5 13.5zM416 77v183q0 9 -5 15t-15 6h-177q-11 0 -15 -6t-4 -15v-183q0 -9 4 -13t15 -4h177q10 0 15 4t5 13zM205 -42q-31 0 -56.5 11.5t-43.5 30.5
q-19 20 -29 45t-10 53v72q0 32 13 60t40 50q3 2 5.5 5t2.5 9q0 4 -2.5 8t-5.5 7q-27 21 -40 49t-13 61v70q0 40 16.5 70t52.5 52l112 64q16 9 32.5 13.5t35.5 4.5h94q25 0 50 -10t45 -28t32.5 -44t12.5 -58v-65q0 -33 -13 -60t-39 -48q-4 -3 -5.5 -7t-1.5 -8q0 -5 1.5 -8.5
t5.5 -6.5q26 -21 39 -49t13 -61v-79q0 -40 -17 -70.5t-51 -51.5l-114 -64q-16 -10 -33.5 -13.5t-33.5 -3.5h-95z" />
    <glyph glyph-name="nine" unicode="9" horiz-adv-x="607" 
d="M415 350v220q0 9 -6 14t-15 5h-175q-9 0 -14 -5t-5 -14v-223q0 -9 5 -13t15 -4l177 2q7 0 12.5 4t5.5 14zM415 251q0 10 -8.5 15.5t-17.5 2.5l-153 -41q-17 -6 -31 -7.5t-25 -1.5q-14 0 -33.5 5t-37.5 17q-18 13 -30.5 35t-12.5 57v154q0 40 16 71t51 52l112 64
q17 9 34 13.5t35 4.5h92q31 0 57.5 -12t44.5 -32q19 -19 29.5 -45t10.5 -53v-392q0 -39 -17 -69t-52 -51l-111 -64q-18 -9 -35 -13t-36 -4h-179q-8 0 -12 3t-4 10q0 8 3.5 13.5t11.5 9.5l79 46q15 10 33 14.5t36 4.5h130q9 0 14.5 5t5.5 14v174z" />
    <glyph glyph-name="colon" unicode=":" horiz-adv-x="228" 
d="M185 512q0 -10 -4.5 -13.5t-11.5 -3.5h-100q-10 0 -14 3.5t-4 13.5v90q0 9 4 14t14 5h100q7 0 11.5 -5t4.5 -14v-90zM185 75q0 -9 -4.5 -12t-11.5 -3h-100q-10 0 -14 3t-4 12v92q0 9 4 13.5t14 4.5h100q7 0 11.5 -4.5t4.5 -13.5v-92z" />
    <glyph glyph-name="semicolon" unicode=";" horiz-adv-x="228" 
d="M185 512q0 -10 -4.5 -13.5t-12.5 -3.5h-99q-10 0 -14 3.5t-4 13.5v90q0 9 4 14t14 5h99q8 0 12.5 -5t4.5 -14v-90zM183 39q0 -12 -3 -23t-8 -23l-63 -114q-5 -7 -11.5 -10.5t-14.5 -3.5h-12q-10 0 -14 4t-4 10v288q0 9 4 13.5t14 4.5h95q8 0 12.5 -4.5t4.5 -13.5v-128z
" />
    <glyph glyph-name="less" unicode="&#x3c;" horiz-adv-x="473" 
d="M439 71q5 -7 3.5 -9t-10.5 -2h-132q-10 0 -17.5 2.5t-12.5 9.5l-227 254q-6 6 -6 12.5t6 14.5l234 253q6 7 14.5 10.5t17.5 3.5h123q9 0 10.5 -3t-3.5 -10l-231 -253q-3 -5 -3.5 -8.5t-0.5 -6.5q0 -4 0.5 -7.5t3.5 -6.5z" />
    <glyph glyph-name="equal" unicode="=" horiz-adv-x="629" 
d="M583 427q0 -9 -5 -13t-15 -4h-488q-10 0 -14 4t-4 13v72q0 9 4 14t14 5h488q10 0 15 -5t5 -14v-72zM583 183q0 -9 -5 -12.5t-15 -3.5h-488q-10 0 -14 3.5t-4 12.5v74q0 7 4 12t14 5h488q10 0 15 -5t5 -12v-74z" />
    <glyph glyph-name="greater" unicode="&#x3e;" horiz-adv-x="473" 
d="M455 326l-227 -254q-6 -7 -14 -9.5t-18 -2.5h-133q-9 0 -10 2t5 9l230 254q0 1 1 2.5t2 3.5t1.5 4t0.5 4q0 1 -0.5 3t-1.5 4q-1 1 -2 3t-1 5l-230 253q-6 7 -5 10t10 3h125q9 0 17 -3.5t15 -10.5l235 -253q5 -8 5 -14.5t-5 -12.5z" />
    <glyph glyph-name="question" unicode="?" horiz-adv-x="458" 
d="M227 -27q0 -9 -4 -12t-12 -3h-101q-9 0 -13 3t-4 12v83q0 8 4 12t13 4h101q8 0 12 -4t4 -12v-83zM286 316h-46q-9 0 -13 -5.5t-4 -13.5v-110q0 -10 -4.5 -14t-11.5 -4h-96q-9 0 -13 4t-4 13v92q0 30 9 55.5t30 46.5q18 19 44 29.5t57 10.5h47q9 0 15 3.5t6 12.5v135
q0 9 -6 15t-15 6h-250q-11 0 -14.5 2.5t-3.5 10.5q0 7 3.5 13t12.5 11l78 46q15 9 32.5 13.5t38.5 4.5h108q21 0 46 -8.5t47 -25.5q21 -18 35.5 -44.5t14.5 -63.5v-96q0 -23 -8 -47.5t-26 -44.5q-17 -21 -44 -34t-65 -13z" />
    <glyph glyph-name="at" unicode="@" horiz-adv-x="1035" 
d="M599 115v247q0 9 -5.5 14t-14.5 5h-119q-10 0 -14 -5t-4 -14v-247q0 -9 4 -14t14 -5h119q9 0 14.5 5t5.5 14zM77 343q0 64 16 101.5t66 75.5l163 122q44 30 82.5 40.5t98.5 10.5h179q161 0 227.5 -68t66.5 -189v-235q0 -44 -19 -75.5t-55 -52.5l-100 -60
q-19 -11 -37 -15.5t-39 -4.5h-97q-18 0 -25.5 8t-7.5 26q0 9 -5.5 12t-15.5 0l-116 -51q-8 -3 -17 -3h-18q-27 0 -48.5 7.5t-36.5 25.5q-16 15 -22.5 36t-6.5 47v178q0 39 17.5 69.5t53.5 51.5l107 62q15 9 32.5 14.5t36.5 5.5h149q9 0 14 -5t5 -14v-348q0 -9 4.5 -14
t13.5 -5h26q34 0 53.5 19t19.5 59v246q0 89 -39.5 129t-137.5 40h-156q-36 0 -60 -6.5t-55 -27.5l-111 -83q-36 -27 -55 -58.5t-19 -77.5v-294q0 -69 33 -108.5t129 -39.5h392q9 0 14 -4.5t5 -11.5q0 -6 -4.5 -12.5t-12.5 -10.5l-81 -48q-19 -9 -36.5 -13.5t-37.5 -4.5h-249
q-77 0 -131 12t-88 40t-49.5 74.5t-15.5 115.5v312z" />
    <glyph glyph-name="A" unicode="A" horiz-adv-x="657" 
d="M669 -26q3 -9 -0.5 -12.5t-12.5 -3.5h-107q-9 0 -15 3.5t-8 13.5l-43 151q-4 7 -10 12.5t-15 5.5h-245q-9 0 -15.5 -5.5t-7.5 -12.5l-44 -151q-3 -10 -8 -13.5t-15 -3.5h-109q-9 0 -11.5 3.5t0.5 12.5l214 702q2 8 8 12.5t15 4.5h190q10 0 16.5 -4.5t9.5 -12.5zM442 270
l-92 321q-2 4 -5.5 7t-9.5 3t-9 -3t-5 -7l-91 -321q-3 -11 0.5 -14.5t12.5 -3.5h183q11 0 15 3.5t1 14.5z" />
    <glyph glyph-name="B" unicode="B" horiz-adv-x="709" 
d="M519 396v170q0 9 -6.5 15t-16.5 6h-271q-10 0 -14 -6t-4 -15v-171q0 -9 4.5 -13.5t14.5 -4.5h270q10 0 16.5 4.5t6.5 14.5zM519 84v164q0 9 -6.5 15.5t-16.5 6.5h-270q-10 0 -14.5 -6t-4.5 -15v-166q0 -9 4.5 -13t14.5 -4h270q10 0 16.5 4.5t6.5 13.5zM663 580v-99
q0 -33 -13 -61.5t-38 -49.5q-3 -3 -5 -6.5t-2 -8.5q0 -6 2 -9t6 -5q25 -22 38.5 -50.5t13.5 -63.5v-56q0 -42 -19 -74.5t-56 -53.5l-115 -67q-18 -10 -36 -14t-39 -4h-316q-9 0 -12 3.5t-3 12.5v701q0 9 3 13.5t12 4.5h104q9 0 14 -4.5t5 -13.5v-16q0 -10 4.5 -14t16.5 -1
l277 55q6 0 11 1t9 1q5 1 8 1.5t6 0.5q19 0 40.5 -7.5t40.5 -22.5q18 -15 30.5 -38.5t12.5 -54.5z" />
    <glyph glyph-name="C" unicode="C" horiz-adv-x="643" 
d="M74 102v379q0 42 18 74t55 54l117 65q15 9 33 14t36 5h248q9 0 13.5 -4.5t4.5 -13.5v-73q0 -9 -4.5 -12.5t-13.5 -3.5h-347q-9 0 -13 -5.5t-4 -14.5v-482q0 -10 4 -14.5t13 -4.5h357q8 0 13 -4t5 -11q0 -9 -4 -15.5t-12 -10.5l-86 -48q-18 -10 -35.5 -14t-35.5 -4h-216
q-27 0 -53 9t-47 28q-21 18 -33.5 45t-12.5 62z" />
    <glyph glyph-name="D" unicode="D" horiz-adv-x="742" 
d="M541 84v482q0 9 -5.5 14.5t-16.5 5.5h-283q-10 0 -14 -5.5t-4 -14.5v-483q0 -9 4 -13.5t13 -4.5h284q11 0 16.5 4.5t5.5 14.5zM683 580v-409q0 -42 -19.5 -74t-56.5 -54l-115 -67q-18 -10 -36.5 -14t-37.5 -4h-324q-9 0 -12 3.5t-3 12.5v701q0 9 3 13.5t12 4.5h105
q9 0 14 -4.5t5 -13.5v-16q0 -11 4.5 -14.5t15.5 -0.5l288 55q6 0 10.5 1t8.5 1q4 1 7.5 1.5t6.5 0.5q22 0 44.5 -9.5t39.5 -25.5q18 -16 29 -38.5t11 -49.5z" />
    <glyph glyph-name="E" unicode="E" horiz-adv-x="656" 
d="M218 -42q-36 0 -63 12.5t-46 33.5q-19 20 -28.5 46t-9.5 52v379q0 42 18 74t55 54l117 65q16 9 34 14t36 5h258q8 0 13 -4.5t5 -13.5v-73q0 -9 -5 -12.5t-13 -3.5h-357q-9 0 -13 -5.5t-4 -14.5v-161q0 -11 4 -14.5t13 -3.5h333q9 0 14.5 -5t5.5 -14v-73q0 -9 -5.5 -13
t-14.5 -4h-333q-9 0 -13 -5.5t-4 -15.5v-173q0 -10 4 -14.5t13 -4.5h367q9 0 14.5 -4t5.5 -11q0 -9 -4.5 -15.5t-12.5 -10.5l-85 -48q-18 -10 -36 -14t-37 -4h-226z" />
    <glyph glyph-name="F" unicode="F" horiz-adv-x="601" 
d="M584 602q0 -9 -6 -12.5t-15 -3.5h-328q-10 0 -14 -5.5t-4 -14.5l-1 -171q0 -9 4 -13t14 -4h301q9 0 13 -5t4 -14v-73q0 -9 -4 -12.5t-13 -3.5h-301q-10 0 -14 -5.5t-4 -14.5l1 -275q0 -10 -6 -13.5t-15 -3.5h-104q-9 0 -13.5 3.5t-4.5 12.5v507q0 42 17.5 74t54.5 54
l118 65q16 9 33.5 14t35.5 5h230q9 0 15 -4.5t6 -13.5v-73z" />
    <glyph glyph-name="G" unicode="G" horiz-adv-x="715" 
d="M191 -52q-22 0 -43.5 8t-38.5 23q-17 16 -27.5 38.5t-10.5 51.5v412q0 42 17.5 74t53.5 54l117 65q16 9 34 14t37 5h300q8 0 12.5 -4.5t4.5 -13.5v-73q0 -9 -4.5 -12.5t-12.5 -3.5h-400q-9 0 -13.5 -5.5t-4.5 -14.5v-482q0 -10 4.5 -14.5t13.5 -4.5h267q8 0 13.5 4.5
t5.5 14.5v139q0 9 -5.5 14.5t-12.5 5.5h-112q-10 0 -14 3.5t-4 12.5v72q0 9 4 13.5t13 4.5h253q9 0 13.5 -5t4.5 -14v-356q0 -9 -4.5 -12.5t-13.5 -3.5h-104q-9 0 -13.5 3.5t-4.5 13.5v17q0 9 -6 13t-15 2l-268 -55q-12 -3 -21 -3.5t-15 -0.5z" />
    <glyph glyph-name="H" unicode="H" horiz-adv-x="731" 
d="M670 -27q0 -9 -5 -12t-14 -3h-104q-9 0 -12.5 3.5t-3.5 12.5v283q0 9 -6.5 14.5t-15.5 5.5h-273q-9 0 -14 -5.5t-5 -14.5v-283q0 -9 -5 -12.5t-13 -3.5h-106q-8 0 -11 3t-3 12v703q0 8 3 12.5t11 4.5h106q8 0 13 -4.5t5 -12.5v-272q0 -10 5 -14.5t14 -4.5h273
q9 0 15.5 4.5t6.5 14.5v272q0 8 3.5 12.5t12.5 4.5h104q9 0 14 -4.5t5 -12.5v-703z" />
    <glyph glyph-name="I" unicode="I" horiz-adv-x="282" 
d="M217 -26q0 -9 -5 -12.5t-14 -3.5h-106q-8 0 -11 3.5t-3 12.5v702q0 8 3 12.5t11 4.5h106q9 0 14 -4.5t5 -12.5v-702z" />
    <glyph glyph-name="J" unicode="J" horiz-adv-x="492" 
d="M304 675q0 9 3.5 13.5t12.5 4.5h104q10 0 15 -4.5t5 -13.5v-504q0 -42 -19 -74.5t-55 -53.5l-114 -67q-18 -10 -36 -14t-36 -4h-161q-10 0 -13 3.5t-3 12.5v76q0 9 3 14t14 5h259q9 0 15 4t6 15v587z" />
    <glyph glyph-name="K" unicode="K" horiz-adv-x="631" 
d="M657 -30q3 -8 2.5 -10t-9.5 -2h-129q-10 0 -18 2.5t-13 10.5l-259 335q-2 1 -3.5 2t-3.5 2l-4 2t-4 1q-10 0 -14 -6t-4 -15v-317q0 -10 -5.5 -13.5t-14.5 -3.5h-104q-9 0 -12 3.5t-3 12.5v701q0 9 3 13.5t12 4.5h104q9 0 14.5 -4.5t5.5 -13.5v-297q0 -10 4 -14t14 -4
q4 0 8 1.5t7 4.5l261 313q6 6 13.5 10t17.5 4h123q8 0 9.5 -3.5t-3.5 -9.5l-279 -324q-6 -8 -6 -16t6 -14z" />
    <glyph glyph-name="L" unicode="L" horiz-adv-x="553" 
d="M212 -42q-40 0 -67.5 14.5t-45.5 36.5q-17 21 -24.5 46.5t-7.5 46.5v573q0 9 4 13.5t13 4.5h105q9 0 14 -4.5t5 -13.5v-591q0 -10 4 -14.5t14 -4.5h337q9 0 14.5 -4t5.5 -11q0 -9 -5 -15.5t-12 -10.5l-85 -48q-18 -10 -36.5 -14t-37.5 -4h-195z" />
    <glyph glyph-name="M" unicode="M" horiz-adv-x="993" 
d="M941 -26q0 -9 -4 -12.5t-13 -3.5h-100q-9 0 -13 3.5t-4 13.5v609q0 7 -4.5 11.5t-12.5 4.5t-12 -4t-5 -10l-152 -612q-2 -9 -7.5 -12.5t-14.5 -3.5h-197q-9 0 -14.5 3.5t-6.5 12.5l-152 612q-3 6 -6.5 10t-9.5 4q-9 0 -13.5 -4.5t-4.5 -11.5v-609q0 -10 -5 -13.5
t-14 -3.5h-100q-8 0 -11 3.5t-3 12.5v702q0 8 3 12.5t11 4.5h238q9 0 15 -4.5t9 -12.5l147 -613q0 -7 4 -10t11 -3t11.5 3t6.5 10l148 613q1 8 6 12.5t14 4.5h238q9 0 13 -4.5t4 -12.5v-702z" />
    <glyph glyph-name="N" unicode="N" horiz-adv-x="779" 
d="M726 -26q0 -9 -4.5 -12.5t-12.5 -3.5h-213q-9 0 -15 3t-9 12l-254 610q-2 3 -4.5 5t-5.5 2q-6 0 -8.5 -3.5t-2.5 -7.5v-604q0 -10 -5.5 -13.5t-14.5 -3.5h-99q-8 0 -11 3.5t-3 12.5v702q0 8 3 12.5t11 4.5h216q8 0 14 -4t9 -12l254 -609q2 -3 4 -4.5t5 -1.5q5 0 9 2t4 7
v605q0 8 4.5 12.5t13.5 4.5h98q8 0 12.5 -4.5t4.5 -12.5v-702z" />
    <glyph glyph-name="O" unicode="O" horiz-adv-x="737" 
d="M544 566q0 9 -6.5 14.5t-17.5 5.5h-288q-10 0 -14 -5.5t-4 -14.5v-482q0 -10 4 -14.5t14 -4.5h288q11 0 17.5 4.5t6.5 14.5v482zM217 -44q-37 0 -64.5 13t-45.5 34q-19 21 -28 47t-9 52v379q0 41 18 73t55 55l117 68q16 9 33.5 14t37.5 5h206q24 0 50 -10t47 -29
q22 -19 36 -46.5t14 -63.5v-378q0 -42 -19 -74.5t-55 -53.5l-114 -67q-19 -10 -37 -14t-38 -4h-204z" />
    <glyph glyph-name="P" unicode="P" horiz-adv-x="674" 
d="M507 347v219q0 9 -5 14.5t-14 5.5h-262q-9 0 -13 -5.5t-4 -14.5v-219q0 -9 4 -13t13 -4h262q9 0 14 4t5 13zM648 579v-145q0 -43 -18 -74.5t-55 -52.5l-114 -67q-17 -10 -35 -13.5t-36 -3.5h-164q-9 0 -13 -5.5t-4 -13.5v-229q0 -10 -6 -13.5t-15 -3.5h-104q-9 0 -12 3.5
t-3 12.5v701q0 9 3 13.5t12 4.5h104q9 0 15 -4.5t6 -13.5v-16q0 -11 4.5 -14.5t14.5 -0.5l264 55q9 1 18.5 2.5t16.5 1.5q17 0 38 -7t40 -22q18 -15 30.5 -38.5t12.5 -56.5z" />
    <glyph glyph-name="Q" unicode="Q" horiz-adv-x="737" 
d="M543 84v482q0 9 -6.5 14.5t-16.5 5.5h-289q-9 0 -13 -5.5t-4 -14.5v-482q0 -10 4 -14.5t13 -4.5h289q10 0 16.5 4.5t6.5 14.5zM439 -292q-34 0 -61 12.5t-46 32.5q-18 20 -28 45t-10 53v85q0 9 -5.5 14.5t-13.5 5.5h-57q-34 0 -61.5 12t-46.5 33q-20 20 -30 46.5
t-10 54.5v379q0 41 17.5 73t54.5 55l118 68q15 9 33 14t37 5h206q25 0 51 -10t47 -29q21 -18 35 -46t14 -64v-378q0 -42 -18.5 -74.5t-54.5 -53.5l-99 -58q-18 -9 -33.5 -15t-29.5 -6q-10 -2 -15 -7.5t-5 -16.5v-106q0 -10 5 -14.5t16 -4.5h267q9 0 13 -5t4 -11t-3.5 -12.5
t-11.5 -9.5l-84 -48q-18 -9 -37 -14t-37 -5h-121z" />
    <glyph glyph-name="R" unicode="R" horiz-adv-x="702" 
d="M508 374v192q0 9 -5 14.5t-14 5.5h-263q-9 0 -13 -5.5t-4 -14.5v-193q0 -10 4 -14.5t13 -4.5h263q9 0 14 5t5 15zM651 580v-122q0 -43 -19 -74.5t-57 -52.5l-52 -31q-9 -6 -10.5 -12t4.5 -14l177 -303q3 -9 1.5 -11t-11.5 -2h-124q-9 0 -16 3t-10 12l-148 256
q-5 8 -12.5 12.5t-16.5 4.5h-131q-9 0 -13 -5t-4 -14v-252q0 -10 -5.5 -13.5t-14.5 -3.5h-104q-9 0 -12.5 3.5t-3.5 12.5v701q0 9 3.5 13.5t12.5 4.5h104q9 0 14.5 -4.5t5.5 -13.5v-16q0 -11 4.5 -14.5t14.5 -0.5l265 55q4 0 9 1t9 1q4 1 8 1.5t8 0.5q18 0 39.5 -7.5
t40.5 -22.5q18 -15 31 -38t13 -55z" />
    <glyph glyph-name="S" unicode="S" horiz-adv-x="629" 
d="M610 240v-71q0 -43 -18 -75t-54 -53l-118 -65q-18 -10 -36 -14t-36 -4h-267q-10 0 -14 3.5t-4 12.5v73q0 8 4 13t15 5h368q7 0 12.5 4.5t5.5 14.5v170q0 9 -5.5 14.5t-12.5 5.5h-260q-34 0 -61 11.5t-46 32.5q-19 20 -29 46.5t-10 55.5v62q0 41 17 73t54 54l118 65
q16 9 34.5 14t36.5 5h262q9 0 14.5 -4.5t5.5 -13.5v-73q0 -9 -5.5 -12.5t-14.5 -3.5h-363q-10 0 -13.5 -5.5t-3.5 -14.5v-157q0 -12 4 -16t14 -4h259q24 0 49.5 -9.5t47.5 -28.5t36 -47t14 -64z" />
    <glyph glyph-name="T" unicode="T" horiz-adv-x="570" 
d="M593 602q0 -9 -5 -12.5t-13 -3.5h-195q-10 0 -13.5 -5t-3.5 -14v-592q0 -10 -4.5 -13.5t-13.5 -3.5h-106q-9 0 -12 3.5t-3 13.5v592q0 9 -5.5 14t-14.5 5h-194q-8 0 -12 3.5t-4 12.5v74q0 8 4 12.5t12 4.5h565q8 0 13 -4.5t5 -12.5v-74z" />
    <glyph glyph-name="U" unicode="U" horiz-adv-x="745" 
d="M199 -52q-52 0 -86 36t-34 85v606q0 9 3 13.5t12 4.5h106q9 0 14 -4.5t5 -13.5v-591q0 -10 4 -14.5t14 -4.5h281q11 0 16.5 4.5t5.5 14.5v591q0 9 3.5 13.5t12.5 4.5h104q9 0 14.5 -4.5t5.5 -13.5v-701q0 -9 -5.5 -12.5t-14.5 -3.5h-104q-9 0 -12.5 3.5t-3.5 13.5v17
q0 9 -6.5 13t-17.5 2l-283 -55q-12 -3 -20 -3.5t-14 -0.5z" />
    <glyph glyph-name="V" unicode="V" horiz-adv-x="651" 
d="M662 677l-214 -702q-3 -10 -9.5 -13.5t-16.5 -3.5h-190q-9 0 -14.5 3.5t-7.5 13.5l-214 702q-3 7 0 11.5t11 4.5h108q9 0 14.5 -4.5t8.5 -12.5l177 -615q0 -6 3 -8.5t9 -2.5t10 2.5t6 8.5l174 615q3 8 8.5 12.5t15.5 4.5h107q9 0 12 -4.5t2 -11.5z" />
    <glyph glyph-name="W" unicode="W" horiz-adv-x="1090" 
d="M1101 677l-168 -702q-3 -10 -9 -13.5t-14 -3.5h-196q-11 0 -16.5 3.5t-6.5 13.5l-126 616q-3 4 -6 7t-8 3q-6 0 -9 -3t-3 -7l-128 -616q-3 -10 -8.5 -13.5t-14.5 -3.5h-197q-9 0 -14 3.5t-7 13.5l-170 702q0 7 1.5 11.5t9.5 4.5h115q8 0 14 -4.5t8 -12.5l130 -618
q0 -6 4 -8t10 -2t9.5 2t4.5 8l122 618q1 8 6.5 12.5t15.5 4.5h204q9 0 14.5 -4.5t7.5 -12.5l122 -618q0 -6 3 -8t9 -2q5 0 8 2t5 8l131 618q1 8 7 12.5t15 4.5h113q8 0 10 -4.5t2 -11.5z" />
    <glyph glyph-name="X" unicode="X" horiz-adv-x="635" 
d="M649 -29q3 -9 1.5 -11t-10.5 -2h-131q-9 0 -15.5 2.5t-10.5 11.5l-153 251q-5 9 -10.5 9t-8.5 -9l-152 -251q-6 -9 -13 -11.5t-14 -2.5h-132q-9 0 -10 2t4 11l233 341q5 6 5 14t-5 17l-231 336q-5 7 -4 10.5t9 3.5h134q9 0 16 -4t13 -11l147 -247q3 -8 8.5 -8t10.5 8
l148 247q4 7 10.5 11t14.5 4h136q9 0 10 -3.5t-2 -10.5l-234 -336q-6 -9 -6 -17t6 -14z" />
    <glyph glyph-name="Y" unicode="Y" horiz-adv-x="610" 
d="M645 677l-254 -419q-5 -8 -7.5 -16t-2.5 -17v-250q0 -10 -4.5 -13.5t-12.5 -3.5h-105q-9 0 -13 3.5t-4 13.5v250q0 9 -3 17t-7 16l-252 419q-1 3 -1 5.5t1 5.5q2 2 4.5 3.5t5.5 1.5h118q8 0 15 -4.5t13 -12.5l162 -294q2 -5 5 -7t9 -2q3 0 6.5 2t6.5 7l163 294
q5 8 10.5 12.5t14.5 4.5h123q2 0 4.5 -1.5t4.5 -3.5q1 -3 1 -5.5t-1 -5.5z" />
    <glyph glyph-name="Z" unicode="Z" horiz-adv-x="630" 
d="M611 612q0 -10 -3 -18t-9 -14l-393 -501q-7 -8 -5 -11.5t12 -3.5h375q8 0 12.5 -5t4.5 -14v-71q0 -9 -4.5 -12.5t-12.5 -3.5h-542q-9 0 -12 3.5t-3 12.5v63q0 9 2 17.5t9 16.5l393 500q6 7 4 12t-11 5h-364q-10 0 -13.5 4t-3.5 13v70q0 9 3.5 13.5t12.5 4.5h529
q9 0 14 -4.5t5 -13.5v-63z" />
    <glyph glyph-name="bracketleft" unicode="[" horiz-adv-x="353" 
d="M374 -147q0 -6 -4.5 -9.5t-12.5 -3.5h-259q-9 0 -11.5 3.5t-2.5 9.5v930q0 6 2.5 9.5t11.5 3.5h259q8 0 12.5 -3.5t4.5 -9.5v-33q0 -7 -4.5 -11.5t-12.5 -4.5l-134 -18q-9 -1 -12.5 -6.5t-3.5 -11.5v-761q0 -7 3.5 -11.5t12.5 -5.5l134 -18q8 -2 12.5 -6t4.5 -11v-32z
" />
    <glyph glyph-name="backslash" unicode="\" horiz-adv-x="357" 
d="M391 -88q1 -6 -2 -9.5t-12 -3.5h-93q-9 0 -14 3.5t-6 10.5l-275 809q-2 6 1 10t11 4h92q7 0 13 -4.5t9 -10.5z" />
    <glyph glyph-name="bracketright" unicode="]" horiz-adv-x="353" 
d="M278 -145q0 -6 -4.5 -9.5t-11.5 -3.5h-260q-6 0 -10.5 3.5t-4.5 9.5v32q0 7 4.5 11t10.5 6l135 18q8 1 13 5.5t5 11.5v761q0 6 -5 11.5t-13 6.5l-135 18q-6 0 -10.5 4.5t-4.5 11.5v33q0 6 4.5 9.5t10.5 3.5h260q7 0 11.5 -3.5t4.5 -9.5v-930z" />
    <glyph glyph-name="asciicircum" unicode="^" horiz-adv-x="526" 
d="M477 597q0 -9 -4.5 -12t-13.5 -3h-83q-9 0 -16 2t-13 9l-66 67q-3 2 -6.5 4t-6.5 2q-4 0 -7.5 -2t-4.5 -4l-67 -67q-6 -7 -14 -9t-17 -2h-82q-10 0 -14 3t-4 12q0 3 0.5 6.5t4.5 6.5l194 191q1 3 4.5 5t6.5 2t6 -2t6 -5l192 -191q2 -3 3.5 -6.5t1.5 -6.5z" />
    <glyph glyph-name="underscore" unicode="_" horiz-adv-x="427" 
d="M470 -142q0 -9 -5 -14t-12 -5h-468q-6 0 -11 5t-5 14v65q0 8 5 13t11 5h468q7 0 12 -5t5 -13v-65z" />
    <glyph glyph-name="grave" unicode="`" horiz-adv-x="387" 
d="M144 828l203 -203q9 -12 2.5 -20.5t-15.5 -8.5h-108q-9 0 -16.5 2.5t-13.5 10.5l-136 133q-6 6 -6.5 11t5.5 14l62 61q4 3 10 4t13 -4z" />
    <glyph glyph-name="a" unicode="a" horiz-adv-x="600" 
d="M414 78v317q0 10 -5.5 15.5t-14.5 5.5h-185q-11 0 -15 -5.5t-4 -15.5v-317q0 -9 4 -13t15 -4h185q9 0 14.5 4t5.5 13zM172 -51q-48 0 -82 33.5t-34 81.5v252q0 40 17 70.5t53 50.5l107 62q16 10 33 15t36 5h229q8 0 12.5 -5t4.5 -14v-527q0 -9 -4.5 -12t-12.5 -3h-102
q-9 0 -12 3.5t-3 12.5v16q0 9 -5.5 13t-14.5 1l-192 -52q-9 -3 -16 -3h-14z" />
    <glyph glyph-name="b" unicode="b" horiz-adv-x="600" 
d="M422 78v317q0 10 -5.5 15.5t-14.5 5.5h-184q-11 0 -15.5 -5.5t-4.5 -15.5v-317q0 -9 4.5 -13t15.5 -4h184q9 0 14.5 4t5.5 13zM203 -42q-33 0 -58.5 12t-43.5 32q-18 19 -27.5 44.5t-9.5 51.5v645q0 8 4 13.5t13 5.5h101q6 0 11 -5.5t5 -13.5v-260q0 -9 4 -12t16 0
l191 52q4 0 8 1l8 2t7.5 1.5t7.5 0.5q14 0 34 -6.5t38 -19.5q18 -14 31 -36.5t13 -54.5v-253q0 -40 -17.5 -70t-51.5 -51l-109 -62q-16 -10 -33.5 -13.5t-34.5 -3.5h-107z" />
    <glyph glyph-name="c" unicode="c" horiz-adv-x="517" 
d="M192 -42q-33 0 -59 12.5t-44 32.5t-27.5 45t-9.5 50v217q0 39 17.5 69.5t53.5 51.5l111 65q15 9 32.5 14t35.5 5h182q8 0 12 -5t4 -14v-69q0 -8 -4 -11.5t-12 -3.5h-276q-9 0 -14 -5.5t-5 -15.5v-318q0 -9 5 -13t14 -4h278q8 0 12 -4.5t4 -12.5t-3.5 -14t-10.5 -9
l-80 -46q-17 -10 -34.5 -13.5t-35.5 -3.5h-146z" />
    <glyph glyph-name="d" unicode="d" horiz-adv-x="600" 
d="M414 78v317q0 10 -5 15.5t-15 5.5h-185q-11 0 -15 -5.5t-4 -15.5v-317q0 -9 4 -13t15 -4h185q10 0 15 4t5 13zM56 64v252q0 40 17.5 70.5t53.5 50.5l106 62q16 10 33 15t37 5h92q9 0 14 4t5 13v207q0 8 3.5 13.5t11.5 5.5h102q9 0 13 -5.5t4 -13.5v-770q0 -9 -4 -12
t-13 -3h-102q-8 0 -11.5 3.5t-3.5 12.5v16q0 9 -5 13t-14 1l-193 -52q-9 -3 -16 -3h-14q-20 -1 -40.5 7t-37.5 23q-17 16 -27.5 37.5t-10.5 47.5z" />
    <glyph glyph-name="e" unicode="e" horiz-adv-x="567" 
d="M405 300v99q0 10 -6 16t-16 6h-178q-11 0 -15.5 -6t-4.5 -16v-99q0 -9 4.5 -12.5t15.5 -3.5h178q10 0 16 3.5t6 12.5zM538 281q0 -26 -10 -43t-24 -27q-14 -11 -29.5 -15t-25.5 -4h-244q-11 0 -15 -5.5t-4 -13.5v-96q0 -9 4 -13t15 -4h308q9 0 13.5 -4.5t4.5 -11.5
q0 -8 -4 -14t-12 -9l-79 -46q-16 -10 -34 -13.5t-37 -3.5h-174q-31 0 -56.5 11.5t-43.5 31.5q-19 19 -29 44.5t-10 52.5v219q0 39 17.5 69.5t53.5 50.5l110 65q16 9 33.5 14t35.5 5h94q19 0 43.5 -8t46.5 -25t37 -44t15 -65v-98z" />
    <glyph glyph-name="f" unicode="f" horiz-adv-x="417" 
d="M425 676q0 -9 -5 -12t-14 -3h-196q-10 0 -14.5 -6t-4.5 -15v-103q0 -9 4.5 -13.5t14.5 -4.5h177q9 0 13 -5t4 -14v-69q0 -9 -4 -12.5t-13 -3.5h-177q-10 0 -14.5 -5t-4.5 -14v-421q0 -10 -5.5 -13.5t-11.5 -3.5h-101q-9 0 -13 3.5t-4 12.5v583q0 40 17 70.5t54 51.5
l110 64q15 9 32 14.5t38 5.5h99q9 0 14 -5.5t5 -13.5v-68z" />
    <glyph glyph-name="g" unicode="g" horiz-adv-x="600" 
d="M414 395q0 10 -5 15.5t-15 5.5h-184q-11 0 -15.5 -5.5t-4.5 -15.5v-317q0 -9 4.5 -13t15.5 -4h184q10 0 15 4t5 13v317zM172 -51q-57 0 -86.5 36t-29.5 79v252q0 39 17.5 69.5t53.5 51.5l106 62q16 10 33 15t36 5h229q9 0 13 -5t4 -14v-577q0 -43 -18 -74.5t-53 -50.5
l-111 -63q-18 -9 -35 -14.5t-34 -5.5h-201q-9 0 -12 5.5t-3 14.5v64q0 9 3.5 13.5t12.5 4.5h298q9 0 14 4t5 13v155q0 9 -5 13t-14 2l-193 -52q-9 -3 -16.5 -3h-13.5z" />
    <glyph glyph-name="h" unicode="h" horiz-adv-x="609" 
d="M84 -42q-9 0 -13 3t-4 12v770q0 8 4 13.5t13 5.5h101q6 0 11 -5.5t5 -13.5v-260q0 -5 1 -8t4 -5l194 53q3 0 6.5 1t7.5 2q3 1 6.5 1.5t7.5 0.5h13q45 0 81 -33t36 -84v-438q0 -9 -5 -12t-13 -3h-100q-9 0 -12.5 3.5t-3.5 12.5v422q0 9 -5.5 14.5t-14.5 5.5h-183
q-11 0 -15.5 -5.5t-4.5 -14.5v-422q0 -9 -5 -12.5t-11 -3.5h-101z" />
    <glyph glyph-name="i" unicode="i" horiz-adv-x="254" 
d="M198 661q0 -9 -5 -12.5t-12 -3.5h-100q-10 0 -13.5 3.5t-3.5 12.5v82q0 8 3.5 13.5t13.5 5.5h100q7 0 12 -5.5t5 -13.5v-82zM198 -27q0 -9 -5 -12t-12 -3h-100q-10 0 -13.5 3t-3.5 12v527q0 9 3.5 14t13.5 5h100q7 0 12 -5t5 -14v-527z" />
    <glyph glyph-name="j" unicode="j" horiz-adv-x="295" 
d="M99 500q0 9 3 14t13 5h100q9 0 13.5 -5t4.5 -14v-577q0 -43 -18.5 -74.5t-52.5 -50.5l-110 -63q-18 -9 -35 -14.5t-32 -5.5h-81q-9 0 -14 5.5t-5 14.5v65q0 9 5 14t14 5h176q8 0 13.5 4t5.5 13v664zM233 661q0 -9 -4.5 -12.5t-13.5 -3.5h-101q-9 0 -12 3.5t-3 12.5v82
q0 8 3 13.5t12 5.5h101q9 0 13.5 -5.5t4.5 -13.5v-82z" />
    <glyph glyph-name="k" unicode="k" horiz-adv-x="559" 
d="M584 -30q3 -8 1.5 -10t-8.5 -2h-126q-7 0 -14 2.5t-11 10.5l-201 254q-3 2 -7 4t-8 2q-10 0 -14 -5t-4 -14v-238q0 -9 -5 -12.5t-12 -3.5h-101q-10 0 -13.5 3t-3.5 12v770q0 8 3.5 13.5t13.5 5.5h101q7 0 12 -5.5t5 -13.5v-449q0 -9 4 -13.5t14 -4.5q3 0 7.5 2t7.5 5
l186 221q5 7 13 11t17 4h116q9 0 10 -3.5t-2 -10.5l-205 -232q-6 -9 -6.5 -16t4.5 -14z" />
    <glyph glyph-name="l" unicode="l" horiz-adv-x="254" 
d="M200 -27q0 -9 -5 -12t-11 -3h-100q-10 0 -14 3t-4 12v770q0 8 4 13.5t14 5.5h100q6 0 11 -5.5t5 -13.5v-770z" />
    <glyph glyph-name="m" unicode="m" horiz-adv-x="917" 
d="M872 411v-438q0 -9 -4.5 -12t-12.5 -3h-101q-9 0 -12.5 3.5t-3.5 12.5v422q0 9 -5.5 14.5t-14.5 5.5h-166q-9 0 -13 -5.5t-4 -14.5v-422q0 -9 -5 -12.5t-14 -3.5h-98q-9 0 -12.5 3.5t-3.5 12.5v422q0 9 -6 14.5t-15 5.5h-164q-11 0 -15 -5.5t-4 -14.5v-422q0 -9 -5 -12.5
t-12 -3.5h-101q-9 0 -12.5 3t-3.5 12v527q0 9 3.5 14t12.5 5h101q7 0 12 -5t5 -14v-17q0 -9 4 -12.5t16 0.5l172 52q3 0 6.5 1t6.5 2q4 1 8 1.5t8 0.5q31 0 55.5 -14t41.5 -41q3 -5 9 -7t12 2l191 55q5 1 12.5 3t14.5 2q47 0 82 -34t35 -83z" />
    <glyph glyph-name="n" unicode="n" horiz-adv-x="609" 
d="M558 411v-438q0 -9 -5 -12t-13 -3h-100q-9 0 -12.5 3.5t-3.5 12.5v422q0 9 -5.5 14.5t-14.5 5.5h-183q-11 0 -15.5 -5.5t-4.5 -14.5v-422q0 -9 -5 -12.5t-11 -3.5h-101q-9 0 -13 3t-4 12v527q0 9 4 14t13 5h101q6 0 11 -5t5 -14v-17q0 -9 4 -12t16 0l191 52q3 0 6.5 1
t7.5 2t7.5 1.5t7.5 0.5q49 0 83 -35.5t34 -81.5z" />
    <glyph glyph-name="o" unicode="o" horiz-adv-x="592" 
d="M415 77v318q0 9 -5 14.5t-15 5.5h-184q-11 0 -15.5 -5.5t-4.5 -14.5v-318q0 -9 4.5 -13t15.5 -4h184q10 0 15 4t5 13zM195 -43q-32 0 -58 12t-44 31q-18 20 -27.5 45t-9.5 51v219q0 39 17.5 69.5t53.5 51.5l110 64q16 9 33.5 14t35.5 5h105q23 0 47.5 -9t44.5 -27
q21 -18 34 -44.5t13 -61.5v-217q0 -39 -17 -70t-51 -52l-113 -64q-17 -10 -34 -13.5t-35 -3.5h-105z" />
    <glyph glyph-name="p" unicode="p" horiz-adv-x="600" 
d="M425 78v317q0 10 -5.5 15.5t-14.5 5.5h-184q-11 0 -15 -5.5t-4 -15.5v-317q0 -9 4 -13t15 -4h184q9 0 14.5 4t5.5 13zM559 411v-253q0 -40 -17.5 -70t-51.5 -51l-109 -62q-16 -10 -33.5 -13.5t-34.5 -3.5h-92q-11 0 -15 -6t-4 -15v-202q0 -9 -5 -14.5t-12 -5.5h-101
q-9 0 -13 5.5t-4 14.5v765q0 9 4 14t13 5h101q7 0 12 -5t5 -14v-17q0 -9 4 -12t15 0l191 52q4 0 8 1l8 2t7.5 1.5t7.5 0.5q21 0 41.5 -8.5t37.5 -23.5q16 -16 26.5 -37.5t10.5 -47.5z" />
    <glyph glyph-name="q" unicode="q" horiz-adv-x="600" 
d="M414 78v317q0 10 -5 15.5t-15 5.5h-185q-11 0 -15 -5.5t-4 -15.5v-317q0 -9 4 -13t15 -4h185q10 0 15 4t5 13zM172 -51q-24 0 -45 9.5t-37 25.5q-16 15 -25 36t-9 44v252q0 40 17.5 70.5t53.5 50.5l106 62q16 10 33 15t36 5h229q9 0 13 -5t4 -14v-765q0 -9 -4 -14.5
t-13 -5.5h-102q-8 0 -11.5 5.5t-3.5 14.5v255q0 9 -5 13t-14 1l-193 -52q-9 -3 -16 -3h-14z" />
    <glyph glyph-name="r" unicode="r" horiz-adv-x="414" 
d="M427 431q0 -8 -5 -11.5t-13 -3.5h-197q-10 0 -14 -5.5t-4 -14.5v-422q0 -9 -5.5 -12.5t-12.5 -3.5h-101q-9 0 -12.5 3t-3.5 12v527q0 9 3.5 14t12.5 5h101q7 0 12.5 -5t5.5 -14v-16q0 -9 4 -12.5t14 -3.5h5t6 2l58 38q15 8 32 12.5t37 4.5h59q8 0 13 -4.5t5 -12.5v-77z
" />
    <glyph glyph-name="s" unicode="s" horiz-adv-x="539" 
d="M511 154q0 -41 -16.5 -70.5t-48.5 -49.5l-107 -61q-17 -9 -33.5 -12.5t-33.5 -3.5h-202q-9 0 -13 3t-4 12v68q0 9 4 14.5t14 5.5h291q7 0 12.5 3.5t5.5 10.5v98q0 8 -5.5 13.5t-12.5 5.5h-193q-30 0 -54 9.5t-42 27.5q-21 19 -30 42.5t-9 51.5q0 40 15.5 69.5t49.5 49.5
l105 61q16 9 32.5 13.5t34.5 4.5h189q8 0 13.5 -5t5.5 -14v-69q0 -8 -5.5 -11.5t-13.5 -3.5h-277q-10 0 -14 -5.5t-4 -14.5v-85q0 -10 4 -13.5t14 -3.5h192q28 0 52.5 -10t43.5 -29q20 -20 30 -44t10 -51v-7z" />
    <glyph glyph-name="t" unicode="t" horiz-adv-x="433" 
d="M208 -43q-32 0 -57.5 11.5t-43.5 31.5q-19 19 -28.5 44t-9.5 51v505q0 9 3.5 14.5t12.5 9.5l103 26q6 1 11.5 -2t5.5 -10v-105q0 -8 3 -11t10 -3h182q9 0 14 -5t5 -14v-69q0 -8 -5 -11.5t-14 -3.5h-177q-10 0 -14 -5.5t-4 -15.5v-317q0 -9 4 -13t14 -4h198q9 0 14 -4.5
t5 -12.5t-4 -13.5t-12 -9.5l-79 -47q-17 -10 -34.5 -13.5t-35.5 -3.5h-67z" />
    <glyph glyph-name="u" unicode="u" horiz-adv-x="609" 
d="M182 -51q-46 0 -80.5 33t-34.5 82v436q0 9 4 14t13 5h101q6 0 11 -5t5 -14v-422q0 -9 4.5 -13t15.5 -4h183q9 0 14.5 4t5.5 13v422q0 9 3.5 14t12.5 5h100q8 0 13 -5t5 -14v-527q0 -9 -5 -12t-13 -3h-100q-9 0 -12.5 3.5t-3.5 12.5v16q0 9 -5.5 13t-13.5 1l-192 -52
q-8 -3 -16 -3h-15z" />
    <glyph glyph-name="v" unicode="v" horiz-adv-x="563" 
d="M563 502l-163 -529q-4 -9 -10 -12t-15 -3h-183q-9 0 -14.5 3t-7.5 12l-165 529q-2 8 0 12.5t11 4.5h105q9 0 14.5 -4.5t8.5 -13.5l127 -446q1 -6 4 -8.5t8 -2.5t9 2.5t6 8.5l126 446q2 9 9 13.5t16 4.5h101q8 0 10.5 -4.5t2.5 -12.5z" />
    <glyph glyph-name="w" unicode="w" horiz-adv-x="951" 
d="M969 502l-148 -528q-3 -9 -8 -12.5t-12 -3.5h-178q-9 0 -14.5 3.5t-7.5 12.5l-108 447q-2 4 -4 7t-7 3q-6 0 -8.5 -3t-2.5 -7l-111 -448q-2 -9 -7 -12t-13 -3h-179q-9 0 -14 3.5t-6 12.5l-146 528q-1 8 1.5 12.5t9.5 4.5h105q7 0 12.5 -4.5t8.5 -13.5l110 -446
q0 -6 2.5 -8.5t8.5 -2.5q5 0 7.5 2.5t5.5 8.5l108 446q2 9 7.5 13.5t13.5 4.5h173q8 0 12.5 -4.5t7.5 -13.5l109 -446q0 -6 3.5 -8.5t8.5 -2.5t7.5 2.5t4.5 8.5l110 446q1 9 7 13.5t13 4.5h106q8 0 10 -4.5t2 -12.5z" />
    <glyph glyph-name="x" unicode="x" horiz-adv-x="556" 
d="M559 -29q4 -9 2.5 -11t-10.5 -2h-122q-9 0 -15.5 2.5t-9.5 11.5l-111 185q-6 7 -11 7t-10 -7l-109 -185q-5 -9 -12 -11.5t-14 -2.5h-124q-9 0 -10 2t3 11l184 254q6 7 6 14.5t-6 16.5l-179 248q-5 8 -4 11.5t10 3.5h123q9 0 15.5 -4t12.5 -12l104 -177q2 -4 4.5 -5.5
t5.5 -1.5t5.5 1.5t5.5 5.5l107 177q3 8 9 12t15 4h123q8 0 9 -3.5t-2 -11.5l-179 -248q-6 -9 -6 -16.5t6 -14.5z" />
    <glyph glyph-name="y" unicode="y" horiz-adv-x="609" 
d="M184 -52q-29 0 -51 10.5t-37 26.5q-15 17 -22 37.5t-7 40.5v437q0 9 4 14t13 5h100q7 0 12 -5t5 -14v-422q0 -9 4 -13.5t15 -4.5h183q9 0 14.5 4.5t5.5 13.5v422q0 9 4 14t13 5h100q8 0 13 -5t5 -14v-637q0 -12 -3.5 -23.5t-8.5 -22.5l-68 -111q-5 -7 -11.5 -11.5
t-13.5 -4.5h-13q-9 0 -13 5t-4 13v282q0 9 -5 12.5t-13 1.5l-192 -54q-7 -2 -15 -2h-14z" />
    <glyph glyph-name="z" unicode="z" horiz-adv-x="536" 
d="M507 -27q0 -9 -4 -12t-12 -3h-441q-9 0 -12 3t-3 12v49q0 9 1.5 17t7.5 16l280 345q6 7 4.5 12t-10.5 5h-253q-9 0 -12 4t-3 13v66q0 9 2.5 14t11.5 5h421q8 0 12.5 -5t4.5 -14v-47q0 -9 -3 -17t-8 -14l-279 -349q-7 -7 -5 -11t14 -4h270q8 0 12 -4.5t4 -13.5v-67z" />
    <glyph glyph-name="braceleft" unicode="{" horiz-adv-x="447" 
d="M279 -159q-33 0 -59 10t-45 26q-18 17 -27.5 37.5t-9.5 42.5v318q0 6 -5 11t-12 5h-101q-10 0 -13.5 2.5t-3.5 9.5v53q0 6 3.5 9.5t13.5 3.5h101q7 0 12 3t5 11v249q0 32 18 56.5t54 42.5l110 51q17 7 34 11t36 4h57q9 0 14.5 -3.5t5.5 -9.5v-57q0 -6 -5.5 -8.5
t-14.5 -2.5h-153q-11 0 -15.5 -5.5t-4.5 -11.5v-258q0 -26 -13 -47.5t-38 -37.5q-3 -3 -4.5 -6.5t-1.5 -6.5q0 -4 1.5 -7t4.5 -5q25 -16 38 -37.5t13 -48.5v-307q0 -7 5 -11t16 -4h164q9 0 13.5 -3.5t4.5 -9.5q0 -5 -4 -10t-12 -9l-77 -36q-16 -7 -33 -10.5t-36 -3.5h-36z
" />
    <glyph glyph-name="bar" unicode="|" horiz-adv-x="263" 
d="M197 -146q0 -6 -5 -9.5t-14 -3.5h-85q-9 0 -12 3.5t-3 9.5v930q0 6 3 9.5t12 3.5h85q9 0 14 -3.5t5 -9.5v-930z" />
    <glyph glyph-name="braceright" unicode="}" horiz-adv-x="447" 
d="M322 682v-301q0 -7 5 -10t14 -3h102q8 0 12 -3.5t4 -9.5v-52q0 -9 -4 -12t-12 -3h-102q-9 0 -14 -4t-5 -11v-267q0 -33 -17.5 -58t-52.5 -40l-110 -53q-18 -7 -35.5 -10.5t-35.5 -3.5h-59q-7 0 -10.5 3.5t-3.5 9.5v55q0 7 3.5 10.5t11.5 3.5h156q9 0 14.5 4t5.5 11v279
q0 26 11.5 47t37.5 39q3 2 5 4.5t2 7.5q0 3 -2 5t-5 4q-26 16 -37.5 38.5t-11.5 49.5v287q0 6 -5.5 11.5t-14.5 5.5h-166q-8 0 -12 2.5t-4 8.5t3.5 10.5t10.5 7.5l79 37q14 7 30.5 11t34.5 4h38q25 0 49.5 -8t44.5 -23q20 -14 32.5 -35.5t12.5 -48.5z" />
    <glyph glyph-name="asciitilde" unicode="~" horiz-adv-x="598" 
d="M555 303q-34 -34 -71.5 -50t-79.5 -16q-26 0 -55.5 7.5t-62.5 26.5q-22 11 -40 17t-32 6q-24 0 -46 -9.5t-43 -27.5q-6 -8 -12.5 -8t-13.5 8l-47 52q-6 6 -6 11t6 12q33 33 71.5 49.5t80.5 16.5q24 0 54 -9.5t63 -25.5q21 -14 39.5 -20t33.5 -6q23 0 45 10t45 31
q6 5 11 5t13 -5l47 -53q6 -6 6 -12t-6 -10z" />
    <glyph glyph-name="exclamdown" unicode="&#xa1;" horiz-adv-x="286" 
d="M221 -25q0 -8 -4.5 -12t-12.5 -4h-111q-7 0 -10.5 4t-3.5 12l13 490q0 9 4 13.5t14 4.5h77q9 0 14 -4.5t7 -13.5zM217 679v-83q0 -9 -5 -12.5t-14 -3.5h-101q-7 0 -10.5 3.5t-3.5 12.5v83q0 8 3.5 11.5t10.5 3.5h101q9 0 14 -3.5t5 -11.5z" />
    <glyph glyph-name="cent" unicode="&#xa2;" horiz-adv-x="525" 
d="M241 61q10 0 15 4t5 13v319q0 9 -5 14.5t-12 5.5h-41q-9 0 -14 -5.5t-5 -15.5v-318q0 -9 5 -13t14 -4h38zM385 -60v-91q0 -10 -5.5 -13.5t-11.5 -3.5h-90q-9 0 -13 3.5t-4 13.5v90q0 9 -5 14t-14 5h-49q-34 0 -60 12.5t-44 32.5t-27.5 44.5t-9.5 49.5v218q0 39 17.5 69.5
t53.5 51.5l125 74q6 4 9.5 8.5t3.5 13.5v95q0 8 4 13t13 5h90q6 0 11.5 -5t5.5 -13v-90q0 -9 4 -13t14 -4h91q8 0 12 -5t4 -14v-69q0 -8 -4 -11.5t-12 -3.5h-91q-10 0 -14 -5.5t-4 -14.5v-319q0 -9 4 -13t11 -4h96q8 0 12 -4.5t4 -12.5t-3.5 -14t-10.5 -9l-101 -58
q-7 -5 -9.5 -9.5t-2.5 -13.5z" />
    <glyph glyph-name="sterling" unicode="&#xa3;" horiz-adv-x="598" 
d="M234 79q0 -9 3 -11.5t12 -2.5h323q9 0 14 -4t5 -11q0 -8 -4.5 -15t-11.5 -11l-86 -48q-18 -10 -36.5 -14t-36.5 -4h-381q-9 0 -12.5 4t-3.5 13v72q0 9 3.5 13.5t13.5 4.5h80q9 0 14.5 4.5t5.5 13.5v195q0 9 -5.5 14.5t-14.5 5.5h-95q-9 0 -12 3.5t-3 12.5v67q0 9 3 14
t12 5h95q9 0 14.5 4.5t5.5 13.5v71q0 40 17.5 71t54.5 52l109 64q15 9 32.5 14t37.5 5h131q9 0 14 -5t5 -13v-74q0 -9 -5 -12.5t-14 -3.5h-228q-10 0 -14.5 -5.5t-4.5 -14.5v-149q0 -9 4.5 -13.5t14.5 -4.5h141q8 0 12 -5t4 -14v-67q0 -9 -4 -12.5t-12 -3.5h-141
q-10 0 -14.5 -5.5t-4.5 -13.5v-67q0 -34 -8 -60t-23 -53q-3 -4 -4.5 -9.5t-1.5 -10.5z" />
    <glyph glyph-name="currency" unicode="&#xa4;" 
d="M450 536q-49 0 -92 -19t-75 -51t-50 -75t-18 -91q0 -49 18 -92t50 -75t75 -50t92 -18q48 0 91 18t75 50t50.5 75t18.5 92q0 48 -18.5 91t-50.5 75t-75 51t-91 19v0zM138 -78l-68 67l113 113q-31 41 -48.5 91t-17.5 107q0 56 18 107t49 93l-114 114l68 67l114 -114
q41 31 91 48.5t107 17.5q55 0 105 -17.5t92 -47.5l114 113l69 -68q-2 -2 -18 -16t-35 -31q-20 -18 -39 -35t-28 -25q33 -42 52.5 -95t19.5 -111q0 -57 -17.5 -107t-48.5 -91l113 -113l-68 -67l-111 111q-43 -32 -93.5 -49t-106.5 -17q-57 0 -107.5 17.5t-92.5 49.5z" />
    <glyph glyph-name="yen" unicode="&#xa5;" horiz-adv-x="610" 
d="M-24 677v5.5v5.5q2 2 4 3.5t5 1.5h120q8 0 15 -4.5t13 -12.5l162 -294q2 -5 5 -7t9 -2q3 0 6.5 2t6.5 7l163 294q5 8 10.5 12.5t14.5 4.5h123q2 0 4.5 -1.5t4.5 -3.5q1 -3 1 -5.5t-1 -5.5l-255 -421q-4 -6 -6 -12t-2 -14q0 -6 2.5 -8t10.5 -2h169q10 0 15 -5t5 -14v-68
q0 -9 -5 -12.5t-15 -3.5h-164q-10 0 -14.5 -5t-4.5 -14v-123q0 -10 -4.5 -13.5t-12.5 -3.5h-105q-9 0 -13 3.5t-4 13.5v123q0 9 -5.5 14t-14.5 5h-164q-10 0 -14 3.5t-4 12.5v68q0 9 4 14t14 5h170q7 0 10.5 2t3.5 8q0 4 -1 7.5t-2 6.5q-2 3 -3.5 6t-2.5 6z" />
    <glyph glyph-name="section" unicode="&#xa7;" horiz-adv-x="616" 
d="M383 194q9 0 14 4.5t5 13.5v184q0 9 -5 14t-14 5h-164q-11 0 -15 -6t-4 -15v-183q0 -9 4 -13t15 -4h164zM536 1q0 -41 -17 -72t-52 -52l-112 -64q-17 -9 -33.5 -13.5t-34.5 -4.5h-154q-10 0 -15 4.5t-5 13.5v69q0 8 5 12t15 4h250q10 0 15 5t5 14v154q0 9 -5 15t-15 6
h-178q-31 0 -56.5 11.5t-43.5 30.5q-19 20 -29 45t-10 53v72q0 32 13 60t40 50q3 2 5.5 5t2.5 9q0 4 -2.5 8t-5.5 7q-27 21 -40 49t-13 61v60q0 40 16.5 70t52.5 52l112 64q16 9 32.5 13.5t35.5 4.5h154q9 0 14.5 -4.5t5.5 -13.5v-69q0 -9 -5.5 -12.5t-14.5 -3.5h-250
q-11 0 -15.5 -5t-4.5 -14v-161q0 -9 4.5 -13.5t15.5 -4.5h177q25 0 50 -10t45 -28t32.5 -44t12.5 -58v-65q0 -33 -13 -60t-39 -48q-4 -3 -5.5 -7t-1.5 -8q0 -5 1.5 -8.5t5.5 -6.5q26 -21 39 -49t13 -61v-62z" />
    <glyph glyph-name="dieresis" unicode="&#xa8;" horiz-adv-x="440" 
d="M406 650q0 -9 -4.5 -13.5t-13.5 -4.5h-99q-9 0 -13.5 4.5t-4.5 13.5v92q0 9 4.5 14t13.5 5h99q9 0 13.5 -5t4.5 -14v-92zM180 650q0 -9 -4.5 -13.5t-12.5 -4.5h-100q-9 0 -13.5 4.5t-4.5 13.5v92q0 9 4.5 14t13.5 5h100q8 0 12.5 -5t4.5 -14v-92z" />
    <glyph glyph-name="copyright" unicode="&#xa9;" horiz-adv-x="1036" 
d="M996 297q0 -107 -30.5 -197t-90.5 -155t-150 -101.5t-209 -36.5t-208.5 36.5t-149.5 101.5t-90 155t-30 197t30 197.5t90 155.5q60 66 149.5 103t208.5 37t209 -37t150 -103q60 -65 90.5 -155.5t30.5 -197.5zM881 297q0 85 -20 156.5t-64 123.5q-43 51 -112.5 80
t-168.5 29t-168.5 -29t-112.5 -80q-43 -52 -62.5 -123.5t-19.5 -156.5t19.5 -156t62.5 -122t112.5 -79.5t168.5 -28.5t168.5 28.5t112.5 79.5q44 51 64 122t20 156zM432 60q-33 0 -59 12.5t-44 32.5t-27.5 45t-9.5 50v157q0 39 17.5 69.5t53.5 51.5l111 65q15 9 32.5 14
t35.5 5h142q8 0 12 -5t4 -14v-69q0 -8 -4 -11.5t-12 -3.5h-233q-9 0 -14 -5.5t-5 -15.5v-258q0 -9 5 -13t14 -4h255q8 0 12 -4.5t4 -12.5t-3.5 -14t-10.5 -9l-80 -46q-17 -10 -34.5 -13.5t-35.5 -3.5h-126z" />
    <glyph glyph-name="ordfeminine" unicode="&#xaa;" 
d="M680 110h-111q-6 12 -11 28t-5 35q-25 -26 -72.5 -49t-94.5 -28q-73 -8 -126 21.5t-59 107.5q-6 70 28.5 116t90.5 66q21 7 42.5 12.5t42.5 9.5q20 4 39 7.5t34 7.5q22 5 48.5 20t26.5 45q0 27 -28.5 50t-88.5 23q-51 0 -83.5 -25.5t-29.5 -76.5h-104q-3 44 13.5 80.5
t46.5 63.5q30 26 70.5 40.5t87.5 14.5q44 0 84.5 -12t71.5 -34t49.5 -54t18.5 -71v-304q0 -34 9 -63.5t10 -30.5v0zM736 -82h-566v93h566v-93zM554 329v46q-10 -7 -27 -14.5t-31 -10.5q-16 -5 -34 -9l-36 -8t-33.5 -8.5t-25.5 -8.5q-30 -12 -44.5 -33t-8.5 -48
q6 -24 38.5 -30.5t71.5 4.5q24 6 47 18.5t42 29.5q18 16 29.5 34.5t11.5 37.5v0z" />
    <glyph glyph-name="guillemotleft" unicode="&#xab;" horiz-adv-x="596" 
d="M339 -27q4 -8 2 -12.5t-11 -4.5h-120q-9 0 -16.5 3.5t-11.5 11.5l-172 250q-6 7 -6 14.5t6 15.5l172 251q4 6 11.5 10t16.5 4h120q9 0 11 -5t-2 -11l-177 -251q-5 -8 -5 -13.5t5 -12.5zM582 -28q4 -8 2 -12.5t-11 -4.5h-120q-9 0 -16.5 3.5t-11.5 11.5l-172 250
q-6 7 -6 14.5t6 15.5l172 251q4 6 11.5 10t16.5 4h120q9 0 11 -5t-2 -11l-177 -251q-5 -8 -5 -13.5t5 -12.5z" />
    <glyph glyph-name="uni00AD" unicode="&#xad;" 
d="M644 147h-391v122h391v-122z" />
    <glyph glyph-name="registered" unicode="&#xae;" horiz-adv-x="1036" 
d="M996 297q0 -107 -30.5 -197t-90.5 -155t-150 -101.5t-209 -36.5t-208.5 36.5t-149.5 101.5t-90 155t-30 197t30 197.5t90 155.5q60 66 149.5 103t208.5 37t209 -37t150 -103q60 -65 90.5 -155.5t30.5 -197.5zM881 297q0 85 -20 156.5t-64 123.5q-43 51 -112.5 80
t-168.5 29t-168.5 -29t-112.5 -80q-43 -52 -62.5 -123.5t-19.5 -156.5t19.5 -156t62.5 -122t112.5 -79.5t168.5 -28.5t168.5 28.5t112.5 79.5q44 51 64 122t20 156zM617 340v104q0 9 -5 14.5t-14 5.5h-164q-9 0 -13 -5.5t-4 -14.5v-105q0 -10 4 -14.5t13 -4.5h164q9 0 14 5
t5 15zM748 455l-1 -63q0 -34 -14.5 -53t-41.5 -39l-28 -17q-9 -6 -11 -12t4 -15l115 -197q3 -9 0.5 -13t-12.5 -4h-112q-9 0 -16 3t-10 12l-80 161q-5 8 -12.5 12.5t-16.5 4.5h-74q-9 0 -13 -5.5t-4 -14.5v-155q0 -11 -6 -14.5t-15 -3.5h-91q-9 0 -12 3.5t-3 13.5v486
q0 9 3 13.5t12 4.5h91q9 0 15 -4.5t6 -13.5v-8q0 -10 4.5 -13.5t14.5 -0.5l176 36q5 0 9.5 1t9.5 1q4 1 8 1.5t8 0.5q48 0 72.5 -30t24.5 -78z" />
    <glyph glyph-name="macron" unicode="&#xaf;" horiz-adv-x="428" 
d="M383 621q0 -8 -5.5 -11.5t-14.5 -3.5h-287q-9 0 -13 3.5t-4 11.5v92q0 9 4 14t13 5h287q9 0 14.5 -5t5.5 -14v-92z" />
    <glyph glyph-name="degree" unicode="&#xb0;" horiz-adv-x="452" 
d="M412 629q0 -42 -14 -76t-41 -60q-28 -27 -65 -39.5t-82 -12.5t-81.5 12.5t-63.5 39.5q-29 26 -42.5 60t-13.5 76q0 41 13.5 75.5t42.5 61.5q27 25 63.5 38.5t81.5 13.5t82 -13.5t65 -38.5q27 -27 41 -61.5t14 -75.5zM289 629q0 42 -20 63.5t-59 21.5q-41 0 -60 -21.5
t-19 -63.5q0 -43 19 -63.5t60 -20.5q39 0 59 20.5t20 63.5z" />
    <glyph glyph-name="plusminus" unicode="&#xb1;" horiz-adv-x="671" 
d="M549 -32q0 -8 -5.5 -11.5t-14.5 -3.5h-425q-9 0 -13 3.5t-4 11.5v77q0 9 4 14t13 5h425q9 0 14.5 -5t5.5 -14v-77zM591 341q0 -10 -5 -14t-14 -4h-169q-9 0 -13 -5t-4 -14v-185q0 -9 -4.5 -12.5t-13.5 -3.5h-98q-9 0 -12.5 3.5t-3.5 12.5v185q0 9 -5.5 14t-14.5 5h-169
q-9 0 -12.5 4t-3.5 14v75q0 8 3.5 13t12.5 5h169q9 0 14.5 4t5.5 15v187q0 9 3.5 14t12.5 5h98q9 0 13.5 -5t4.5 -14v-187q0 -11 4 -15t13 -4h169q9 0 14 -5t5 -13v-75z" />
    <glyph glyph-name="uni00B2" unicode="&#xb2;" horiz-adv-x="425" 
d="M212 494h-205q0 31 9.5 53.5t26.5 39.5q16 17 37.5 31t44.5 29q15 9 23.5 20.5t8.5 25.5q0 20 -11 31t-33 11q-27 0 -36 -15.5t-9 -39.5h-53q0 38 24 70t75 32q48 0 72 -27.5t24 -61.5q0 -36 -21 -55.5t-37 -29.5q-10 -6 -21.5 -13.5t-22.5 -15.5q-12 -9 -21.5 -18
t-15.5 -19h141v-48z" />
    <glyph glyph-name="uni00B3" unicode="&#xb3;" horiz-adv-x="425" 
d="M163 582q0 12 -9.5 21.5t-22.5 13.5q-6 1 -11.5 1.5t-11.5 1.5h-11h-11v47q4 0 10 -0.5t12 -0.5t11.5 1t10.5 3q13 6 18.5 14t5.5 20t-10 21.5t-32 9.5q-26 0 -36 -14t-8 -33h-52q-2 48 28 71t69 23q37 0 66 -21.5t29 -56.5q0 -21 -8.5 -35.5t-18.5 -22.5q16 -11 26 -27
t10 -39q0 -39 -29 -66t-74 -27t-76.5 27.5t-28.5 74.5h53q-1 -22 11 -38t41 -16q22 0 35.5 14.5t13.5 32.5v0z" />
    <glyph glyph-name="acute" unicode="&#xb4;" horiz-adv-x="387" 
d="M44 618q0 4 1 7t4 6l191 204q6 6 12.5 6t12.5 -6l76 -76q4 -8 4 -13.5t-4 -11.5l-120 -119q-6 -7 -13 -9.5t-16 -2.5h-132q-8 0 -12 4t-4 11z" />
    <glyph glyph-name="paragraph" unicode="&#xb6;" horiz-adv-x="740" 
d="M697 713q0 -10 -4.5 -14.5t-13.5 -4.5h-39q-9 0 -13.5 -4.5t-4.5 -12.5v-863q0 -10 -4.5 -14.5t-13.5 -4.5h-101q-9 0 -13.5 4.5t-4.5 14.5v863q0 8 -4.5 12.5t-12.5 4.5h-51q-10 0 -14.5 -4.5t-4.5 -12.5v-863q0 -10 -4.5 -14.5t-12.5 -4.5h-101q-9 0 -13 4.5t-4 14.5
v498q0 9 -5 13.5t-14 4.5h-49q-24 0 -45 8t-37 26q-18 16 -26 37t-8 45v255q0 24 8 44t26 38q16 16 37 25t45 9h484q9 0 13.5 -4.5t4.5 -13.5v-86z" />
    <glyph glyph-name="periodcentered" unicode="&#xb7;" horiz-adv-x="425" 
d="M281 254q0 -9 -4.5 -13t-11.5 -4h-99q-10 0 -14.5 4t-4.5 13v90q0 9 4.5 13.5t14.5 4.5h99q7 0 11.5 -4.5t4.5 -13.5v-90z" />
    <glyph glyph-name="cedilla" unicode="&#xb8;" horiz-adv-x="228" 
d="M185 -141q0 -12 -3 -23t-8 -23l-67 -112q-5 -6 -11.5 -10.5t-14.5 -4.5h-12q-10 0 -14 5t-4 11v185q0 9 4 13.5t14 4.5h99q8 0 12.5 -4.5t4.5 -13.5v-28z" />
    <glyph glyph-name="uni00B9" unicode="&#xb9;" horiz-adv-x="425" 
d="M42 695v39q17 0 29 3t20 9q4 3 8.5 11.5t4.5 23.5h40v-291h-46v205h-56z" />
    <glyph glyph-name="ordmasculine" unicode="&#xba;" 
d="M450 681q55 0 99.5 -23.5t75.5 -63.5q30 -40 47 -93.5t17 -113.5t-17 -113.5t-48 -92.5q-31 -40 -75.5 -63t-99.5 -23q-56 0 -100.5 23t-75.5 63q-32 39 -48.5 92.5t-16.5 113.5t17 113.5t48 93.5q32 40 76.5 63.5t100.5 23.5v0zM739 -84h-570v97h570v-97zM449 200
q30 0 54.5 14.5t42.5 39.5q17 26 27 60t10 73t-10 74t-27 61q-18 26 -42.5 41t-54.5 15q-63 0 -98 -55.5t-35 -135.5q0 -39 9 -73t26 -60q17 -25 41.5 -39.5t56.5 -14.5v0z" />
    <glyph glyph-name="guillemotright" unicode="&#xbb;" horiz-adv-x="596" 
d="M253 -27l177 250q4 7 4 12.5t-4 13.5l-177 251q-5 6 -2.5 11t11.5 5h120q9 0 16 -4t12 -10l172 -251q5 -8 5 -15.5t-5 -14.5l-172 -250q-5 -8 -12 -11.5t-16 -3.5h-120q-9 0 -11.5 4.5t2.5 12.5zM10 -28l177 250q4 7 4 12.5t-4 13.5l-177 251q-5 6 -2.5 11t11.5 5h120
q9 0 16 -4t12 -10l172 -251q5 -8 5 -15.5t-5 -14.5l-172 -250q-5 -8 -12 -11.5t-16 -3.5h-120q-9 0 -11.5 4.5t2.5 12.5z" />
    <glyph glyph-name="onequarter" unicode="&#xbc;" 
d="M279 329h-86v282h-96v69q22 0 42.5 5t36.5 14q11 8 20.5 22t9.5 32h73v-424zM725 715l72 -47l-671 -819l-71 51zM810 -99h-57v-59h-84v59h-203v81l204 284h83v-292h57v-73zM669 -30v171l-114 -171h114z" />
    <glyph glyph-name="onehalf" unicode="&#xbd;" 
d="M278 330h-87v282h-96v69q23 0 43 5t37 14q10 8 19 22t9 32h75v-424zM817 -170h-316q0 46 17.5 92.5t80.5 90.5l80 53q17 12 32.5 28t18.5 43q1 24 -15.5 44t-49.5 20q-36 0 -54.5 -22.5t-16.5 -55.5h-85q-1 27 9 53.5t30 47.5q19 20 48.5 33t68.5 13q72 0 111.5 -40.5
t39.5 -91.5q0 -25 -8 -44t-20 -34t-27 -26.5t-28 -21.5l-88 -61q-17 -12 -28 -26.5t-16 -26.5h216v-68zM725 715l72 -47l-671 -819l-71 51z" />
    <glyph glyph-name="threequarters" unicode="&#xbe;" 
d="M302 558q30 -12 51 -39.5t21 -60.5q0 -55 -46.5 -93.5t-115.5 -38.5q-35 0 -65 10t-52 28q-22 19 -34.5 45t-10.5 59h87q-3 -32 18 -50t57 -18q33 0 53.5 16.5t23.5 42.5q1 19 -12.5 34.5t-37.5 21.5q-14 3 -30.5 4t-30.5 1v74q20 0 37 1.5t30 7.5q12 6 20 17.5t10 29.5
t-13.5 36t-49.5 18t-50.5 -19t-14.5 -44h-85q-3 56 41 93t109 37t106.5 -35.5t41.5 -83.5q0 -39 -19 -62t-39 -32v0zM810 -99h-57v-59h-84v59h-203v81l204 284h83v-292h57v-73zM669 -30v171l-114 -171h114zM735 715l71 -47l-670 -819l-71 51z" />
    <glyph glyph-name="questiondown" unicode="&#xbf;" horiz-adv-x="458" 
d="M217 679q0 8 3.5 11.5t12.5 3.5h101q8 0 12.5 -3.5t4.5 -11.5v-83q0 -9 -4.5 -12.5t-12.5 -3.5h-101q-9 0 -12.5 3.5t-3.5 12.5v83zM158 336h46q9 0 13 5t4 14v110q0 9 4 13.5t12 4.5h96q8 0 12.5 -4t4.5 -13v-92q0 -31 -9.5 -56.5t-29.5 -45.5q-19 -20 -45 -30t-56 -10
h-47q-10 0 -15.5 -4t-5.5 -12v-135q0 -10 5.5 -15.5t15.5 -5.5h250q10 0 14 -3t4 -10q0 -8 -3.5 -14t-12.5 -10l-78 -46q-16 -9 -33.5 -13.5t-37.5 -4.5h-108q-22 0 -47 8t-47 25q-21 18 -35 44.5t-14 64.5v96q0 22 8 46.5t25 44.5q17 21 44 34.5t66 13.5z" />
    <glyph glyph-name="Agrave" unicode="&#xc0;" horiz-adv-x="657" 
d="M669 -26q3 -9 -0.5 -12.5t-12.5 -3.5h-107q-9 0 -15 3.5t-8 13.5l-43 151q-4 7 -10 12.5t-15 5.5h-245q-9 0 -15.5 -5.5t-7.5 -12.5l-44 -151q-3 -10 -8 -13.5t-15 -3.5h-109q-9 0 -11.5 3.5t0.5 12.5l214 702q2 8 8 12.5t15 4.5h190q10 0 16.5 -4.5t9.5 -12.5zM442 270
l-92 321q-2 4 -5.5 7t-9.5 3t-9 -3t-5 -7l-91 -321q-3 -11 0.5 -14.5t12.5 -3.5h183q11 0 15 3.5t1 14.5zM415 765q0 -7 -4.5 -11t-11.5 -4h-132q-9 0 -16.5 2.5t-12.5 9.5l-120 119q-5 6 -5 11.5t5 13.5l76 76q6 6 12 6t13 -6l191 -204q2 -3 3.5 -6t1.5 -7z" />
    <glyph glyph-name="Aacute" unicode="&#xc1;" horiz-adv-x="657" 
d="M669 -26q3 -9 -0.5 -12.5t-12.5 -3.5h-107q-9 0 -15 3.5t-8 13.5l-43 151q-4 7 -10 12.5t-15 5.5h-245q-9 0 -15.5 -5.5t-7.5 -12.5l-44 -151q-3 -10 -8 -13.5t-15 -3.5h-109q-9 0 -11.5 3.5t0.5 12.5l214 702q2 8 8 12.5t15 4.5h190q10 0 16.5 -4.5t9.5 -12.5zM442 270
l-92 321q-2 4 -5.5 7t-9.5 3t-9 -3t-5 -7l-91 -321q-3 -11 0.5 -14.5t12.5 -3.5h183q11 0 15 3.5t1 14.5zM249 776q0 4 1 7t4 6l191 204q6 6 12.5 6t12.5 -6l76 -76q4 -8 4 -13.5t-4 -11.5l-120 -119q-6 -7 -13 -9.5t-16 -2.5h-132q-8 0 -12 4t-4 11z" />
    <glyph glyph-name="Acircumflex" unicode="&#xc2;" horiz-adv-x="657" 
d="M669 -26q3 -9 -0.5 -12.5t-12.5 -3.5h-107q-9 0 -15 3.5t-8 13.5l-43 151q-4 7 -10 12.5t-15 5.5h-245q-9 0 -15.5 -5.5t-7.5 -12.5l-44 -151q-3 -10 -8 -13.5t-15 -3.5h-109q-9 0 -11.5 3.5t0.5 12.5l214 702q2 8 8 12.5t15 4.5h190q10 0 16.5 -4.5t9.5 -12.5zM442 270
l-92 321q-2 4 -5.5 7t-9.5 3t-9 -3t-5 -7l-91 -321q-3 -11 0.5 -14.5t12.5 -3.5h183q11 0 15 3.5t1 14.5zM335 990q6 0 9.5 -2.5t8.5 -6.5l197 -192q3 -4 5 -8t2 -7q0 -6 -4.5 -9.5t-13.5 -3.5h-110q-10 0 -16 2.5t-12 9.5l-52 56q-4 3 -7.5 5t-6.5 2q-4 0 -7.5 -2t-6.5 -5
l-52 -56q-6 -7 -12.5 -9.5t-15.5 -2.5h-110q-9 0 -13.5 3.5t-4.5 9.5q0 3 1.5 7t5.5 8l197 192q4 4 8 6.5t10 2.5z" />
    <glyph glyph-name="Atilde" unicode="&#xc3;" horiz-adv-x="657" 
d="M669 -26q3 -9 -0.5 -12.5t-12.5 -3.5h-107q-9 0 -15 3.5t-8 13.5l-43 151q-4 7 -10 12.5t-15 5.5h-245q-9 0 -15.5 -5.5t-7.5 -12.5l-44 -151q-3 -10 -8 -13.5t-15 -3.5h-109q-9 0 -11.5 3.5t0.5 12.5l214 702q2 8 8 12.5t15 4.5h190q10 0 16.5 -4.5t9.5 -12.5zM442 270
l-92 321q-2 4 -5.5 7t-9.5 3t-9 -3t-5 -7l-91 -321q-3 -11 0.5 -14.5t12.5 -3.5h183q11 0 15 3.5t1 14.5zM588 831q-34 -34 -71.5 -50t-79.5 -16q-26 0 -55.5 7.5t-62.5 26.5q-22 11 -40 17t-32 6q-24 0 -46 -9.5t-43 -27.5q-6 -8 -12.5 -8t-13.5 8l-47 57q-6 6 -6 11t6 12
q33 33 71.5 49.5t80.5 16.5q24 0 54 -9.5t63 -25.5q21 -14 39.5 -20t33.5 -6q23 0 45 10t45 31q6 5 11 5t13 -5l47 -58q6 -6 6 -12t-6 -10z" />
    <glyph glyph-name="Adieresis" unicode="&#xc4;" horiz-adv-x="657" 
d="M669 -26q3 -9 -0.5 -12.5t-12.5 -3.5h-107q-9 0 -15 3.5t-8 13.5l-43 151q-4 7 -10 12.5t-15 5.5h-245q-9 0 -15.5 -5.5t-7.5 -12.5l-44 -151q-3 -10 -8 -13.5t-15 -3.5h-109q-9 0 -11.5 3.5t0.5 12.5l214 702q2 8 8 12.5t15 4.5h190q10 0 16.5 -4.5t9.5 -12.5zM442 270
l-92 321q-2 4 -5.5 7t-9.5 3t-9 -3t-5 -7l-91 -321q-3 -11 0.5 -14.5t12.5 -3.5h183q11 0 15 3.5t1 14.5zM515 786q0 -9 -4.5 -13.5t-13.5 -4.5h-99q-9 0 -13.5 4.5t-4.5 13.5v92q0 9 4.5 14t13.5 5h99q9 0 13.5 -5t4.5 -14v-92zM289 786q0 -9 -4.5 -13.5t-12.5 -4.5h-100
q-9 0 -13.5 4.5t-4.5 13.5v92q0 9 4.5 14t13.5 5h100q8 0 12.5 -5t4.5 -14v-92z" />
    <glyph glyph-name="Aring" unicode="&#xc5;" horiz-adv-x="657" 
d="M669 -26q3 -9 -0.5 -12.5t-12.5 -3.5h-107q-9 0 -15 3.5t-8 13.5l-43 151q-4 7 -10 12.5t-15 5.5h-245q-9 0 -15.5 -5.5t-7.5 -12.5l-44 -151q-3 -10 -8 -13.5t-15 -3.5h-109q-9 0 -11.5 3.5t0.5 12.5l214 702q2 8 8 12.5t15 4.5h190q10 0 16.5 -4.5t9.5 -12.5zM442 270
l-92 321q-2 4 -5.5 7t-9.5 3t-9 -3t-5 -7l-91 -321q-3 -11 0.5 -14.5t12.5 -3.5h183q11 0 15 3.5t1 14.5zM477 873q0 -57 -40 -95t-103 -38t-103.5 38t-40.5 95q0 56 40.5 94.5t103.5 38.5t103 -38.5t40 -94.5zM385 874q0 26 -13.5 42t-37.5 16t-37.5 -16t-13.5 -42
q0 -27 13.5 -42.5t37.5 -15.5t37.5 15.5t13.5 42.5z" />
    <glyph glyph-name="AE" unicode="&#xc6;" horiz-adv-x="1002" 
d="M453 406l-19 180q-2 4 -5.5 7t-9.5 3t-9 -3t-5 -7l-83 -180q-4 -11 0 -14.5t13 -3.5h101q11 0 14 3.5t3 14.5zM523 -42q-9 0 -15.5 3.5t-7.5 13.5l-31 287q-2 7 -6.5 12.5t-13.5 5.5h-167q-9 0 -15 -5.5t-9 -12.5l-131 -287q-3 -10 -8.5 -13.5t-15.5 -3.5h-125
q-8 0 -11 3.5t0 12.5l342 702q2 8 8 12.5t15 4.5h577q8 0 13 -4.5t5 -13.5v-73q0 -9 -5 -12.5t-13 -3.5h-323q-9 0 -13.5 -5t-3.5 -14l17 -162q1 -11 5 -14.5t13 -3.5h281q9 0 14.5 -5t5.5 -14v-73q0 -9 -5.5 -13t-14.5 -4h-268q-9 0 -13.5 -5.5t-2.5 -15.5l19 -173
q0 -10 5 -14.5t14 -4.5h320q9 0 14.5 -4t5.5 -11q0 -9 -4.5 -15.5t-12.5 -10.5l-85 -48q-18 -10 -36 -14t-37 -4h-281z" />
    <glyph glyph-name="Ccedilla" unicode="&#xc7;" horiz-adv-x="643" 
d="M74 102v379q0 42 18 74t55 54l117 65q15 9 33 14t36 5h248q9 0 13.5 -4.5t4.5 -13.5v-73q0 -9 -4.5 -12.5t-13.5 -3.5h-347q-9 0 -13 -5.5t-4 -14.5v-482q0 -10 4 -14.5t13 -4.5h357q8 0 13 -4t5 -11q0 -9 -4 -15.5t-12 -10.5l-86 -48q-18 -10 -35.5 -14t-35.5 -4h-216
q-27 0 -53 9t-47 28q-21 18 -33.5 45t-12.5 62zM430 -142q0 -12 -3 -23t-8 -23l-67 -112q-5 -6 -11.5 -10.5t-14.5 -4.5h-12q-10 0 -14 5t-4 11v185q0 9 4 13.5t14 4.5h99q8 0 12.5 -4.5t4.5 -13.5v-28z" />
    <glyph glyph-name="Egrave" unicode="&#xc8;" horiz-adv-x="656" 
d="M218 -42q-36 0 -63 12.5t-46 33.5q-19 20 -28.5 46t-9.5 52v379q0 42 18 74t55 54l117 65q16 9 34 14t36 5h258q8 0 13 -4.5t5 -13.5v-73q0 -9 -5 -12.5t-13 -3.5h-357q-9 0 -13 -5.5t-4 -14.5v-161q0 -11 4 -14.5t13 -3.5h333q9 0 14.5 -5t5.5 -14v-73q0 -9 -5.5 -13
t-14.5 -4h-333q-9 0 -13 -5.5t-4 -15.5v-173q0 -10 4 -14.5t13 -4.5h367q9 0 14.5 -4t5.5 -11q0 -9 -4.5 -15.5t-12.5 -10.5l-85 -48q-18 -10 -36 -14t-37 -4h-226zM465 775q0 -7 -4.5 -11t-11.5 -4h-132q-9 0 -16.5 2.5t-12.5 9.5l-120 119q-5 6 -5 11.5t5 13.5l76 76
q6 6 12 6t13 -6l191 -204q2 -3 3.5 -6t1.5 -7z" />
    <glyph glyph-name="Eacute" unicode="&#xc9;" horiz-adv-x="697" 
d="M218 -42q-36 0 -63 12.5t-46 33.5q-19 20 -28.5 46t-9.5 52v379q0 42 18 74t55 54l117 65q16 9 34 14t36 5h258q8 0 13 -4.5t5 -13.5v-73q0 -9 -5 -12.5t-13 -3.5h-357q-9 0 -13 -5.5t-4 -14.5v-161q0 -11 4 -14.5t13 -3.5h333q9 0 14.5 -5t5.5 -14v-73q0 -9 -5.5 -13
t-14.5 -4h-333q-9 0 -13 -5.5t-4 -15.5v-173q0 -10 4 -14.5t13 -4.5h367q9 0 14.5 -4t5.5 -11q0 -9 -4.5 -15.5t-12.5 -10.5l-85 -48q-18 -10 -36 -14t-37 -4h-226zM245 775q0 4 1 7t4 6l191 204q6 6 12.5 6t12.5 -6l76 -76q4 -8 4 -13.5t-4 -11.5l-120 -119q-6 -7 -13 -9.5
t-16 -2.5h-132q-8 0 -12 4t-4 11z" />
    <glyph glyph-name="Ecircumflex" unicode="&#xca;" horiz-adv-x="697" 
d="M218 -42q-36 0 -63 12.5t-46 33.5q-19 20 -28.5 46t-9.5 52v379q0 42 18 74t55 54l117 65q16 9 34 14t36 5h258q8 0 13 -4.5t5 -13.5v-73q0 -9 -5 -12.5t-13 -3.5h-357q-9 0 -13 -5.5t-4 -14.5v-161q0 -11 4 -14.5t13 -3.5h333q9 0 14.5 -5t5.5 -14v-73q0 -9 -5.5 -13
t-14.5 -4h-333q-9 0 -13 -5.5t-4 -15.5v-173q0 -10 4 -14.5t13 -4.5h367q9 0 14.5 -4t5.5 -11q0 -9 -4.5 -15.5t-12.5 -10.5l-85 -48q-18 -10 -36 -14t-37 -4h-226zM345 990q6 0 9.5 -2.5t8.5 -6.5l197 -192q3 -4 5 -8t2 -7q0 -6 -4.5 -9.5t-13.5 -3.5h-110q-10 0 -16 2.5
t-12 9.5l-52 56q-4 3 -7.5 5t-6.5 2q-4 0 -7.5 -2t-6.5 -5l-52 -56q-6 -7 -12.5 -9.5t-15.5 -2.5h-110q-9 0 -13.5 3.5t-4.5 9.5q0 3 1.5 7t5.5 8l197 192q4 4 8 6.5t10 2.5z" />
    <glyph glyph-name="Edieresis" unicode="&#xcb;" horiz-adv-x="697" 
d="M218 -42q-36 0 -63 12.5t-46 33.5q-19 20 -28.5 46t-9.5 52v379q0 42 18 74t55 54l117 65q16 9 34 14t36 5h258q8 0 13 -4.5t5 -13.5v-73q0 -9 -5 -12.5t-13 -3.5h-357q-9 0 -13 -5.5t-4 -14.5v-161q0 -11 4 -14.5t13 -3.5h333q9 0 14.5 -5t5.5 -14v-73q0 -9 -5.5 -13
t-14.5 -4h-333q-9 0 -13 -5.5t-4 -15.5v-173q0 -10 4 -14.5t13 -4.5h367q9 0 14.5 -4t5.5 -11q0 -9 -4.5 -15.5t-12.5 -10.5l-85 -48q-18 -10 -36 -14t-37 -4h-226zM537 786q0 -9 -4.5 -13.5t-13.5 -4.5h-99q-9 0 -13.5 4.5t-4.5 13.5v92q0 9 4.5 14t13.5 5h99q9 0 13.5 -5
t4.5 -14v-92zM311 786q0 -9 -4.5 -13.5t-12.5 -4.5h-100q-9 0 -13.5 4.5t-4.5 13.5v92q0 9 4.5 14t13.5 5h100q8 0 12.5 -5t4.5 -14v-92z" />
    <glyph glyph-name="Igrave" unicode="&#xcc;" horiz-adv-x="282" 
d="M217 -26q0 -9 -5 -12.5t-14 -3.5h-106q-8 0 -11 3.5t-3 12.5v702q0 8 3 12.5t11 4.5h106q9 0 14 -4.5t5 -12.5v-702zM235 775q0 -7 -4.5 -11t-11.5 -4h-132q-9 0 -16.5 2.5t-12.5 9.5l-120 119q-4 6 -4 11.5t4 13.5l76 76q6 6 12 6t13 -6l191 -204q2 -3 3.5 -6t1.5 -7z
" />
    <glyph glyph-name="Iacute" unicode="&#xcd;" horiz-adv-x="320" 
d="M217 -26q0 -9 -5 -12.5t-14 -3.5h-106q-8 0 -11 3.5t-3 12.5v702q0 8 3 12.5t11 4.5h106q9 0 14 -4.5t5 -12.5v-702zM62 775q0 4 1 7t4 6l191 204q6 6 12.5 6t12.5 -6l76 -76q4 -8 4 -13.5t-4 -11.5l-120 -119q-6 -7 -13 -9.5t-16 -2.5h-132q-8 0 -12 4t-4 11z" />
    <glyph glyph-name="Icircumflex" unicode="&#xce;" horiz-adv-x="320" 
d="M217 -26q0 -9 -5 -12.5t-14 -3.5h-106q-8 0 -11 3.5t-3 12.5v702q0 8 3 12.5t11 4.5h106q9 0 14 -4.5t5 -12.5v-702zM145 990q6 0 9.5 -2.5t8.5 -6.5l197 -192q3 -4 5 -8t2 -7q0 -6 -4.5 -9.5t-13.5 -3.5h-110q-10 0 -16 2.5t-12 9.5l-52 56q-4 3 -7.5 5t-6.5 2
q-4 0 -7.5 -2t-6.5 -5l-52 -56q-6 -7 -12.5 -9.5t-15.5 -2.5h-110q-9 0 -13.5 3.5t-4.5 9.5q0 3 2 7t5 8l197 192q4 4 8 6.5t10 2.5z" />
    <glyph glyph-name="Idieresis" unicode="&#xcf;" horiz-adv-x="320" 
d="M217 -26q0 -9 -5 -12.5t-14 -3.5h-106q-8 0 -11 3.5t-3 12.5v702q0 8 3 12.5t11 4.5h106q9 0 14 -4.5t5 -12.5v-702zM325 786q0 -9 -4.5 -13.5t-13.5 -4.5h-99q-9 0 -13.5 4.5t-4.5 13.5v92q0 9 4.5 14t13.5 5h99q9 0 13.5 -5t4.5 -14v-92zM99 786q0 -9 -4.5 -13.5
t-12.5 -4.5h-100q-9 0 -13.5 4.5t-4.5 13.5v92q0 9 4.5 14t13.5 5h100q8 0 12.5 -5t4.5 -14v-92z" />
    <glyph glyph-name="Eth" unicode="&#xd0;" 
d="M466 686q71 0 128 -30.5t97 -81.5q40 -52 61.5 -121.5t21.5 -148.5q0 -80 -21.5 -150t-61.5 -121q-40 -52 -97 -82t-128 -30h-254v276h-144v80h144v409h254zM450 33q50 0 88.5 20t64.5 56t39.5 86t13.5 109q0 58 -13.5 107.5t-39.5 85.5q-26 35 -64.5 55.5t-88.5 20.5
h-130v-296h203v-80h-203v-164h130z" />
    <glyph glyph-name="Ntilde" unicode="&#xd1;" horiz-adv-x="779" 
d="M726 -26q0 -9 -4.5 -12.5t-12.5 -3.5h-213q-9 0 -15 3t-9 12l-254 610q-2 3 -4.5 5t-5.5 2q-6 0 -8.5 -3.5t-2.5 -7.5v-604q0 -10 -5.5 -13.5t-14.5 -3.5h-99q-8 0 -11 3.5t-3 12.5v702q0 8 3 12.5t11 4.5h216q8 0 14 -4t9 -12l254 -609q2 -3 4 -4.5t5 -1.5q5 0 9 2t4 7
v605q0 8 4.5 12.5t13.5 4.5h98q8 0 12.5 -4.5t4.5 -12.5v-702zM640 830q-34 -34 -71.5 -50t-79.5 -16q-26 0 -55.5 7.5t-62.5 26.5q-22 11 -40 17t-32 6q-24 0 -46 -9.5t-43 -27.5q-6 -8 -12.5 -8t-13.5 8l-47 57q-6 6 -6 11t6 12q33 33 71.5 49.5t80.5 16.5q24 0 54 -9.5
t63 -25.5q21 -14 39.5 -20t33.5 -6q23 0 45 10t45 31q6 5 11 5t13 -5l47 -58q6 -6 6 -12t-6 -10z" />
    <glyph glyph-name="Ograve" unicode="&#xd2;" horiz-adv-x="737" 
d="M544 566q0 9 -6.5 14.5t-17.5 5.5h-288q-10 0 -14 -5.5t-4 -14.5v-482q0 -10 4 -14.5t14 -4.5h288q11 0 17.5 4.5t6.5 14.5v482zM217 -44q-37 0 -64.5 13t-45.5 34q-19 21 -28 47t-9 52v379q0 41 18 73t55 55l117 68q16 9 33.5 14t37.5 5h206q24 0 50 -10t47 -29
q22 -19 36 -46.5t14 -63.5v-378q0 -42 -19 -74.5t-55 -53.5l-114 -67q-19 -10 -37 -14t-38 -4h-204zM475 775q0 -7 -4.5 -11t-11.5 -4h-132q-9 0 -16.5 2.5t-12.5 9.5l-120 119q-5 6 -5 11.5t5 13.5l76 76q6 6 12 6t13 -6l191 -204q2 -3 3.5 -6t1.5 -7z" />
    <glyph glyph-name="Oacute" unicode="&#xd3;" horiz-adv-x="737" 
d="M544 566q0 9 -6.5 14.5t-17.5 5.5h-288q-10 0 -14 -5.5t-4 -14.5v-482q0 -10 4 -14.5t14 -4.5h288q11 0 17.5 4.5t6.5 14.5v482zM217 -44q-37 0 -64.5 13t-45.5 34q-19 21 -28 47t-9 52v379q0 41 18 73t55 55l117 68q16 9 33.5 14t37.5 5h206q24 0 50 -10t47 -29
q22 -19 36 -46.5t14 -63.5v-378q0 -42 -19 -74.5t-55 -53.5l-114 -67q-19 -10 -37 -14t-38 -4h-204zM245 775q0 4 1 7t4 6l191 204q6 6 12.5 6t12.5 -6l76 -76q4 -8 4 -13.5t-4 -11.5l-120 -119q-6 -7 -13 -9.5t-16 -2.5h-132q-8 0 -12 4t-4 11z" />
    <glyph glyph-name="Ocircumflex" unicode="&#xd4;" horiz-adv-x="737" 
d="M544 566q0 9 -6.5 14.5t-17.5 5.5h-288q-10 0 -14 -5.5t-4 -14.5v-482q0 -10 4 -14.5t14 -4.5h288q11 0 17.5 4.5t6.5 14.5v482zM217 -44q-37 0 -64.5 13t-45.5 34q-19 21 -28 47t-9 52v379q0 41 18 73t55 55l117 68q16 9 33.5 14t37.5 5h206q24 0 50 -10t47 -29
q22 -19 36 -46.5t14 -63.5v-378q0 -42 -19 -74.5t-55 -53.5l-114 -67q-19 -10 -37 -14t-38 -4h-204zM375 989q6 0 9.5 -2.5t8.5 -6.5l197 -192q3 -4 5 -8t2 -7q0 -6 -4.5 -9.5t-13.5 -3.5h-110q-10 0 -16 2.5t-12 9.5l-52 56q-4 3 -7.5 5t-6.5 2q-4 0 -7.5 -2t-6.5 -5
l-52 -56q-6 -7 -12.5 -9.5t-15.5 -2.5h-110q-9 0 -13.5 3.5t-4.5 9.5q0 3 1.5 7t5.5 8l197 192q4 4 8 6.5t10 2.5z" />
    <glyph glyph-name="Otilde" unicode="&#xd5;" horiz-adv-x="737" 
d="M544 566q0 9 -6.5 14.5t-17.5 5.5h-288q-10 0 -14 -5.5t-4 -14.5v-482q0 -10 4 -14.5t14 -4.5h288q11 0 17.5 4.5t6.5 14.5v482zM217 -44q-37 0 -64.5 13t-45.5 34q-19 21 -28 47t-9 52v379q0 41 18 73t55 55l117 68q16 9 33.5 14t37.5 5h206q24 0 50 -10t47 -29
q22 -19 36 -46.5t14 -63.5v-378q0 -42 -19 -74.5t-55 -53.5l-114 -67q-19 -10 -37 -14t-38 -4h-204zM616 830q-34 -34 -71.5 -50t-79.5 -16q-26 0 -55.5 7.5t-62.5 26.5q-22 11 -40 17t-32 6q-24 0 -46 -9.5t-43 -27.5q-6 -8 -12.5 -8t-13.5 8l-47 57q-6 6 -6 11t6 12
q33 33 71.5 49.5t80.5 16.5q24 0 54 -9.5t63 -25.5q21 -14 39.5 -20t33.5 -6q23 0 45 10t45 31q6 5 11 5t13 -5l47 -58q6 -6 6 -12t-6 -10z" />
    <glyph glyph-name="Odieresis" unicode="&#xd6;" horiz-adv-x="737" 
d="M544 566q0 9 -6.5 14.5t-17.5 5.5h-288q-10 0 -14 -5.5t-4 -14.5v-482q0 -10 4 -14.5t14 -4.5h288q11 0 17.5 4.5t6.5 14.5v482zM217 -44q-37 0 -64.5 13t-45.5 34q-19 21 -28 47t-9 52v379q0 41 18 73t55 55l117 68q16 9 33.5 14t37.5 5h206q24 0 50 -10t47 -29
q22 -19 36 -46.5t14 -63.5v-378q0 -42 -19 -74.5t-55 -53.5l-114 -67q-19 -10 -37 -14t-38 -4h-204zM555 786q0 -9 -4.5 -13.5t-13.5 -4.5h-99q-9 0 -13.5 4.5t-4.5 13.5v92q0 9 4.5 14t13.5 5h99q9 0 13.5 -5t4.5 -14v-92zM329 786q0 -9 -4.5 -13.5t-12.5 -4.5h-100
q-9 0 -13.5 4.5t-4.5 13.5v92q0 9 4.5 14t13.5 5h100q8 0 12.5 -5t4.5 -14v-92z" />
    <glyph glyph-name="multiply" unicode="&#xd7;" horiz-adv-x="622" 
d="M566 535q7 -8 6.5 -14t-6.5 -13l-164 -165q-6 -6 -5.5 -13t6.5 -13l178 -174q6 -6 5.5 -12t-7.5 -12l-61 -54q-6 -7 -10.5 -7t-10.5 7l-173 173q-6 6 -13.5 6t-13.5 -6l-178 -177q-6 -6 -12 -6t-12 7l-53 53q-6 6 -6.5 12t5.5 12l177 177q6 6 7 13t-6 15l-162 161
q-7 6 -8 12t6 13l55 55q6 6 12.5 5.5t13.5 -6.5l162 -161q7 -8 13.5 -8t12.5 6l164 166q6 6 13 6t12 -5z" />
    <glyph glyph-name="Oslash" unicode="&#xd8;" horiz-adv-x="737" 
d="M248 65q8 0 13.5 4t8.5 13l104 486q1 9 -2 13.5t-12 4.5h-128q-10 0 -14 -5.5t-4 -14.5v-482q0 -10 4 -14.5t14 -4.5h16zM406 65h114q11 0 17.5 4.5t6.5 14.5v482q0 9 -6.5 14.5t-17.5 5.5q-9 0 -14.5 -4.5t-7.5 -13.5l-106 -486q-2 -9 1.5 -13t12.5 -4zM383 696
q8 0 13 3.5t8 12.5l23 88q1 8 6.5 12.5t15.5 4.5h86q9 0 12 -4.5t2 -12.5l-21 -96q-2 -5 0.5 -7t8.5 -1q24 0 50 -10t47 -29q22 -19 36 -46.5t14 -63.5v-378q0 -42 -19 -74.5t-55 -53.5l-114 -67q-19 -10 -37 -14t-38 -4h-37q-9 0 -14 -4.5t-7 -12.5l-20 -91q-3 -9 -8.5 -13
t-13.5 -4h-103q-9 0 -13 4t-1 13l22 99q0 4 -2 6.5t-6 2.5q-37 0 -64.5 13t-46.5 34t-28 47t-9 52v379q0 41 18 73t55 55l117 68q16 9 33.5 14t37.5 5h52z" />
    <glyph glyph-name="Ugrave" unicode="&#xd9;" horiz-adv-x="788" 
d="M199 -52q-52 0 -86 36t-34 85v606q0 9 3 13.5t12 4.5h106q9 0 14 -4.5t5 -13.5v-591q0 -10 4 -14.5t14 -4.5h281q11 0 16.5 4.5t5.5 14.5v591q0 9 3.5 13.5t12.5 4.5h104q9 0 14.5 -4.5t5.5 -13.5v-701q0 -9 -5.5 -12.5t-14.5 -3.5h-104q-9 0 -12.5 3.5t-3.5 13.5v17
q0 9 -6.5 13t-17.5 2l-283 -55q-12 -3 -20 -3.5t-14 -0.5zM475 775q0 -7 -4.5 -11t-11.5 -4h-132q-9 0 -16.5 2.5t-12.5 9.5l-120 119q-5 6 -5 11.5t5 13.5l76 76q6 6 12 6t13 -6l191 -204q2 -3 3.5 -6t1.5 -7z" />
    <glyph glyph-name="Uacute" unicode="&#xda;" horiz-adv-x="788" 
d="M199 -52q-52 0 -86 36t-34 85v606q0 9 3 13.5t12 4.5h106q9 0 14 -4.5t5 -13.5v-591q0 -10 4 -14.5t14 -4.5h281q11 0 16.5 4.5t5.5 14.5v591q0 9 3.5 13.5t12.5 4.5h104q9 0 14.5 -4.5t5.5 -13.5v-701q0 -9 -5.5 -12.5t-14.5 -3.5h-104q-9 0 -12.5 3.5t-3.5 13.5v17
q0 9 -6.5 13t-17.5 2l-283 -55q-12 -3 -20 -3.5t-14 -0.5zM272 775q0 4 1 7t4 6l191 204q6 6 12.5 6t12.5 -6l76 -76q4 -8 4 -13.5t-4 -11.5l-120 -119q-6 -7 -13 -9.5t-16 -2.5h-132q-8 0 -12 4t-4 11z" />
    <glyph glyph-name="Ucircumflex" unicode="&#xdb;" horiz-adv-x="788" 
d="M199 -52q-52 0 -86 36t-34 85v606q0 9 3 13.5t12 4.5h106q9 0 14 -4.5t5 -13.5v-591q0 -10 4 -14.5t14 -4.5h281q11 0 16.5 4.5t5.5 14.5v591q0 9 3.5 13.5t12.5 4.5h104q9 0 14.5 -4.5t5.5 -13.5v-701q0 -9 -5.5 -12.5t-14.5 -3.5h-104q-9 0 -12.5 3.5t-3.5 13.5v17
q0 9 -6.5 13t-17.5 2l-283 -55q-12 -3 -20 -3.5t-14 -0.5zM375 989q6 0 9.5 -2.5t8.5 -6.5l197 -192q3 -4 5 -8t2 -7q0 -6 -4.5 -9.5t-13.5 -3.5h-110q-10 0 -16 2.5t-12 9.5l-52 56q-4 3 -7.5 5t-6.5 2q-4 0 -7.5 -2t-6.5 -5l-52 -56q-6 -7 -12.5 -9.5t-15.5 -2.5h-110
q-9 0 -13.5 3.5t-4.5 9.5q0 3 1.5 7t5.5 8l197 192q4 4 8 6.5t10 2.5z" />
    <glyph glyph-name="Udieresis" unicode="&#xdc;" horiz-adv-x="788" 
d="M199 -52q-52 0 -86 36t-34 85v606q0 9 3 13.5t12 4.5h106q9 0 14 -4.5t5 -13.5v-591q0 -10 4 -14.5t14 -4.5h281q11 0 16.5 4.5t5.5 14.5v591q0 9 3.5 13.5t12.5 4.5h104q9 0 14.5 -4.5t5.5 -13.5v-701q0 -9 -5.5 -12.5t-14.5 -3.5h-104q-9 0 -12.5 3.5t-3.5 13.5v17
q0 9 -6.5 13t-17.5 2l-283 -55q-12 -3 -20 -3.5t-14 -0.5zM555 786q0 -9 -4.5 -13.5t-13.5 -4.5h-99q-9 0 -13.5 4.5t-4.5 13.5v92q0 9 4.5 14t13.5 5h99q9 0 13.5 -5t4.5 -14v-92zM329 786q0 -9 -4.5 -13.5t-12.5 -4.5h-100q-9 0 -13.5 4.5t-4.5 13.5v92q0 9 4.5 14t13.5 5
h100q8 0 12.5 -5t4.5 -14v-92z" />
    <glyph glyph-name="Yacute" unicode="&#xdd;" horiz-adv-x="610" 
d="M645 677l-254 -419q-5 -8 -7.5 -16t-2.5 -17v-250q0 -10 -4.5 -13.5t-12.5 -3.5h-105q-9 0 -13 3.5t-4 13.5v250q0 9 -3 17t-7 16l-252 419q-1 3 -1 5.5t1 5.5q2 2 4.5 3.5t5.5 1.5h118q8 0 15 -4.5t13 -12.5l162 -294q2 -5 5 -7t9 -2q3 0 6.5 2t6.5 7l163 294
q5 8 10.5 12.5t14.5 4.5h123q2 0 4.5 -1.5t4.5 -3.5q1 -3 1 -5.5t-1 -5.5zM215 755q0 4 1 7t4 6l191 204q6 6 12.5 6t12.5 -6l76 -76q4 -8 4 -13.5t-4 -11.5l-120 -119q-6 -7 -13 -9.5t-16 -2.5h-132q-8 0 -12 4t-4 11z" />
    <glyph glyph-name="Thorn" unicode="&#xde;" 
d="M458 44h-136v-135h-106v790h106v-144h136q46 0 89.5 -15t76.5 -46q34 -31 54 -80t20 -116q0 -68 -19.5 -116.5t-52.5 -78.5q-33 -31 -76.5 -45t-91.5 -14v0zM454 449h-132v-299h132q58 0 94.5 30.5t36.5 117.5q0 83 -36.5 117t-94.5 34v0z" />
    <glyph glyph-name="germandbls" unicode="&#xdf;" horiz-adv-x="726" 
d="M271 322v72q0 27 9.5 51t30.5 44q18 19 42.5 29t53.5 10h50q9 0 13.5 3.5t4.5 13.5v85q0 8 -5.5 13.5t-12.5 5.5h-232q-10 0 -14 -5.5t-4 -14.5v-654q0 -10 -6 -13.5t-15 -3.5h-104q-9 0 -13.5 3.5t-4.5 12.5v570q0 42 17.5 74t54.5 54l118 65q16 9 33.5 14t35.5 5h147
q28 0 52.5 -10t43.5 -29q20 -20 30 -44t10 -51v-67q0 -28 -9.5 -51.5t-29.5 -42.5q-18 -18 -42.5 -27.5t-53.5 -9.5h-51q-8 0 -13 -5.5t-5 -13.5v-93q0 -10 4 -13.5t14 -3.5h106q28 0 52.5 -10t43.5 -29q20 -20 30 -44t10 -51v-7q0 -41 -16.5 -70.5t-48.5 -49.5l-107 -61
q-17 -9 -31.5 -12.5t-31.5 -3.5h-132q-9 0 -13 3t-4 12v68q0 9 4 14.5t14 5.5h217q7 0 12.5 3.5t5.5 10.5v98q0 8 -5.5 13.5t-12.5 5.5h-107q-30 0 -54 9.5t-42 27.5q-21 19 -30 42.5t-9 51.5z" />
    <glyph glyph-name="agrave" unicode="&#xe0;" horiz-adv-x="641" 
d="M414 78v317q0 10 -5.5 15.5t-14.5 5.5h-185q-11 0 -15 -5.5t-4 -15.5v-317q0 -9 4 -13t15 -4h185q9 0 14.5 4t5.5 13zM172 -51q-48 0 -82 33.5t-34 81.5v252q0 40 17 70.5t53 50.5l107 62q16 10 33 15t36 5h229q8 0 12.5 -5t4.5 -14v-527q0 -9 -4.5 -12t-12.5 -3h-102
q-9 0 -12 3.5t-3 12.5v16q0 9 -5.5 13t-14.5 1l-192 -52q-9 -3 -16 -3h-14zM409 603q0 -7 -4.5 -11t-11.5 -4h-132q-9 0 -16.5 2.5t-12.5 9.5l-120 119q-5 6 -5 11.5t5 13.5l76 76q6 6 12 6t13 -6l191 -204q2 -3 3.5 -6t1.5 -7z" />
    <glyph glyph-name="aacute" unicode="&#xe1;" horiz-adv-x="641" 
d="M414 78v317q0 10 -5.5 15.5t-14.5 5.5h-185q-11 0 -15 -5.5t-4 -15.5v-317q0 -9 4 -13t15 -4h185q9 0 14.5 4t5.5 13zM172 -51q-48 0 -82 33.5t-34 81.5v252q0 40 17 70.5t53 50.5l107 62q16 10 33 15t36 5h229q8 0 12.5 -5t4.5 -14v-527q0 -9 -4.5 -12t-12.5 -3h-102
q-9 0 -12 3.5t-3 12.5v16q0 9 -5.5 13t-14.5 1l-192 -52q-9 -3 -16 -3h-14zM211 602q0 4 1 7t4 6l191 204q6 6 12.5 6t12.5 -6l76 -76q4 -8 4 -13.5t-4 -11.5l-120 -119q-6 -7 -13 -9.5t-16 -2.5h-132q-8 0 -12 4t-4 11z" />
    <glyph glyph-name="acircumflex" unicode="&#xe2;" horiz-adv-x="641" 
d="M414 78v317q0 10 -5.5 15.5t-14.5 5.5h-185q-11 0 -15 -5.5t-4 -15.5v-317q0 -9 4 -13t15 -4h185q9 0 14.5 4t5.5 13zM172 -51q-48 0 -82 33.5t-34 81.5v252q0 40 17 70.5t53 50.5l107 62q16 10 33 15t36 5h229q8 0 12.5 -5t4.5 -14v-527q0 -9 -4.5 -12t-12.5 -3h-102
q-9 0 -12 3.5t-3 12.5v16q0 9 -5.5 13t-14.5 1l-192 -52q-9 -3 -16 -3h-14zM306 821q6 0 9.5 -2.5t8.5 -6.5l197 -192q3 -4 5 -8t2 -7q0 -6 -4.5 -9.5t-13.5 -3.5h-110q-10 0 -16 2.5t-12 9.5l-52 56q-4 3 -7.5 5t-6.5 2q-4 0 -7.5 -2t-6.5 -5l-52 -56q-6 -7 -12.5 -9.5
t-15.5 -2.5h-110q-9 0 -13.5 3.5t-4.5 9.5q0 3 1.5 7t5.5 8l197 192q4 4 8 6.5t10 2.5z" />
    <glyph glyph-name="atilde" unicode="&#xe3;" horiz-adv-x="641" 
d="M414 78v317q0 10 -5.5 15.5t-14.5 5.5h-185q-11 0 -15 -5.5t-4 -15.5v-317q0 -9 4 -13t15 -4h185q9 0 14.5 4t5.5 13zM172 -51q-48 0 -82 33.5t-34 81.5v252q0 40 17 70.5t53 50.5l107 62q16 10 33 15t36 5h229q8 0 12.5 -5t4.5 -14v-527q0 -9 -4.5 -12t-12.5 -3h-102
q-9 0 -12 3.5t-3 12.5v16q0 9 -5.5 13t-14.5 1l-192 -52q-9 -3 -16 -3h-14zM556 675q-34 -34 -71.5 -50t-79.5 -16q-26 0 -55.5 7.5t-62.5 26.5q-22 11 -40 17t-32 6q-24 0 -46 -9.5t-43 -27.5q-6 -8 -12.5 -8t-13.5 8l-47 57q-6 6 -6 11t6 12q33 33 71.5 49.5t80.5 16.5
q24 0 54 -9.5t63 -25.5q21 -14 39.5 -20t33.5 -6q23 0 45 10t45 31q6 5 11 5t13 -5l47 -58q6 -6 6 -12t-6 -10z" />
    <glyph glyph-name="adieresis" unicode="&#xe4;" horiz-adv-x="641" 
d="M414 78v317q0 10 -5.5 15.5t-14.5 5.5h-185q-11 0 -15 -5.5t-4 -15.5v-317q0 -9 4 -13t15 -4h185q9 0 14.5 4t5.5 13zM172 -51q-48 0 -82 33.5t-34 81.5v252q0 40 17 70.5t53 50.5l107 62q16 10 33 15t36 5h229q8 0 12.5 -5t4.5 -14v-527q0 -9 -4.5 -12t-12.5 -3h-102
q-9 0 -12 3.5t-3 12.5v16q0 9 -5.5 13t-14.5 1l-192 -52q-9 -3 -16 -3h-14zM492 643q0 -9 -4.5 -13.5t-13.5 -4.5h-99q-9 0 -13.5 4.5t-4.5 13.5v92q0 9 4.5 14t13.5 5h99q9 0 13.5 -5t4.5 -14v-92zM266 643q0 -9 -4.5 -13.5t-12.5 -4.5h-100q-9 0 -13.5 4.5t-4.5 13.5v92
q0 9 4.5 14t13.5 5h100q8 0 12.5 -5t4.5 -14v-92z" />
    <glyph glyph-name="aring" unicode="&#xe5;" horiz-adv-x="641" 
d="M414 78v317q0 10 -5.5 15.5t-14.5 5.5h-185q-11 0 -15 -5.5t-4 -15.5v-317q0 -9 4 -13t15 -4h185q9 0 14.5 4t5.5 13zM172 -51q-48 0 -82 33.5t-34 81.5v252q0 40 17 70.5t53 50.5l107 62q16 10 33 15t36 5h229q8 0 12.5 -5t4.5 -14v-527q0 -9 -4.5 -12t-12.5 -3h-102
q-9 0 -12 3.5t-3 12.5v16q0 9 -5.5 13t-14.5 1l-192 -52q-9 -3 -16 -3h-14zM454 704q0 -57 -40 -95t-103 -38t-103.5 38t-40.5 95q0 56 40.5 94.5t103.5 38.5t103 -38.5t40 -94.5zM362 705q0 26 -13.5 42t-37.5 16t-37.5 -16t-13.5 -42q0 -27 13.5 -42.5t37.5 -15.5
t37.5 15.5t13.5 42.5z" />
    <glyph glyph-name="ae" unicode="&#xe6;" horiz-adv-x="929" 
d="M414 78v317q0 10 -5.5 15.5t-14.5 5.5h-185q-11 0 -15 -5.5t-4 -15.5v-317q0 -9 4 -13t15 -4h185q9 0 14.5 4t5.5 13zM767 300v99q0 10 -6 16t-16 6h-178q-11 0 -15.5 -6t-4.5 -16v-99q0 -9 4.5 -12.5t15.5 -3.5h178q10 0 16 3.5t6 12.5zM548 500v-14q0 -9 4 -12t16 0
l159 42q4 0 8 1l8 2t7.5 1.5t7.5 0.5q19 0 43.5 -8t46.5 -25t37 -44t15 -65v-98q0 -26 -10 -43t-24 -27q-14 -11 -29.5 -15t-25.5 -4h-244q-11 0 -15 -5.5t-4 -13.5v-96q0 -9 4 -13t15 -4h308q9 0 13.5 -4.5t4.5 -11.5q0 -8 -4 -14t-12 -9l-79 -46q-16 -10 -34 -13.5
t-37 -3.5h-174q-30 0 -55.5 11.5t-43.5 31.5q-6 7 -16 9t-19 -1l-217 -57q-9 -3 -16 -3h-14q-48 0 -82 33.5t-34 81.5v252q0 40 17 70.5t53 50.5l107 62q16 10 33 15t36 5h229q8 0 12.5 -5t4.5 -14z" />
    <glyph glyph-name="ccedilla" unicode="&#xe7;" horiz-adv-x="517" 
d="M192 -42q-33 0 -59 12.5t-44 32.5t-27.5 45t-9.5 50v217q0 39 17.5 69.5t53.5 51.5l111 65q15 9 32.5 14t35.5 5h182q8 0 12 -5t4 -14v-69q0 -8 -4 -11.5t-12 -3.5h-276q-9 0 -14 -5.5t-5 -15.5v-318q0 -9 5 -13t14 -4h278q8 0 12 -4.5t4 -12.5t-3.5 -14t-10.5 -9
l-80 -46q-17 -10 -34.5 -13.5t-35.5 -3.5h-146zM354 -142q0 -12 -3 -23t-8 -23l-67 -112q-5 -6 -11.5 -10.5t-14.5 -4.5h-12q-10 0 -14 5t-4 11v185q0 9 4 13.5t14 4.5h99q8 0 12.5 -4.5t4.5 -13.5v-28z" />
    <glyph glyph-name="egrave" unicode="&#xe8;" horiz-adv-x="567" 
d="M405 300v99q0 10 -6 16t-16 6h-178q-11 0 -15.5 -6t-4.5 -16v-99q0 -9 4.5 -12.5t15.5 -3.5h178q10 0 16 3.5t6 12.5zM538 281q0 -26 -10 -43t-24 -27q-14 -11 -29.5 -15t-25.5 -4h-244q-11 0 -15 -5.5t-4 -13.5v-96q0 -9 4 -13t15 -4h308q9 0 13.5 -4.5t4.5 -11.5
q0 -8 -4 -14t-12 -9l-79 -46q-16 -10 -34 -13.5t-37 -3.5h-174q-31 0 -56.5 11.5t-43.5 31.5q-19 19 -29 44.5t-10 52.5v219q0 39 17.5 69.5t53.5 50.5l110 65q16 9 33.5 14t35.5 5h94q19 0 43.5 -8t46.5 -25t37 -44t15 -65v-98zM409 603q0 -4 -3 -6.5t-7 -4.5
q-3 -2 -5.5 -3t-0.5 -1h-132q-9 0 -16.5 2.5t-12.5 9.5l-120 119q-5 6 -5 11.5t5 13.5l76 76q6 6 12 6t13 -6l191 -204q2 -3 3.5 -6t1.5 -7z" />
    <glyph glyph-name="eacute" unicode="&#xe9;" horiz-adv-x="567" 
d="M405 300v99q0 10 -6 16t-16 6h-178q-11 0 -15.5 -6t-4.5 -16v-99q0 -9 4.5 -12.5t15.5 -3.5h178q10 0 16 3.5t6 12.5zM538 281q0 -26 -10 -43t-24 -27q-14 -11 -29.5 -15t-25.5 -4h-244q-11 0 -15 -5.5t-4 -13.5v-96q0 -9 4 -13t15 -4h308q9 0 13.5 -4.5t4.5 -11.5
q0 -8 -4 -14t-12 -9l-79 -46q-16 -10 -34 -13.5t-37 -3.5h-174q-31 0 -56.5 11.5t-43.5 31.5q-19 19 -29 44.5t-10 52.5v219q0 39 17.5 69.5t53.5 50.5l110 65q16 9 33.5 14t35.5 5h94q19 0 43.5 -8t46.5 -25t37 -44t15 -65v-98zM193 602q0 4 1 7t4 6l191 204q6 6 12.5 6
t12.5 -6l76 -76q4 -8 4 -13.5t-4 -11.5l-120 -119q-6 -7 -13 -9.5t-16 -2.5h-132q-8 0 -12 4t-4 11z" />
    <glyph glyph-name="ecircumflex" unicode="&#xea;" horiz-adv-x="567" 
d="M405 300v99q0 10 -6 16t-16 6h-178q-11 0 -15.5 -6t-4.5 -16v-99q0 -9 4.5 -12.5t15.5 -3.5h178q10 0 16 3.5t6 12.5zM538 281q0 -26 -10 -43t-24 -27q-14 -11 -29.5 -15t-25.5 -4h-244q-11 0 -15 -5.5t-4 -13.5v-96q0 -9 4 -13t15 -4h308q9 0 13.5 -4.5t4.5 -11.5
q0 -8 -4 -14t-12 -9l-79 -46q-16 -10 -34 -13.5t-37 -3.5h-174q-31 0 -56.5 11.5t-43.5 31.5q-19 19 -29 44.5t-10 52.5v219q0 39 17.5 69.5t53.5 50.5l110 65q16 9 33.5 14t35.5 5h94q19 0 43.5 -8t46.5 -25t37 -44t15 -65v-98zM297 821q6 0 9.5 -2.5t8.5 -6.5l197 -192
q3 -4 5 -8t2 -7q0 -6 -4.5 -9.5t-13.5 -3.5h-110q-10 0 -16 2.5t-12 9.5l-52 56q-4 3 -7.5 5t-6.5 2q-4 0 -7.5 -2t-6.5 -5l-52 -56q-6 -7 -12.5 -9.5t-15.5 -2.5h-110q-9 0 -13.5 3.5t-4.5 9.5q0 3 1.5 7t5.5 8l197 192q4 4 8 6.5t10 2.5z" />
    <glyph glyph-name="edieresis" unicode="&#xeb;" horiz-adv-x="567" 
d="M405 300v99q0 10 -6 16t-16 6h-178q-11 0 -15.5 -6t-4.5 -16v-99q0 -9 4.5 -12.5t15.5 -3.5h178q10 0 16 3.5t6 12.5zM538 281q0 -26 -10 -43t-24 -27q-14 -11 -29.5 -15t-25.5 -4h-244q-11 0 -15 -5.5t-4 -13.5v-96q0 -9 4 -13t15 -4h308q9 0 13.5 -4.5t4.5 -11.5
q0 -8 -4 -14t-12 -9l-79 -46q-16 -10 -34 -13.5t-37 -3.5h-174q-31 0 -56.5 11.5t-43.5 31.5q-19 19 -29 44.5t-10 52.5v219q0 39 17.5 69.5t53.5 50.5l110 65q16 9 33.5 14t35.5 5h94q19 0 43.5 -8t46.5 -25t37 -44t15 -65v-98zM485 643q0 -9 -4.5 -13.5t-13.5 -4.5h-99
q-9 0 -13.5 4.5t-4.5 13.5v92q0 9 4.5 14t13.5 5h99q9 0 13.5 -5t4.5 -14v-92zM259 643q0 -9 -4.5 -13.5t-12.5 -4.5h-100q-9 0 -13.5 4.5t-4.5 13.5v92q0 9 4.5 14t13.5 5h100q8 0 12.5 -5t4.5 -14v-92z" />
    <glyph glyph-name="igrave" unicode="&#xec;" horiz-adv-x="254" 
d="M198 -27q0 -9 -5 -12t-12 -3h-100q-10 0 -13.5 3t-3.5 12v527q0 9 3.5 14t13.5 5h100q7 0 12 -5t5 -14v-527zM219 603q0 -4 -3 -6.5t-7 -4.5q-3 -2 -5.5 -3t-0.5 -1h-132q-9 0 -16.5 2.5t-12.5 9.5l-120 119q-4 6 -4 11.5t4 13.5l76 76q6 6 12 6t13 -6l191 -204
q2 -3 3.5 -6t1.5 -7z" />
    <glyph glyph-name="iacute" unicode="&#xed;" horiz-adv-x="254" 
d="M198 -27q0 -9 -5 -12t-12 -3h-100q-10 0 -13.5 3t-3.5 12v527q0 9 3.5 14t13.5 5h100q7 0 12 -5t5 -14v-527zM41 602q0 4 1 7t4 6l191 204q6 6 12.5 6t12.5 -6l76 -76q4 -8 4 -13.5t-4 -11.5l-120 -119q-6 -7 -13 -9.5t-16 -2.5h-132q-8 0 -12 4t-4 11z" />
    <glyph glyph-name="icircumflex" unicode="&#xee;" horiz-adv-x="254" 
d="M198 -27q0 -9 -5 -12t-12 -3h-100q-10 0 -13.5 3t-3.5 12v527q0 9 3.5 14t13.5 5h100q7 0 12 -5t5 -14v-527zM129 821q6 0 9.5 -2.5t8.5 -6.5l197 -192q3 -4 5 -8t2 -7q0 -6 -4.5 -9.5t-13.5 -3.5h-110q-10 0 -16 2.5t-12 9.5l-52 56q-4 3 -7.5 5t-6.5 2q-4 0 -7.5 -2
t-6.5 -5l-52 -56q-6 -7 -12.5 -9.5t-15.5 -2.5h-110q-9 0 -13.5 3.5t-4.5 9.5q0 3 2 7t5 8l197 192q4 4 8 6.5t10 2.5z" />
    <glyph glyph-name="idieresis" unicode="&#xef;" horiz-adv-x="254" 
d="M198 -27q0 -9 -5 -12t-12 -3h-100q-10 0 -13.5 3t-3.5 12v527q0 9 3.5 14t13.5 5h100q7 0 12 -5t5 -14v-527zM311 642q0 -9 -4.5 -13.5t-13.5 -4.5h-99q-9 0 -13.5 4.5t-4.5 13.5v92q0 9 4.5 14t13.5 5h99q9 0 13.5 -5t4.5 -14v-92zM85 642q0 -9 -4.5 -13.5t-12.5 -4.5
h-100q-9 0 -13.5 4.5t-4.5 13.5v92q0 9 4.5 14t13.5 5h100q8 0 12.5 -5t4.5 -14v-92z" />
    <glyph glyph-name="eth" unicode="&#xf0;" 
d="M527 150q0 54 -29.5 84.5t-81.5 30.5t-82 -34.5t-30 -94.5q0 -57 30 -90t84 -33q52 0 80.5 35.5t28.5 101.5v0zM581 606l-76 -56q76 -91 110.5 -180t34.5 -192q0 -129 -61.5 -201.5t-166.5 -72.5q-52 0 -95 16.5t-74 47.5q-30 31 -47 73.5t-17 94.5t17 96.5t47 76.5
q31 33 73 51t92 18q9 0 28.5 -2.5t34.5 -5.5q-15 28 -29.5 50t-41.5 59l-106 -72l-55 64l98 68l-30 21t-23 17q-15 8 -21.5 11.5t-8.5 5.5q-2 0 -3 0.5t-2 0.5l-1.5 0.5t-2.5 2.5l53 99q40 -18 75 -38.5t69 -43.5l75 57z" />
    <glyph glyph-name="ntilde" unicode="&#xf1;" horiz-adv-x="609" 
d="M558 411v-438q0 -9 -5 -12t-13 -3h-100q-9 0 -12.5 3.5t-3.5 12.5v422q0 9 -5.5 14.5t-14.5 5.5h-183q-11 0 -15.5 -5.5t-4.5 -14.5v-422q0 -9 -5 -12.5t-11 -3.5h-101q-9 0 -13 3t-4 12v527q0 9 4 14t13 5h101q6 0 11 -5t5 -14v-17q0 -9 4 -12t16 0l191 52q3 0 6.5 1
t7.5 2t7.5 1.5t7.5 0.5q49 0 83 -35.5t34 -81.5zM556 675q-34 -34 -71.5 -50t-79.5 -16q-26 0 -55.5 7.5t-62.5 26.5q-22 11 -40 17t-32 6q-24 0 -46 -9.5t-43 -27.5q-6 -8 -12.5 -8t-13.5 8l-47 57q-6 6 -6 11t6 12q33 33 71.5 49.5t80.5 16.5q24 0 54 -9.5t63 -25.5
q21 -14 39.5 -20t33.5 -6q23 0 45 10t45 31q6 5 11 5t13 -5l47 -58q6 -6 6 -12t-6 -10z" />
    <glyph glyph-name="ograve" unicode="&#xf2;" horiz-adv-x="592" 
d="M415 77v318q0 9 -5 14.5t-15 5.5h-184q-11 0 -15.5 -5.5t-4.5 -14.5v-318q0 -9 4.5 -13t15.5 -4h184q10 0 15 4t5 13zM195 -43q-32 0 -58 12t-44 31q-18 20 -27.5 45t-9.5 51v219q0 39 17.5 69.5t53.5 51.5l110 64q16 9 33.5 14t35.5 5h105q23 0 47.5 -9t44.5 -27
q21 -18 34 -44.5t13 -61.5v-217q0 -39 -17 -70t-51 -52l-113 -64q-17 -10 -34 -13.5t-35 -3.5h-105zM399 603q0 -7 -4.5 -11t-11.5 -4h-132q-9 0 -16.5 2.5t-12.5 9.5l-120 119q-5 6 -5 11.5t5 13.5l76 76q6 6 12 6t13 -6l191 -204q2 -3 3.5 -6t1.5 -7z" />
    <glyph glyph-name="oacute" unicode="&#xf3;" horiz-adv-x="592" 
d="M415 77v318q0 9 -5 14.5t-15 5.5h-184q-11 0 -15.5 -5.5t-4.5 -14.5v-318q0 -9 4.5 -13t15.5 -4h184q10 0 15 4t5 13zM195 -43q-32 0 -58 12t-44 31q-18 20 -27.5 45t-9.5 51v219q0 39 17.5 69.5t53.5 51.5l110 64q16 9 33.5 14t35.5 5h105q23 0 47.5 -9t44.5 -27
q21 -18 34 -44.5t13 -61.5v-217q0 -39 -17 -70t-51 -52l-113 -64q-17 -10 -34 -13.5t-35 -3.5h-105zM191 602q0 4 1 7t4 6l191 204q6 6 12.5 6t12.5 -6l76 -76q4 -8 4 -13.5t-4 -11.5l-120 -119q-6 -7 -13 -9.5t-16 -2.5h-132q-8 0 -12 4t-4 11z" />
    <glyph glyph-name="ocircumflex" unicode="&#xf4;" horiz-adv-x="592" 
d="M415 77v318q0 9 -5 14.5t-15 5.5h-184q-11 0 -15.5 -5.5t-4.5 -14.5v-318q0 -9 4.5 -13t15.5 -4h184q10 0 15 4t5 13zM195 -43q-32 0 -58 12t-44 31q-18 20 -27.5 45t-9.5 51v219q0 39 17.5 69.5t53.5 51.5l110 64q16 9 33.5 14t35.5 5h105q23 0 47.5 -9t44.5 -27
q21 -18 34 -44.5t13 -61.5v-217q0 -39 -17 -70t-51 -52l-113 -64q-17 -10 -34 -13.5t-35 -3.5h-105zM304 821q6 0 9.5 -2.5t8.5 -6.5l197 -192q3 -4 5 -8t2 -7q0 -6 -4.5 -9.5t-13.5 -3.5h-110q-10 0 -16 2.5t-12 9.5l-52 56q-4 3 -7.5 5t-6.5 2q-4 0 -7.5 -2t-6.5 -5
l-52 -56q-6 -7 -12.5 -9.5t-15.5 -2.5h-110q-9 0 -13.5 3.5t-4.5 9.5q0 3 1.5 7t5.5 8l197 192q4 4 8 6.5t10 2.5z" />
    <glyph glyph-name="otilde" unicode="&#xf5;" horiz-adv-x="592" 
d="M415 77v318q0 9 -5 14.5t-15 5.5h-184q-11 0 -15.5 -5.5t-4.5 -14.5v-318q0 -9 4.5 -13t15.5 -4h184q10 0 15 4t5 13zM195 -43q-32 0 -58 12t-44 31q-18 20 -27.5 45t-9.5 51v219q0 39 17.5 69.5t53.5 51.5l110 64q16 9 33.5 14t35.5 5h105q23 0 47.5 -9t44.5 -27
q21 -18 34 -44.5t13 -61.5v-217q0 -39 -17 -70t-51 -52l-113 -64q-17 -10 -34 -13.5t-35 -3.5h-105zM547 675q-34 -34 -71.5 -50t-79.5 -16q-26 0 -55.5 7.5t-62.5 26.5q-22 11 -40 17t-32 6q-24 0 -46 -9.5t-43 -27.5q-6 -8 -12.5 -8t-13.5 8l-47 57q-6 6 -6 11t6 12
q33 33 71.5 49.5t80.5 16.5q24 0 54 -9.5t63 -25.5q21 -14 39.5 -20t33.5 -6q23 0 45 10t45 31q6 5 11 5t13 -5l47 -58q6 -6 6 -12t-6 -10z" />
    <glyph glyph-name="odieresis" unicode="&#xf6;" horiz-adv-x="592" 
d="M415 77v318q0 9 -5 14.5t-15 5.5h-184q-11 0 -15.5 -5.5t-4.5 -14.5v-318q0 -9 4.5 -13t15.5 -4h184q10 0 15 4t5 13zM195 -43q-32 0 -58 12t-44 31q-18 20 -27.5 45t-9.5 51v219q0 39 17.5 69.5t53.5 51.5l110 64q16 9 33.5 14t35.5 5h105q23 0 47.5 -9t44.5 -27
q21 -18 34 -44.5t13 -61.5v-217q0 -39 -17 -70t-51 -52l-113 -64q-17 -10 -34 -13.5t-35 -3.5h-105zM482 643q0 -9 -4.5 -13.5t-13.5 -4.5h-99q-9 0 -13.5 4.5t-4.5 13.5v92q0 9 4.5 14t13.5 5h99q9 0 13.5 -5t4.5 -14v-92zM256 643q0 -9 -4.5 -13.5t-12.5 -4.5h-100
q-9 0 -13.5 4.5t-4.5 13.5v92q0 9 4.5 14t13.5 5h100q8 0 12.5 -5t4.5 -14v-92z" />
    <glyph glyph-name="divide" unicode="&#xf7;" 
d="M364 562q0 34 24 60.5t61 26.5q44 0 66.5 -26t22.5 -61t-25 -60t-60 -24q-38 0 -63.5 22.5t-25.5 61.5v0zM771 250h-640v104h640v-104zM448 129q45 0 68 -25.5t23 -60.5q0 -34 -25.5 -60t-60.5 -26q-39 0 -64.5 24t-25.5 62q0 33 24.5 59.5t60.5 26.5v0z" />
    <glyph glyph-name="oslash" unicode="&#xf8;" horiz-adv-x="592" 
d="M237 500q9 6 14 7.5t11 3.5q9 2 13.5 4.5t7.5 11.5l14 97q1 8 6.5 12.5t15.5 4.5h83q9 0 12 -4.5t2 -12.5l-14 -96q-2 -5 0.5 -7t8.5 -2q23 0 47.5 -9t44.5 -27q21 -18 34 -44.5t13 -61.5v-217q0 -39 -17 -70t-51 -52l-102 -61q-9 -6 -18.5 -11t-18.5 -7q-8 -2 -12 -5.5
t-5 -11.5l-13 -94q-3 -9 -8.5 -13t-13.5 -4h-84q-9 0 -13.5 4t-3.5 13l15 100q0 4 -3 6.5t-7 2.5q-32 0 -58 12t-44 31q-18 20 -27.5 45t-9.5 51v219q0 39 17.5 69.5t53.5 51.5zM350 57h51q10 0 15 4t5 13v324q0 9 -5 14.5t-15 5.5q-9 0 -15 -4.5t-8 -13.5l-42 -326
q-2 -9 1.5 -13t12.5 -4zM206 57q8 0 13.5 4t8.5 13l41 326q1 9 -2 13.5t-12 4.5h-49q-11 0 -15.5 -5.5t-4.5 -14.5v-324q0 -9 4.5 -13t15.5 -4z" />
    <glyph glyph-name="ugrave" unicode="&#xf9;" horiz-adv-x="609" 
d="M182 -51q-46 0 -80.5 33t-34.5 82v436q0 9 4 14t13 5h101q6 0 11 -5t5 -14v-422q0 -9 4.5 -13t15.5 -4h183q9 0 14.5 4t5.5 13v422q0 9 3.5 14t12.5 5h100q8 0 13 -5t5 -14v-527q0 -9 -5 -12t-13 -3h-100q-9 0 -12.5 3.5t-3.5 12.5v16q0 9 -5.5 13t-13.5 1l-192 -52
q-8 -3 -16 -3h-15zM409 603q0 -7 -4.5 -11t-11.5 -4h-132q-9 0 -16.5 2.5t-12.5 9.5l-120 119q-5 6 -5 11.5t5 13.5l76 76q6 6 12 6t13 -6l191 -204q2 -3 3.5 -6t1.5 -7z" />
    <glyph glyph-name="uacute" unicode="&#xfa;" horiz-adv-x="609" 
d="M182 -51q-46 0 -80.5 33t-34.5 82v436q0 9 4 14t13 5h101q6 0 11 -5t5 -14v-422q0 -9 4.5 -13t15.5 -4h183q9 0 14.5 4t5.5 13v422q0 9 3.5 14t12.5 5h100q8 0 13 -5t5 -14v-527q0 -9 -5 -12t-13 -3h-100q-9 0 -12.5 3.5t-3.5 12.5v16q0 9 -5.5 13t-13.5 1l-192 -52
q-8 -3 -16 -3h-15zM214 602q0 4 1 7t4 6l191 204q6 6 12.5 6t12.5 -6l76 -76q4 -8 4 -13.5t-4 -11.5l-120 -119q-6 -7 -13 -9.5t-16 -2.5h-132q-8 0 -12 4t-4 11z" />
    <glyph glyph-name="ucircumflex" unicode="&#xfb;" horiz-adv-x="609" 
d="M182 -51q-46 0 -80.5 33t-34.5 82v436q0 9 4 14t13 5h101q6 0 11 -5t5 -14v-422q0 -9 4.5 -13t15.5 -4h183q9 0 14.5 4t5.5 13v422q0 9 3.5 14t12.5 5h100q8 0 13 -5t5 -14v-527q0 -9 -5 -12t-13 -3h-100q-9 0 -12.5 3.5t-3.5 12.5v16q0 9 -5.5 13t-13.5 1l-192 -52
q-8 -3 -16 -3h-15zM307 821q6 0 9.5 -2.5t8.5 -6.5l197 -192q3 -4 5 -8t2 -7q0 -6 -4.5 -9.5t-13.5 -3.5h-110q-10 0 -16 2.5t-12 9.5l-52 56q-4 3 -7.5 5t-6.5 2q-4 0 -7.5 -2t-6.5 -5l-52 -56q-6 -7 -12.5 -9.5t-15.5 -2.5h-110q-9 0 -13.5 3.5t-4.5 9.5q0 3 1.5 7t5.5 8
l197 192q4 4 8 6.5t10 2.5z" />
    <glyph glyph-name="udieresis" unicode="&#xfc;" horiz-adv-x="609" 
d="M182 -51q-46 0 -80.5 33t-34.5 82v436q0 9 4 14t13 5h101q6 0 11 -5t5 -14v-422q0 -9 4.5 -13t15.5 -4h183q9 0 14.5 4t5.5 13v422q0 9 3.5 14t12.5 5h100q8 0 13 -5t5 -14v-527q0 -9 -5 -12t-13 -3h-100q-9 0 -12.5 3.5t-3.5 12.5v16q0 9 -5.5 13t-13.5 1l-192 -52
q-8 -3 -16 -3h-15zM494 643q0 -9 -4.5 -13.5t-13.5 -4.5h-99q-9 0 -13.5 4.5t-4.5 13.5v92q0 9 4.5 14t13.5 5h99q9 0 13.5 -5t4.5 -14v-92zM268 643q0 -9 -4.5 -13.5t-12.5 -4.5h-100q-9 0 -13.5 4.5t-4.5 13.5v92q0 9 4.5 14t13.5 5h100q8 0 12.5 -5t4.5 -14v-92z" />
    <glyph glyph-name="yacute" unicode="&#xfd;" horiz-adv-x="609" 
d="M184 -52q-29 0 -51 10.5t-37 26.5q-15 17 -22 37.5t-7 40.5v437q0 9 4 14t13 5h100q7 0 12 -5t5 -14v-422q0 -9 4 -13.5t15 -4.5h183q9 0 14.5 4.5t5.5 13.5v422q0 9 4 14t13 5h100q8 0 13 -5t5 -14v-637q0 -12 -3.5 -23.5t-8.5 -22.5l-68 -111q-5 -7 -11.5 -11.5
t-13.5 -4.5h-13q-9 0 -13 5t-4 13v282q0 9 -5 12.5t-13 1.5l-192 -54q-7 -2 -15 -2h-14zM211 602q0 4 1 7t4 6l191 204q6 6 12.5 6t12.5 -6l76 -76q4 -8 4 -13.5t-4 -11.5l-120 -119q-6 -7 -13 -9.5t-16 -2.5h-132q-8 0 -12 4t-4 11z" />
    <glyph glyph-name="thorn" unicode="&#xfe;" 
d="M355 690v-155q51 9 97 7t88 -13q84 -24 134 -85t50 -145q0 -80 -35.5 -138.5t-92.5 -93.5q-52 -30 -114 -39t-127 6v-118h-124v774h124zM355 424v-284q46 -8 90 -4.5t79 22.5q34 17 54.5 54t20.5 94q-1 50 -33 80.5t-75 43.5q-37 12 -75.5 10.5t-60.5 -16.5v0z" />
    <glyph glyph-name="ydieresis" unicode="&#xff;" horiz-adv-x="609" 
d="M184 -52q-29 0 -51 10.5t-37 26.5q-15 17 -22 37.5t-7 40.5v437q0 9 4 14t13 5h100q7 0 12 -5t5 -14v-422q0 -9 4 -13.5t15 -4.5h183q9 0 14.5 4.5t5.5 13.5v422q0 9 4 14t13 5h100q8 0 13 -5t5 -14v-637q0 -12 -3.5 -23.5t-8.5 -22.5l-68 -111q-5 -7 -11.5 -11.5
t-13.5 -4.5h-13q-9 0 -13 5t-4 13v282q0 9 -5 12.5t-13 1.5l-192 -54q-7 -2 -15 -2h-14zM496 643q0 -9 -4.5 -13.5t-13.5 -4.5h-99q-9 0 -13.5 4.5t-4.5 13.5v92q0 9 4.5 14t13.5 5h99q9 0 13.5 -5t4.5 -14v-92zM270 643q0 -9 -4.5 -13.5t-12.5 -4.5h-100q-9 0 -13.5 4.5
t-4.5 13.5v92q0 9 4.5 14t13.5 5h100q8 0 12.5 -5t4.5 -14v-92z" />
    <glyph glyph-name="dcroat" unicode="&#x111;" 
d="M714 469h-76v-549h-121v30q-27 -24 -61 -37t-73 -13q-53 0 -97 19t-75 53q-32 35 -49 82.5t-17 105.5q0 57 17 105t49 83q31 34 75 53.5t97 19.5q45 0 80 -14.5t55 -34.5v97h-236v87h236v132h120v-132h76v-87zM396 8q59 0 92.5 42t33.5 109q0 66 -33.5 109.5t-92.5 43.5
q-60 0 -93 -43.5t-33 -109.5q0 -67 33 -109t93 -42v0z" />
    <glyph glyph-name="Hbar" unicode="&#x126;" 
d="M798 466h-83v-550h-134v346h-264v-346h-132v550h-88v101h88v122h132v-122h264v122h134v-122h83v-101zM581 381v85h-264v-85h264z" />
    <glyph glyph-name="hbar" unicode="&#x127;" 
d="M671 -79h-122v262q0 66 -24 96.5t-64 30.5q-55 0 -81.5 -42t-26.5 -102v-245h-122v547h-100v87h100v133h122v-133h210v-87h-210v-104q23 28 65 46.5t100 12.5q40 -4 69 -24t48 -47q18 -27 27 -58t9 -56v-317z" />
    <glyph glyph-name="dotlessi" unicode="&#x131;" horiz-adv-x="254" 
d="M198 -27q0 -9 -5 -12t-12 -3h-100q-10 0 -13.5 3t-3.5 12v527q0 9 3.5 14t13.5 5h100q7 0 12 -5t5 -14v-527z" />
    <glyph glyph-name="IJ" unicode="&#x132;" 
d="M286 -78h-121v766h121v-766zM736 688v-561q0 -51 -16.5 -91t-43.5 -68q-28 -28 -64 -42t-76 -14q-41 0 -77 13.5t-64 39.5q-28 27 -44 66t-16 90v78h120v-56q0 -60 23.5 -83.5t57.5 -23.5q33 0 56.5 23.5t23.5 83.5v545h120z" />
    <glyph glyph-name="ij" unicode="&#x133;" 
d="M360 559h-128v130h128v-130zM360 -82h-128v564h128v-564zM663 480v-552q0 -38 -8.5 -66t-26.5 -46t-42.5 -27.5t-54.5 -9.5h-70v112h18.5h15.5q7 1 12.5 3t10.5 6q12 8 15 19.5t3 32.5v528h127zM663 559h-127v130h127v-130z" />
    <glyph glyph-name="kgreenlandic" unicode="&#x138;" 
d="M712 -84l-144 1l-170 235q-13 -12 -24.5 -23t-20.5 -19v-194h-119v562h119v-212q18 17 43.5 44.5t51.5 57.5t49.5 59t38.5 50l145 1q-14 -22 -37 -51t-51 -61t-59 -66.5t-61 -65.5z" />
    <glyph glyph-name="Ldot" unicode="&#x13f;" 
d="M680 -85h-464v777h117v-656h347v-121zM530 398q29 0 49 -23t20 -54q0 -32 -20 -53.5t-49 -21.5q-28 0 -47.5 21.5t-19.5 53.5q0 31 19.5 54t47.5 23v0z" />
    <glyph glyph-name="ldot" unicode="&#x140;" 
d="M560 404q33 0 58 -24.5t25 -58.5q0 -33 -25 -58t-58 -25t-57.5 25t-24.5 58q0 34 24.5 58.5t57.5 24.5v0zM414 -79h-128v767h128v-767z" />
    <glyph glyph-name="Lslash" unicode="&#x141;" 
d="M715 -84h-462v331l-72 -67l-50 66l122 115v330h115v-221l50 45l50 -66l-100 -93v-321h347v-119z" />
    <glyph glyph-name="lslash" unicode="&#x142;" 
d="M688 459l-175 -148v-390h-127v280l-110 -93l-54 67l164 140v373h127v-264l122 103z" />
    <glyph glyph-name="napostrophe" unicode="&#x149;" 
d="M743 -81h-117v346q0 69 -30 94t-69 25q-54 0 -87.5 -37t-33.5 -100v-328h-116v555h116v-46q27 30 70.5 50t110.5 13q41 -5 70.5 -24.5t48.5 -47.5q19 -27 28 -59t9 -61v-380zM234 601q30 -17 23.5 -45.5t-23.5 -52.5q-11 -16 -23 -31t-25 -29q-12 -14 -24 -28.5
t-23 -28.5t-21 -14.5t-17 5.5t-10 16.5t1 19.5l67 161q8 18 30 29t45 -2v0z" />
    <glyph glyph-name="Eng" unicode="&#x14a;" 
d="M712 525v-334q0 -68 -20 -120.5t-55 -87.5q-34 -36 -81 -52.5t-100 -11.5v119q57 -5 102 30.5t45 116.5v272q0 59 -19 91t-71 30q-48 -3 -87.5 -18.5t-67.5 -39.5q-29 -24 -44.5 -54t-15.5 -60v-431h-113v713h113v-106q39 44 90.5 68t89.5 31q41 7 83 1t75 -26
q34 -20 55 -53t21 -78v0z" />
    <glyph glyph-name="eng" unicode="&#x14b;" 
d="M670 303v-346q0 -44 -10 -74.5t-22 -46.5q-12 -17 -40 -32t-63 -15h-57v111q6 0 13.5 -0.5t14.5 1.5q8 1 15.5 4t14.5 10q7 6 10.5 12.5t5.5 14.5q1 8 1.5 17.5t0.5 20.5v280q0 72 -26.5 98.5t-62.5 26.5q-51 0 -84 -39t-33 -104v-291h-115v525h115v-55q18 32 61.5 57
t113.5 17q37 -6 64.5 -26t46.5 -48q18 -28 27 -59.5t9 -58.5v0z" />
    <glyph glyph-name="OE" unicode="&#x152;" horiz-adv-x="1098" 
d="M541 566q0 9 -6.5 14.5t-17.5 5.5h-288q-10 0 -14 -5.5t-4 -14.5v-482q0 -10 4 -14.5t14 -4.5h288q11 0 17.5 4.5t6.5 14.5v482zM548 7l-55 -33q-19 -10 -37 -14t-38 -4h-204q-37 0 -64.5 13t-45.5 34q-19 21 -28 47t-9 52v379q0 41 18 73t55 55l117 68q16 9 33.5 14
t37.5 5h206q30 0 56.5 -12t50.5 -35q6 -7 12.5 -10t13.5 2l60 33q16 9 34 14t36 5h258q8 0 13 -4.5t5 -13.5v-73q0 -9 -5 -12.5t-13 -3.5h-359q-9 0 -13 -5.5t-4 -14.5v-161q0 -11 4 -14.5t13 -3.5h335q9 0 14.5 -5t5.5 -14v-73q0 -9 -5.5 -13t-14.5 -4h-335q-9 0 -13 -5.5
t-4 -15.5v-173q0 -10 4 -14.5t13 -4.5h369q9 0 14.5 -4t5.5 -11q0 -9 -4.5 -15.5t-12.5 -10.5l-85 -48q-18 -10 -36 -14t-37 -4h-226q-36 0 -63.5 12.5t-45.5 33.5q-6 5 -13 5.5t-14 -2.5z" />
    <glyph glyph-name="oe" unicode="&#x153;" horiz-adv-x="941" 
d="M415 77v318q0 9 -5 14.5t-15 5.5h-184q-11 0 -15.5 -5.5t-4.5 -14.5v-318q0 -9 4.5 -13t15.5 -4h184q10 0 15 4t5 13zM195 -43q-32 0 -58 12t-44 31q-18 20 -27.5 45t-9.5 51v219q0 39 17.5 69.5t53.5 51.5l110 64q16 9 33.5 14t35.5 5h105q27 0 56.5 -13t50.5 -38
q3 -5 8 -6t11 2l61 37q16 9 33.5 14t35.5 5h94q19 0 43.5 -8t46.5 -25t37 -44t15 -65v-98q0 -26 -10 -43t-24 -27q-14 -11 -29.5 -15t-25.5 -4h-244q-11 0 -15 -5.5t-4 -13.5v-96q0 -9 4 -13t15 -4h308q9 0 13.5 -4.5t4.5 -11.5q0 -8 -4 -14t-12 -9l-79 -46
q-16 -10 -34 -13.5t-37 -3.5h-174q-33 0 -60 13.5t-46 35.5q-5 4 -10 4.5t-10 -2.5l-61 -34q-17 -10 -34 -13.5t-35 -3.5h-105zM550 299q0 -9 4.5 -12.5t15.5 -3.5h178q10 0 16 3.5t6 12.5v99q0 10 -6 16t-16 6h-178q-11 0 -15.5 -6t-4.5 -16v-99z" />
    <glyph glyph-name="Scaron" unicode="&#x160;" horiz-adv-x="629" 
d="M610 240v-71q0 -43 -18 -75t-54 -53l-118 -65q-18 -10 -36 -14t-36 -4h-267q-10 0 -14 3.5t-4 12.5v73q0 8 4 13t15 5h368q7 0 12.5 4.5t5.5 14.5v170q0 9 -5.5 14.5t-12.5 5.5h-260q-34 0 -61 11.5t-46 32.5q-19 20 -29 46.5t-10 55.5v62q0 41 17 73t54 54l118 65
q16 9 34.5 14t36.5 5h262q9 0 14.5 -4.5t5.5 -13.5v-73q0 -9 -5.5 -12.5t-14.5 -3.5h-363q-10 0 -13.5 -5.5t-3.5 -14.5v-157q0 -12 4 -16t14 -4h259q24 0 49.5 -9.5t47.5 -28.5t36 -47t14 -64zM323 745q-6 0 -10 2t-8 7l-197 192q-4 3 -5.5 7.5t-1.5 7.5q0 6 4.5 9.5
t13.5 3.5h110q9 0 15.5 -3t12.5 -9l52 -56q3 -4 6.5 -5.5t7.5 -1.5q3 0 6.5 1.5t7.5 5.5l52 56q6 6 12 9t16 3h110q9 0 13.5 -3.5t4.5 -9.5q0 -3 -2 -7.5t-5 -7.5l-197 -192q-5 -5 -8.5 -7t-9.5 -2z" />
    <glyph glyph-name="scaron" unicode="&#x161;" horiz-adv-x="539" 
d="M511 154q0 -41 -16.5 -70.5t-48.5 -49.5l-107 -61q-17 -9 -33.5 -12.5t-33.5 -3.5h-202q-9 0 -13 3t-4 12v68q0 9 4 14.5t14 5.5h291q7 0 12.5 3.5t5.5 10.5v98q0 8 -5.5 13.5t-12.5 5.5h-193q-30 0 -54 9.5t-42 27.5q-21 19 -30 42.5t-9 51.5q0 40 15.5 69.5t49.5 49.5
l105 61q16 9 32.5 13.5t34.5 4.5h189q8 0 13.5 -5t5.5 -14v-69q0 -8 -5.5 -11.5t-13.5 -3.5h-277q-10 0 -14 -5.5t-4 -14.5v-85q0 -10 4 -13.5t14 -3.5h192q28 0 52.5 -10t43.5 -29q20 -20 30 -44t10 -51v-7zM274 573q-6 0 -10 2t-8 7l-197 186q-4 3 -5.5 7.5t-1.5 7.5
q0 6 4.5 9.5t13.5 3.5h110q9 0 15.5 -3t12.5 -9l52 -56q3 -4 6.5 -5.5t7.5 -1.5q3 0 6.5 1.5t7.5 5.5l52 56q6 6 12 9t16 3h110q9 0 13.5 -3.5t4.5 -9.5q0 -3 -2 -7.5t-5 -7.5l-197 -186q-5 -5 -8.5 -7t-9.5 -2z" />
    <glyph glyph-name="Tbar" unicode="&#x166;" 
d="M693 294h-183v-378h-117v378h-188v89h188v198h-217v112h552v-112h-218v-198h183v-89z" />
    <glyph glyph-name="tbar" unicode="&#x167;" 
d="M617 -83h-128q-64 0 -89 26t-25 94v179h-122v84h122v122l-93 -28l-27 78l120 33v103h123v-69l84 25l26 -78l-110 -30v-156h120v-84h-120v-141q0 -24 9 -32.5t31 -8.5h79v-117z" />
    <glyph glyph-name="Ydieresis" unicode="&#x178;" horiz-adv-x="610" 
d="M495 783q0 -9 -4.5 -13.5t-13.5 -4.5h-99q-9 0 -13.5 4.5t-4.5 13.5v92q0 9 4.5 14t13.5 5h99q9 0 13.5 -5t4.5 -14v-92zM261 783q0 -9 -4.5 -13.5t-12.5 -4.5h-100q-9 0 -13.5 4.5t-4.5 13.5v92q0 9 4.5 14t13.5 5h100q8 0 12.5 -5t4.5 -14v-92zM645 677l-254 -419
q-5 -8 -7.5 -16t-2.5 -17v-250q0 -10 -4.5 -13.5t-12.5 -3.5h-105q-9 0 -13 3.5t-4 13.5v250q0 9 -3 17t-7 16l-252 419q-1 3 -1 5.5t1 5.5q2 2 4.5 3.5t5.5 1.5h118q8 0 15 -4.5t13 -12.5l162 -294q2 -5 5 -7t9 -2q3 0 6.5 2t6.5 7l163 294q5 8 10.5 12.5t14.5 4.5h123
q2 0 4.5 -1.5t4.5 -3.5q1 -3 1 -5.5t-1 -5.5z" />
    <glyph glyph-name="zcaron" unicode="&#x17e;" horiz-adv-x="320" 
 />
    <glyph glyph-name="florin" unicode="&#x192;" horiz-adv-x="523" 
d="M149 -158v524q0 9 -5 14t-14 5h-97q-9 0 -13 3.5t-4 12.5v69q0 9 4 14t13 5h97q9 0 14 4.5t5 13.5v50q0 40 17 70.5t54 51.5l110 64q15 9 32 14.5t38 5.5h69q9 0 14 -5.5t5 -13.5v-68q0 -9 -5 -12t-14 -3h-166q-10 0 -14.5 -6t-4.5 -15v-133q0 -9 4.5 -13.5t14.5 -4.5
h157q9 0 13 -5t4 -14v-69q0 -9 -4 -12.5t-13 -3.5h-157q-10 0 -14.5 -5t-4.5 -14v-441q0 -41 -17.5 -71.5t-53.5 -50.5l-110 -64q-16 -9 -33 -14.5t-37 -5.5h-29q-9 0 -14 5.5t-5 13.5v68q0 8 5 11.5t14 3.5h126q9 0 14 5.5t5 15.5z" />
    <glyph glyph-name="circumflex" unicode="&#x2c6;" horiz-adv-x="526" 
d="M268 831q6 0 9.5 -2.5t8.5 -6.5l197 -192q3 -4 5 -8t2 -7q0 -6 -4.5 -9.5t-13.5 -3.5h-110q-10 0 -16 2.5t-12 9.5l-52 56q-4 3 -7.5 5t-6.5 2q-4 0 -7.5 -2t-6.5 -5l-52 -56q-6 -7 -12.5 -9.5t-15.5 -2.5h-110q-9 0 -13.5 3.5t-4.5 9.5q0 3 1.5 7t5.5 8l197 192
q4 4 8 6.5t10 2.5z" />
    <glyph glyph-name="caron" unicode="&#x2c7;" horiz-adv-x="526" 
d="M269 593q-6 0 -10 2t-8 7l-197 192q-4 3 -5.5 7.5t-1.5 7.5q0 6 4.5 9.5t13.5 3.5h110q9 0 15.5 -3t12.5 -9l52 -56q3 -4 6.5 -5.5t7.5 -1.5q3 0 6.5 1.5t7.5 5.5l52 56q6 6 12 9t16 3h110q9 0 13.5 -3.5t4.5 -9.5q0 -3 -2 -7.5t-5 -7.5l-197 -192q-5 -5 -8.5 -7t-9.5 -2
z" />
    <glyph glyph-name="uni02D0" unicode="&#x2d0;" horiz-adv-x="425" 
d="M210 393l-114 196h224zM96 107l114 196l110 -196h-224z" />
    <glyph glyph-name="breve" unicode="&#x2d8;" horiz-adv-x="499" 
d="M249 599q-41 0 -74.5 13.5t-59.5 36.5q-26 22 -43.5 51t-24.5 59q-3 8 0 13t12 7l81 15q8 1 13.5 -2t9.5 -12q12 -29 34 -46.5t52 -17.5q29 0 51.5 17.5t34.5 46.5q3 9 8.5 12t14.5 2l81 -15q8 -2 11 -7t1 -13q-8 -30 -25.5 -59t-43.5 -51q-26 -23 -59.5 -36.5
t-73.5 -13.5z" />
    <glyph glyph-name="dotaccent" unicode="&#x2d9;" horiz-adv-x="260" 
d="M209 652q0 -9 -4.5 -13.5t-12.5 -4.5h-120q-9 0 -13.5 4.5t-4.5 13.5v95q0 9 4.5 14t13.5 5h120q8 0 12.5 -5t4.5 -14v-95z" />
    <glyph glyph-name="ring" unicode="&#x2da;" horiz-adv-x="427" 
d="M348 706q0 -57 -42 -97t-107 -40q-66 0 -108 40t-42 97t42 97t108 40q65 0 107 -40t42 -97zM244 707q0 25 -12 39.5t-33 14.5t-33 -14.5t-12 -39.5q0 -26 12 -40t33 -14t33 14t12 40z" />
    <glyph glyph-name="ogonek" unicode="&#x2db;" horiz-adv-x="250" 
d="M185 -141q0 -12 -3 -23t-8 -23l-67 -112q-5 -6 -11.5 -10.5t-14.5 -4.5h-12q-10 0 -14 5t-4 11v185q0 9 4 13.5t14 4.5h99q8 0 12.5 -4.5t4.5 -13.5v-28z" />
    <glyph glyph-name="tilde" unicode="&#x2dc;" horiz-adv-x="598" 
d="M554 661q-34 -34 -71.5 -50t-79.5 -16q-26 0 -55.5 7.5t-62.5 26.5q-22 11 -40 17t-32 6q-24 0 -46 -9.5t-43 -27.5q-6 -8 -12.5 -8t-13.5 8l-47 57q-6 6 -6 11t6 12q33 33 71.5 49.5t80.5 16.5q24 0 54 -9.5t63 -25.5q21 -14 39.5 -20t33.5 -6q23 0 45 10t45 31
q6 5 11 5t13 -5l47 -58q6 -6 6 -12t-6 -10z" />
    <glyph glyph-name="hungarumlaut" unicode="&#x2dd;" horiz-adv-x="605" 
d="M271 602q0 4 1 7t4 6l191 204q6 6 12.5 6t12.5 -6l72 -56q4 -8 4 -13.5t-4 -11.5l-126 -139q-6 -7 -13 -9.5t-16 -2.5h-122q-8 0 -12 4t-4 11zM27 602q0 4 1 7t4 6l191 204q6 6 12.5 6t12.5 -6l76 -56q4 -8 4 -13.5t-4 -11.5l-130 -139q-6 -7 -13 -9.5t-16 -2.5h-122
q-8 0 -12 4t-4 11z" />
    <glyph glyph-name="Alpha" unicode="&#x391;" 
d="M689 685l81 -764h-129l-17 177h-311l-113 -177h-136l489 764h136zM383 213l228 -1l-29 337z" />
    <glyph glyph-name="Beta" unicode="&#x392;" 
d="M552 687q55 -1 91.5 -14t65.5 -48q24 -28 34.5 -57.5t10.5 -68.5q0 -70 -32.5 -114t-87.5 -68q40 -19 67 -65t27 -115q0 -50 -16.5 -92t-49.5 -71t-72.5 -42t-93.5 -13h-380l216 769zM500 379q29 0 54.5 9t45.5 25q19 15 30.5 35.5t11.5 43.5q0 39 -27.5 65t-69.5 26
h-129l-58 -204h142zM261 24h235q57 0 92.5 31t35.5 83q0 56 -36.5 95t-87.5 39h-168z" />
    <glyph glyph-name="Gamma" unicode="&#x393;" 
d="M331 685h402l64 -170l-108 -40l-44 99h-221l-187 -654h-126z" />
    <glyph glyph-name="uni0394" unicode="&#x394;" 
d="M763 691v-772h-713l591 772h122zM263 30h383l1 491z" />
    <glyph glyph-name="Epsilon" unicode="&#x395;" 
d="M374 369h307l-36 -106h-307l-72 -241h340l-28 -105h-471l249 772h433l-28 -107h-317z" />
    <glyph glyph-name="Zeta" unicode="&#x396;" 
d="M287 690h488l-24 -133l-477 -523h376l-21 -116h-519l24 124l481 531h-344z" />
    <glyph glyph-name="Eta" unicode="&#x397;" 
d="M641 379l84 309h117l-211 -768h-118l96 348h-335l-97 -348h-119l218 768h118l-86 -309h333z" />
    <glyph glyph-name="Theta" unicode="&#x398;" 
d="M246 587q40 49 111 79.5t152 30.5q64 0 115.5 -19.5t87.5 -54.5t56 -85.5t20 -111.5q0 -45 -9 -99t-24 -106q-15 -53 -34.5 -99t-39.5 -75q-22 -31 -53 -56.5t-68 -43.5q-37 -19 -78 -29t-81 -10q-44 0 -91 13.5t-80 34.5q-57 33 -87 93t-30 138q0 49 10.5 105.5
t28.5 110.5t42.5 102t51.5 82v0zM682 450q0 74 -45 111t-133 37q-90 0 -144.5 -42t-93.5 -138q-22 -57 -33.5 -113.5t-11.5 -115.5q0 -84 47.5 -132t131.5 -48q47 0 82.5 10t62.5 33q28 23 49.5 61t41.5 94q21 62 33.5 125t12.5 118v0zM365 343h175l12 56h61l-43 -193h-60
l13 55h-174l-13 -55h-61l43 193h59z" />
    <glyph glyph-name="Iota" unicode="&#x399;" 
d="M480 690h124l-186 -772h-121z" />
    <glyph glyph-name="Kappa" unicode="&#x39a;" 
d="M257 691h122l-59 -313l306 313h156l-384 -381l288 -392h-145l-242 333l-59 -333h-113z" />
    <glyph glyph-name="Lambda" unicode="&#x39b;" 
d="M662 691v-774h-128v596l-313 -596h-129l416 774h154z" />
    <glyph glyph-name="Mu" unicode="&#x39c;" 
d="M693 690h154l-130 -771h-116l96 549l-278 -549h-67l-86 572l-95 -572h-114l131 771h149l82 -551z" />
    <glyph glyph-name="Nu" unicode="&#x39d;" 
d="M671 689h123l-149 -773h-128l-182 592l-108 -592h-123l147 773h142l177 -566z" />
    <glyph glyph-name="Xi" unicode="&#x39e;" 
d="M633 523l10 55h-256l-17 -55h-89l37 161h441l-42 -161h-84zM242 256l28 107h392l-27 -107h-393zM670 84l-44 -161h-491l41 161h90l-13 -55h310l17 55h90z" />
    <glyph glyph-name="Omicron" unicode="&#x39f;" 
d="M253 582q45 54 105.5 83.5t132.5 29.5q130 0 205 -80.5t75 -218.5q0 -106 -27.5 -199t-81.5 -162q-46 -60 -109.5 -91.5t-138.5 -31.5q-132 0 -207.5 81.5t-75.5 226.5q0 101 32.5 198t89.5 164v0zM645 387q0 100 -40 155t-113 55q-50 0 -93 -26t-72 -72
q-17 -28 -31.5 -63.5t-24.5 -74.5q-10 -40 -15.5 -81t-5.5 -79q0 -85 42.5 -133t117.5 -48q67 0 114 39t80 124q21 53 31 102t10 102v0z" />
    <glyph glyph-name="Pi" unicode="&#x3a0;" 
d="M199 689h591l-21 -109h-50l-110 -662h-117l114 662h-261l-120 -662h-116l118 662h-46z" />
    <glyph glyph-name="Rho" unicode="&#x3a1;" 
d="M298 690h234q104 0 162 -53t58 -146q0 -124 -64.5 -191.5t-181.5 -67.5h-178l-62 -314h-118zM350 342h155q63 0 96.5 37t33.5 108q0 47 -25 69t-81 22h-141z" />
    <glyph glyph-name="Sigma" unicode="&#x3a3;" 
d="M556 322l-262 -296h362l-20 -108h-515l26 115l264 293l-160 252l22 110h482l-21 -109h-338z" />
    <glyph glyph-name="Tau" unicode="&#x3a4;" 
d="M410 578h-212l23 111h525l-24 -111h-195l-118 -662h-116z" />
    <glyph glyph-name="Upsilon" unicode="&#x3a5;" 
d="M430 532q21 40 46.5 63.5t64.5 46.5q22 12 40 19.5t39 11.5q21 5 49.5 8t71.5 6l-25 -118q-75 -8 -124 -34t-80 -74q-22 -27 -42 -82.5t-29 -108.5l-56 -351h-112l61 389q4 25 6.5 47t2.5 40q0 72 -30 118t-108 79l38 102q37 -13 62.5 -24.5t44.5 -25.5q18 -13 32 -29.5
t28 -37.5q9 -15 13 -24.5t7 -20.5v0z" />
    <glyph glyph-name="Phi" unicode="&#x3a6;" 
d="M581 689l-13 -64q123 -23 179.5 -90.5t56.5 -185.5q0 -51 -11.5 -98.5t-32.5 -88.5q-21 -42 -50 -75.5t-65 -54.5q-36 -24 -84 -32.5t-115 -8.5l-14 -73h-106l18 79q-44 7 -74.5 16.5t-52.5 21.5q-54 31 -83.5 90.5t-29.5 137.5q0 96 41 178t113 133q41 26 89 40t115 18
l10 57h109zM464 100h22q20 0 32.5 1t21.5 3q8 3 15.5 6.5t18.5 9.5q59 33 88.5 92.5t29.5 145.5q0 48 -20.5 87t-55.5 60q-15 8 -30 11.5t-34 6.5zM359 111l89 422q-29 -3 -48.5 -5.5t-34.5 -7.5t-27.5 -12t-26.5 -18q-50 -37 -74.5 -90t-24.5 -122q0 -71 35 -112.5
t112 -54.5v0z" />
    <glyph glyph-name="Chi" unicode="&#x3a7;" 
d="M665 689h139l-266 -370l162 -402h-132l-115 303l-215 -303h-144l301 418l-137 354h130l98 -251z" />
    <glyph glyph-name="Psi" unicode="&#x3a8;" 
d="M297 -81l41 225q-123 4 -177 47.5t-54 133.5q0 20 7 67t20 113q2 14 4.5 27.5t4.5 25.5q1 12 2.5 23t1.5 22q0 31 -6 50t-18 36h133q6 -15 9 -26t3 -29q0 -16 -8 -60.5t-18 -89.5q-15 -57 -20.5 -88.5t-5.5 -58.5q0 -12 2 -19.5t13 -24.5q10 -21 36 -29t85 -9l72 434h119
l-75 -441q55 2 87.5 9t51.5 34q19 28 30.5 83.5t26.5 154.5q12 76 21 110.5t21 49.5h138q-13 -11 -20.5 -23.5t-13.5 -28.5q-9 -22 -19 -65.5t-17 -92.5q-15 -93 -29 -146t-30 -86q-32 -55 -87.5 -82.5t-136.5 -27.5h-42l-39 -218h-113z" />
    <glyph glyph-name="uni03A9" unicode="&#x3a9;" 
d="M84 -81l29 110h164q-21 22 -35.5 40t-25.5 36q-10 18 -18 36.5t-15 42.5q-11 33 -15 66.5t-4 65.5q0 80 24 148t67 118q43 49 102.5 77.5t129.5 28.5q65 0 119.5 -21t93.5 -58t61 -89t22 -115q0 -72 -21 -141t-56 -117q-18 -22 -50 -50.5t-83 -67.5h142l-18 -110h-281
l31 149q114 71 165 146t51 173q0 85 -48.5 138t-125.5 53q-96 0 -151.5 -75.5t-55.5 -201.5q0 -77 24 -130t83 -108l-33 -144h-272z" />
    <glyph glyph-name="alpha" unicode="&#x3b1;" horiz-adv-x="600" 
d="M502 458l104 -33q-18 -56 -35.5 -99.5t-39.5 -83.5q-22 -41 -51.5 -81.5t-69.5 -88.5q9 -26 25.5 -35t49.5 -9l-47 -102q-52 0 -77 12t-45 48q-42 -35 -77 -48.5t-77 -13.5q-80 0 -129.5 53.5t-49.5 141.5q0 59 22 124.5t58 118.5q39 57 94 87.5t116 30.5q66 0 104 -34.5
t38 -95.5q0 -20 -2.5 -52t-7.5 -62l6 -2q18 27 30.5 50t22.5 48q9 25 18 55t20 71v0zM273 64q5 4 8.5 7t6.5 6q2 2 3.5 4t2.5 3q0 12 0.5 22t1.5 22q0 12 1.5 28.5t4.5 43.5q1 6 1.5 13.5t1.5 16.5t1.5 19t2.5 21v22q0 15 0.5 18.5t0.5 6.5q0 26 -14.5 42t-35.5 16
q-28 0 -55.5 -22.5t-49.5 -57.5q-23 -36 -36.5 -79.5t-13.5 -86.5q0 -47 23 -75t60 -28q16 0 31 4.5t31 15.5q3 1 5 2.5t5 3.5l5 5t8 7v0z" />
    <glyph glyph-name="beta" unicode="&#x3b2;" horiz-adv-x="600" 
d="M124 -170h-120l114 605q23 127 88.5 195.5t165.5 68.5q80 0 129 -44t49 -118q0 -69 -35.5 -115.5t-101.5 -70.5q57 -26 86 -75.5t29 -125.5q0 -54 -17 -98.5t-47 -76.5q-30 -31 -72.5 -48.5t-93.5 -17.5q-48 0 -82.5 14.5t-64.5 47.5zM240 286l17 109h44q51 0 85.5 36.5
t34.5 90.5q0 32 -15.5 49t-42.5 17q-42 0 -73 -37t-44 -106l-68 -330q-2 -8 2.5 -23.5t10.5 -25.5q12 -21 38.5 -34.5t56.5 -13.5q51 0 81.5 37.5t30.5 100.5q0 60 -33.5 95.5t-87.5 35.5z" />
    <glyph glyph-name="gamma" unicode="&#x3b3;" horiz-adv-x="600" 
d="M275 -86h-129l34 228q3 24 5.5 49.5t2.5 42.5q0 55 -25 89.5t-67 34.5q-12 0 -27 -3.5t-44 -15.5l18 119q24 9 41.5 12.5t38.5 3.5q54 0 89.5 -32t60.5 -101q23 39 44 64.5t43 40.5q23 15 49 21.5t60 6.5q24 0 46.5 -4.5t63.5 -16.5l-25 -116q-23 12 -38.5 16.5
t-34.5 4.5q-35 0 -68 -18t-56 -48q-16 -21 -27.5 -56t-19.5 -83z" />
    <glyph glyph-name="delta" unicode="&#x3b4;" horiz-adv-x="600" 
d="M568 669l-21 -114q-54 12 -75 16t-36 7q-18 3 -42.5 5t-36.5 2q-17 0 -28 -4.5t-11 -11.5q-1 -3 8 -14.5t21 -21.5l13 -10q45 -38 76.5 -71.5t51.5 -68.5q19 -34 28 -71t9 -80q0 -48 -13.5 -97t-37.5 -92q-36 -64 -89 -96.5t-120 -32.5q-102 0 -162.5 65t-60.5 174
q0 64 21 124t57 99q30 29 65.5 45t93.5 28q-44 39 -69 62t-37 38q-13 15 -16 26t-3 26q0 46 54 69.5t161 23.5q24 0 45 -1.5t44 -4.5t49 -8t61 -11v0zM402 221q0 59 -27 94.5t-69 35.5q-26 0 -50.5 -18t-43.5 -47t-30.5 -66.5t-11.5 -77.5q0 -54 26 -87.5t68 -33.5
q27 0 52 16t44 43t30.5 63.5t11.5 77.5v0z" />
    <glyph glyph-name="epsilon" unicode="&#x3b5;" horiz-adv-x="600" 
d="M536 97l-23 -135q-51 -24 -112.5 -36.5t-124.5 -12.5q-111 0 -168 41t-57 122q0 58 25.5 93t82.5 55q-27 30 -38 53t-11 53q0 71 60 113.5t163 42.5q71 0 121 -14t109 -48l-26 -108q-49 27 -100 42t-98 15q-48 0 -73.5 -14t-25.5 -38q0 -19 18.5 -29t54.5 -10h93
l-22 -116h-74q-65 0 -94.5 -17.5t-29.5 -53.5q0 -33 27 -49.5t83 -16.5q62 0 117 15.5t123 52.5v0z" />
    <glyph glyph-name="zeta" unicode="&#x3b6;" horiz-adv-x="600" 
d="M136 650h290q1 3 3 5.5t4 4.5q14 16 23 23.5t17 7.5q3 0 9 -2t9 -5l18 -14q21 -18 33 -27t18 -13l7 -7t5 -7q0 -2 1 -4.5t2 -4.5t2 -3.5t1 -2.5q0 -9 -10.5 -17t-22.5 -11q-13 -3 -19 -5t-13 -8q-22 -19 -37.5 -33t-29.5 -27q-13 -14 -26.5 -29l-31.5 -35
q-21 -23 -44.5 -52t-46.5 -58t-43 -55.5t-32 -45.5q-25 -35 -34 -55t-9 -34q0 -19 18.5 -28.5t70.5 -16.5q82 -10 122.5 -23t64.5 -37q18 -19 27.5 -43t9.5 -53q0 -74 -44.5 -116.5t-121.5 -42.5q-22 0 -52.5 3t-63.5 9l15 110q27 -8 41.5 -9.5t32.5 -1.5q33 0 50.5 10.5
t17.5 28.5q-3 18 -19 30.5t-48 17.5q-26 4 -43.5 7t-28.5 5q-12 2 -18.5 3.5t-9.5 2.5l-6 2h-6q-72 15 -105.5 48t-33.5 85q0 28 13.5 59.5t46.5 80.5q13 19 30 41.5t34 44.5q17 23 34 44t31 38q2 1 8 7.5t15 16.5t21 23t27 29q4 4 11.5 12t16.5 19h-230z" />
    <glyph glyph-name="eta" unicode="&#x3b7;" horiz-adv-x="600" 
d="M244 435q28 30 57 43t70 13q78 0 125.5 -48t47.5 -129q0 -22 -3.5 -48.5t-7.5 -55.5l-68 -373h-131l66 379q5 27 7.5 48.5t2.5 33.5q0 39 -19 61.5t-53 22.5q-42 0 -77 -36t-44 -87l-48 -278h-132l85 498h127z" />
    <glyph glyph-name="theta" unicode="&#x3b8;" horiz-adv-x="600" 
d="M151 566q38 63 96.5 95t130.5 32q90 0 142 -64t52 -174q0 -51 -7 -105.5t-20 -106.5q-12 -52 -30 -99.5t-39 -84.5q-43 -75 -98 -110.5t-127 -35.5q-99 0 -153.5 64.5t-54.5 180.5q0 53 7.5 109t21.5 109q14 54 34 102.5t45 87.5v0zM207 365h235q1 26 2.5 50t1.5 36
q0 69 -21 103.5t-61 34.5q-51 0 -87.5 -52t-69.5 -172v0zM418 262h-241q-4 -33 -6.5 -59.5t-2.5 -46.5q0 -64 22.5 -100t63.5 -36q46 0 82.5 44t65.5 129q2 7 4 13.5t3 14.5q2 8 4 17.5t5 23.5v0z" />
    <glyph glyph-name="iota" unicode="&#x3b9;" horiz-adv-x="370" 
d="M288 478l-70 -381q-3 -12 -3.5 -20t-0.5 -15q0 -10 9 -19.5t21 -9.5l3.5 0.5t6.5 1.5q9 1 15.5 2.5t11.5 3.5l8 2t7 2q2 0 4.5 0.5t5.5 1.5t6.5 2.5t8.5 3.5l-26 -122q-41 -12 -67.5 -16t-56.5 -4q-54 0 -74 16.5t-20 61.5q0 16 1 33t4 35l75 421h131z" />
    <glyph glyph-name="kappa" unicode="&#x3ba;" horiz-adv-x="600" 
d="M431 477h180l-334 -280l197 -281h-150l-140 206l-39 -206h-131l113 561h127l-37 -189z" />
    <glyph glyph-name="lambda" unicode="&#x3bb;" horiz-adv-x="600" 
d="M153 582l59 110q72 -24 115 -60t74 -99q16 -35 36.5 -95.5t43.5 -143.5q5 -24 9 -40t8 -27q3 -12 5.5 -20.5t5.5 -17.5q12 -36 24 -62.5t25 -47.5q14 -22 30.5 -40t38.5 -37l-109 -92q-24 28 -40 48t-27 38t-19.5 37.5t-17.5 46.5q-17 46 -32 100.5t-35 144.5
q-7 -5 -11 -8.5t-8 -7.5t-8 -9.5t-9 -13.5q-6 -11 -11 -21.5t-12 -25.5t-16.5 -37.5t-24.5 -56.5q-22 -50 -42 -85.5t-44 -62.5q-23 -26 -52 -47t-68 -40l-75 113q30 8 54.5 22.5t46.5 40.5q23 25 45.5 63t48.5 92q21 47 37 79.5t31 56.5q14 24 28.5 42t33.5 38l0.5 0.5
t0.5 1.5q1 0 2 0.5l3 1.5q-16 27 -29.5 46.5t-29.5 33.5q-16 13 -36.5 22.5t-48.5 18.5v0z" />
    <glyph glyph-name="uni03BC" unicode="&#x3bc;" horiz-adv-x="600" 
d="M143 479h130l-47 -288q-4 -18 -6 -38t-2 -35q0 -45 17.5 -71t47.5 -26q21 0 43 16.5t37 44.5q6 12 13 39t14 65l49 293h129l-65 -369q-2 -9 -2.5 -16t-1.5 -12q-1 -6 -1 -10.5v-8.5q0 -10 8.5 -15.5t26.5 -5.5h30l-18 -116q-39 0 -64 1t-40 6t-23.5 14t-14.5 24
q-28 -33 -53 -45t-65 -12q-38 0 -62.5 15t-43.5 51l-26 -151h-131z" />
    <glyph glyph-name="nu" unicode="&#x3bd;" horiz-adv-x="600" 
d="M640 479l-32 -117q-29 0 -46 -6t-30 -21q-21 -22 -34.5 -53t-28.5 -100q-4 -13 -8 -29.5t-9 -32.5q-4 -16 -7.5 -30.5t-5.5 -22.5q-11 -37 -19.5 -58t-20.5 -38q-21 -30 -51.5 -44.5t-66.5 -14.5q-71 0 -107 51t-40 156q-3 44 -5.5 74.5t-2.5 41.5q-5 75 -18.5 102
t-46.5 27q-10 0 -26 -3t-49 -10l-15 110q31 10 53.5 14.5t49.5 4.5q58 0 94 -22t57 -69q7 -17 11 -30t7 -31q2 -18 4 -45t5 -70q1 -22 1.5 -37t0.5 -25l1.5 -16.5t1.5 -8.5l1 -9q1 -24 2 -33.5t4 -16.5q5 -10 12 -16t14 -6q6 0 14.5 12t13.5 33l16 52q20 70 28 101t10 42
l5 20q16 50 35 83.5t46 53.5q26 21 63 29.5t90 8.5q3 0 11 -0.5t18 -0.5z" />
    <glyph glyph-name="xi" unicode="&#x3be;" horiz-adv-x="600" 
d="M161 665h283q15 1 23.5 3.5t14.5 5.5q20 8 31 10t20 2t18 -10.5t19 -35.5q5 -15 7.5 -25t2.5 -17q0 -18 -9.5 -25t-34.5 -7h-29q-7 0 -20.5 -1t-31.5 -3q-57 -16 -86 -29t-49 -34q-21 -17 -29 -32t-8 -30q0 -29 38 -46t104 -17h34l-22 -114q-54 0 -81 -2t-54 -8
q-57 -12 -90.5 -43.5t-33.5 -71.5q0 -30 18.5 -42t75.5 -21q54 -9 78 -16.5t43 -19.5q24 -16 39 -45.5t15 -63.5q0 -45 -21.5 -80.5t-59.5 -50.5q-18 -7 -42 -9.5t-58 -2.5q-8 0 -16 0.5t-17 0.5t-20 0.5t-24 0.5l14 112q20 -3 34 -3.5t23 -0.5q32 0 50 7.5t18 24.5
t-15.5 24t-64.5 13q-27 3 -47.5 7t-36.5 10q-54 15 -84.5 51.5t-30.5 87.5q0 54 29.5 101t81.5 77q15 8 30 14t43 16q-44 21 -62 45.5t-18 60.5q0 37 23 69.5t68 57.5v1h-112z" />
    <glyph glyph-name="omicron" unicode="&#x3bf;" horiz-adv-x="600" 
d="M143 410q34 39 81.5 58.5t107.5 19.5q48 0 87.5 -17t68.5 -47q28 -30 44 -72t16 -93q0 -64 -19.5 -130t-50.5 -114q-36 -53 -86 -77.5t-116 -24.5q-103 0 -163.5 65t-60.5 176q0 68 24 136.5t67 119.5v0zM417 277q0 44 -25 71t-69 27q-29 0 -51.5 -15.5t-39.5 -45.5
q-24 -39 -36.5 -88.5t-12.5 -95.5q0 -53 24.5 -80.5t72.5 -27.5q36 0 62.5 25.5t47.5 80.5q12 34 19.5 74t7.5 75v0z" />
    <glyph glyph-name="pi" unicode="&#x3c0;" horiz-adv-x="600" 
d="M589 478l-24 -112h-48q-2 -11 -3.5 -20t-3.5 -16q-1 -8 -2 -14t-1 -11l-14 -77t-9 -49q-3 -18 -4 -37t-1 -36q0 -36 15 -70t56 -55l-112 -72q-48 31 -68 78.5t-20 91.5q0 53 9.5 128t27.5 159h-167q-13 -112 -23.5 -185t-23.5 -122t-29.5 -81.5t-40.5 -61.5l-115 51
q24 29 36 51.5t21 52.5q6 24 10.5 46t9.5 53t10.5 76t13.5 114q-16 -2 -26.5 -5t-32.5 -14l10 121q22 9 39.5 12.5t50.5 3.5h459z" />
    <glyph glyph-name="rho" unicode="&#x3c1;" horiz-adv-x="600" 
d="M169 -10l-37 -188h-124l73 354q36 174 104.5 251.5t182.5 77.5q99 0 155.5 -58t56.5 -157q0 -36 -7.5 -73.5t-21.5 -72.5q-13 -35 -31 -66.5t-39 -53.5q-33 -35 -77 -53.5t-91 -18.5q-45 0 -76.5 12.5t-67.5 45.5v0zM450 252q0 52 -25 84.5t-64 32.5q-29 0 -55 -17.5
t-46 -47.5q-20 -29 -31.5 -67t-11.5 -78q0 -48 26 -80.5t66 -32.5q27 0 52.5 17t45.5 45q19 29 31 66t12 78v0z" />
    <glyph glyph-name="sigma" unicode="&#x3c3;" horiz-adv-x="600" 
d="M576 595l26 -113q-31 -6 -52.5 -11t-39.5 -11q-19 -6 -37 -13.5t-40 -17.5q49 -31 69 -71t20 -106q0 -49 -13.5 -101.5t-34.5 -95.5q-37 -71 -92.5 -106t-133.5 -35q-103 0 -162 64.5t-59 174.5q0 98 51.5 180.5t148.5 140.5q52 32 124 59t147 45q13 3 33 7t45 10v0z
M395 244q0 52 -26 84t-69 32q-30 0 -56 -17.5t-45 -47.5q-20 -30 -31 -69.5t-11 -83.5q0 -55 24.5 -84.5t67.5 -29.5q34 0 62.5 19.5t46.5 60.5q17 32 27 70t10 66v0z" />
    <glyph glyph-name="tau" unicode="&#x3c4;" horiz-adv-x="600" 
d="M546 482l-21 -123q-34 -9 -53.5 -11.5t-45.5 -2.5q-10 0 -31.5 2t-43.5 5l-42 -247q-1 -8 -2 -15t-2 -13t-2 -11.5t-1 -10.5q-3 -20 8 -26.5t35 -6.5q4 0 14.5 1t22.5 2q12 2 23 3.5t17 3.5l-29 -110q-43 -6 -75 -8t-56 -2q-50 0 -73 22.5t-23 58.5l5 43l56 324
q-6 0 -10.5 0.5t-8.5 0.5q-5 0 -8 0.5t-5 0.5q-30 0 -66.5 -7t-68.5 -19l15 123q39 11 66.5 15t69.5 4q18 0 43.5 -1t49.5 -4l25 -2q14 -2 24.5 -3t18.5 -2q7 -1 12.5 -1.5t10.5 -0.5q8 -1 12 -1h13q27 0 54 3.5t72 15.5v0z" />
    <glyph glyph-name="upsilon" unicode="&#x3c5;" horiz-adv-x="600" 
d="M361 390l43 96q47 -13 67 -20.5t38 -20.5q23 -15 33.5 -31t10.5 -39q0 -6 -2.5 -22t-5.5 -35l-38 -223q-10 -53 -25 -88t-41 -56t-65 -29.5t-96 -8.5q-108 0 -157 39t-49 123q0 20 3 46t8 53l29 147q0 4 1 8t1 7q1 3 1.5 5t0.5 3q0 9 -12.5 18t-50.5 24l52 100
q80 -21 111 -47.5t31 -75.5q0 -9 -2 -21t-4 -23l-36 -191q-2 -9 -2.5 -17t-0.5 -18q0 -29 20 -44.5t57 -15.5q44 0 65 21.5t33 77.5l37 189q1 8 1.5 13.5t0.5 8.5q0 13 -10.5 22t-46.5 25v0z" />
    <glyph glyph-name="phi" unicode="&#x3c6;" horiz-adv-x="600" 
d="M214 30l40 250q14 92 61.5 142t119.5 50q75 0 122.5 -56t47.5 -148q0 -44 -8.5 -87t-23.5 -81t-36.5 -69.5t-47.5 -51.5q-34 -30 -73.5 -43.5t-105.5 -18.5l-19 -125h-117l21 128q-45 5 -70.5 13.5t-46.5 24.5q-43 29 -67 78.5t-24 111.5q0 46 12.5 90.5t36.5 84.5
q23 39 56 71t73 52q18 8 38 13.5t66 11.5l-17 -120q-33 -9 -52 -19.5t-38 -34.5q-27 -34 -39.5 -69t-12.5 -81q0 -57 22.5 -82t81.5 -35v0zM377 285l-44 -249q40 3 66 21t48 59q13 27 23 70t10 82q0 48 -10.5 70t-32.5 22q-21 0 -38.5 -21.5t-21.5 -53.5v0z" />
    <glyph glyph-name="chi" unicode="&#x3c7;" horiz-adv-x="600" 
d="M434 478h153l-214 -271l69 -158q9 -23 21.5 -30t42.5 -7h29l-18 -98l-60 -2q-57 -1 -85 15t-47 59l-45 104l-132 -178l-157 2l238 296l-55 129q-6 14 -20 22t-32 8h-33l-17 109h112q40 0 63 -15.5t41 -51.5l35 -81z" />
    <glyph glyph-name="psi" unicode="&#x3c8;" horiz-adv-x="600" 
d="M297 523h113l-88 -493q32 0 53.5 2t37.5 7q15 4 26.5 12t22.5 21q21 30 33 87.5t12 146.5q0 45 -9 69t-34 54l115 48q30 -37 42 -77t12 -109q0 -63 -10 -124t-23 -104q-29 -79 -97 -112.5t-203 -32.5l-22 -117h-114l24 128q-114 5 -167.5 46.5t-53.5 121.5q0 31 5 71.5
t14 80.5q8 41 19 78.5t24 64.5q14 30 27.5 47.5t40.5 35.5l97 -60q-30 -27 -43.5 -49.5t-25.5 -65.5q-6 -19 -13 -53t-16 -82q-3 -12 -4 -23t-1 -20q0 -43 26.5 -63t89.5 -22z" />
    <glyph glyph-name="omega" unicode="&#x3c9;" horiz-adv-x="600" 
d="M409 376l24 111q44 -12 67.5 -22.5t42.5 -27.5q34 -31 51 -79t17 -109q0 -35 -6 -72.5t-15 -72.5q-10 -35 -24 -65.5t-30 -52.5q-26 -34 -61 -52.5t-72 -18.5q-45 0 -76.5 23t-53.5 75q-27 -54 -56.5 -75t-74.5 -21q-73 0 -115.5 59.5t-42.5 159.5q0 91 35 172.5
t92 125.5q32 24 68 36.5t82 15.5l14 1l-15 -114q-33 -6 -53 -17t-38 -34q-27 -33 -44 -87t-17 -103q0 -47 10.5 -69.5t34.5 -22.5q25 0 44.5 28.5t27.5 76.5l26 153h124l-23 -147q-3 -12 -3.5 -22t-0.5 -13q0 -36 12.5 -58.5t33.5 -22.5q39 0 64.5 57.5t25.5 143.5
q0 71 -16 100t-59 40v0z" />
    <glyph glyph-name="uni0401" unicode="&#x401;" 
d="M489 683q0 30 18.5 48.5t46.5 18.5q30 0 49 -18.5t19 -48.5q0 -28 -19 -46t-49 -18q-28 0 -46.5 18t-18.5 46v0zM259 683q0 30 18.5 48.5t48.5 18.5q29 0 47 -18.5t18 -48.5q0 -29 -18 -46.5t-47 -17.5q-30 0 -48.5 18t-18.5 46v0zM189 -82v647h524v-104h-413v-155h340
v-105h-340v-177h413v-106h-524z" />
    <glyph glyph-name="uni0410" unicode="&#x410;" 
d="M385 690h124l274 -772h-138l-65 212h-260l-70 -212h-137zM347 230h203l-100 336z" />
    <glyph glyph-name="uni0411" unicode="&#x411;" 
d="M207 687h444l64 -119l-98 -63l-39 70h-246v-194l159 -1q112 -1 169.5 -62.5t57.5 -178.5q0 -48 -14.5 -92t-39.5 -69q-24 -28 -68.5 -43.5t-89.5 -15.5l-299 1v767zM332 32h115q79 0 111.5 26t32.5 90q0 60 -36 90t-108 30h-115v-236z" />
    <glyph glyph-name="uni0412" unicode="&#x412;" 
d="M186 692h306q105 0 158.5 -53t53.5 -153q0 -50 -18.5 -88t-56.5 -68q24 -12 40.5 -23t27.5 -22q21 -27 34.5 -67t13.5 -83q0 -66 -25 -115.5t-69 -75.5q-25 -14 -58 -21t-73 -7h-334v776zM302 578v-203l191 -1q43 0 69 28t26 76q0 47 -28 73.5t-78 26.5h-180zM302 261
v-231h205q59 0 90 29.5t31 84.5q0 57 -33.5 87t-98.5 30h-194z" />
    <glyph glyph-name="uni0413" unicode="&#x413;" 
d="M219 -83v661h-46v113h489l87 -147l-97 -60l-56 94h-252v-661h-125z" />
    <glyph glyph-name="uni0414" unicode="&#x414;" 
d="M783 -93l-88 -77l-75 90h-348q-20 -28 -52 -55t-57 -37q-15 24 -34.5 48t-46.5 51q2 1 3.5 1.5t3.5 1.5q1 1 3.5 2t5.5 4q39 22 63.5 42.5t37.5 47.5q14 26 19 61.5t5 86.5v408h-57v107h569v-107h-49v-553zM329 30h234v552h-219v-423q0 -31 -4.5 -64t-10.5 -65v0z" />
    <glyph glyph-name="uni0415" unicode="&#x415;" 
d="M695 -79h-524v766h524v-105h-413v-210h340v-105h-340v-241h413v-105z" />
    <glyph glyph-name="uni0416" unicode="&#x416;" 
d="M389 687h117v-320h28q29 0 44.5 20t18.5 64l2 25q0 15 3 34.5t6 37.5q13 74 61 106.5t146 32.5v-117h-10q-54 0 -73.5 -23t-22.5 -86q-3 -36 -13 -68t-27 -59q31 -18 45 -28t21 -19q18 -23 26 -67t10 -119q1 -40 3 -66.5t7 -45.5q6 -20 14.5 -35.5t23.5 -33.5l-139 -1
q-10 21 -15 53t-7 81l-2 15q-3 55 -8 92.5t-14 59.5q-10 23 -25.5 32.5t-39.5 9.5h-63v-342h-117v342h-56q-29 0 -46 -10.5t-30 -31.5q-9 -18 -13.5 -59.5t-4.5 -81.5q-1 -33 -2 -56t-4 -41t-7 -32.5t-10 -29.5h-139q12 13 20.5 26.5t13.5 32.5t8 46t4 67q0 61 5.5 100
t17.5 67q9 24 26 41t56 34q-26 36 -35 64t-15 77q-6 54 -20.5 74.5t-51.5 20.5h-7h-5h-4h-4v117q61 0 92.5 -7t56.5 -29q22 -19 35.5 -51t19.5 -80q5 -33 8 -55.5t3 -25.5q5 -35 20.5 -53t42.5 -18l25 -1v320z" />
    <glyph glyph-name="uni0417" unicode="&#x417;" 
d="M146 636l65 -50q23 31 47 51.5t52 33.5q29 13 64 18.5t81 5.5q117 0 177.5 -54.5t60.5 -157.5q0 -55 -20 -93.5t-59 -59.5q54 -27 78 -69.5t24 -111.5q0 -114 -68.5 -175t-196.5 -61q-67 0 -120 20t-89 60q-34 35 -50.5 80.5t-22.5 118.5h133q6 -47 15.5 -77.5
t26.5 -47.5q18 -18 44.5 -25t66.5 -7q63 0 99.5 32t36.5 89q0 55 -28 85.5t-81 30.5h-110v115h107q44 0 65 20t21 63q0 56 -35 86t-101 30q-51 0 -93 -18t-64 -50q-13 -15 -18 -32.5t-6 -44.5h-102v195z" />
    <glyph glyph-name="uni0418" unicode="&#x418;" 
d="M727 691v-773h-127v542l-10 2l-277 -544h-139v773h124v-536l11 -2l277 538h141z" />
    <glyph glyph-name="uni0419" unicode="&#x419;" 
d="M517 757h99q-8 -76 -50.5 -113.5t-120.5 -37.5q-55 0 -91.5 21t-53.5 62q-7 16 -11 28.5t-7 39.5h99q3 -34 17.5 -45.5t47.5 -11.5q34 0 49.5 12t21.5 45v0zM174 -83v663h120v-465l11 -2l291 467h129v-663h-126v461l-9 2l-285 -463h-131z" />
    <glyph glyph-name="uni041A" unicode="&#x41a;" 
d="M184 -83v773h124v-320h66q33 0 53.5 15.5t33.5 48.5q2 4 4.5 11.5t4.5 18.5q3 10 5.5 22.5t6.5 28.5q12 47 24.5 76.5t28.5 46.5q21 27 50 38t83 11h56v-117h-23q-28 0 -46 -5t-30 -18t-20 -37t-16 -63q-5 -24 -10 -40.5t-11 -29.5q-7 -12 -16.5 -23.5t-24.5 -24.5
l218 -412h-140l-143 279q-19 36 -35 49.5t-41 13.5h-78v-342h-124z" />
    <glyph glyph-name="uni041B" unicode="&#x41b;" 
d="M689 -81h-120v669h-235v-190q0 -43 -3 -85.5t-7 -81.5q-5 -38 -11 -71t-12 -56q-20 -65 -51 -110t-82 -84l-73 106q27 18 40.5 33t28.5 41q10 18 17.5 37t11.5 40q10 47 16 110.5t6 140.5v170h-48l-2 107h572v-107h-48v-669z" />
    <glyph glyph-name="uni041C" unicode="&#x41c;" 
d="M841 -83h-112l-57 485l-18 1l-141 -486h-118l-136 489l-18 -1l-56 -488h-113l89 771h121l162 -553h16l169 553h115z" />
    <glyph glyph-name="uni041D" unicode="&#x41d;" 
d="M167 -81v770h116v-314h337v314h114v-770h-114v347h-337v-347h-116z" />
    <glyph glyph-name="uni041E" unicode="&#x41e;" 
d="M158 301q0 89 20 161.5t58 123.5t92 79t122 28q63 0 115.5 -24.5t94.5 -74.5q44 -53 65.5 -124.5t21.5 -161.5q0 -89 -20.5 -161.5t-57.5 -124.5q-38 -51 -91 -79t-119 -28q-67 0 -122.5 28t-95.5 79q-39 51 -61 122t-22 157v0zM635 302q0 127 -49.5 203t-131.5 76
q-85 0 -133.5 -71.5t-48.5 -194.5q0 -132 49.5 -207t136.5 -75q39 0 71.5 19.5t55.5 54.5q24 35 37 85t13 110v0z" />
    <glyph glyph-name="uni041F" unicode="&#x41f;" 
d="M698 -81h-119v662h-261v-662h-120v662h-62v107h620v-107h-58v-662z" />
    <glyph glyph-name="uni0420" unicode="&#x420;" 
d="M199 -78v764h286q49 0 90.5 -10t70.5 -25q43 -27 68.5 -78t25.5 -111q0 -59 -24.5 -110t-63.5 -76q-31 -18 -74 -28.5t-93 -10.5h-171v-315h-115zM314 575v-227h159q69 0 110 30.5t41 86.5q0 54 -38.5 82t-112.5 28h-159z" />
    <glyph glyph-name="uni0421" unicode="&#x421;" 
d="M729 469l-120 1q-13 52 -50.5 81t-96.5 29q-95 0 -148.5 -73t-53.5 -202q0 -59 10.5 -104.5t31.5 -79.5q27 -43 70.5 -67t91.5 -24q57 0 94 30t51 87h125q-20 -110 -89 -169t-181 -59q-75 0 -135 26t-102 75t-64 119t-22 157q0 103 28 180.5t85 132.5q41 39 93 59.5
t111 20.5q63 0 120 -25.5t95 -67.5q23 -27 35.5 -56t20.5 -71v0z" />
    <glyph glyph-name="uni0422" unicode="&#x422;" 
d="M162 694h572v-116h-220v-662h-122v662h-230v116z" />
    <glyph glyph-name="uni0423" unicode="&#x423;" 
d="M392 159l-250 534h127l185 -386l152 386h127l-260 -654q-16 -39 -30.5 -64t-32.5 -40q-17 -15 -39 -20.5t-51 -5.5q-23 0 -42.5 2.5t-50.5 11.5v130q15 -5 26 -8t20 -5q9 -3 16.5 -3.5t15.5 -0.5q26 0 39.5 12.5t28.5 53.5z" />
    <glyph glyph-name="uni0424" unicode="&#x424;" 
d="M393 -84v85q-142 17 -217.5 95.5t-75.5 207.5q0 67 28.5 132t79.5 104q31 27 75 43t110 24v83h112v-83q139 -18 215.5 -95.5t76.5 -201.5q0 -72 -29 -137.5t-79 -103.5q-33 -31 -76.5 -46.5t-107.5 -21.5v-85h-112zM505 505v-399q41 8 60 15t40 25q38 27 57 69t19 99
q0 45 -15.5 82.5t-43.5 61.5q-12 10 -21.5 16t-20.5 11q-12 4 -29.5 8.5t-45.5 11.5v0zM393 106v399q-96 -15 -138.5 -67t-42.5 -135t42.5 -132.5t138.5 -64.5v0z" />
    <glyph glyph-name="uni0425" unicode="&#x425;" 
d="M516 311l245 -391h-146l-165 286l-187 -286h-140l259 383l-239 387h143l164 -277l159 277h136z" />
    <glyph glyph-name="uni0426" unicode="&#x426;" 
d="M146 -81v112h46v660h126v-660h263v660h126v-681l83 -113l-94 -70l-70 92h-480z" />
    <glyph glyph-name="uni0427" unicode="&#x427;" 
d="M708 -75h-126v258q-45 -26 -83.5 -36.5t-83.5 -10.5q-112 0 -169.5 55t-57.5 163v330h128v-306q0 -63 31.5 -96.5t94.5 -33.5q60 0 100 26t40 65v345h126v-759z" />
    <glyph glyph-name="uni0428" unicode="&#x428;" 
d="M86 -75v110h42v649h126v-649h133v649h127v-649h125v649h127v-649h41v-110h-721z" />
    <glyph glyph-name="uni0429" unicode="&#x429;" 
d="M74 -74v111h34v645h126v-645h153v645h126v-645h149v645h118v-673l64 -118l-102 -55l-53 90h-615z" />
    <glyph glyph-name="uni042A" unicode="&#x42a;" 
d="M373 690v-285h155q120 0 187.5 -64.5t67.5 -178.5q0 -117 -61.5 -179.5t-176.5 -62.5h-287v653h-142v117h257zM373 22h177q55 0 86 37t31 100q0 64 -35 103.5t-97 39.5h-162v-280z" />
    <glyph glyph-name="uni042B" unicode="&#x42b;" 
d="M772 690v-767h-119v767h119zM128 -77v767h119v-282h115q111 0 168.5 -65.5t57.5 -191.5q0 -105 -63.5 -166.5t-171.5 -61.5h-225zM247 28h98q64 0 94.5 33t30.5 101q0 63 -32 101t-88 38h-103v-273z" />
    <glyph glyph-name="uni042C" unicode="&#x42c;" 
d="M197 -81v767h120v-282h145q130 0 197 -64t67 -186q0 -65 -25.5 -119t-67.5 -81q-26 -15 -70 -25t-90 -10h-276zM317 24h138q51 0 70.5 4.5t37.5 21.5q21 15 32 42t11 65q0 42 -15.5 74t-44.5 50q-18 12 -39 14t-60 2h-130v-273z" />
    <glyph glyph-name="uni042D" unicode="&#x42d;" 
d="M281 459h-111q24 107 98 167.5t185 60.5q138 0 214 -99.5t76 -279.5q0 -189 -77 -288t-224 -99q-90 0 -154.5 38.5t-95.5 110.5q-12 24 -19.5 50t-10.5 56h113q3 -29 7 -44t10 -25q21 -37 58.5 -59t87.5 -22q88 0 136 60t55 187q-33 -18 -56.5 -25.5t-32.5 -7.5
q-11 0 -32 7.5t-39 19.5q-18 14 -28.5 18.5t-22.5 4.5t-23.5 -6.5t-37.5 -24.5l-39 90q42 30 66.5 42t37.5 12q10 0 33.5 -9.5t38.5 -18.5q10 -7 18 -12.5t15 -9.5q8 -4 14.5 -6t13.5 -2q12 0 31 10.5t40 25.5q-12 102 -56 151t-124 49q-63 0 -101 -29.5t-64 -92.5v0z" />
    <glyph glyph-name="uni042E" unicode="&#x42e;" 
d="M182 282v-353h-118v751h118v-296h102q6 58 18 96.5t31 70.5q40 64 102.5 102t132.5 38q62 0 114 -28t89 -79q37 -50 58 -121.5t21 -158.5q0 -99 -27.5 -182t-75.5 -130q-36 -36 -82 -55.5t-93 -19.5q-84 0 -154 54.5t-110 152.5q-11 25 -18 64t-9 94h-99zM728 306
q0 127 -46 205t-122 78q-36 0 -65.5 -21.5t-50.5 -59.5t-32.5 -89.5t-11.5 -112.5q0 -64 11.5 -117t32.5 -90q21 -38 51 -58.5t68 -20.5q75 0 120 78.5t45 207.5v0z" />
    <glyph glyph-name="uni042F" unicode="&#x42f;" 
d="M697 -82h-117v332h-175q-53 0 -76.5 -23.5t-28.5 -82.5q-5 -50 -9 -82t-9 -55t-12 -43t-18 -46h-122q13 28 21 51t14 49q5 26 8 60t7 85q3 55 21 82.5t67 47.5q-55 33 -82 79.5t-27 103.5q0 97 57 155.5t153 58.5h328v-772zM580 583h-188q-56 0 -86.5 -27.5t-30.5 -75.5
q0 -54 32 -86.5t86 -32.5h187v222z" />
    <glyph glyph-name="uni0430" unicode="&#x430;" 
d="M680 -72h-129q-2 2 -3 4l-2 4q-1 1 -1 2v3l-1 11l-1.5 4.5t-0.5 2.5l-1.5 1.5t-0.5 1.5v10q-37 -31 -74.5 -45t-79.5 -14q-81 0 -130 46t-49 124q0 50 21 85.5t60 53.5q24 12 58 20.5t94 17.5q55 7 76 19.5t21 39.5t-22.5 41.5t-62.5 14.5q-48 0 -68 -15.5t-22 -54.5
h-125q4 93 56 137.5t159 44.5q101 0 155 -41.5t54 -120.5v-287q0 -42 3.5 -64t15.5 -46v0zM537 131l1 64q-11 -10 -19.5 -16t-19.5 -10t-25.5 -6.5t-36.5 -5.5q-11 -2 -19.5 -3t-15.5 -2t-11.5 -2t-7.5 -2q-7 -2 -11 -3t-10 -4q-18 -6 -26 -20.5t-8 -35.5q0 -33 20 -49.5
t59 -16.5q29 0 57 8.5t46 22.5q18 15 22 30t5 51v0z" />
    <glyph glyph-name="uni0431" unicode="&#x431;" 
d="M676 673v-111q-33 -18 -53.5 -23.5t-41.5 -5.5q-14 0 -27.5 2t-26.5 8q-11 5 -19.5 9t-14.5 7q-7 3 -11.5 5t-7.5 4q-6 2 -11 2.5t-14 0.5q-39 0 -64 -44t-37 -139q27 21 51.5 29.5t57.5 8.5q45 0 83 -19t65 -53q27 -33 42.5 -80t15.5 -103q0 -57 -16 -105t-45 -83
q-28 -35 -68 -54t-87 -19q-109 0 -170 93.5t-61 261.5q0 95 18 179t52 141q33 56 70.5 80.5t89.5 24.5q12 0 20.5 -1t17.5 -4q9 -2 20.5 -7t31.5 -13q13 -8 26 -12t21 -4q21 0 40.5 5t52.5 19v0zM545 165q0 64 -25 103.5t-66 42.5q-48 3 -80.5 -39.5t-32.5 -108.5
q0 -65 29 -104.5t76 -39.5q43 0 71 40t28 106v0z" />
    <glyph glyph-name="uni0432" unicode="&#x432;" 
d="M222 480h294q72 0 118 -40.5t46 -102.5q0 -36 -16 -65.5t-51 -54.5q42 -23 63 -58t21 -77q0 -37 -14.5 -68.5t-40.5 -54.5q-27 -23 -63 -35.5t-79 -12.5h-278v569zM339 256h124q44 0 68 16t24 45q0 33 -25.5 48.5t-82.5 15.5h-108v-125zM338 14h133q51 0 71.5 14t20.5 52
q0 36 -21.5 55t-63.5 19h-140v-140z" />
    <glyph glyph-name="uni0433" unicode="&#x433;" 
d="M253 -93v574h383l76 -143l-102 -64l-47 84h-189v-451h-121z" />
    <glyph glyph-name="uni0434" unicode="&#x434;" 
d="M663 8l76 -125l-95 -65l-63 97h-272q-29 -40 -61 -61.5t-81 -38.5l-68 107q25 9 49.5 21.5t45.5 29.5q18 18 29.5 44.5t15.5 65.5q0 4 0.5 9.5t1.5 14.5q0 9 0.5 21.5t2.5 30.5q1 25 1.5 50.5t0.5 52.5v105h-41v115h504v-115h-46v-359zM355 33h190v334h-180v-103
q0 -10 -0.5 -23t-1.5 -29q0 -15 -0.5 -33.5t-0.5 -38.5q0 -6 -0.5 -11t-0.5 -9v-8.5v-5.5q-1 -10 -1 -16v-7q0 -3 -0.5 -6t-0.5 -5q-1 -2 -1 -4v-2q-1 -4 -1 -6.5v-3.5q-1 -3 -1 -5.5v-8.5l-1 -3v-6z" />
    <glyph glyph-name="uni0435" unicode="&#x435;" 
d="M684 156h-353q6 -65 36.5 -96.5t89.5 -31.5q52 0 75.5 18.5t32.5 63.5h118q-17 -100 -74 -151.5t-152 -51.5q-112 0 -178.5 78t-66.5 211q0 65 17.5 120t48.5 94q32 40 75.5 62t96.5 22q57 0 107.5 -28.5t83.5 -75.5q21 -34 32 -81.5t11 -106.5v-46zM338 276h223
q-6 49 -32.5 74.5t-73.5 25.5q-52 0 -80.5 -25.5t-36.5 -74.5v0z" />
    <glyph glyph-name="uni0436" unicode="&#x436;" 
d="M739 493v-128q-39 -5 -49.5 -16t-15.5 -46q-6 -36 -13 -54.5t-25 -37.5q47 -18 67.5 -57.5t20.5 -106.5q0 -27 1 -44.5t4 -31.5t8 -28.5t14 -35.5h-131q-14 33 -18.5 53t-2.5 40l1 44q0 9 1 16l1 7q0 24 -3.5 39t-13.5 24t-28.5 14t-47.5 9v-246h-121v246
q-54 -7 -73.5 -27.5t-19.5 -70.5v-16.5t1 -19.5q2 -13 2.5 -23t0.5 -16q0 -29 -5.5 -43.5t-17.5 -29.5h-140l3 4q12 14 19 24.5t11 23.5t5.5 29.5t1.5 43.5q0 76 20.5 114.5t69.5 63.5q-21 12 -28.5 27.5t-15.5 61.5q-8 38 -18 49.5t-46 16.5v127q48 -6 78 -14t48 -24
t26.5 -41.5t13.5 -67.5q4 -47 15 -58.5t49 -11.5v218h121v-218q34 3 45 17.5t18 64.5q6 40 15.5 65t27.5 40q18 14 47.5 20.5t76.5 10.5v0z" />
    <glyph glyph-name="uni0437" unicode="&#x437;" 
d="M192 433l66 -29q35 52 80.5 77t108.5 25q105 0 167 -47.5t62 -127.5q0 -36 -14 -62.5t-47 -53.5q41 -33 55.5 -60t14.5 -66q0 -86 -58 -134.5t-166 -48.5q-76 0 -139 31t-95 86q-11 16 -18 36.5t-17 63.5h134q21 -55 53.5 -77.5t84.5 -22.5q44 0 66 17.5t22 53.5
q0 30 -18.5 47.5t-52.5 17.5h-98l-1 112h82q39 0 58 13t19 39q0 35 -24 53t-71 18q-39 0 -73.5 -15t-53.5 -40q-6 -9 -10 -18t-8 -26h-109v138z" />
    <glyph glyph-name="uni0438" unicode="&#x438;" 
d="M682 -94h-119v345l-2 1l-216 -346h-130v580h120v-360l2 -1l221 361h124v-580z" />
    <glyph glyph-name="uni0439" unicode="&#x439;" 
d="M513 649h108q-10 -87 -53.5 -129t-118.5 -42q-77 0 -119 42t-54 129h111q3 -36 18 -49t46 -13t45.5 13t16.5 49v0zM213 -96v567h119v-353l3 -1l220 354h126v-567h-121v337l-2 1l-216 -338h-129z" />
    <glyph glyph-name="uni043A" unicode="&#x43a;" 
d="M235 -93v579l124 1v-216h51q37 0 52 15.5t28 62.5q21 78 51.5 108t89.5 30h57v-136h-41q-23 0 -34.5 -11.5t-17.5 -40.5q-9 -41 -19 -59t-31 -36l159 -297h-137l-108 199q-11 21 -20.5 27.5t-26.5 6.5h-53v-233h-124z" />
    <glyph glyph-name="uni043B" unicode="&#x43b;" 
d="M669 -93h-122v457h-173q0 -57 -0.5 -89t-0.5 -53q-1 -20 -2.5 -35.5t-3.5 -37.5q-7 -50 -17.5 -86.5t-26.5 -66.5q-17 -29 -41.5 -53t-58.5 -46l-61 117q22 10 33 21t20 25q18 30 28 93t10 132l-1 79h-47v123h513v-123h-49v-457z" />
    <glyph glyph-name="uni043C" unicode="&#x43c;" 
d="M450 75l143 412h126l40 -582h-121l-22 333h-2l-104 -333h-113l-131 362l-15 -362h-120l25 582h140z" />
    <glyph glyph-name="uni043D" unicode="&#x43d;" 
d="M213 487h122v-208h226v208h120v-581h-120v245h-226v-245h-122v581z" />
    <glyph glyph-name="uni043E" unicode="&#x43e;" 
d="M296 439q24 24 68 40t83 16q55 0 101 -21.5t80 -60.5q33 -39 51.5 -92.5t18.5 -117.5q0 -63 -19.5 -117.5t-52.5 -94.5t-78 -63t-97 -23t-98 23t-80 64q-34 40 -53.5 94.5t-19.5 116.5q0 67 25.5 131t70.5 105v0zM573 204q0 78 -33 124t-92 46q-56 0 -88.5 -46
t-32.5 -124q0 -80 32.5 -127t87.5 -47q60 0 93 46.5t33 127.5v0z" />
    <glyph glyph-name="uni043F" unicode="&#x43f;" 
d="M702 487v-121h-40v-460h-122v460h-179v-460h-122v460h-40v121h503z" />
    <glyph glyph-name="uni0440" unicode="&#x440;" 
d="M226 -224v722h124v-61q24 30 60 45.5t75 15.5q42 0 80.5 -19t64.5 -52q26 -31 41 -86.5t15 -119.5q0 -60 -10 -103t-32 -76q-29 -47 -72.5 -72t-93.5 -25q-36 0 -67 12t-61 39v-220h-124zM559 220q0 75 -27 118.5t-75 43.5q-49 0 -77.5 -46t-28.5 -118q0 -75 26 -114.5
t77 -39.5q48 0 76.5 42.5t28.5 113.5v0z" />
    <glyph glyph-name="uni0441" unicode="&#x441;" 
d="M682 310h-115q-7 35 -34 53.5t-75 18.5q-66 0 -102 -47.5t-36 -130.5q0 -81 35.5 -129t95.5 -48q46 0 74.5 24t37.5 68h119q-12 -102 -73.5 -162t-154.5 -60q-58 0 -106.5 22.5t-83.5 63.5q-35 40 -54.5 96.5t-19.5 124.5t19.5 125t54.5 98q36 41 84.5 64t107.5 23
q100 0 160 -56.5t66 -147.5v0z" />
    <glyph glyph-name="uni0442" unicode="&#x442;" 
d="M388 -96v460h-175v125h475v-125h-176v-460h-124z" />
    <glyph glyph-name="uni0443" unicode="&#x443;" 
d="M241 -174v132q15 -5 33 -7t35 -2q20 0 32 9t21 36l26 69l-198 423h139l126 -265l108 265h135l-233 -558q-14 -34 -26.5 -56t-28.5 -35q-16 -12 -36 -17t-47 -5q-8 0 -17 0.5t-20 2.5q-11 1 -23.5 3t-25.5 5v0z" />
    <glyph glyph-name="uni0444" unicode="&#x444;" 
d="M510 580v-141q33 32 59.5 44t63.5 12q44 0 82 -23t66 -63q28 -39 44 -93.5t16 -117.5q0 -62 -16 -115t-44 -91q-27 -39 -65 -60.5t-82 -21.5q-35 0 -66 14t-59 42v-144h-117v139q-27 -26 -56 -38.5t-65 -12.5q-44 0 -81 22t-64 61q-27 40 -42 94t-15 118q0 63 15.5 116.5
t43.5 91.5q28 39 67 60.5t86 21.5q33 0 59.5 -12t51.5 -36v133h118zM509 325v-239q14 -35 38.5 -50.5t60.5 -15.5q54 0 84.5 47.5t30.5 132.5t-32 134t-89 49q-31 0 -53 -13.5t-40 -44.5v0zM392 83v247q-21 28 -43 40.5t-51 12.5q-54 0 -83.5 -47.5t-29.5 -134.5
q0 -84 29.5 -132t78.5 -48q33 0 54.5 13t44.5 49v0z" />
    <glyph glyph-name="uni0445" unicode="&#x445;" 
d="M518 207l194 -298h-149l-116 186l-120 -186h-143l195 297l-183 278h149l105 -165l103 165h139z" />
    <glyph glyph-name="uni0446" unicode="&#x446;" 
d="M669 4l78 -136l-107 -62l-59 103h-396v121h45v456h121v-456h196v456h122v-482z" />
    <glyph glyph-name="uni0447" unicode="&#x447;" 
d="M660 -97h-124v186q-31 -18 -64.5 -25.5t-79.5 -7.5q-88 0 -135.5 51.5t-47.5 145.5v235h125v-192q0 -65 19.5 -89.5t71.5 -24.5q25 0 50.5 8t40.5 20q10 12 15 28t5 46v204h124v-585z" />
    <glyph glyph-name="uni0448" unicode="&#x448;" 
d="M764 -98h-635v127h37v460h126v-460h93v460h130v-460h91v460h127v-460h31v-127z" />
    <glyph glyph-name="uni0449" unicode="&#x449;" 
d="M738 -16l68 -118l-109 -61l-55 102h-517v127h45v457h126v-457h94v457h126v-457h93v457h129v-507z" />
    <glyph glyph-name="uni044A" unicode="&#x44a;" 
d="M393 299h140q83 0 135.5 -54.5t52.5 -141.5q0 -43 -14 -79t-39 -63q-25 -26 -60 -40.5t-76 -14.5h-261v459h-106v122h228v-188zM393 27h128q36 0 58.5 20t22.5 53q0 38 -23 59.5t-62 21.5h-124v-154z" />
    <glyph glyph-name="uni044B" unicode="&#x44b;" 
d="M621 -94v581h121v-581h-121zM160 -94v581h121v-183h103q81 0 132.5 -54t51.5 -138q0 -45 -14 -82.5t-38 -65.5q-25 -27 -59 -42.5t-74 -15.5h-223zM281 27h83q39 0 61 21.5t22 59.5q0 39 -22 58.5t-67 19.5h-77v-159z" />
    <glyph glyph-name="uni044C" unicode="&#x44c;" 
d="M245 486h120v-185h140q84 0 136.5 -54t52.5 -140q0 -44 -14.5 -81t-40.5 -64q-25 -27 -60 -42t-75 -15h-259v581zM365 26h118q42 0 66.5 21t24.5 57q0 39 -24 58.5t-72 19.5h-113v-156z" />
    <glyph glyph-name="uni044D" unicode="&#x44d;" 
d="M349 311h-122q14 52 33 85.5t52 60.5q29 23 62 35t72 12q116 0 181 -79t65 -220q0 -144 -64 -223t-179 -79q-53 0 -95.5 20.5t-75.5 60.5q-15 17 -26.5 43.5t-24.5 72.5h120q17 -43 40 -59.5t62 -16.5q60 0 87.5 28t30.5 93q-15 -6 -25.5 -8t-22.5 -2q-4 0 -17 2t-28 8
q-1 0 -2.5 0.5t-2.5 1.5l-4 2t-3 2q-7 2 -16 4.5t-15 2.5q-9 0 -20.5 -5t-33.5 -20l-39 108q32 22 50 30t36 8q12 0 28 -3.5t31 -7.5q15 -6 26 -8t19 -2q10 0 21.5 3t20.5 10q-6 55 -36.5 86t-78.5 31q-38 0 -63 -18t-43 -59v0z" />
    <glyph glyph-name="uni044E" unicode="&#x44e;" 
d="M253 272h78q5 37 13 60t25 50q34 57 84 87.5t115 30.5q52 0 97 -23t78 -64q33 -40 52 -96t19 -122t-18.5 -121.5t-51.5 -95.5t-77.5 -62t-96.5 -22q-95 0 -160.5 69t-83.5 188h-73v-245h-121v582h121v-216zM689 198q0 78 -32.5 127.5t-85.5 49.5q-55 0 -88.5 -49.5
t-33.5 -127.5t33.5 -128.5t88.5 -50.5q52 0 85 50t33 129v0z" />
    <glyph glyph-name="uni044F" unicode="&#x44f;" 
d="M671 486v-581h-119v224h-125q-21 0 -34.5 -7t-21.5 -23q-3 -5 -5 -10.5t-3 -14.5q-1 -10 -2 -25.5t-2 -41.5q-1 -29 -6 -49.5t-16 -50.5h-149q13 24 18 38t12 43q5 20 7.5 40t3.5 39q1 23 2 36.5t2 22.5q2 9 4 15t7 15q6 12 17 20.5t33 18.5q-42 24 -59.5 52.5
t-17.5 68.5q0 76 51.5 123t135.5 47h267zM552 365h-117q-40 0 -61.5 -15t-21.5 -42q0 -30 22.5 -42.5t66.5 -12.5h111v112z" />
    <glyph glyph-name="uni0451" unicode="&#x451;" 
d="M468 601q0 30 17 50t46 20q27 0 44.5 -20t17.5 -50q0 -29 -17.5 -49t-44.5 -20q-28 0 -45.5 20t-17.5 49v0zM284 600q0 30 18 49.5t45 19.5t45.5 -19.5t18.5 -49.5q0 -28 -18.5 -48t-45.5 -20t-45 20t-18 48v0zM684 152h-354q6 -65 37.5 -96t88.5 -31q53 0 76.5 18.5
t31.5 63.5h118q-15 -100 -72.5 -152t-153.5 -52q-56 0 -101 20t-77 58q-32 37 -49 90.5t-17 119.5t17.5 121t48.5 94q32 40 75.5 62t95.5 22q58 0 109.5 -27.5t81.5 -77.5q21 -31 32.5 -79.5t11.5 -107.5v-46zM338 272h224q-6 49 -33 74.5t-74 25.5q-52 0 -81 -25.5
t-36 -74.5v0z" />
    <glyph glyph-name="endash" unicode="&#x2013;" horiz-adv-x="618" 
d="M559 194q0 -8 -5.5 -11.5t-14.5 -3.5h-465q-9 0 -13 3.5t-4 11.5v92q0 9 4 14t13 5h465q9 0 14.5 -5t5.5 -14v-92z" />
    <glyph glyph-name="emdash" unicode="&#x2014;" horiz-adv-x="920" 
d="M871 200q0 -8 -5.5 -11.5t-14.5 -3.5h-777q-9 0 -13 3.5t-4 11.5v80q0 9 4 14t13 5h777q9 0 14.5 -5t5.5 -14v-80z" />
    <glyph glyph-name="uni2015" unicode="&#x2015;" 
d="M1 339h900v-53h-900v53z" />
    <glyph glyph-name="quoteleft" unicode="&#x2018;" horiz-adv-x="250" 
d="M103 612q0 12 2.5 22.5t8.5 21.5l67 109q4 6 10 12t17 6t16 -5.5t5 -14.5v-277q0 -9 -5 -13t-14 -4h-88q-10 0 -14.5 4t-4.5 14v125v0z" />
    <glyph glyph-name="quoteright" unicode="&#x2019;" horiz-adv-x="250" 
d="M150 628q0 -13 -2.5 -23.5t-8.5 -20.5l-67 -109q-5 -7 -11 -12.5t-16 -5.5q-12 0 -16.5 5t-4.5 15v277q0 9 5 13t14 4h88q9 0 14 -4.5t5 -13.5v-125v0z" />
    <glyph glyph-name="quotesinglbase" unicode="&#x201a;" horiz-adv-x="228" 
d="M185 -63q0 -12 -3 -23t-8 -23l-67 -112q-5 -6 -11.5 -10.5t-14.5 -4.5h-12q-10 0 -14 5t-4 11v285q0 9 4 13.5t14 4.5h99q8 0 12.5 -4.5t4.5 -13.5v-128z" />
    <glyph glyph-name="quotedblleft" unicode="&#x201c;" horiz-adv-x="450" 
d="M288 612q0 12 2.5 22.5t8.5 21.5l67 109q4 6 10 12t17 6t16 -5.5t5 -14.5v-277q0 -9 -5 -13t-14 -4h-88q-10 0 -14.5 4t-4.5 14v125zM93 612q0 12 2.5 22.5t8.5 21.5l67 109q4 6 10 12t17 6t16 -5.5t5 -14.5v-277q0 -9 -5 -13t-14 -4h-88q-10 0 -14.5 4t-4.5 14v125z" />
    <glyph glyph-name="quotedblright" unicode="&#x201d;" horiz-adv-x="450" 
d="M357 623q0 -13 -2.5 -23.5t-8.5 -20.5l-67 -109q-5 -7 -11 -12.5t-16 -5.5q-12 0 -16.5 5t-4.5 15v277q0 9 5 13t14 4h88q9 0 14 -4.5t5 -13.5v-125zM161 619q0 -13 -2.5 -23.5t-8.5 -20.5l-67 -109q-5 -7 -11 -12.5t-16 -5.5q-12 0 -16.5 5t-4.5 15v277q0 9 5 13t14 4
h88q9 0 14 -4.5t5 -13.5v-125z" />
    <glyph glyph-name="quotedblbase" unicode="&#x201e;" horiz-adv-x="450" 
d="M185 -63q0 -12 -3 -23t-8 -23l-67 -112q-5 -6 -11.5 -10.5t-14.5 -4.5h-12q-10 0 -14 5t-4 11v285q0 9 4 13.5t14 4.5h99q8 0 12.5 -4.5t4.5 -13.5v-128zM357 -56q0 -13 -2.5 -23.5t-8.5 -20.5l-67 -109q-5 -6 -11 -12t-16 -6q-12 0 -16.5 5.5t-4.5 14.5v277q0 9 5 13
t14 4h88q9 0 14 -4.5t5 -13.5v-125z" />
    <glyph glyph-name="dagger" unicode="&#x2020;" horiz-adv-x="580" 
d="M542 416q0 -9 -4.5 -13.5t-12.5 -4.5h-150q-9 0 -13.5 -4.5t-4.5 -13.5v-498q0 -9 -4.5 -13.5t-12.5 -4.5h-97q-9 0 -13.5 4.5t-4.5 13.5v498q0 9 -4.5 13.5t-13.5 4.5h-152q-9 0 -13 4.5t-4 13.5v75q0 9 4 14t13 5h152q9 0 13.5 4t4.5 13v189q0 8 4.5 12.5t13.5 4.5h97
q8 0 12.5 -4.5t4.5 -12.5v-189q0 -9 4.5 -13t13.5 -4h150q8 0 12.5 -5t4.5 -14v-75z" />
    <glyph glyph-name="daggerdbl" unicode="&#x2021;" horiz-adv-x="580" 
d="M225 459v31q0 9 -4.5 13.5t-13.5 4.5h-162q-9 0 -13 4.5t-4 13.5v72q0 9 4 14t13 5h162q9 0 13.5 4t4.5 13v82q0 8 4.5 12.5t13.5 4.5h77q8 0 12.5 -4.5t4.5 -12.5v-82q0 -9 4.5 -13t13.5 -4h180q8 0 12.5 -5t4.5 -14v-72q0 -9 -4.5 -13.5t-12.5 -4.5h-180
q-9 0 -13.5 -4.5t-4.5 -13.5v-31q0 -9 4.5 -13t13.5 -4h160q8 0 12.5 -5t4.5 -14v-72q0 -9 -4.5 -13.5t-12.5 -4.5h-160q-9 0 -13.5 -4.5t-4.5 -13.5v-433q0 -9 -4.5 -13.5t-12.5 -4.5h-77q-9 0 -13.5 4.5t-4.5 13.5v433q0 9 -4.5 13.5t-13.5 4.5h-142q-9 0 -13 4.5t-4 13.5
v72q0 9 4 14t13 5h142q9 0 13.5 4t4.5 13z" />
    <glyph glyph-name="bullet" unicode="&#x2022;" horiz-adv-x="440" 
d="M379 110q0 -9 -4.5 -13.5t-12.5 -4.5h-273q-9 0 -13 4.5t-4 13.5v252q0 9 4 13.5t13 4.5h273q8 0 12.5 -4.5t4.5 -13.5v-252z" />
    <glyph glyph-name="twodotenleader" unicode="&#x2025;" 
d="M301 254q0 -9 -4.5 -13t-11.5 -4h-99q-10 0 -14.5 4t-4.5 13v90q0 9 4.5 13.5t14.5 4.5h99q7 0 11.5 -4.5t4.5 -13.5v-90zM736 254q0 -9 -4.5 -13t-11.5 -4h-99q-10 0 -14.5 4t-4.5 13v90q0 9 4.5 13.5t14.5 4.5h99q7 0 11.5 -4.5t4.5 -13.5v-90z" />
    <glyph glyph-name="ellipsis" unicode="&#x2026;" 
d="M517 254q0 -9 -4.5 -13t-11.5 -4h-99q-10 0 -14.5 4t-4.5 13v90q0 9 4.5 13.5t14.5 4.5h99q7 0 11.5 -4.5t4.5 -13.5v-90zM244 254q0 -9 -4.5 -13t-11.5 -4h-99q-10 0 -14.5 4t-4.5 13v90q0 9 4.5 13.5t14.5 4.5h99q7 0 11.5 -4.5t4.5 -13.5v-90zM791 254q0 -9 -4.5 -13
t-11.5 -4h-99q-10 0 -14.5 4t-4.5 13v90q0 9 4.5 13.5t14.5 4.5h99q7 0 11.5 -4.5t4.5 -13.5v-90z" />
    <glyph glyph-name="perthousand" unicode="&#x2030;" horiz-adv-x="1377" 
d="M859 748l-591 -844q-6 -9 -13 -11.5t-15 -2.5h-108q-9 0 -10.5 2t3.5 11l592 844q5 6 11 10.5t15 4.5h110q7 0 8.5 -4t-2.5 -10zM673 135q0 -14 3 -30.5t12 -31.5q8 -15 23.5 -24.5t40.5 -9.5q27 0 53.5 21.5t26.5 74.5q0 54 -25 76.5t-55 22.5q-11 0 -24.5 -3.5
t-25.5 -14.5q-12 -10 -20.5 -29.5t-8.5 -51.5zM564 135q0 85 50.5 140t137.5 55q28 0 61 -9t62 -32q28 -22 47.5 -59.5t19.5 -94.5q0 -56 -19 -93t-48 -59q-28 -22 -61.5 -30.5t-61.5 -8.5q-57 0 -93.5 20t-57.5 49t-29 62t-8 60zM149 513q0 -14 3 -31t12 -31
q9 -15 24.5 -24.5t39.5 -9.5q31 0 57 21t26 75q0 53 -26.5 76t-56.5 23q-10 0 -23.5 -4t-26.5 -14q-12 -11 -20.5 -30.5t-8.5 -50.5zM40 513q0 85 50 139.5t137 54.5q30 0 64 -9.5t62 -31.5t46.5 -59.5t18.5 -93.5t-18.5 -93t-46.5 -59t-62 -30.5t-64 -8.5q-56 0 -92 19.5
t-57 48.5q-22 29 -30 62t-8 61zM1079 134q0 -14 3 -30.5t12 -31.5q8 -15 23.5 -24.5t40.5 -9.5q27 0 53.5 21.5t26.5 74.5q0 54 -25 76.5t-55 22.5q-11 0 -24.5 -3.5t-25.5 -14.5q-12 -10 -20.5 -29.5t-8.5 -51.5zM970 134q0 85 50.5 140t137.5 55q28 0 61 -9t62 -32
q28 -22 47.5 -59.5t19.5 -94.5q0 -56 -19 -93t-48 -59q-28 -22 -61.5 -30.5t-61.5 -8.5q-57 0 -93.5 20t-57.5 49t-29 62t-8 60z" />
    <glyph glyph-name="minute" unicode="&#x2032;" horiz-adv-x="425" 
d="M134 592l55 144q6 18 25.5 28.5t38.5 -0.5q26 -17 20 -42.5t-20 -49.5q-9 -14 -18.5 -27t-19.5 -26t-20 -25.5t-19 -25.5q-8 -11 -17 -12.5t-16 2.5t-10.5 13t1.5 21v0z" />
    <glyph glyph-name="second" unicode="&#x2033;" horiz-adv-x="425" 
d="M349 677l-110 -140q-8 -11 -17.5 -12.5t-17.5 3.5q-8 4 -12.5 13t0.5 20l68 167q9 21 32.5 30.5t41.5 -2.5q21 -12 25.5 -37t-10.5 -42v0zM213 696l-107 -140q-8 -11 -17.5 -12.5t-17.5 3.5q-8 4 -12 13t0 20l67 167q9 21 32.5 31t43.5 -3q21 -12 23.5 -36.5t-12.5 -42.5
v0z" />
    <glyph glyph-name="guilsinglleft" unicode="&#x2039;" horiz-adv-x="350" 
d="M339 -27q4 -8 2 -12.5t-11 -4.5h-120q-9 0 -16.5 3.5t-11.5 11.5l-172 250q-6 7 -6 14.5t6 15.5l172 251q4 6 11.5 10t16.5 4h120q9 0 11 -5t-2 -11l-177 -251q-5 -8 -5 -13.5t5 -12.5z" />
    <glyph glyph-name="guilsinglright" unicode="&#x203a;" horiz-adv-x="350" 
d="M9 -27l177 250q4 7 4 12.5t-4 13.5l-177 251q-5 6 -2.5 11t11.5 5h120q9 0 16 -4t12 -10l172 -251q5 -8 5 -15.5t-5 -14.5l-172 -250q-5 -8 -12 -11.5t-16 -3.5h-120q-9 0 -11.5 4.5t2.5 12.5z" />
    <glyph glyph-name="uni203B" unicode="&#x203b;" 
d="M658 319q0 33 23 57.5t58 24.5q34 0 59 -22.5t25 -58.5t-24 -58.5t-60 -22.5q-33 0 -57 22t-24 58zM68 319q0 33 22.5 57.5t59.5 24.5q33 0 56.5 -22.5t23.5 -58.5t-23 -58.5t-57 -22.5q-36 0 -59 22t-23 58zM367 621q0 33 23 57.5t60 24.5q33 0 57.5 -23.5t24.5 -58.5
q0 -34 -23 -58t-59 -24q-34 0 -58.5 23.5t-24.5 58.5zM367 19q0 33 23 56.5t60 23.5q33 0 57.5 -23t24.5 -56q0 -37 -23 -59.5t-59 -22.5q-34 0 -58.5 22.5t-24.5 58.5zM829 631l-311 -311l311 -311l-68 -69l-311 311l-311 -311l-69 69l311 311l-311 311l69 69l311 -311
l311 311z" />
    <glyph glyph-name="fraction" unicode="&#x2044;" horiz-adv-x="665" 
d="M670 741l-547 -834q-6 -8 -12.5 -11.5t-15.5 -3.5h-125q-8 0 -9.5 3.5t2.5 11.5l547 834q5 6 12 10t16 4h125q9 0 10.5 -4t-3.5 -10z" />
    <glyph glyph-name="uni2074" unicode="&#x2074;" horiz-adv-x="425" 
d="M189 781v-184h41v-47h-41v-50h-51v50h-126v48l130 183h47zM138 697l-70 -100h70v100z" />
    <glyph glyph-name="uni207F" unicode="&#x207f;" horiz-adv-x="425" 
d="M224 670v-181h-49v161q0 32 -8 51t-40 19q-21 0 -44.5 -22t-23.5 -52v-157h-50v270h48v-23q15 15 36 23.5t44 8.5q22 0 38.5 -10t27.5 -24q10 -15 15.5 -32t5.5 -32v0z" />
    <glyph glyph-name="uni2081" unicode="&#x2081;" horiz-adv-x="425" 
d="M42 115v39q17 0 29 3t20 9q4 3 8.5 11.5t4.5 23.5h40v-291h-46v205h-56z" />
    <glyph glyph-name="uni2082" unicode="&#x2082;" horiz-adv-x="425" 
d="M212 -86h-205q0 31 9.5 53.5t26.5 39.5q16 17 37.5 31t44.5 29q15 9 23.5 20.5t8.5 25.5q0 20 -11 31t-33 11q-27 0 -36 -15.5t-9 -39.5h-53q0 38 24 70t75 32q48 0 72 -27.5t24 -61.5q0 -36 -21 -55.5t-37 -29.5q-10 -6 -21.5 -13.5t-22.5 -15.5q-12 -9 -21.5 -18
t-15.5 -19h141v-48z" />
    <glyph glyph-name="uni2083" unicode="&#x2083;" horiz-adv-x="425" 
d="M163 2q0 12 -9.5 21.5t-22.5 13.5q-6 1 -11.5 1.5t-11.5 1.5h-11h-11v47q4 0 10 -0.5t12 -0.5t11.5 1t10.5 3q13 6 18.5 14t5.5 20t-10 21.5t-32 9.5q-26 0 -36 -14t-8 -33h-52q-2 48 28 71t69 23q37 0 66 -21.5t29 -56.5q0 -21 -8.5 -35.5t-18.5 -22.5q16 -11 26 -27
t10 -39q0 -39 -29 -66t-74 -27t-76.5 27.5t-28.5 74.5h53q-1 -22 11 -38t41 -16q22 0 35.5 14.5t13.5 32.5v0z" />
    <glyph glyph-name="uni2084" unicode="&#x2084;" horiz-adv-x="425" 
d="M189 201v-184h41v-47h-41v-50h-51v50h-126v48l130 183h47zM138 117l-70 -100h70v100z" />
    <glyph glyph-name="Euro" unicode="&#x20ac;" horiz-adv-x="692" 
d="M607 -42h-321q-27 0 -53 9t-47 28q-21 18 -33.5 45t-12.5 63v67q0 9 -5.5 14.5t-14.5 5.5h-76q-10 0 -12.5 3t0.5 12l24 60q3 9 8.5 14t15.5 5h40q9 0 14.5 5t5.5 14v33q0 10 -5.5 15.5t-14.5 5.5h-75q-10 0 -12.5 3t0.5 12l23 60q3 10 8.5 15t15.5 5h40q9 0 14.5 4.5
t5.5 13.5v11q0 42 18 74t55 54l117 65q15 9 32.5 14t35.5 5h261q9 0 11.5 -4t0.5 -12l-26 -72q-4 -11 -9.5 -15t-15.5 -4h-320q-9 0 -13 -5.5t-4 -14.5v-96q0 -9 4.5 -13.5t15.5 -4.5h279q9 0 11.5 -4t0.5 -13l-22 -60q-4 -10 -9.5 -14t-15.5 -4h-244q-11 0 -15.5 -5.5
t-4.5 -15.5v-33q0 -9 4.5 -14t15.5 -5h223q9 0 11.5 -4t0.5 -12l-22 -60q-4 -10 -9.5 -14t-15.5 -4h-188q-11 0 -15.5 -6t-4.5 -15v-85q0 -10 4 -14.5t13 -4.5h307q9 0 14 -5t5 -14v-72q0 -9 -5 -12.5t-14 -3.5z" />
    <glyph glyph-name="uni2103" unicode="&#x2103;" 
d="M254 102v350q0 42 18 74t55 53l116 65q16 10 34 15t36 5h240q9 0 13.5 -5t4.5 -14v-72q0 -9 -4.5 -12.5t-13.5 -3.5h-339q-9 0 -13 -5.5t-4 -15.5v-452q0 -10 4 -14.5t13 -4.5h350q7 0 12 -4t5 -11q0 -8 -4 -15t-11 -11l-87 -48q-18 -10 -35.5 -14t-34.5 -4h-209
q-27 0 -53 9t-47 28q-21 18 -33.5 45t-12.5 62zM276 659q0 -53 -35.5 -87.5t-87.5 -34.5q-53 0 -87.5 34.5t-34.5 87.5q0 52 34.5 87.5t87.5 35.5q52 0 87.5 -35.5t35.5 -87.5zM192 659q0 18 -10.5 28.5t-28.5 10.5t-28 -10.5t-10 -28.5t10 -28t28 -10t28.5 10t10.5 28z" />
    <glyph glyph-name="uni2109" unicode="&#x2109;" 
d="M318 659q0 -53 -35.5 -87.5t-87.5 -34.5q-53 0 -87.5 34.5t-34.5 87.5q0 52 34.5 87.5t87.5 35.5q52 0 87.5 -35.5t35.5 -87.5zM235 659q0 18 -11 29t-29 11t-28 -11t-10 -29t10 -28t28 -10t29 10t11 28zM794 572q0 -9 -6 -12.5t-15 -3.5h-289q-10 0 -14 -5.5t-4 -15.5
l-1 -154q0 -9 4 -13t13 -4h263q9 0 13 -5t4 -14v-73q0 -9 -4 -12.5t-13 -3.5h-263q-9 0 -13 -5.5t-4 -14.5v-261q0 -10 -6 -13.5t-15 -3.5h-102q-10 0 -14 3.5t-4 12.5v477q0 42 17.5 74t54.5 53l117 65q15 10 33 15t36 5h191q9 0 15 -5t6 -14v-72z" />
    <glyph glyph-name="uni2113" unicode="&#x2113;" 
d="M648 -8q-27 -56 -54.5 -82t-66.5 -37q-37 -12 -80 8t-75 68q-18 -10 -45 -18t-60 -9l-34 95q17 1 47.5 6.5t44.5 11.5q-31 67 -39 146.5t-5 166.5q1 77 16 143.5t40 116.5q25 49 59 78.5t73 32.5q42 1 71 -27.5t46 -80.5q16 -52 19.5 -122.5t-6.5 -151.5
q-18 -135 -57.5 -217.5t-81.5 -123.5q12 -21 28 -25t30 3t28.5 26.5t29.5 54.5zM467 618q-17 -2 -32.5 -27.5t-27.5 -64.5t-20 -86.5t-9 -92.5q-2 -36 0.5 -76.5t7.5 -77.5q4 -38 10.5 -67t13.5 -42q31 36 58.5 106.5t36.5 156.5q4 46 5 94.5t-2 88.5q-4 39 -14 63.5
t-27 24.5v0z" />
    <glyph glyph-name="uni2116" unicode="&#x2116;" 
d="M420 -43h-114l-190 517v-517h-91v699h113l191 -517v517h91v-699zM621 433q41 0 73.5 -19.5t55.5 -52.5t35.5 -77.5t12.5 -93.5q0 -50 -12.5 -94t-35.5 -77t-55.5 -52t-73.5 -19q-42 0 -74.5 19t-55.5 52t-35 77t-12 94q0 49 12 93.5t35 77.5t55.5 52.5t74.5 19.5v0z
M825 51q24 0 41 -20t17 -44q0 -27 -17 -45t-41 -18t-41 18t-17 45q0 24 17 44t41 20v0zM621 40q44 0 67.5 42.5t23.5 107.5q0 62 -23.5 106t-67.5 44t-68 -44t-24 -106q0 -64 23.5 -107t68.5 -43v0z" />
    <glyph glyph-name="uni2121" unicode="&#x2121;" 
d="M859 -65h-91v663h91v-663zM468 514h-175v-580h-91v580h-174v84h440v-84zM727 121h-300q1 -53 32.5 -89t72.5 -36q42 0 62.5 19t26.5 40h91q-8 -24 -21 -48t-35 -43q-21 -20 -51.5 -31.5t-72.5 -11.5q-43 0 -78.5 18t-61.5 49q-26 32 -40.5 74t-14.5 91q0 47 13.5 89
t38.5 74q26 31 61.5 49.5t80.5 18.5q40 0 76 -16t63 -48t42.5 -82t14.5 -117v0zM428 196h207q-3 45 -29.5 79.5t-74.5 34.5q-44 0 -70.5 -31.5t-32.5 -82.5v0z" />
    <glyph glyph-name="trademark" unicode="&#x2122;" horiz-adv-x="1136" 
d="M1072 301q0 -12 -13 -12h-86q-13 0 -13 12v369q0 8 -9 8t-10 -8l-78 -369q-3 -12 -15 -12h-162q-12 0 -15 12l-76 369q-2 8 -11 8q-10 0 -10 -8v-369q0 -12 -12 -12h-87q-11 0 -11 12v442q0 12 11 12h207q12 0 14 -11l63 -365q1 -8 9 -8q6 0 7 8l65 365q2 11 14 11h205
q13 0 13 -12v-442zM423 668q0 -12 -12 -12h-111q-13 0 -13 -12v-343q0 -12 -12 -12h-101q-11 0 -11 12v343q0 12 -12 12h-112q-12 0 -12 12v75q0 12 12 12h372q12 0 12 -12v-75z" />
    <glyph glyph-name="Omega" unicode="&#x2126;" 
d="M730 368q0 -60 -15 -111.5t-39 -92.5q-24 -40 -56 -69t-66 -42v-49h137v-91h-192q-19 0 -26 11.5t-7 30.5v123q0 26 5.5 39t28.5 20q54 18 93.5 77t39.5 155q0 109 -52.5 173t-138.5 64q-84 0 -136.5 -66t-52.5 -174q0 -87 32 -144t107 -89q12 -6 18.5 -13.5t9.5 -15.5
q2 -8 2.5 -15.5t0.5 -11.5l-1 -122q0 -16 -7 -29t-27 -13h-185v91h129v46q-76 28 -127 108.5t-51 205.5q-1 70 20.5 132t60.5 109q38 46 91 73t116 27t116 -26t91 -71t59.5 -106.5t21.5 -133.5v0z" />
    <glyph glyph-name="uni212B" unicode="&#x212b;" 
d="M572 691q0 -52 -35.5 -86.5t-87.5 -34.5t-86.5 34.5t-34.5 86.5q0 53 34.5 88.5t86.5 35.5t87.5 -35.5t35.5 -88.5zM488 691q0 18 -10.5 29t-28.5 11t-27.5 -11t-9.5 -29t9.5 -27.5t27.5 -9.5t28.5 9.5t10.5 27.5zM778 -143q2 -9 -1.5 -12.5t-12.5 -3.5h-118
q-9 0 -14.5 3.5t-7.5 13.5l-43 151q-4 7 -10 12.5t-15 5.5h-215q-9 0 -15.5 -5.5t-7.5 -12.5l-44 -151q-3 -10 -8 -13.5t-14 -3.5h-120q-9 0 -11.5 3.5t0.5 12.5l209 663q2 8 8 12.5t15 4.5h190q10 0 16.5 -4.5t9.5 -12.5zM539 153l-76 282q-2 4 -5.5 7.5t-9.5 3.5t-9 -3.5
t-5 -7.5l-75 -282q-3 -11 0 -15t12 -4h153q10 0 14 4t1 15z" />
    <glyph glyph-name="onethird" unicode="&#x2153;" 
d="M285 329h-85v282h-96v69q22 0 42.5 5t36.5 14q11 8 20 22t9 32h73v-424zM765 59q30 -12 50.5 -39.5t20.5 -60.5q0 -28 -12.5 -52t-34.5 -42t-51.5 -28t-63.5 -10q-69 0 -117 38.5t-45 103.5h87q-4 -32 17 -50t57 -18q34 0 54.5 16.5t23.5 42.5q0 18 -13 33.5t-36 22.5
q-15 3 -31.5 4t-31.5 1v73q21 0 37.5 1.5t30.5 8.5q12 5 20 17t10 30q1 17 -14 35t-50 18q-34 0 -49.5 -19t-14.5 -44h-85q-2 28 9 52t32 42q20 17 48 27t60 10q66 0 107 -35.5t41 -83.5q0 -39 -19 -62t-37 -32v0zM725 715l72 -47l-671 -819l-71 51z" />
    <glyph glyph-name="twothirds" unicode="&#x2154;" 
d="M365 326h-316q0 46 17 92.5t81 90.5l79 53q18 12 33.5 28t18.5 43q0 24 -16.5 44.5t-49.5 20.5q-36 0 -54 -23t-16 -55h-86q-1 27 9 53t30 47q20 20 49.5 33t67.5 13q73 0 112.5 -40.5t39.5 -91.5q0 -50 -28 -78t-56 -47l-87 -62q-17 -12 -28 -26.5t-16 -26.5h216v-68z
M748 58q30 -12 51 -39.5t21 -60.5q0 -55 -46.5 -93.5t-115.5 -38.5q-35 0 -65 10t-52 28q-23 19 -35 45t-10 59h86q-3 -32 18 -50t57 -18q34 0 54.5 16.5t22.5 42.5q1 18 -12.5 34t-36.5 22q-8 2 -15.5 3t-15.5 1q-8 1 -15.5 1h-14.5v73q20 0 36.5 2t29.5 8q12 6 20 17.5
t11 29.5q2 17 -13 35t-51 18q-34 0 -50.5 -19t-14.5 -44h-84q-3 57 41 94t108 37q65 0 107 -35.5t42 -83.5q0 -39 -19.5 -62t-38.5 -32v0zM735 715l71 -47l-670 -819l-71 51z" />
    <glyph glyph-name="oneeighth" unicode="&#x215b;" 
d="M283 329h-87v282h-96v69q23 0 43 5t37 14q10 8 19.5 22t9.5 32h74v-424zM725 715l72 -47l-671 -819l-71 51zM764 62q33 -18 53.5 -46t20.5 -61q0 -27 -14 -50.5t-37 -41.5t-54.5 -28t-67.5 -10t-67 10t-55 28q-23 18 -36.5 41.5t-13.5 50.5q0 33 20 61t53 45
q-25 16 -41 40.5t-16 52.5q0 24 12 45.5t34 37.5q21 16 49.5 25.5t60.5 9.5t61 -9.5t50 -25.5q22 -16 34.5 -37.5t12.5 -45.5q0 -28 -16.5 -52.5t-42.5 -39.5v0zM665 96q34 0 52 15t18 38q0 21 -18 37t-52 16q-36 0 -52.5 -16t-16.5 -37q0 -23 16.5 -38t52.5 -15v0z
M665 -105q39 0 61 18t22 45t-22 45.5t-61 18.5q-40 0 -61.5 -18.5t-21.5 -45.5t21.5 -45t61.5 -18v0z" />
    <glyph glyph-name="threeeighths" unicode="&#x215c;" 
d="M307 553q30 -12 51 -39.5t21 -60.5q0 -28 -12.5 -52t-34.5 -42t-51.5 -28t-63.5 -10q-69 0 -117 38.5t-45 103.5h86q-3 -32 18 -50t57 -18q34 0 54 16.5t23 42.5q0 19 -13 34.5t-35 21.5q-15 3 -31.5 4t-31.5 1v74q20 0 37 1.5t31 7.5q11 6 19.5 17.5t10.5 29.5
q1 18 -14 36t-50 18q-34 0 -50 -19t-14 -44h-86q-3 56 41 93t109 37q64 0 106 -35.5t42 -83.5q0 -39 -19 -62t-38 -32v0zM764 62q33 -18 53.5 -46t20.5 -61q0 -27 -14 -50.5t-37 -41.5t-54.5 -28t-67.5 -10t-67 10t-55 28q-23 18 -36.5 41.5t-13.5 50.5q0 33 20 61t53 45
q-25 16 -41 40.5t-16 52.5q0 24 12 45.5t34 37.5q21 16 49.5 25.5t60.5 9.5t61 -9.5t50 -25.5q22 -16 34.5 -37.5t12.5 -45.5q0 -28 -16.5 -52.5t-42.5 -39.5v0zM665 96q34 0 52 15t18 38q0 21 -18 37t-52 16q-36 0 -52.5 -16t-16.5 -37q0 -23 16.5 -38t52.5 -15v0z
M665 -105q39 0 61 18t22 45t-22 45.5t-61 18.5q-40 0 -61.5 -18.5t-21.5 -45.5t21.5 -45t61.5 -18v0zM725 715l72 -47l-671 -819l-71 51z" />
    <glyph glyph-name="fiveeighths" unicode="&#x215d;" 
d="M258 617q18 -6 36.5 -16t33.5 -26t25 -39.5t10 -54.5q0 -36 -14.5 -63.5t-37.5 -47.5q-23 -19 -51.5 -29t-57.5 -10q-36 0 -65 11.5t-49 30.5q-21 19 -33 42.5t-14 46.5h85q4 -25 24 -41t50 -16q31 0 52 20.5t24 53.5q3 36 -18.5 57.5t-54.5 21.5q-21 0 -37 -6t-25 -17
h-90l37 226h255v-73h-182l-16 -81q21 9 53 13.5t60 -3.5v0zM766 62q33 -18 54 -46t21 -61q0 -27 -14 -50.5t-38 -41.5t-55.5 -28t-66.5 -10q-36 0 -67 10t-55 28q-23 18 -36 41.5t-13 50.5q0 33 20 61t53 45q-26 16 -42.5 40.5t-16.5 52.5q0 24 12 45.5t34 37.5
q21 16 49.5 25.5t61.5 9.5q32 0 60.5 -9.5t49.5 -25.5q22 -16 34.5 -37.5t12.5 -45.5q0 -28 -16 -52.5t-42 -39.5v0zM667 96q35 0 52.5 15t17.5 38q0 21 -17.5 37t-52.5 16q-36 0 -52 -16t-16 -37q0 -23 16 -38t52 -15v0zM667 -105q39 0 61.5 18t22.5 45t-22.5 45.5
t-61.5 18.5t-61 -18.5t-22 -45.5t22 -45t61 -18v0zM725 715l72 -47l-671 -819l-71 51z" />
    <glyph glyph-name="seveneighths" unicode="&#x215e;" 
d="M397 742v-77q-18 -15 -44 -47.5t-53 -86.5q-29 -55 -43 -111.5t-14 -90.5h-95q1 30 14.5 79.5t45.5 108.5q28 51 60 90.5t47 55.5h-232v79h314zM765 62q33 -18 53.5 -46t20.5 -61q0 -27 -14 -50.5t-37 -41.5t-54.5 -28t-67.5 -10t-67 10t-55 28q-23 18 -36.5 41.5
t-13.5 50.5q0 33 20.5 61t54.5 45q-27 16 -43 40.5t-16 52.5q0 24 12 45.5t34 37.5q21 16 49.5 25.5t60.5 9.5t61 -9.5t50 -25.5q22 -16 34.5 -37.5t12.5 -45.5q0 -28 -16 -52.5t-43 -39.5v0zM666 96q36 0 53 15t17 38q0 21 -17 37t-53 16t-52 -16t-16 -37q0 -23 16 -38
t52 -15v0zM666 -105q39 0 62 18t23 45t-23 45.5t-62 18.5t-61 -18.5t-22 -45.5t22 -45t61 -18v0zM725 715l72 -47l-671 -819l-71 51z" />
    <glyph glyph-name="uni2160" unicode="&#x2160;" 
d="M508 -72h-117v764h117v-764z" />
    <glyph glyph-name="uni2161" unicode="&#x2161;" 
d="M671 -71h-116v764h116v-764zM345 -71h-116v764h116v-764z" />
    <glyph glyph-name="uni2162" unicode="&#x2162;" 
d="M710 -71h-116v764h116v-764zM508 -71h-116v764h116v-764zM305 -71h-116v764h116v-764z" />
    <glyph glyph-name="uni2163" unicode="&#x2163;" 
d="M799 683l-200 -764h-139l-199 764h128l140 -578l142 578h128zM245 -81h-117v764h117v-764z" />
    <glyph glyph-name="uni2164" unicode="&#x2164;" 
d="M792 693l-264 -764h-141l-264 764h133l201 -607l203 607h132z" />
    <glyph glyph-name="uni2165" unicode="&#x2165;" 
d="M774 -71h-119v764h119v-764zM632 693l-196 -764h-139l-195 764h127l137 -578l137 578h129z" />
    <glyph glyph-name="uni2166" unicode="&#x2166;" 
d="M814 -71h-109v764h109v-764zM664 -71h-108v764h108v-764zM539 693l-172 -764h-140l-172 764h130l113 -571l112 571h129z" />
    <glyph glyph-name="uni2167" unicode="&#x2167;" 
d="M861 -71h-100v763h100v-763zM724 -71h-101v763h101v-763zM583 -71h-100v763h100v-763zM457 692l-140 -763h-136l-141 763h110l98 -572l99 572h110z" />
    <glyph glyph-name="uni2168" unicode="&#x2168;" 
d="M814 -75h-132l-147 270l-148 -270h-131l213 390l-208 380h131l143 -261l143 261h129l-208 -380zM224 -75h-116v770h116v-770z" />
    <glyph glyph-name="uni2169" unicode="&#x2169;" 
d="M770 -75h-132l-182 294l-180 -294h-130l246 400l-228 370h129l163 -265l163 265h132l-230 -370z" />
    <glyph glyph-name="uni2170" unicode="&#x2170;" 
d="M509 571h-117v125h117v-125zM509 -68h-117v555h117v-555z" />
    <glyph glyph-name="uni2171" unicode="&#x2171;" 
d="M669 558h-116v125h116v-125zM348 558h-114v125h114v-125zM669 -81h-116v555h116v-555zM348 -81h-114v555h114v-555z" />
    <glyph glyph-name="uni2172" unicode="&#x2172;" 
d="M720 558h-114v125h114v-125zM510 558h-116v125h116v-125zM299 558h-115v125h115v-125zM720 -81h-114v555h114v-555zM510 -81h-116v555h116v-555zM299 -81h-115v555h115v-555z" />
    <glyph glyph-name="uni2173" unicode="&#x2173;" 
d="M263 558h-116v125h116v-125zM823 473l-193 -547h-146l-191 547h136l129 -392l129 392h136zM263 -81h-116v554h116v-554z" />
    <glyph glyph-name="uni2174" unicode="&#x2174;" 
d="M710 495l-194 -568h-134l-191 568h127l130 -413l135 413h127z" />
    <glyph glyph-name="uni2175" unicode="&#x2175;" 
d="M782 570h-116v125h116v-125zM630 485l-188 -547h-142l-189 547h134l126 -392l125 392h134zM782 -69h-116v554h116v-554z" />
    <glyph glyph-name="uni2176" unicode="&#x2176;" 
d="M820 568h-106v125h106v-125zM672 568h-107v125h107v-125zM542 484l-172 -548h-144l-172 548h130l114 -388l112 388h132zM820 -71h-106v555h106v-555zM672 -71h-107v555h107v-555z" />
    <glyph glyph-name="uni2177" unicode="&#x2177;" 
d="M866 568h-101v125h101v-125zM728 568h-101v125h101v-125zM590 568h-101v125h101v-125zM471 484l-155 -548h-150l-154 548h128l101 -394l100 394h130zM866 -71h-101v555h101v-555zM728 -71h-101v555h101v-555zM590 -71h-101v555h101v-555z" />
    <glyph glyph-name="uni2178" unicode="&#x2178;" 
d="M797 -72h-143l-106 169l-106 -169h-141l179 284l-171 270h141l98 -156l99 156h141l-170 -270zM273 568h-117v125h117v-125zM273 -71h-117v554h117v-554z" />
    <glyph glyph-name="uni2179" unicode="&#x2179;" 
d="M710 -69h-140l-119 181l-121 -181h-139l188 291l-179 277h141l110 -167l109 167h140l-177 -277z" />
    <glyph glyph-name="arrowleft" unicode="&#x2190;" 
d="M304 268l30 -94l-332 129l332 124l-30 -94h579v-65h-579z" />
    <glyph glyph-name="arrowup" unicode="&#x2191;" 
d="M482 478v-631h-64v631l-95 -30l127 332l126 -332z" />
    <glyph glyph-name="arrowright" unicode="&#x2192;" 
d="M570 174l30 93h-580v65h580l-30 95l331 -124z" />
    <glyph glyph-name="arrowdown" unicode="&#x2193;" 
d="M450 -179l-127 332l94 -30v632h65v-631l94 30z" />
    <glyph glyph-name="arrowboth" unicode="&#x2194;" 
d="M619 135l30 132h-400l30 -132l-288 165l288 164l-30 -131h400l-30 131l289 -164z" />
    <glyph glyph-name="arrowupdn" unicode="&#x2195;" 
d="M448 -189l-163 288l132 -30v461l-132 -30l163 288l166 -288l-132 30v-461l132 30z" />
    <glyph glyph-name="uni2196" unicode="&#x2196;" 
d="M833 -128l-640 640l-29 -90l-152 318l317 -153l-90 -29l639 -640z" />
    <glyph glyph-name="uni2197" unicode="&#x2197;" 
d="M738 422l-29 90l-639 -640l-46 46l639 640l-90 29l317 153z" />
    <glyph glyph-name="uni2198" unicode="&#x2198;" 
d="M569 18l88 29l-638 639l46 46l638 -639l31 89l151 -317z" />
    <glyph glyph-name="uni2199" unicode="&#x2199;" 
d="M244 47l90 -29l-317 -153l152 317l29 -89l639 639l46 -46z" />
    <glyph glyph-name="arrowdblright" unicode="&#x21d2;" 
d="M679 177h-630v58h688l66 64l-66 64h-688v58h630l-113 110l45 42l276 -274l-276 -274l-45 42z" />
    <glyph glyph-name="arrowdblboth" unicode="&#x21d4;" 
d="M678 177h-456l113 -110l-44 -42l-278 274l278 274l44 -42l-113 -110h456l-113 110l43 42l278 -274l-278 -274l-43 42zM98 299l67 -64h570l66 64l-66 64h-570z" />
    <glyph glyph-name="universal" unicode="&#x2200;" 
d="M293 513h305l60 177h123l-264 -772h-142l-264 773h122zM558 399h-226l114 -333z" />
    <glyph glyph-name="partialdiff" unicode="&#x2202;" horiz-adv-x="425" 
d="M175 536l-103 52q14 30 22.5 44t22.5 28q29 27 63.5 43t69.5 16q39 0 72 -16t57 -45q23 -28 36.5 -67.5t13.5 -85.5q0 -39 -8.5 -88t-22.5 -101q-15 -51 -34.5 -101t-41.5 -90q-30 -57 -75 -88.5t-95 -31.5q-39 0 -76.5 17t-58.5 47q-15 18 -22 44t-7 57q0 57 17 108.5
t46 90.5q30 38 68.5 61t82.5 23q30 0 55.5 -13t52.5 -43q9 45 13 68.5t4 49.5q0 44 -19.5 71t-52.5 27q-25 0 -42.5 -17t-37.5 -60v0zM255 273q0 33 -16 56.5t-40 23.5q-17 0 -33.5 -12t-33.5 -33q-22 -30 -32 -60t-10 -66q0 -34 16 -54t44 -20q20 0 37.5 12.5t33.5 40.5
q15 27 24.5 57t9.5 55v0z" />
    <glyph glyph-name="existential" unicode="&#x2203;" 
d="M209 689h497v-771h-487v116h370v203h-352v115h352v220h-380v117z" />
    <glyph glyph-name="gradient" unicode="&#x2207;" 
d="M907 683l-457 -790l-458 790h915zM774 608h-649l325 -561z" />
    <glyph glyph-name="element" unicode="&#x2208;" 
d="M814 256h-658q1 -23 14.5 -52.5t40.5 -54.5q27 -26 68.5 -43.5t99.5 -17.5h436v-86h-430q-74 0 -133.5 23t-101.5 63t-64 94.5t-22 117.5q0 62 22 116t64 95q42 40 101.5 63.5t133.5 23.5h430v-86h-436q-58 0 -99.5 -18t-68.5 -44t-40.5 -55t-14.5 -51h658v-88z" />
    <glyph glyph-name="suchthat" unicode="&#x220b;" 
d="M85 256v88h658q-2 22 -15.5 51.5t-40.5 54.5q-27 26 -68.5 44t-99.5 18h-435v86h430q73 0 132.5 -23.5t101.5 -63.5q42 -41 64.5 -95t22.5 -116q0 -63 -22.5 -117.5t-64.5 -94.5t-101.5 -63t-132.5 -23h-430v86h435q58 0 99.5 17.5t68.5 42.5q27 26 40.5 55t15.5 53h-658
z" />
    <glyph glyph-name="product" unicode="&#x220f;" 
d="M791 660v-117h-145v-600h-110v600h-176v-600h-109v600h-143v117h683z" />
    <glyph glyph-name="summation" unicode="&#x2211;" 
d="M556 353l-274 -265h402l-24 -107h-545l20 93l293 292l-178 242l25 91h495l-16 -108h-374z" />
    <glyph glyph-name="radical" unicode="&#x221a;" 
d="M547 718l-272 -850l-163 420l-51 -56l-33 53l133 140l123 -314l208 676h358v-69h-303z" />
    <glyph glyph-name="proportional" unicode="&#x221d;" 
d="M834 138q-49 -32 -81 -43.5t-71 -11.5q-38 0 -68.5 10t-54.5 26t-41.5 35t-29.5 37q-13 -18 -31 -37t-42 -35t-54 -26t-66 -10q-46 0 -86 16.5t-70 46.5q-30 29 -47.5 68.5t-17.5 85.5q0 45 17.5 84.5t47.5 68.5q30 30 70 47t86 17q36 0 66.5 -11t54.5 -27t42 -35t30 -36
q12 17 30 36t42 35t54 27t68 11t71.5 -12t77.5 -44l-57 -82q-33 24 -50.5 30t-41.5 6q-33 0 -57.5 -14t-40.5 -32q-17 -19 -26.5 -38.5t-13.5 -30.5q4 -12 13.5 -31.5t26.5 -38.5q16 -18 40.5 -31.5t57.5 -13.5q22 0 40.5 6.5t50.5 27.5zM433 300q-6 12 -17 31.5t-28 37.5
q-17 19 -40 32.5t-53 13.5q-50 0 -84.5 -33.5t-34.5 -81.5t34.5 -81.5t84.5 -33.5q30 0 53 13t40 32q17 18 28 37.5t17 32.5v0z" />
    <glyph glyph-name="infinity" unicode="&#x221e;" 
d="M625 119q-35 0 -63 10.5t-50 25.5q-22 16 -37.5 34t-24.5 33q-10 -15 -25.5 -33t-37.5 -34q-22 -15 -50 -25.5t-62 -10.5q-40 0 -75 14t-61 38q-26 25 -41 58t-15 71q0 37 15 70t41 58q26 24 61 38.5t75 14.5q34 0 62 -11t50 -26q22 -16 37.5 -34t25.5 -32q9 14 24.5 32
t37.5 34q22 15 50 26t63 11q39 0 73.5 -14.5t60.5 -38.5q26 -25 41.5 -58t15.5 -70q0 -38 -15.5 -71t-41.5 -58q-26 -24 -60.5 -38t-73.5 -14v0zM275 404q-46 0 -78 -30.5t-32 -73.5q0 -44 32 -74t78 -30q27 0 48 12.5t36 29.5q16 17 25.5 34.5t14.5 27.5q-5 9 -14.5 26.5
t-25.5 34.5q-15 17 -36 30t-48 13v0zM625 196q45 0 77.5 30.5t32.5 73.5q0 42 -32.5 73t-77.5 31q-28 0 -49.5 -13t-36.5 -30q-16 -17 -25.5 -34.5t-13.5 -26.5q4 -10 13.5 -27.5t25.5 -34.5q15 -17 36.5 -29.5t49.5 -12.5v0z" />
    <glyph glyph-name="angle" unicode="&#x2220;" 
d="M833 -48h-716q-30 0 -43 21.5t6 47.5q1 2 3 4.5t5 4.5l4 4l5 5l617 623l73 -68l-543 -546h589v-96z" />
    <glyph glyph-name="uni2225" unicode="&#x2225;" 
d="M517 -201l-1 994h83v-994h-82zM300 -201v994h81v-994h-81z" />
    <glyph glyph-name="logicaland" unicode="&#x2227;" 
d="M736 -77l-286 587l-287 -587l-83 45l325 666q3 7 15.5 21.5t29.5 14.5t28 -13.5t16 -22.5l325 -666z" />
    <glyph glyph-name="logicalor" unicode="&#x2228;" 
d="M819 634l-325 -666q-5 -10 -16 -23t-28 -13t-29.5 14t-15.5 22l-325 666l83 45l287 -587l286 587z" />
    <glyph glyph-name="intersection" unicode="&#x2229;" 
d="M654 -74v449q0 57 -19.5 97.5t-48.5 66.5q-30 26 -65 38.5t-66 12.5h-10q-33 0 -68 -12.5t-65 -38.5q-29 -26 -47.5 -66.5t-18.5 -97.5v-449h-102v438q0 75 23 136t64 104t97 66.5t122 23.5q64 0 119.5 -23.5t96.5 -66.5t65 -104t24 -136v-438h-101z" />
    <glyph glyph-name="union" unicode="&#x222a;" 
d="M742 236q0 -76 -24 -137t-65 -104t-97 -66t-120 -23q-65 0 -121 23t-97 66q-42 43 -65 104t-23 137v438h100v-449q0 -58 19 -98.5t49 -66.5q29 -26 64.5 -38t67.5 -12h11q31 0 66 12t64 38q30 26 49 66.5t19 98.5v449h103v-438z" />
    <glyph glyph-name="integral" unicode="&#x222b;" 
d="M574 652v20q0 8 -2 10.5t-8 2.5q-12 0 -22 -9t-21 -31q-11 -24 -16 -50.5t-5 -62.5q0 -21 2 -61.5t6 -79.5q1 -23 2 -44t2 -40q0 -20 1 -38.5t1 -36.5q0 -58 -6 -107t-16 -79q-21 -65 -73 -102.5t-118 -37.5q-42 0 -67.5 20t-25.5 55q0 23 16.5 38.5t42.5 15.5t42 -17
t18 -45q0 -12 2 -14t9 -2q16 0 32.5 14.5t29.5 39.5t21 57t8 68q0 4 -0.5 9.5t-0.5 11.5v11.5v10.5q-1 7 -1.5 14t-0.5 15q-1 7 -1.5 14.5t-0.5 15.5q-1 2 -1 4t-1 5q0 3 -0.5 6.5t-0.5 8.5q-4 50 -6.5 96.5t-2.5 86.5q0 72 11.5 129.5t34.5 89.5q22 31 55 48.5t72 17.5
q45 0 75.5 -20t30.5 -53q0 -26 -17.5 -43t-43.5 -17t-41 14.5t-15 40.5v0z" />
    <glyph glyph-name="uni222C" unicode="&#x222c;" 
d="M390 252q1 -4 1.5 -10.5l0.5 -6.5q0 -75 -12 -133.5t-33 -100.5q-21 -40 -62 -67.5t-79 -27.5q-27 0 -44.5 16t-17.5 40q0 20 14 35.5t34 15.5q18 0 29.5 -10t17.5 -29q3 -11 6 -14.5t6 -3.5q4 0 12 8.5t13 21.5q18 41 28 100.5t10 114.5l-3 80l-3 163q-3 74 4.5 113.5
t25.5 74.5q23 43 60 70.5t75 27.5q27 0 47.5 -18.5t20.5 -43.5q0 -23 -15 -37t-37 -14q-19 0 -34.5 11t-21.5 30l-3.5 7t-2.5 6q0 2 -1 3.5l-1 1.5q-3 0 -10 -15.5t-13 -30.5q-8 -20 -12.5 -44t-2.5 -45l2 -92q2 -93 2.5 -134t0.5 -53v-9q0 -1 -0.5 -1.5l-0.5 -0.5l-0.5 0.5
zM605 260v-25q0 -75 -11.5 -132.5t-33.5 -102.5q-21 -42 -60 -68.5t-76 -26.5q-30 0 -49 16t-19 41q0 20 14 34t35 14q17 0 28.5 -8.5t18.5 -27.5q2 -8 4.5 -12.5t6.5 -4.5q6 0 13.5 7.5t13.5 22.5q9 23 15.5 49.5t12.5 57.5q0 5 1 10t2 11q1 5 2 11.5t2 14.5q1 14 1.5 21.5
t0.5 11.5l-2 108l-4 108q-2 54 -2 81.5v27.5q-1 45 13 87t37 74t53.5 51t64.5 19q28 0 49 -18.5t21 -43.5q0 -23 -16 -37t-40 -14q-20 0 -34.5 10.5t-21.5 30.5q-3 8 -5.5 13t-3.5 5t-1.5 -1.5t-1.5 -3.5l-2.5 -5t-2.5 -6q-4 -9 -7 -15l-5 -10t-3 -7t-2 -5l-1.5 -4.5
t-0.5 -2.5q-1 -2 -1 -3.5v-3.5q-6 -21 -8 -41t-2 -40q-1 -20 0 -40t2 -41z" />
    <glyph glyph-name="uni222E" unicode="&#x222e;" 
d="M689 648q0 -26 -15.5 -40t-39.5 -14q-27 0 -37.5 11t-13.5 24q-3 14 -4.5 24.5t-9.5 10.5q-7 -1 -13.5 -7.5t-12.5 -21.5q-13 -27 -20 -52.5t-12 -67.5q-1 -5 -1.5 -11.5t-1.5 -15.5t-2 -21t-3 -29q54 -18 83 -54.5t29 -91.5q0 -60 -35 -98.5t-97 -50.5
q-3 -63 -9.5 -95.5t-18.5 -62.5q-21 -54 -60 -79.5t-93 -25.5q-42 0 -66.5 17.5t-24.5 50.5q0 24 15.5 40.5t39.5 16.5t39.5 -12.5t20.5 -34.5q1 -9 1.5 -14.5t1.5 -9.5q1 -3 3 -4t5 -1q12 0 28.5 19t25.5 52q2 8 4 17.5t3 19.5q2 11 3.5 21.5t3.5 21.5v10t1 15q0 8 1 18.5
t2 24.5q-54 15 -83.5 51.5t-29.5 91.5q0 57 33.5 94.5t93.5 55.5q4 43 9.5 72t13.5 54q21 71 63 111t99 40q36 0 58.5 -18.5t22.5 -51.5v0zM567 294q0 33 -14 54.5t-53 42.5q-1 -5 -1.5 -9.5t-0.5 -8.5v-8.5v-8.5l-7 -83q-1 -16 -1.5 -27t-1.5 -18v-13v-8v-17q39 12 59 38.5
t20 65.5v0zM419 393q-35 -15 -54.5 -40.5t-19.5 -60.5q0 -33 17 -55.5t48 -37.5q0 34 0.5 58t1.5 45t2.5 42t4.5 49v0z" />
    <glyph glyph-name="therefore" unicode="&#x2234;" 
d="M181 -3q-33 0 -57.5 25.5t-24.5 60.5q0 34 24.5 59.5t57.5 25.5q35 0 60 -25.5t25 -59.5q0 -35 -25 -60.5t-60 -25.5v0zM716 -3q-33 0 -57.5 25.5t-24.5 60.5q0 34 24.5 59.5t57.5 25.5q34 0 59 -25.5t25 -59.5q0 -35 -25 -60.5t-59 -25.5v0zM448 438q-32 0 -57 25.5
t-25 60.5q0 34 25 59.5t57 25.5q36 0 61 -25.5t25 -59.5q0 -35 -25 -60.5t-61 -25.5v0z" />
    <glyph glyph-name="uni2235" unicode="&#x2235;" 
d="M718 609q32 0 57 -26t25 -60q0 -35 -25 -60t-57 -25q-36 0 -60 25t-24 60q0 34 24 60t60 26v0zM184 609q32 0 57 -26t25 -60q0 -35 -25 -60t-57 -25q-36 0 -60.5 25t-24.5 60q0 34 24.5 60t60.5 26v0zM446 169q33 0 57.5 -26t24.5 -60q0 -35 -24.5 -60t-57.5 -25
q-35 0 -59.5 25t-24.5 60q0 34 24.5 60t59.5 26v0z" />
    <glyph glyph-name="similar" unicode="&#x223c;" 
d="M242 267q-5 -3 -10 -6.5t-11 -7.5q-5 -4 -10 -7.5t-10 -6.5q-12 -6 -23 -9.5t-23 -1.5q-29 3 -29.5 22.5t9.5 35.5q7 11 27 32t48 42q28 20 63 34.5t74 13.5q47 -3 80.5 -17t57.5 -27q9 -5 18.5 -10.5t18.5 -9.5q10 -5 20 -8t21 -3q47 -3 83 11.5t48 28.5q16 18 35 23
t32 -1q11 -6 15.5 -20.5t-10.5 -39.5q-7 -12 -25.5 -31.5t-45.5 -38.5t-61 -33t-71 -12q-45 2 -77.5 14.5t-56.5 25.5q-4 2 -8 4.5t-8 4.5t-8.5 4.5t-8.5 5.5q-38 20 -78 15.5t-76 -27.5v0z" />
    <glyph glyph-name="uni223D" unicode="&#x223d;" 
d="M864 292q-2 -41 -17 -77.5t-42 -63.5q-28 -28 -66.5 -44t-85.5 -16q-30 0 -54 5.5t-43 14.5q-18 8 -32 17.5t-23 16.5l48 89q14 -9 44.5 -25t63.5 -16q51 0 77 33t26 73t-26.5 74.5t-80.5 37.5q-31 1 -54 -10t-42 -30t-34 -44.5t-28 -52.5q-9 -18 -27 -50t-48 -62
t-73 -51.5t-101 -17.5q-38 2 -75.5 17t-67.5 42q-30 28 -48 67.5t-16 92.5q0 38 15 74t43 65q27 28 66 45.5t87 17.5q29 0 53 -6t42 -15q19 -8 32.5 -17.5t23.5 -16.5l-47 -84q-4 2 -14.5 8.5t-25.5 12.5q-15 7 -32.5 12.5t-34.5 5.5q-53 0 -80 -34t-27 -75q-1 -41 27 -76
t85 -38q33 -2 59.5 16t48.5 45q21 27 38 58t31 55q18 30 40 57.5t49 47.5t61 31.5t77 10.5q38 -2 76 -16t68 -42t47.5 -68.5t16.5 -93.5v0z" />
    <glyph glyph-name="uni2252" unicode="&#x2252;" 
d="M97 429h706v-93h-706v93zM97 264h706v-93h-706v93zM168 559q0 35 24.5 60.5t60.5 25.5q35 0 59.5 -25.5t24.5 -60.5t-24 -60.5t-60 -25.5t-60.5 25.5t-24.5 60.5v0zM563 42q0 33 25 59.5t59 26.5t60 -26.5t26 -59.5q0 -35 -26 -60.5t-60 -25.5t-59 25.5t-25 60.5v0z" />
    <glyph glyph-name="notequal" unicode="&#x2260;" horiz-adv-x="629" 
d="M581 191q0 -9 -5 -13.5t-14 -4.5h-199q-9 0 -14.5 -4.5t-6.5 -13.5l-41 -140q-3 -9 -8.5 -13t-14.5 -4h-98q-9 0 -12.5 4t-0.5 13l41 140q1 9 -2 13.5t-12 4.5h-118q-9 0 -13 4.5t-4 13.5v75q0 9 4 13.5t13 4.5h149q8 0 14 4t9 13l26 96q1 9 -2 13.5t-11 4.5h-185
q-9 0 -13 4t-4 13v66q0 9 4 13.5t13 4.5h211q9 0 14 4t8 13l37 137q3 9 8.5 13.5t14.5 4.5h98q9 0 12 -4.5t1 -13.5l-37 -137q-3 -9 0.5 -13t12.5 -4h106q9 0 14 -4.5t5 -13.5v-66q0 -9 -5 -13t-14 -4h-133q-9 0 -15 -4.5t-8 -13.5l-26 -96q-3 -9 0.5 -13t12.5 -4h169
q9 0 14 -4.5t5 -13.5v-75z" />
    <glyph glyph-name="equivalence" unicode="&#x2261;" 
d="M96 424v86h708v-86h-708zM95 257v86h709v-86h-709zM95 90v86h709v-86h-709z" />
    <glyph glyph-name="lessequal" unicode="&#x2264;" horiz-adv-x="533" 
d="M499 -32q0 -8 -5.5 -11.5t-14.5 -3.5h-425q-9 0 -13 3.5t-4 11.5v77q0 9 4 14t13 5h425q9 0 14.5 -5t5.5 -14v-77zM457 131q4 -8 2 -12.5t-11 -4.5h-140q-9 0 -16.5 3.5t-11.5 11.5l-212 220q-6 7 -6 14.5t6 15.5l212 231q4 6 11.5 10t16.5 4h140q9 0 11 -5t-2 -11
l-217 -231q-5 -8 -5 -13.5t5 -12.5z" />
    <glyph glyph-name="greaterequal" unicode="&#x2265;" horiz-adv-x="533" 
d="M37 -32v77q0 9 5 14t15 5h425q9 0 13 -5t4 -14v-77q0 -8 -4 -11.5t-13 -3.5h-425q-10 0 -15 3.5t-5 11.5zM79 131l217 220q4 7 4 12.5t-4 13.5l-217 231q-5 6 -2.5 11t11.5 5h140q9 0 16 -4t12 -10l212 -231q5 -8 5 -15.5t-5 -14.5l-212 -220q-5 -8 -12 -11.5t-16 -3.5
h-140q-9 0 -11.5 4.5t2.5 12.5z" />
    <glyph glyph-name="uni226A" unicode="&#x226a;" 
d="M879 -26l-60 -72q-77 53 -143 100t-128 90q-61 44 -120.5 85.5t-122.5 84.5q-9 5 -17 14t-8 24t10 25t21 18l510 356l55 -77l-466 -322zM639 -26l-59 -72q-78 53 -144 100t-128 90q-61 44 -120.5 85.5t-122.5 84.5q-8 5 -16.5 14t-8.5 24t10 25t21 18l510 356l55 -77
l-465 -322z" />
    <glyph glyph-name="uni226B" unicode="&#x226b;" 
d="M857 300q0 -7 -2 -12t-5 -9t-5.5 -7t-3.5 -4q-3 -2 -5 -3.5t-4 -2.5t-4 -2.5t-3 -2.5l-508 -355l-60 72l468 326l-465 322l56 77q64 -46 130 -90t131 -89t129.5 -90.5t127.5 -93.5q8 -7 15.5 -16t7.5 -20v0zM617 300q0 -13 -6.5 -21t-10.5 -11q-2 -2 -4 -3.5t-4 -2.5
t-4 -2.5t-3 -2.5l-508 -355l-60 72l468 326l-465 322l56 77q64 -46 129.5 -90t131.5 -89q65 -45 129.5 -90.5t127.5 -93.5q9 -7 16 -16t7 -20v0z" />
    <glyph glyph-name="propersubset" unicode="&#x2282;" 
d="M399 -5v-1q-81 0 -144.5 23t-108.5 65q-44 41 -67 97t-23 121q0 64 23 120t66 97q42 41 103 65t137 24h439v-101h-450q-57 0 -97.5 -19.5t-66.5 -49.5q-26 -29 -38 -64.5t-12 -66.5v-10q0 -33 11.5 -68t37.5 -64t66.5 -48t98.5 -19h450v-101h-425z" />
    <glyph glyph-name="propersuperset" unicode="&#x2283;" 
d="M514 -5l-438 -1v101h449q57 0 97.5 19t66.5 48q26 30 38 65t12 68v10q0 31 -12 66.5t-38 64.5t-66.5 48.5t-97.5 19.5h-449v102h438q75 0 136 -24t104 -65t66 -97t23 -120q0 -65 -23 -121t-66 -97t-104 -64t-136 -23v0z" />
    <glyph glyph-name="reflexsubset" unicode="&#x2286;" 
d="M400 113v-1q-89 0 -154 20.5t-107 56.5t-62.5 84.5t-20.5 104.5t20.5 105t61.5 85t102.5 57t144.5 21h439v-102h-450q-60 0 -101 -15t-67 -38q-25 -24 -36.5 -53.5t-11.5 -59.5q0 -31 11.5 -60.5t36.5 -52.5q26 -23 67 -37t101 -14h450v-101h-424zM56 -46v103h787v-103
h-787z" />
    <glyph glyph-name="reflexsuperset" unicode="&#x2287;" 
d="M514 113l-438 -1v101h450q58 0 99 14t67 37q25 24 37 53.5t12 60.5q0 30 -12 59.5t-37 52.5q-26 23 -67 38t-99 15h-450v103h438q82 0 143.5 -21t103.5 -57q41 -36 61.5 -85t20.5 -105t-20.5 -104.5t-61.5 -83.5q-41 -36 -103 -56.5t-144 -20.5v0zM56 -46v103h787v-103
h-787z" />
    <glyph glyph-name="uni2299" unicode="&#x2299;" 
d="M454 -130q-92 0 -171.5 33t-138.5 91q-58 57 -91.5 135.5t-33.5 169.5q0 89 33.5 167t92.5 135q59 58 138.5 91t171.5 33q89 0 166.5 -33t134.5 -91q57 -57 90 -135t33 -167q0 -91 -33 -169.5t-90 -136.5q-57 -57 -134.5 -90t-167.5 -33v0zM445 656q-72 0 -135 -28.5
t-110 -77.5t-74 -114.5t-27 -139.5q0 -75 27 -139.5t75 -112.5t112.5 -75.5t138.5 -27.5q73 0 136.5 27.5t111.5 75.5q47 48 74.5 112.5t27.5 139.5t-28 140.5t-76 114.5q-49 49 -114 77t-139 28v0zM451 92q-45 0 -83.5 15.5t-67.5 42.5q-28 28 -44 66t-16 83q0 44 16 81.5
t44 65.5q28 27 67 42.5t84 15.5t84 -15.5t67 -42.5t44 -64.5t16 -81.5q0 -45 -16.5 -83t-44.5 -66q-29 -28 -67.5 -43.5t-82.5 -15.5v0z" />
    <glyph glyph-name="perpendicular" unicode="&#x22a5;" 
d="M400 50v566h100v-566h305v-83h-710v83h305z" />
    <glyph glyph-name="uni2312" unicode="&#x2312;" 
d="M162 543h-91q12 59 45.5 107t83.5 83q49 34 111.5 53t131.5 19t131 -19t111 -53q50 -35 83.5 -83t46.5 -107h-91q-10 44 -36 78.5t-63 58.5t-84 37t-98 13q-105 0 -182.5 -49t-98.5 -138v0z" />
    <glyph glyph-name="uni2460" unicode="&#x2460;" 
d="M450 737q89 0 168.5 -34t138.5 -93t94 -138.5t35 -170.5t-34.5 -170.5t-93.5 -138.5t-138.5 -93t-169.5 -34q-91 0 -170.5 34t-138.5 93t-93 138.5t-34 170.5t34.5 170.5t93.5 138.5t138.5 93t169.5 34v0zM517 37h-108v367h-79v77q53 9 71 29.5t30 54.5h86v-528zM450 699
q-82 0 -154.5 -31t-126.5 -85t-85.5 -126.5t-31.5 -155.5t31 -155.5t85 -126.5t126.5 -85t155.5 -31q82 0 154.5 31t126.5 85t85.5 126.5t31.5 155.5t-32 155.5t-86 126.5t-126.5 85t-153.5 31v0z" />
    <glyph glyph-name="uni2461" unicode="&#x2461;" 
d="M450 737q89 0 168.5 -34t138.5 -93t94 -138.5t35 -170.5t-34.5 -170.5t-93.5 -138.5t-138.5 -93t-169.5 -34q-91 0 -170.5 34t-138.5 93t-93 138.5t-34 170.5t34.5 170.5t93.5 138.5t138.5 93t169.5 34v0zM594 130v-93h-295q1 15 4 35t13 47t30 60t55 74q30 34 48.5 56.5
t28.5 39.5t14 32.5t4 36.5q0 32 -11.5 50t-29.5 18q-17 0 -26.5 -14.5t-14.5 -33.5t-6.5 -38.5t-1.5 -28.5h-99q0 22 3.5 57.5t17.5 68.5t43.5 57.5t82.5 24.5q72 0 105.5 -46.5t33.5 -107.5q0 -59 -24.5 -98t-61.5 -84q-21 -26 -34 -43t-21 -29q-8 -13 -13 -22t-10 -19h165
zM450 699q-82 0 -154.5 -31t-126.5 -85t-85.5 -126.5t-31.5 -155.5t31 -155.5t85 -126.5t126.5 -85t155.5 -31q82 0 154.5 31t126.5 85t85.5 126.5t31.5 155.5t-32 155.5t-86 126.5t-126.5 85t-153.5 31v0z" />
    <glyph glyph-name="uni2462" unicode="&#x2462;" 
d="M450 737q89 0 168.5 -34t138.5 -93t94 -138.5t35 -170.5t-34.5 -170.5t-93.5 -138.5t-138.5 -93t-169.5 -34q-91 0 -170.5 34t-138.5 93t-93 138.5t-34 170.5t34.5 170.5t93.5 138.5t138.5 93t169.5 34v0zM440 275h-18v79q12 0 24 1t22 7q9 6 15.5 20t6.5 40q0 2 -0.5 12
t-3.5 22q-3 11 -10.5 20.5t-21.5 9.5t-22 -8t-12 -20q-4 -11 -5.5 -24.5t-2.5 -23.5h-100q3 79 38 124t104 45q55 0 95.5 -35t40.5 -107q0 -31 -6.5 -51t-14.5 -33q-9 -12 -18.5 -19t-15.5 -11q8 -6 19 -13.5t21 -21.5t17 -35.5t7 -54.5q0 -35 -9.5 -67t-28.5 -56t-46.5 -38
t-64.5 -14q-54 0 -83.5 22.5t-44.5 53.5q-14 31 -17.5 63.5t-3.5 51.5h100q2 -39 9.5 -68.5t39.5 -29.5q16 0 25.5 8.5t15.5 20.5q5 12 6.5 25.5t1.5 23.5q0 13 -2.5 27.5t-8.5 26.5q-6 11 -17.5 19t-30.5 8v0zM450 699q-82 0 -154.5 -31t-126.5 -85t-85.5 -126.5
t-31.5 -155.5t31 -155.5t85 -126.5t126.5 -85t155.5 -31q82 0 154.5 31t126.5 85t85.5 126.5t31.5 155.5t-32 155.5t-86 126.5t-126.5 85t-153.5 31v0z" />
    <glyph glyph-name="uni2463" unicode="&#x2463;" 
d="M450 737q89 0 168.5 -34t138.5 -93t94 -138.5t35 -170.5t-34.5 -170.5t-93.5 -138.5t-138.5 -93t-169.5 -34q-91 0 -170.5 34t-138.5 93t-93 138.5t-34 170.5t34.5 170.5t93.5 138.5t138.5 93t169.5 34v0zM279 244l167 321h96v-321h43v-93h-43v-114h-98v114h-165v93z
M360 244h86v161zM450 699q-82 0 -154.5 -31t-126.5 -85t-85.5 -126.5t-31.5 -155.5t31 -155.5t85 -126.5t126.5 -85t155.5 -31q82 0 154.5 31t126.5 85t85.5 126.5t31.5 155.5t-32 155.5t-86 126.5t-126.5 85t-153.5 31v0z" />
    <glyph glyph-name="uni2464" unicode="&#x2464;" 
d="M450 737q89 0 168.5 -34t138.5 -93t94 -138.5t35 -170.5t-34.5 -170.5t-93.5 -138.5t-138.5 -93t-169.5 -34q-91 0 -170.5 34t-138.5 93t-93 138.5t-34 170.5t34.5 170.5t93.5 138.5t138.5 93t169.5 34v0zM573 565v-93h-133l-13 -113q3 3 7.5 8t12.5 10q7 5 17 8.5
t24 3.5q46 0 78.5 -49t32.5 -125q0 -35 -8.5 -69t-26.5 -62q-18 -27 -47 -44t-69 -17q-69 0 -105 46.5t-39 115.5h97q0 -6 2.5 -17.5t7.5 -22.5q5 -12 14.5 -20.5t24.5 -8.5q20 0 34.5 25t14.5 73q0 1 -1 16.5t-5 33.5q-5 18 -14 33t-26 15q-10 0 -16 -5t-10 -12
q-4 -6 -6 -12.5t-3 -9.5h-101l35 292h221zM450 699q-82 0 -154.5 -31t-126.5 -85t-85.5 -126.5t-31.5 -155.5t31 -155.5t85 -126.5t126.5 -85t155.5 -31q82 0 154.5 31t126.5 85t85.5 126.5t31.5 155.5t-32 155.5t-86 126.5t-126.5 85t-153.5 31v0z" />
    <glyph glyph-name="uni2465" unicode="&#x2465;" 
d="M450 737q89 0 168.5 -34t138.5 -93t94 -138.5t35 -170.5t-34.5 -170.5t-93.5 -138.5t-138.5 -93t-169.5 -34q-91 0 -170.5 34t-138.5 93t-93 138.5t-34 170.5t34.5 170.5t93.5 138.5t138.5 93t169.5 34v0zM593 433h-100q-3 21 -11 37t-25 16q-20 0 -31.5 -19t-17.5 -44
t-8.5 -50.5t-2.5 -37.5q6 14 22.5 32t53.5 18q18 0 40 -8.5t41 -27.5q19 -20 32 -53t13 -82q0 -36 -9 -70.5t-26 -61.5q-18 -27 -44.5 -43t-62.5 -16q-59 0 -90.5 37.5t-46.5 85.5t-17 93t-2 60q0 56 9 107t29 89q19 38 48.5 61t70.5 23q43 0 68.5 -19.5t40.5 -44.5
q14 -25 19 -49t7 -33v0zM451 116q13 0 22.5 8.5t14.5 22.5q6 14 8.5 30.5t2.5 31.5q0 8 -1.5 23.5t-5.5 30.5q-5 15 -14.5 26.5t-25.5 11.5q-14 0 -23 -9t-15 -23q-6 -13 -8 -29t-2 -30q0 -7 1 -22.5t6 -31.5q4 -16 13.5 -28t26.5 -12v0zM450 699q-82 0 -154.5 -31
t-126.5 -85t-85.5 -126.5t-31.5 -155.5t31 -155.5t85 -126.5t126.5 -85t155.5 -31q82 0 154.5 31t126.5 85t85.5 126.5t31.5 155.5t-32 155.5t-86 126.5t-126.5 85t-153.5 31v0z" />
    <glyph glyph-name="uni2466" unicode="&#x2466;" 
d="M450 737q89 0 168.5 -34t138.5 -93t94 -138.5t35 -170.5t-34.5 -170.5t-93.5 -138.5t-138.5 -93t-169.5 -34q-91 0 -170.5 34t-138.5 93t-93 138.5t-34 170.5t34.5 170.5t93.5 138.5t138.5 93t169.5 34v0zM510 460h-189v94h289v-94q-14 -21 -34.5 -56t-41.5 -87
q-21 -53 -38 -125.5t-23 -166.5h-103q6 114 42 223.5t98 211.5v0zM450 699q-82 0 -154.5 -31t-126.5 -85t-85.5 -126.5t-31.5 -155.5t31 -155.5t85 -126.5t126.5 -85t155.5 -31q82 0 154.5 31t126.5 85t85.5 126.5t31.5 155.5t-32 155.5t-86 126.5t-126.5 85t-153.5 31v0z
" />
    <glyph glyph-name="uni2467" unicode="&#x2467;" 
d="M532 317q10 -6 21.5 -15.5t21.5 -24.5t17 -37t7 -54q0 -71 -37.5 -117t-111.5 -46t-111.5 46t-37.5 117q0 40 14.5 75t53.5 56q-22 13 -33.5 31t-16.5 36q-6 17 -6.5 30.5t-0.5 18.5q0 60 37 103t101 43t101 -43.5t37 -102.5q0 -5 -1 -18.5t-6 -30.5q-6 -18 -17 -36
t-32 -31v0zM450 486q-14 0 -22 -9.5t-11 -20.5q-4 -12 -4.5 -23t-0.5 -15q0 -7 1 -19t4 -24q4 -11 11.5 -19.5t21.5 -8.5q13 0 20.5 8.5t11.5 20.5q4 11 5 22.5t1 17.5q0 7 -1.5 19t-4.5 23q-4 11 -11.5 19.5t-20.5 8.5v0zM450 279q-18 0 -27.5 -10t-14.5 -23t-6 -27t-1 -21
q0 -11 1 -25t6 -27t15 -21.5t27 -8.5q16 0 26 9t15 22t6.5 27t1.5 24q0 9 -1.5 23t-6.5 27t-15 22t-26 9v0zM450 737q89 0 168.5 -34t138.5 -93t94 -138.5t35 -170.5t-34.5 -170.5t-93.5 -138.5t-138.5 -93t-169.5 -34q-91 0 -170.5 34t-138.5 93t-93 138.5t-34 170.5
t34.5 170.5t93.5 138.5t138.5 93t169.5 34v0zM450 699q-82 0 -154.5 -31t-126.5 -85t-85.5 -126.5t-31.5 -155.5t31 -155.5t85 -126.5t126.5 -85t155.5 -31q82 0 154.5 31t126.5 85t85.5 126.5t31.5 155.5t-32 155.5t-86 126.5t-126.5 85t-153.5 31v0z" />
    <glyph glyph-name="uni2468" unicode="&#x2468;" 
d="M450 737q89 0 168.5 -34t138.5 -93t94 -138.5t35 -170.5t-34.5 -170.5t-93.5 -138.5t-138.5 -93t-169.5 -34q-91 0 -170.5 34t-138.5 93t-93 138.5t-34 170.5t34.5 170.5t93.5 138.5t138.5 93t169.5 34v0zM308 169h99q3 -22 10.5 -37.5t25.5 -15.5t29.5 18.5t18.5 43.5
q6 25 8.5 50t3.5 39q-8 -15 -24 -33t-52 -18q-19 0 -41 8t-41 28t-31.5 53t-12.5 83q0 36 8.5 70t26.5 61q17 27 44 43.5t63 16.5q58 0 89.5 -37.5t46.5 -85.5t17.5 -93t2.5 -60q0 -59 -10 -110t-29 -89q-20 -38 -49.5 -59.5t-68.5 -21.5q-44 0 -69.5 19t-39.5 43
q-15 25 -19.5 49t-5.5 35v0zM449 486q-14 0 -23.5 -9t-14.5 -23q-6 -13 -8 -29.5t-2 -31.5q0 -9 1 -24.5t6 -30.5q4 -15 13.5 -26t26.5 -11q13 0 22.5 9t14.5 22q6 14 8.5 30t2.5 30q0 9 -2 24.5t-7 31.5q-5 15 -14 26.5t-24 11.5v0zM450 699q-82 0 -154.5 -31t-126.5 -85
t-85.5 -126.5t-31.5 -155.5t31 -155.5t85 -126.5t126.5 -85t155.5 -31q82 0 154.5 31t126.5 85t85.5 126.5t31.5 155.5t-32 155.5t-86 126.5t-126.5 85t-153.5 31v0z" />
    <glyph glyph-name="uni2469" unicode="&#x2469;" 
d="M590 568q47 0 75.5 -29t43.5 -70t20 -87.5t5 -80.5q0 -35 -5 -81.5t-20 -87.5t-43.5 -69.5t-75.5 -28.5q-48 0 -76 28.5t-43 70.5q-15 41 -19 87t-4 81q0 34 4 80.5t19 87.5t43 70t76 29v0zM590 479q-18 0 -28 -19t-14 -46q-5 -28 -5.5 -58.5t-0.5 -54.5q0 -25 0.5 -56
t5.5 -58t15 -45.5t28 -18.5t27.5 19t14.5 47q4 28 5 58.5t1 53.5q0 22 -1 53t-6 58q-4 28 -14 47.5t-28 19.5v0zM450 737q89 0 168.5 -34t138.5 -93t94 -138.5t35 -170.5t-34.5 -170.5t-93.5 -138.5t-138.5 -93t-169.5 -34q-91 0 -170.5 34t-138.5 93t-93 138.5t-34 170.5
t34.5 170.5t93.5 138.5t138.5 93t169.5 34v0zM351 554v-506h-105v352h-75v73q37 4 63.5 24.5t33.5 56.5h83zM450 699q-82 0 -154.5 -31t-126.5 -85t-85.5 -126.5t-31.5 -155.5t31 -155.5t85 -126.5t126.5 -85t155.5 -31q82 0 154.5 31t126.5 85t85.5 126.5t31.5 155.5
t-32 155.5t-86 126.5t-126.5 85t-153.5 31v0z" />
    <glyph glyph-name="uni246A" unicode="&#x246a;" 
d="M450 737q89 0 168.5 -34t138.5 -93t94 -138.5t35 -170.5t-34.5 -170.5t-93.5 -138.5t-138.5 -93t-169.5 -34q-91 0 -170.5 34t-138.5 93t-93 138.5t-34 170.5t34.5 170.5t93.5 138.5t138.5 93t169.5 34v0zM356 48h-104v352h-77v73q51 9 69 29.5t29 51.5h83v-506zM679 48
h-104v352h-77v73q51 9 69 29.5t29 51.5h83v-506zM450 699q-82 0 -154.5 -31t-126.5 -85t-85.5 -126.5t-31.5 -155.5t31 -155.5t85 -126.5t126.5 -85t155.5 -31q82 0 154.5 31t126.5 85t85.5 126.5t31.5 155.5t-32 155.5t-86 126.5t-126.5 85t-153.5 31v0z" />
    <glyph glyph-name="uni246B" unicode="&#x246b;" 
d="M450 737q89 0 168.5 -34t138.5 -93t94 -138.5t35 -170.5t-34.5 -170.5t-93.5 -138.5t-138.5 -93t-169.5 -34q-91 0 -170.5 34t-138.5 93t-93 138.5t-34 170.5t34.5 170.5t93.5 138.5t138.5 93t169.5 34v0zM350 48h-105v352h-75v73q51 9 69 29.5t28 51.5h83v-506zM726 137
v-89h-283q1 15 3.5 34.5t12.5 44.5q9 26 28.5 57.5t54.5 71.5q28 33 45.5 54t27.5 37t13.5 31t3.5 35q0 29 -10.5 47.5t-28.5 18.5q-17 0 -26.5 -14t-14.5 -32q-4 -19 -5.5 -37t-1.5 -27h-95q0 21 3 54.5t17 65.5t42.5 55.5t79.5 23.5q69 0 101.5 -45t32.5 -103
q0 -56 -23.5 -95t-59.5 -81q-20 -24 -32.5 -40t-20.5 -28t-13 -21l-10 -18h159zM450 699q-82 0 -154.5 -31t-126.5 -85t-85.5 -126.5t-31.5 -155.5t31 -155.5t85 -126.5t126.5 -85t155.5 -31q82 0 154.5 31t126.5 85t85.5 126.5t31.5 155.5t-32 155.5t-86 126.5t-126.5 85
t-153.5 31v0z" />
    <glyph glyph-name="uni246C" unicode="&#x246c;" 
d="M450 737q89 0 168.5 -34t138.5 -93t94 -138.5t35 -170.5t-34.5 -170.5t-93.5 -138.5t-138.5 -93t-169.5 -34q-91 0 -170.5 34t-138.5 93t-93 138.5t-34 170.5t34.5 170.5t93.5 138.5t138.5 93t169.5 34v0zM350 48h-105v352h-75v73q51 9 69 29.5t28 51.5h83v-506zM581 276
h-18v76q12 0 23.5 1t21.5 7t16 20t6 40q0 4 -1 13.5t-4 19.5t-10 18t-20 8q-14 0 -22 -8t-12 -19q-5 -11 -6.5 -24t-1.5 -23h-95q3 76 37 119.5t100 43.5q54 0 92.5 -35t38.5 -102q0 -58 -17.5 -78.5t-36.5 -30.5q8 -5 18.5 -12.5t20.5 -21.5q9 -13 16 -34t7 -53
q0 -33 -9.5 -63.5t-27.5 -53.5t-45 -36.5t-63 -13.5q-51 0 -79.5 21.5t-41.5 51.5q-14 30 -17 61t-3 50h94q1 -20 3.5 -37.5t7.5 -30.5q4 -13 13 -20t25 -7q22 0 35 19.5t13 55.5q0 26 -11 52t-47 26v0zM450 699q-82 0 -154.5 -31t-126.5 -85t-85.5 -126.5t-31.5 -155.5
t31 -155.5t85 -126.5t126.5 -85t155.5 -31q82 0 154.5 31t126.5 85t85.5 126.5t31.5 155.5t-32 155.5t-86 126.5t-126.5 85t-153.5 31v0z" />
    <glyph glyph-name="uni246D" unicode="&#x246d;" 
d="M443 246l159 308h94v-308h40v-90h-40v-108h-96v108h-157v90zM520 246h82v155zM450 737q89 0 168.5 -34t138.5 -93t94 -138.5t35 -170.5t-34.5 -170.5t-93.5 -138.5t-138.5 -93t-169.5 -34q-91 0 -170.5 34t-138.5 93t-93 138.5t-34 170.5t34.5 170.5t93.5 138.5t138.5 93
t169.5 34v0zM350 48h-105v352h-75v73q51 9 69 29.5t28 51.5h83v-506zM450 699q-82 0 -154.5 -31t-126.5 -85t-85.5 -126.5t-31.5 -155.5t31 -155.5t85 -126.5t126.5 -85t155.5 -31q82 0 154.5 31t126.5 85t85.5 126.5t31.5 155.5t-32 155.5t-86 126.5t-126.5 85t-153.5 31v0
z" />
    <glyph glyph-name="uni246E" unicode="&#x246e;" 
d="M350 48h-105v352h-75v73q51 9 69 29.5t28 51.5h83v-506zM709 554v-89h-129l-12 -108q5 6 19 17t40 11q45 0 76 -47.5t31 -119.5q0 -33 -8 -66t-26 -59q-17 -27 -45 -43t-67 -16q-26 0 -46 7t-34 17t-22.5 20.5t-12.5 16.5q-17 24 -20 48.5t-3 45.5h92q3 -27 15 -46.5
t34 -19.5q20 0 33.5 24.5t13.5 69.5q0 32 -10 63t-33 31q-10 0 -16.5 -4.5t-10.5 -10.5q-3 -6 -5 -12t-3 -10h-98l34 280h213zM450 737q89 0 168.5 -34t138.5 -93t94 -138.5t35 -170.5t-34.5 -170.5t-93.5 -138.5t-138.5 -93t-169.5 -34q-91 0 -170.5 34t-138.5 93
t-93 138.5t-34 170.5t34.5 170.5t93.5 138.5t138.5 93t169.5 34v0zM450 699q-82 0 -154.5 -31t-126.5 -85t-85.5 -126.5t-31.5 -155.5t31 -155.5t85 -126.5t126.5 -85t155.5 -31q82 0 154.5 31t126.5 85t85.5 126.5t31.5 155.5t-32 155.5t-86 126.5t-126.5 85t-153.5 31v0z
" />
    <glyph glyph-name="uni2474" unicode="&#x2474;" 
d="M522 12h-116v402h-85v83q57 9 77.5 32.5t32.5 60.5h91v-578zM888 301q0 -114 -33.5 -219t-96.5 -198h-42q13 21 33 59.5t39 92.5q18 53 32 120t14 145q0 77 -15 144t-35 120q-21 54 -42.5 92.5t-34.5 60.5h51q63 -93 96.5 -199t33.5 -218v0zM194 -116h-51q-64 93 -97 198
t-33 219q0 112 33 218t97 199h51q-14 -22 -35.5 -60.5t-41.5 -92.5q-21 -53 -35.5 -120t-14.5 -144q0 -78 14.5 -145t35.5 -120q20 -54 41.5 -92.5t35.5 -59.5v0z" />
    <glyph glyph-name="uni2475" unicode="&#x2475;" 
d="M605 114v-102h-317q1 16 4.5 38.5t14.5 51.5t32.5 65.5t59.5 81.5q31 37 51 61.5t31 43.5q11 18 15 35t4 40q0 33 -11.5 54t-32.5 21q-18 0 -28.5 -15.5t-15.5 -36.5t-6.5 -42t-1.5 -32h-107q1 24 4.5 63t18.5 75q15 37 46.5 63.5t88.5 26.5q40 0 68.5 -15t46.5 -38
q17 -24 25.5 -54.5t8.5 -61.5q0 -64 -27 -108t-66 -92q-23 -28 -36.5 -46.5t-21.5 -32.5q-9 -13 -14 -23.5t-11 -20.5h177zM888 301q0 -114 -33.5 -219t-96.5 -198h-42q13 21 33 59.5t39 92.5q18 53 32 120t14 145q0 77 -15 144t-35 120q-21 54 -42.5 92.5t-34.5 60.5h51
q63 -93 96.5 -199t33.5 -218v0zM194 -116h-51q-64 93 -97 198t-33 219q0 112 33 218t97 199h51q-14 -22 -35.5 -60.5t-41.5 -92.5q-21 -53 -35.5 -120t-14.5 -144q0 -78 14.5 -145t35.5 -120q20 -54 41.5 -92.5t35.5 -59.5v0z" />
    <glyph glyph-name="uni2476" unicode="&#x2476;" 
d="M440 272h-20v87h16q18 0 29.5 7.5t17.5 19.5q7 11 9.5 25t2.5 26q0 4 -1 15.5t-5 22.5q-3 11 -11.5 20t-23.5 9t-23.5 -9t-12.5 -22q-5 -13 -6.5 -27.5t-2.5 -25.5h-105q2 87 39.5 136.5t111.5 49.5q60 0 102.5 -39t42.5 -117q0 -34 -6.5 -56t-15.5 -36t-19 -22t-17 -12
q9 -6 20.5 -14.5t22.5 -23.5q10 -15 17.5 -39t7.5 -60q0 -38 -10 -73t-30 -61q-20 -27 -50 -42.5t-69 -15.5q-9 0 -26 2t-37 10t-40 25.5t-34 47.5q-8 16 -12.5 32.5t-6.5 31.5q-3 16 -3.5 31t-0.5 30h106q1 -22 3.5 -41.5t7.5 -33.5q5 -15 15 -23.5t28 -8.5q28 0 40.5 25.5
t12.5 60.5q0 13 -2.5 28.5t-8.5 28.5q-7 13 -19.5 22t-33.5 9v0zM888 301q0 -114 -33.5 -219t-96.5 -198h-42q13 21 33 59.5t39 92.5q18 53 32 120t14 145q0 77 -15 144t-35 120q-21 54 -42.5 92.5t-34.5 60.5h51q63 -93 96.5 -199t33.5 -218v0zM194 -116h-51
q-64 93 -97 198t-33 219q0 112 33 218t97 199h51q-14 -22 -35.5 -60.5t-41.5 -92.5q-21 -53 -35.5 -120t-14.5 -144q0 -78 14.5 -145t35.5 -120q20 -54 41.5 -92.5t35.5 -59.5v0z" />
    <glyph glyph-name="uni2477" unicode="&#x2477;" 
d="M269 238l180 352h102v-352h46v-102h-46v-124h-105v124h-177v102zM356 238h93v177zM888 301q0 -114 -33.5 -219t-96.5 -198h-42q13 21 33 59.5t39 92.5q18 53 32 120t14 145q0 77 -15 144t-35 120q-21 54 -42.5 92.5t-34.5 60.5h51q63 -93 96.5 -199t33.5 -218v0z
M194 -116h-51q-64 93 -97 198t-33 219q0 112 33 218t97 199h51q-14 -22 -35.5 -60.5t-41.5 -92.5q-21 -53 -35.5 -120t-14.5 -144q0 -78 14.5 -145t35.5 -120q20 -54 41.5 -92.5t35.5 -59.5v0z" />
    <glyph glyph-name="uni2478" unicode="&#x2478;" 
d="M583 590v-102h-143l-14 -123q4 4 9 10t13 10q8 5 18.5 8.5t25.5 3.5q25 0 46.5 -14.5t37.5 -40.5q16 -25 25 -60t9 -75q0 -38 -9 -76t-28 -68t-50 -49t-74 -19q-30 0 -52 8.5t-38 19.5q-15 12 -25 24t-14 19q-10 13 -15 27t-8 28q-3 13 -3.5 26.5t-0.5 26.5h105
q0 -6 2 -19t8 -25q5 -13 15.5 -22.5t27.5 -9.5q23 0 37.5 29t14.5 78q0 2 -1 19t-6 37q-5 19 -14.5 35t-27.5 16q-20 0 -28.5 -17.5t-8.5 -24.5h-110l39 320h237zM888 301q0 -114 -33.5 -219t-96.5 -198h-42q13 21 33 59.5t39 92.5q18 53 32 120t14 145q0 77 -15 144
t-35 120q-21 54 -42.5 92.5t-34.5 60.5h51q63 -93 96.5 -199t33.5 -218v0zM194 -116h-51q-64 93 -97 198t-33 219q0 112 33 218t97 199h51q-14 -22 -35.5 -60.5t-41.5 -92.5q-21 -53 -35.5 -120t-14.5 -144q0 -78 14.5 -145t35.5 -120q20 -54 41.5 -92.5t35.5 -59.5v0z" />
    <glyph glyph-name="uni2479" unicode="&#x2479;" 
d="M603 446h-106q-3 22 -12 40t-27 18q-21 0 -33.5 -21t-19.5 -48q-6 -28 -8.5 -55.5t-2.5 -40.5q3 7 9 16t15 18q9 8 23 14t34 6t43.5 -9t43.5 -31q21 -22 34.5 -58t13.5 -90q0 -40 -9.5 -77.5t-28.5 -67.5q-19 -29 -47.5 -47t-66.5 -18q-63 0 -97 41t-50 94
q-15 53 -17.5 102.5t-2.5 66.5q0 64 10.5 120t31.5 98q21 41 52.5 65t73.5 24q46 0 74 -21.5t43 -48.5q15 -28 20 -54t7 -36v0zM452 98q15 0 25 10t16 26q6 15 8.5 33t2.5 33q0 3 -1 19.5t-6 34.5t-15 32.5t-29 14.5q-15 0 -25 -9.5t-16 -24.5q-6 -14 -8 -31.5t-2 -33.5
q0 -10 1 -27.5t6 -34.5t15 -29.5t28 -12.5v0zM888 301q0 -114 -33.5 -219t-96.5 -198h-42q13 21 33 59.5t39 92.5q18 53 32 120t14 145q0 77 -15 144t-35 120q-21 54 -42.5 92.5t-34.5 60.5h51q63 -93 96.5 -199t33.5 -218v0zM194 -116h-51q-64 93 -97 198t-33 219
q0 112 33 218t97 199h51q-14 -22 -35.5 -60.5t-41.5 -92.5q-21 -53 -35.5 -120t-14.5 -144q0 -78 14.5 -145t35.5 -120q20 -54 41.5 -92.5t35.5 -59.5v0z" />
    <glyph glyph-name="uni247A" unicode="&#x247a;" 
d="M507 488h-203v102h310v-102q-14 -22 -36 -60.5t-45 -95.5q-22 -58 -40.5 -137.5t-25.5 -182.5h-110q6 127 45.5 247.5t104.5 228.5v0zM888 301q0 -114 -33.5 -219t-96.5 -198h-42q13 21 33 59.5t39 92.5q18 53 32 120t14 145q0 77 -15 144t-35 120q-21 54 -42.5 92.5
t-34.5 60.5h51q63 -93 96.5 -199t33.5 -218v0zM194 -116h-51q-64 93 -97 198t-33 219q0 112 33 218t97 199h51q-14 -22 -35.5 -60.5t-41.5 -92.5q-21 -53 -35.5 -120t-14.5 -144q0 -78 14.5 -145t35.5 -120q20 -54 41.5 -92.5t35.5 -59.5v0z" />
    <glyph glyph-name="uni247B" unicode="&#x247b;" 
d="M539 318l18 -12t24 -24q11 -16 20 -42t9 -65q0 -78 -40.5 -129t-118.5 -51t-119 50t-41 130q0 8 2 35.5t15 54.5q7 13 13.5 21.5t13.5 13.5q6 6 12.5 10t14.5 8q-22 15 -34 35t-17 38q-6 19 -6.5 34t-0.5 21q0 65 39 112.5t108 47.5q68 0 107.5 -47t39.5 -113
q0 -39 -14.5 -73t-44.5 -55v0zM451 504q-15 0 -23.5 -10t-12.5 -23q-5 -12 -5.5 -24.5t-0.5 -17.5q0 -8 1 -21t5 -26q5 -12 13 -21t23 -9t23 9.5t12 22.5t5 25t1 18q0 8 -1.5 21t-5.5 26q-4 12 -12.5 21t-21.5 9v0zM451 278q-19 0 -30 -11t-16 -26q-6 -15 -7 -30.5t-1 -23.5
q0 -12 1.5 -27t7.5 -29q5 -14 16 -23.5t29 -9.5t28.5 10.5t15.5 24.5q6 14 7.5 29.5t1.5 24.5t-1.5 24t-7.5 30q-5 15 -15.5 26t-28.5 11v0zM888 301q0 -114 -33.5 -219t-96.5 -198h-42q13 21 33 59.5t39 92.5q18 53 32 120t14 145q0 77 -15 144t-35 120q-21 54 -42.5 92.5
t-34.5 60.5h51q63 -93 96.5 -199t33.5 -218v0zM194 -116h-51q-64 93 -97 198t-33 219q0 112 33 218t97 199h51q-14 -22 -35.5 -60.5t-41.5 -92.5q-21 -53 -35.5 -120t-14.5 -144q0 -78 14.5 -145t35.5 -120q20 -54 41.5 -92.5t35.5 -59.5v0z" />
    <glyph glyph-name="uni247C" unicode="&#x247c;" 
d="M298 156h106q3 -23 11.5 -40.5t27.5 -17.5q20 0 32.5 20.5t19.5 48.5q7 27 9 54.5t3 41.5q-8 -15 -25 -34.5t-56 -19.5q-20 0 -43.5 8.5t-43.5 30.5q-21 21 -34.5 57.5t-13.5 91.5q0 40 9.5 77.5t28.5 67.5q19 29 47.5 46.5t66.5 17.5q62 0 96 -41.5t50 -93.5
q15 -53 18 -102.5t3 -65.5q0 -64 -10.5 -120t-31.5 -98t-52.5 -66t-73.5 -24q-47 0 -74.5 21t-42.5 48q-15 28 -20.5 54.5t-6.5 37.5v0zM449 504q-15 0 -25 -9.5t-16 -24.5t-8.5 -33t-2.5 -35q0 -9 1 -25.5t6 -33.5q6 -17 16 -29.5t28 -12.5q14 0 24 9t16 24t9 32.5t3 34.5
q0 10 -2 27.5t-7 34.5q-5 16 -15.5 28.5t-26.5 12.5v0zM888 301q0 -114 -33.5 -219t-96.5 -198h-42q13 21 33 59.5t39 92.5q18 53 32 120t14 145q0 77 -15 144t-35 120q-21 54 -42.5 92.5t-34.5 60.5h51q63 -93 96.5 -199t33.5 -218v0zM194 -116h-51q-64 93 -97 198t-33 219
q0 112 33 218t97 199h51q-14 -22 -35.5 -60.5t-41.5 -92.5q-21 -53 -35.5 -120t-14.5 -144q0 -78 14.5 -145t35.5 -120q20 -54 41.5 -92.5t35.5 -59.5v0z" />
    <glyph glyph-name="uni247D" unicode="&#x247d;" 
d="M595 594q51 0 81 -32t46 -77q16 -46 21 -96.5t5 -87.5q0 -38 -5 -88.5t-21 -96.5q-16 -45 -46 -76.5t-81 -31.5q-52 0 -82.5 31.5t-46.5 76.5q-16 46 -20.5 96.5t-4.5 88.5q0 37 4.5 87.5t20.5 96.5q16 45 46.5 77t82.5 32v0zM646 301q0 27 -1 61t-6 63q-5 30 -15.5 50.5
t-29.5 20.5q-20 0 -30 -21.5t-15 -51.5q-5 -31 -5.5 -64.5t-0.5 -57.5q0 -26 0.5 -60t5.5 -64t16 -50.5t31 -20.5q18 0 28.5 21t14.5 51q5 31 6 64.5t1 58.5v0zM234 23v386h-82v81q54 9 73.5 31t31.5 58h89v-556h-112zM888 301q0 -114 -33.5 -219t-96.5 -198h-42
q13 21 33 59.5t39 92.5q18 53 32 120t14 145q0 77 -15 144t-35 120q-21 54 -42.5 92.5t-34.5 60.5h51q63 -93 96.5 -199t33.5 -218v0zM194 -116h-51q-64 93 -97 198t-33 219q0 112 33 218t97 199h51q-14 -22 -35.5 -60.5t-41.5 -92.5q-21 -53 -35.5 -120t-14.5 -144
q0 -78 14.5 -145t35.5 -120q20 -54 41.5 -92.5t35.5 -59.5v0z" />
    <glyph glyph-name="uni247E" unicode="&#x247e;" 
d="M350 23h-112v386h-81v81q54 9 73 31t31 58h89v-556zM696 23h-112v386h-83v81q54 9 74 31t32 58h89v-556zM888 301q0 -114 -33.5 -219t-96.5 -198h-42q13 21 33 59.5t39 92.5q18 53 32 120t14 145q0 77 -15 144t-35 120q-21 54 -42.5 92.5t-34.5 60.5h51q63 -93 96.5 -199
t33.5 -218v0zM194 -116h-51q-64 93 -97 198t-33 219q0 112 33 218t97 199h51q-14 -22 -35.5 -60.5t-41.5 -92.5q-21 -53 -35.5 -120t-14.5 -144q0 -78 14.5 -145t35.5 -120q20 -54 41.5 -92.5t35.5 -59.5v0z" />
    <glyph glyph-name="uni247F" unicode="&#x247f;" 
d="M345 23h-113v386h-81v81q54 9 73 31t31 58h90v-556zM744 121v-98h-305q0 14 3 35.5t14 50.5q10 28 31 63.5t57 79.5q31 36 50 59t30 41q10 18 14 34t4 38q0 33 -12.5 52.5t-30.5 19.5t-28 -15t-15 -35t-6 -40.5t-1 -30.5h-101q0 24 3 61t18 72q14 35 44 60.5t85 25.5
q43 0 70.5 -16.5t44.5 -41.5q16 -24 22.5 -52t6.5 -50q0 -52 -25.5 -99t-63.5 -95q-21 -27 -33 -43t-20 -28t-14 -22.5t-14 -25.5h172zM888 301q0 -114 -33.5 -219t-96.5 -198h-42q13 21 33 59.5t39 92.5q18 53 32 120t14 145q0 77 -15 144t-35 120q-21 54 -42.5 92.5
t-34.5 60.5h51q63 -93 96.5 -199t33.5 -218v0zM194 -116h-51q-64 93 -97 198t-33 219q0 112 33 218t97 199h51q-14 -22 -35.5 -60.5t-41.5 -92.5q-21 -53 -35.5 -120t-14.5 -144q0 -78 14.5 -145t35.5 -120q20 -54 41.5 -92.5t35.5 -59.5v0z" />
    <glyph glyph-name="uni2480" unicode="&#x2480;" 
d="M345 23h-113v386h-81v81q54 9 73 31t31 58h90v-556zM586 273h-21v84h16q18 0 29 7t17 18t8.5 24t2.5 25q0 4 -1 15t-4 22q-4 11 -12 19.5t-22 8.5q-15 0 -23 -8.5t-13 -21.5q-4 -12 -5.5 -26t-2.5 -24h-103q3 83 39.5 130.5t107.5 47.5q57 0 99.5 -37.5t42.5 -112.5
q0 -33 -6.5 -54t-15.5 -35q-9 -13 -19 -20t-16 -11q8 -6 19 -14t21 -23t17.5 -38t7.5 -57q0 -37 -10 -70.5t-29 -58.5q-19 -26 -48 -40.5t-67 -14.5q-55 0 -85.5 24.5t-45.5 57.5q-15 34 -18.5 67.5t-3.5 51.5h102q1 -21 3 -39.5t7 -33.5q6 -14 15.5 -22t27.5 -8
q27 0 38.5 25t11.5 57q0 30 -12 57.5t-49 27.5v0zM888 301q0 -114 -33.5 -219t-96.5 -198h-42q13 21 33 59.5t39 92.5q18 53 32 120t14 145q0 77 -15 144t-35 120q-21 54 -42.5 92.5t-34.5 60.5h51q63 -93 96.5 -199t33.5 -218v0zM194 -116h-51q-64 93 -97 198t-33 219
q0 112 33 218t97 199h51q-14 -22 -35.5 -60.5t-41.5 -92.5q-21 -53 -35.5 -120t-14.5 -144q0 -78 14.5 -145t35.5 -120q20 -54 41.5 -92.5t35.5 -59.5v0z" />
    <glyph glyph-name="uni2481" unicode="&#x2481;" 
d="M438 241l170 338h100v-338h43v-99h-43v-119h-102v119h-168v99zM519 241h89v169zM345 23h-113v386h-81v81q54 9 73 31t31 58h90v-556zM888 301q0 -114 -33.5 -219t-96.5 -198h-42q13 21 33 59.5t39 92.5q18 53 32 120t14 145q0 77 -15 144t-35 120q-21 54 -42.5 92.5
t-34.5 60.5h51q63 -93 96.5 -199t33.5 -218v0zM194 -116h-51q-64 93 -97 198t-33 219q0 112 33 218t97 199h51q-14 -22 -35.5 -60.5t-41.5 -92.5q-21 -53 -35.5 -120t-14.5 -144q0 -78 14.5 -145t35.5 -120q20 -54 41.5 -92.5t35.5 -59.5v0z" />
    <glyph glyph-name="uni2482" unicode="&#x2482;" 
d="M345 23h-113v386h-81v81q54 9 73 31t31 58h90v-556zM721 579v-98h-137l-14 -119q5 6 20.5 18.5t42.5 12.5q48 0 81 -51.5t33 -131.5q0 -36 -8.5 -72t-27.5 -65q-18 -29 -48 -47t-72 -18q-28 0 -49 8t-36 19t-24.5 22t-13.5 18q-9 13 -13.5 26.5t-6.5 26.5
q-3 14 -3.5 26.5t-0.5 24.5h99q0 -6 2 -18t8 -25q5 -12 15 -21t27 -9q21 0 35.5 26t14.5 77q0 6 -1.5 23t-5.5 35q-5 17 -14.5 31t-25.5 14q-21 0 -28.5 -17t-8.5 -24h-105l37 308h228zM888 301q0 -114 -33.5 -219t-96.5 -198h-42q13 21 33 59.5t39 92.5q18 53 32 120
t14 145q0 77 -15 144t-35 120q-21 54 -42.5 92.5t-34.5 60.5h51q63 -93 96.5 -199t33.5 -218v0zM194 -116h-51q-64 93 -97 198t-33 219q0 112 33 218t97 199h51q-14 -22 -35.5 -60.5t-41.5 -92.5q-21 -53 -35.5 -120t-14.5 -144q0 -78 14.5 -145t35.5 -120
q20 -54 41.5 -92.5t35.5 -59.5v0z" />
    <glyph glyph-name="uni249C" unicode="&#x249c;" 
d="M663 64h-98q-6 9 -9.5 22t-4.5 28q-19 -22 -56 -41.5t-78 -23.5q-59 -6 -103.5 21.5t-50.5 91.5q-8 63 22.5 104.5t77.5 58.5q17 6 35.5 10t35.5 7t32.5 5.5t28.5 5.5q18 4 37 13t19 35q0 23 -21.5 39t-65.5 16q-42 0 -66 -22.5t-21 -56.5h-93q-3 37 10.5 69t37.5 54
q25 23 59.5 36t73.5 13q37 0 70.5 -10.5t57.5 -30.5q25 -19 39.5 -47t14.5 -62v-258q0 -30 7.5 -53t8.5 -24v0zM551 254v29q-7 -6 -19 -11.5t-23 -8.5q-12 -3 -27 -6t-29 -6t-27 -6t-21 -6q-24 -11 -36.5 -26.5t-6.5 -37.5q3 -20 33 -23.5t55 4.5q38 9 69.5 37.5t31.5 60.5
v0zM878 300q0 -77 -13.5 -141t-33.5 -116q-21 -51 -44.5 -90t-44.5 -66h-53q63 96 89.5 200.5t26.5 212.5q0 105 -25.5 211.5t-90.5 201.5h53q21 -29 45 -68t44 -91q20 -51 33.5 -114.5t13.5 -139.5v0zM212 -113h-54q-21 27 -45 66t-44 90q-21 52 -34 116t-13 141
q0 76 13 139.5t33 114.5q20 52 44 91t46 68h54q-66 -95 -91.5 -201.5t-25.5 -211.5q0 -108 26 -212.5t91 -200.5v0z" />
    <glyph glyph-name="uni249D" unicode="&#x249d;" 
d="M669 212q0 -56 -13.5 -102t-37.5 -80q-24 -33 -58 -51.5t-76 -18.5q-38 0 -70 15.5t-56 44.5v-44h-96v645h96v-220q24 29 56 45t70 16q42 0 76 -19t58 -52t37.5 -79t13.5 -100v0zM571 212q0 67 -28 111t-79 44q-48 0 -77 -44t-29 -111q0 -69 29 -112.5t77 -43.5
q51 0 79 43.5t28 112.5v0zM878 300q0 -77 -13.5 -141t-33.5 -116q-21 -51 -44.5 -90t-44.5 -66h-53q63 96 89.5 200.5t26.5 212.5q0 105 -25.5 211.5t-90.5 201.5h53q21 -29 45 -68t44 -91q20 -51 33.5 -114.5t13.5 -139.5v0zM212 -113h-54q-21 27 -45 66t-44 90
q-21 52 -34 116t-13 141q0 76 13 139.5t33 114.5q20 52 44 91t46 68h54q-66 -95 -91.5 -201.5t-25.5 -211.5q0 -108 26 -212.5t91 -200.5v0z" />
    <glyph glyph-name="uni249E" unicode="&#x249e;" 
d="M652 215q-7 -32 -23 -62t-40 -54t-57 -38t-73 -14q-48 0 -85.5 19.5t-63.5 53.5q-26 35 -40 80.5t-14 98.5q0 51 14 96.5t40 79.5q26 35 63.5 55t85.5 20q41 0 74 -16t58 -41q25 -24 40 -54t21 -57h-104q-5 20 -25.5 45t-62.5 25q-51 0 -79 -45t-28 -108q0 -64 28 -108.5
t79 -44.5q37 0 59 22.5t28 46.5h105zM878 300q0 -77 -13.5 -141t-33.5 -116q-21 -51 -44.5 -90t-44.5 -66h-53q63 96 89.5 200.5t26.5 212.5q0 105 -25.5 211.5t-90.5 201.5h53q21 -29 45 -68t44 -91q20 -51 33.5 -114.5t13.5 -139.5v0zM212 -113h-54q-21 27 -45 66t-44 90
q-21 52 -34 116t-13 141q0 76 13 139.5t33 114.5q20 52 44 91t46 68h54q-66 -95 -91.5 -201.5t-25.5 -211.5q0 -108 26 -212.5t91 -200.5v0z" />
    <glyph glyph-name="uni249F" unicode="&#x249f;" 
d="M638 -20h-96v43q-24 -29 -55.5 -44t-68.5 -15q-44 0 -78.5 18.5t-58.5 51.5q-24 34 -37 80t-13 101q0 54 13 100t37 79q24 34 58.5 53t78.5 19q37 0 68.5 -15.5t55.5 -42.5v216h96v-644zM542 215q0 68 -26.5 112t-78.5 44q-53 0 -79 -44t-26 -112t26 -112t79 -44
q52 0 78.5 44t26.5 112v0zM878 300q0 -77 -13.5 -141t-33.5 -116q-21 -51 -44.5 -90t-44.5 -66h-53q63 96 89.5 200.5t26.5 212.5q0 105 -25.5 211.5t-90.5 201.5h53q21 -29 45 -68t44 -91q20 -51 33.5 -114.5t13.5 -139.5v0zM212 -113h-54q-21 27 -45 66t-44 90
q-21 52 -34 116t-13 141q0 76 13 139.5t33 114.5q20 52 44 91t46 68h54q-66 -95 -91.5 -201.5t-25.5 -211.5q0 -108 26 -212.5t91 -200.5v0z" />
    <glyph glyph-name="uni24A0" unicode="&#x24a0;" 
d="M652 260h-304q0 -18 7.5 -38t20.5 -37t31.5 -28t42.5 -11q35 0 55 17.5t26 30.5l107 1q-8 -26 -22 -52.5t-36 -47.5t-53.5 -34.5t-74.5 -13.5q-46 0 -83.5 19.5t-64.5 53.5t-42 80t-15 98t14 98t41 81q26 34 63.5 54t84.5 20q40 0 78.5 -18.5t66.5 -54.5
q29 -36 44.5 -90.5t12.5 -127.5v0zM547 351q-6 38 -31 69t-66 31q-42 0 -67 -29.5t-31 -70.5h195zM878 300q0 -77 -13.5 -141t-33.5 -116q-21 -51 -44.5 -90t-44.5 -66h-53q63 96 89.5 200.5t26.5 212.5q0 105 -25.5 211.5t-90.5 201.5h53q21 -29 45 -68t44 -91
q20 -51 33.5 -114.5t13.5 -139.5v0zM212 -113h-54q-21 27 -45 66t-44 90q-21 52 -34 116t-13 141q0 76 13 139.5t33 114.5q20 52 44 91t46 68h54q-66 -95 -91.5 -201.5t-25.5 -211.5q0 -108 26 -212.5t91 -200.5v0z" />
    <glyph glyph-name="uni24A1" unicode="&#x24a1;" 
d="M550 350h-58v-370h-95v370h-50v92h50v53q0 32 5.5 52t20.5 37q12 15 30.5 24t42.5 9h54v-92h-14.5t-11.5 -1t-9.5 -2t-8.5 -4q-9 -8 -11.5 -17.5t-2.5 -25.5v-33h58v-92zM878 300q0 -77 -13.5 -141t-33.5 -116q-21 -51 -44.5 -90t-44.5 -66h-53q63 96 89.5 200.5
t26.5 212.5q0 105 -25.5 211.5t-90.5 201.5h53q21 -29 45 -68t44 -91q20 -51 33.5 -114.5t13.5 -139.5v0zM212 -113h-54q-21 27 -45 66t-44 90q-21 52 -34 116t-13 141q0 76 13 139.5t33 114.5q20 52 44 91t46 68h54q-66 -95 -91.5 -201.5t-25.5 -211.5q0 -108 26 -212.5
t91 -200.5v0z" />
    </font>
</defs>
</svg>
